<svg width="93" height="23" viewBox="0 0 93 23" fill="none" xmlns="http://www.w3.org/2000/svg">
<path d="M19 9.5L7 0L5.5 2L12.5 7.5L0 5.5V7.5L16.5 10.5L7.5 13.5L8.5 15.5L18.5 11.5H23.5L14.5 19.5L16 21L22 15.5V22.5H24V14L26.5 11.5H30.5V9.5H26.5L22 0.5L19.5 1L24 9.5H19Z" fill="#BEAC83"/>
<path fill-rule="evenodd" clip-rule="evenodd" d="M31.5 17.1825V3.61111L36.5 2.71041V5.5H37.5V2.53026L43.2192 1.5L56.5 4.10081V8.5H57.5V4.29665L69.5 6.64664V11.5H70.5V6.84247L92.5 11.1508L77.5 13.9965V11.5H76.5V14.1862L61.5 17.0319V14.5H60.5V17.2216L43.2192 20.5L35.5 18.3149V14.5H34.5V18.0318L31.5 17.1825ZM53.5 11.5H52.5V16.5H53.5V11.5ZM43.5 5.5H44.5V9.5H43.5V5.5Z" fill="#BEAC83"/>
</svg>
