<svg width="61" height="48" viewBox="0 0 61 48" fill="none" xmlns="http://www.w3.org/2000/svg">
<g clip-path="url(#clip0)">
<path fill-rule="evenodd" clip-rule="evenodd" d="M16.2474 32.7634L12.7008 23.3551L16.1364 21.7012L15.2374 17.7037L11.9678 16.2876L15.4961 1.29346L11.2256 0L8.54039 13.1107L5.30198 0L0.581055 1.30913L5.13868 16.1005L4.70016 20.3939L5.9836 23.1643C5.9836 23.1643 2.98188 30.2917 2.5186 31.5307C2.5186 31.5307 11.9604 32.6804 14.7291 32.7163C15.4438 32.7246 16.2474 32.7634 16.2474 32.7634Z" fill="#BEAC83"/>
<path d="M1.40332 32.3506C1.40332 32.3506 10.4158 33.5104 14.7294 33.6763C20.6475 33.904 39.8083 33.9667 45.7182 33.7722C50.3162 33.621 60.1873 32.3515 60.1873 32.3515C60.1873 32.3515 59.8925 33.9722 59.5755 35.6622C57.4615 36.0524 54.6218 36.5694 51.862 37.0187C48.7093 37.5321 45.6969 37.9511 43.9856 37.9999C42.476 38.0431 33.6315 37.9918 26.1057 37.9481C21.7159 37.9226 17.7747 37.8998 15.9999 37.8998C14.1337 37.8998 11.189 37.4296 8.29169 36.8883C7.07866 36.6616 5.87279 36.4222 4.76965 36.2031C3.73969 35.9986 2.79927 35.8119 2.0262 35.6699C1.70129 34.0487 1.40332 32.3506 1.40332 32.3506Z" fill="#BEAC83"/>
<path d="M52.0227 38.0057C54.6301 37.5812 57.3068 37.0969 59.3765 36.7158C59.1586 37.8597 58.9574 38.8814 58.8635 39.265C58.6591 40.1024 58.3476 40.9369 57.9804 41.7359C53.3806 42.3765 45.8998 42.6997 44.1832 42.6997H15.9999C12.8682 42.6997 7.84701 42.2144 4.48129 41.7762C3.69478 40.6257 3.01596 39.4258 2.63814 38.3035C2.53081 37.9841 2.39162 37.4044 2.24555 36.7279C2.9182 36.8549 3.69515 37.0093 4.53864 37.1768C5.64268 37.3962 6.86071 37.6382 8.10802 37.8712C10.9907 38.4099 14.026 38.8998 15.9999 38.8998C17.7531 38.8998 21.6621 38.9224 26.0294 38.9477C33.5752 38.9914 42.489 39.0431 44.0141 38.9995C45.8028 38.9484 48.8804 38.5174 52.0227 38.0057Z" fill="#BEAC83"/>
<path d="M5.28066 42.8848C7.22285 45.4506 9.40485 47.5273 9.40485 47.5273L30.7958 48.9609L54.1784 47.5282C54.1784 47.5282 56.0084 45.4845 57.4416 42.8157C52.7468 43.4068 45.8353 43.6997 44.1832 43.6997H15.9999C13.091 43.6997 8.62102 43.292 5.28066 42.8848Z" fill="#BEAC83"/>
<path fill-rule="evenodd" clip-rule="evenodd" d="M45.239 32.826L48.7856 23.3689L45.35 21.715L46.249 17.7175L49.5186 16.3015L45.9903 1.30729L50.2608 0.0138262L52.946 13.1245L56.1844 0.0138262L60.9054 1.32296L56.3477 16.1143L56.7863 20.4077L55.5028 23.1781C55.5028 23.1781 58.5045 30.3055 58.9678 31.5446C58.9678 31.5446 48.4893 32.8279 45.7169 32.8122C45.0032 32.8076 45.239 32.826 45.239 32.826Z" fill="#BEAC83"/>
</g>
<defs>
<clipPath id="clip0">
<rect width="60.3243" height="48" fill="white" transform="translate(0.581055)"/>
</clipPath>
</defs>
</svg>
