<svg width="446" height="106" viewBox="0 0 446 106" fill="none" xmlns="http://www.w3.org/2000/svg">
<path d="M201.5 8.50001C201.5 19.5 201.5 86 201.5 104.5H204.5C204 88.6667 203.5 57.4 203.5 53C203.5 47.5 201.5 -2.49999 201.5 8.50001Z" fill="#BEAC83"/>
<path fill-rule="evenodd" clip-rule="evenodd" d="M211.324 63.692C208.705 66.8858 206.767 68.1753 203.224 69.9472L202.776 69.0528C206.233 67.3247 208.045 66.1142 210.551 63.058C212.591 60.5701 215.072 56.8814 219.207 50.7344C220.227 49.2187 221.347 47.5536 222.586 45.7201L223.414 46.2799C222.185 48.1 221.07 49.7568 220.053 51.2682C215.914 57.4221 213.397 61.1642 211.324 63.692Z" fill="#BEAC83"/>
<path fill-rule="evenodd" clip-rule="evenodd" d="M222.009 53.1954C220.433 54.5194 218.296 56.1533 215.787 57.9096L215.213 57.0904C217.704 55.3467 219.817 53.7306 221.366 52.4296C222.141 51.7788 222.77 51.2108 223.232 50.748C223.711 50.2698 223.968 49.9457 224.053 49.7764L224.947 50.2236C224.782 50.5543 224.414 50.9802 223.939 51.4551C223.449 51.9455 222.797 52.5337 222.009 53.1954Z" fill="#BEAC83"/>
<path fill-rule="evenodd" clip-rule="evenodd" d="M204.029 52.5039C203.663 53.0855 203.295 53.6719 202.924 54.265L202.076 53.735C202.446 53.1423 202.814 52.5576 203.178 51.979C206.507 46.6815 209.513 41.8998 211.465 36.2127C213.623 29.9238 214.496 22.5051 213.005 12.0707L213.995 11.9293C215.504 22.4949 214.627 30.0762 212.41 36.5373C210.419 42.3403 207.35 47.2213 204.029 52.5039Z" fill="#BEAC83"/>
<path fill-rule="evenodd" clip-rule="evenodd" d="M192.5 17C192.5 25.8579 196.439 35.2599 202.925 45.7368L202.075 46.2632C195.561 35.7401 191.5 26.1421 191.5 17H192.5ZM184.49 34.9019C184.823 36.5663 185.789 41.2974 186.989 46.8952C187.726 50.3339 189.828 55.7831 192.679 60.5561C194.104 62.9403 195.704 65.1375 197.4 66.8253C199.101 68.5186 200.86 69.662 202.598 70.0097L202.402 70.9903C200.39 70.588 198.462 69.2939 196.694 67.534C194.921 65.7687 193.271 63.4972 191.821 61.0689C188.922 56.2169 186.774 50.6661 186.011 47.1048C184.811 41.5026 183.843 36.767 183.51 35.0981L184.49 34.9019Z" fill="#BEAC83"/>
<path fill-rule="evenodd" clip-rule="evenodd" d="M198.687 21.7752C199.756 26.4122 201.076 30.923 202.432 33.2481L201.568 33.7519C200.124 31.277 198.778 26.6211 197.713 21.9998C196.643 17.3558 195.84 12.6647 195.504 10.064L196.496 9.93601C196.827 12.502 197.624 17.1608 198.687 21.7752ZM216.998 16.9502C217.176 18.7319 216.879 21.9564 214.454 27.2095L213.546 26.7905C215.921 21.6436 216.158 18.6014 216.002 17.0498L216.998 16.9502ZM221.499 24.0356C221.331 26.382 220.695 32.1858 219.482 36.6316C218.726 39.4052 217.709 42.585 215.295 46.3332C212.884 50.0766 209.094 54.3653 202.812 59.3904L202.188 58.6096C208.406 53.6347 212.116 49.4234 214.455 45.7918C216.791 42.1649 217.774 39.0948 218.518 36.3684C219.705 32.0142 220.336 26.2846 220.501 23.9644L221.499 24.0356Z" fill="#BEAC83"/>
<path fill-rule="evenodd" clip-rule="evenodd" d="M223.398 30.5225C223.662 30.6043 223.809 30.8845 223.728 31.1482C223.599 31.564 223.474 31.9794 223.35 32.3938C222.601 34.8983 221.863 37.3633 220.171 39.6194C219.823 40.0829 219.419 40.5123 219.023 40.9338C218.853 41.1146 218.685 41.2939 218.522 41.4738C217.966 42.0904 217.42 42.7784 216.947 43.7236C216.824 43.9706 216.523 44.0707 216.276 43.9472C216.029 43.8237 215.929 43.5234 216.053 43.2764C216.58 42.2216 217.19 41.4584 217.78 40.8042C217.974 40.5883 218.161 40.3903 218.339 40.2006C218.716 39.8006 219.057 39.4373 219.371 39.0194C220.948 36.9168 221.631 34.6394 222.384 32.1305C222.51 31.7108 222.638 31.2847 222.772 30.8518C222.854 30.5881 223.134 30.4406 223.398 30.5225Z" fill="#BEAC83"/>
<path fill-rule="evenodd" clip-rule="evenodd" d="M209.616 26.0001C209.892 25.9952 210.12 26.2151 210.125 26.4912C210.148 27.8096 210.195 29.1433 210.241 30.4822C210.308 32.3904 210.375 34.309 210.375 36.2083C210.375 37.1337 210.316 38.0509 210.257 38.9508C210.254 38.9919 210.251 39.0329 210.248 39.0739C210.191 39.9362 210.135 40.7823 210.125 41.6307C210.122 41.9068 209.895 42.1281 209.619 42.125C209.343 42.1218 209.122 41.8954 209.125 41.6193C209.135 40.7425 209.193 39.8712 209.25 39.0157C209.253 38.9719 209.256 38.9282 209.259 38.8845C209.319 37.9819 209.375 37.096 209.375 36.2083C209.375 34.3135 209.309 32.4385 209.243 30.5534C209.196 29.2138 209.149 27.8692 209.125 26.5088C209.12 26.2327 209.34 26.0049 209.616 26.0001Z" fill="#BEAC83"/>
<path fill-rule="evenodd" clip-rule="evenodd" d="M207.212 9.75757C207.484 9.80545 207.665 10.0647 207.617 10.3367C207.576 10.573 207.536 10.8134 207.496 11.0566C207.312 12.1612 207.12 13.323 206.712 14.4237C206.507 14.9783 206.3 15.517 206.095 16.0529C205.842 16.7135 205.591 17.3697 205.345 18.0459C204.866 19.3617 204.213 21.3028 203.649 23.263C203.082 25.2327 202.616 27.1867 202.498 28.5433C202.474 28.8184 202.232 29.022 201.957 28.9981C201.682 28.9742 201.478 28.7318 201.502 28.4567C201.629 26.9964 202.119 24.9627 202.688 22.9865C203.259 21.0009 203.92 19.0379 204.405 17.7041C204.649 17.0341 204.909 16.3529 205.168 15.6766C205.375 15.1374 205.58 14.6013 205.774 14.0763C206.146 13.0738 206.32 12.0272 206.503 10.9277C206.545 10.6757 206.587 10.421 206.633 10.1633C206.68 9.89135 206.94 9.70969 207.212 9.75757Z" fill="#BEAC83"/>
<path fill-rule="evenodd" clip-rule="evenodd" d="M205.246 4.13993C205.514 4.2069 205.677 4.47837 205.61 4.74627C205.304 5.97085 204.913 7.12338 204.435 8.28714C204.152 8.97474 203.884 9.50533 203.641 9.98831L203.639 9.99208C203.393 10.4775 203.176 10.908 202.977 11.4213C202.583 12.4391 202.246 13.819 201.998 16.5453C201.973 16.8203 201.73 17.0229 201.455 16.9979C201.18 16.9729 200.977 16.7297 201.002 16.4547C201.254 13.681 201.603 12.1987 202.045 11.0598C202.263 10.4977 202.5 10.0281 202.742 9.549L202.746 9.54126C202.99 9.05801 203.243 8.55712 203.51 7.90731C203.972 6.78193 204.347 5.67541 204.64 4.50373C204.707 4.23583 204.978 4.07295 205.246 4.13993Z" fill="#BEAC83"/>
<path fill-rule="evenodd" clip-rule="evenodd" d="M196.371 4.50001C196.648 4.49801 196.873 4.72024 196.875 4.99638C196.891 7.24352 197.727 8.71997 198.817 10.6482C199.017 11.0013 199.225 11.3695 199.439 11.7604C199.659 12.163 199.888 12.5227 200.13 12.9017C200.228 13.0544 200.327 13.2103 200.429 13.3733C200.777 13.9317 201.129 14.5426 201.44 15.3098C202.063 16.8475 202.5 18.9599 202.5 22.5C202.5 22.7761 202.276 23 202 23C201.724 23 201.5 22.7761 201.5 22.5C201.5 19.0401 201.072 17.0659 200.513 15.6853C200.233 14.9934 199.914 14.4372 199.58 13.9024C199.491 13.7587 199.398 13.6139 199.305 13.4672C199.056 13.0777 198.799 12.6744 198.561 12.2396C198.362 11.8757 198.163 11.5243 197.967 11.1798C196.869 9.24697 195.893 7.52893 195.875 5.00362C195.873 4.72749 196.095 4.50201 196.371 4.50001Z" fill="#BEAC83"/>
<path fill-rule="evenodd" clip-rule="evenodd" d="M186.487 29.5194C186.752 29.4432 187.029 29.5966 187.106 29.862C187.788 32.2362 188.988 34.6711 190.152 36.9006C191.109 38.7352 192.851 40.5071 195.045 42.7402L195.091 42.7867C197.288 45.0222 199.882 47.6745 202.407 51.2094C202.567 51.4341 202.515 51.7464 202.291 51.9069C202.066 52.0674 201.754 52.0153 201.593 51.7906C199.118 48.3255 196.573 45.722 194.378 43.4876C194.333 43.4423 194.289 43.3972 194.244 43.3522C192.124 41.195 190.293 39.3314 189.265 37.3633C188.101 35.1328 186.857 32.6189 186.144 30.138C186.068 29.8726 186.222 29.5957 186.487 29.5194Z" fill="#BEAC83"/>
<path fill-rule="evenodd" clip-rule="evenodd" d="M188.75 29.875C189.026 29.875 189.25 30.0989 189.25 30.375C189.25 30.5159 189.25 30.6565 189.25 30.7969C189.249 32.4547 189.248 34.0806 189.374 35.7117C189.395 35.987 189.189 36.2273 188.913 36.2485C188.638 36.2697 188.398 36.0637 188.377 35.7883C188.248 34.1167 188.249 32.4531 188.25 30.8025C188.25 30.6599 188.25 30.5174 188.25 30.375C188.25 30.0989 188.474 29.875 188.75 29.875Z" fill="#BEAC83"/>
<path fill-rule="evenodd" clip-rule="evenodd" d="M181.185 42.0373C181.441 41.9326 181.733 42.0549 181.838 42.3105C182.28 43.3895 183.203 44.804 184.26 46.1748C185.311 47.5393 186.465 48.8212 187.34 49.6336C187.543 49.8215 187.554 50.1379 187.366 50.3402C187.178 50.5426 186.862 50.5543 186.66 50.3664C185.735 49.5074 184.544 48.1818 183.468 46.7854C182.396 45.3953 181.406 43.8955 180.912 42.6895C180.808 42.434 180.93 42.142 181.185 42.0373Z" fill="#BEAC83"/>
<path fill-rule="evenodd" clip-rule="evenodd" d="M189.248 46.1711C189.43 45.9631 189.746 45.9417 189.954 46.1234C191.4 47.3863 192.82 48.6275 194.156 50.0461C194.567 50.4832 195 50.8903 195.445 51.3094C195.65 51.5017 195.857 51.6965 196.066 51.8978C196.717 52.526 197.365 53.1988 197.899 53.9822C198.724 55.1925 199.336 56.5646 199.92 57.8744C200.101 58.2797 200.279 58.6792 200.46 59.0659C201.434 61.1477 202.252 63.2984 202.974 65.4669C203.062 65.7289 202.92 66.012 202.658 66.0993C202.396 66.1867 202.113 66.0451 202.026 65.7831C201.311 63.6403 200.507 61.5274 199.554 59.4896C199.356 59.0657 199.167 58.6422 198.979 58.2223C198.403 56.9311 197.843 55.6745 197.073 54.5456C196.598 53.8485 196.009 53.2326 195.372 52.6178C195.182 52.4347 194.985 52.2497 194.786 52.0624C194.33 51.633 193.86 51.1912 193.428 50.7317C192.131 49.3542 190.748 48.1439 189.296 46.8766C189.088 46.695 189.067 46.3792 189.248 46.1711Z" fill="#BEAC83"/>
<path fill-rule="evenodd" clip-rule="evenodd" d="M213.369 67.6631C213.556 67.8672 213.541 68.1834 213.337 68.3695C213.244 68.4543 213.151 68.5393 213.058 68.6244C211.821 69.7538 210.562 70.9028 209.156 71.8947C208.724 72.1994 208.273 72.4715 207.839 72.7328C207.793 72.7606 207.747 72.7882 207.702 72.8158C207.221 73.1065 206.763 73.3889 206.336 73.7113C204.86 74.8279 203.907 76.2299 202.93 77.8798C202.789 78.1174 202.483 78.1959 202.245 78.0552C202.008 77.9145 201.929 77.6078 202.07 77.3702C203.061 75.6968 204.095 74.1531 205.733 72.9137C206.205 72.5565 206.704 72.2502 207.185 71.9598C207.23 71.9324 207.275 71.9051 207.32 71.878C207.759 71.6138 208.179 71.3603 208.58 71.0775C209.932 70.1235 211.146 69.0152 212.393 67.8772C212.483 67.7951 212.573 67.7129 212.663 67.6305C212.867 67.4445 213.183 67.4591 213.369 67.6631Z" fill="#BEAC83"/>
<path fill-rule="evenodd" clip-rule="evenodd" d="M206.868 6.47376C207.055 6.67688 207.042 6.99319 206.839 7.18027C206.747 7.26489 206.654 7.3505 206.561 7.43672C205.822 8.12211 205.04 8.84642 204.145 9.42079C203.913 9.56994 203.603 9.50246 203.454 9.27006C203.305 9.03766 203.373 8.72836 203.605 8.57921C204.42 8.05593 205.134 7.39499 205.882 6.7025C205.975 6.61699 206.068 6.531 206.161 6.44473C206.364 6.25765 206.681 6.27065 206.868 6.47376Z" fill="#BEAC83"/>
<path fill-rule="evenodd" clip-rule="evenodd" d="M209.206 19.313C209.413 19.496 209.432 19.812 209.249 20.0188C207.684 21.7885 205.699 22.7305 203.724 23.6677C203.7 23.679 203.676 23.6904 203.652 23.7017C203.402 23.8201 203.104 23.7138 202.986 23.4644C202.867 23.2149 202.974 22.9167 203.223 22.7983C205.251 21.836 207.073 20.9699 208.501 19.3562C208.683 19.1494 208.999 19.13 209.206 19.313Z" fill="#BEAC83"/>
<path fill-rule="evenodd" clip-rule="evenodd" d="M216.113 29.6568C216.372 29.7538 216.503 30.042 216.406 30.3006C216.06 31.2222 215.748 32.0589 215.559 32.9821C215.416 33.6834 215.305 34.3918 215.193 35.1138C215.187 35.1539 215.18 35.1941 215.174 35.2343C215.056 35.9937 214.933 36.7673 214.766 37.5363C214.383 39.3072 213.649 40.9129 212.635 42.3937C212.586 42.465 212.537 42.5369 212.487 42.6092C211.823 43.5802 211.098 44.64 210.252 45.567C209.34 46.5672 208.26 47.4433 206.914 47.9099C206.653 48.0004 206.368 47.8621 206.278 47.6012C206.187 47.3403 206.325 47.0555 206.586 46.9651C207.72 46.5723 208.666 45.8225 209.514 44.893C210.31 44.02 210.998 43.0155 211.67 42.0327C211.717 41.9645 211.763 41.8964 211.81 41.8285C212.759 40.4426 213.436 38.9555 213.789 37.3248C213.949 36.5881 214.067 35.8415 214.186 35.0801C214.193 35.038 214.199 34.9957 214.206 34.9535C214.318 34.237 214.431 33.507 214.58 32.7818C214.786 31.7708 215.127 30.8636 215.468 29.9524L215.469 29.9494C215.566 29.6909 215.855 29.5599 216.113 29.6568Z" fill="#BEAC83"/>
<path fill-rule="evenodd" clip-rule="evenodd" d="M218.214 34.382C218.417 34.569 218.43 34.8853 218.243 35.0885C217.588 35.8008 216.888 36.5111 216.196 37.2141C215.656 37.7624 215.12 38.3063 214.614 38.8432C214.424 39.044 214.108 39.0531 213.907 38.8636C213.706 38.674 213.697 38.3576 213.886 38.1568C214.434 37.5763 214.975 37.0277 215.512 36.4836C216.182 35.8037 216.845 35.1309 217.507 34.4115C217.694 34.2083 218.01 34.1951 218.214 34.382Z" fill="#BEAC83"/>
<path fill-rule="evenodd" clip-rule="evenodd" d="M220.277 46.0151C220.441 46.2371 220.394 46.5502 220.172 46.7144C218.543 47.9199 216.905 48.9122 215.045 49.7477C214.896 49.8148 214.748 49.8803 214.603 49.945C213.68 50.3548 212.828 50.7333 212.036 51.2852C211.809 51.4431 211.498 51.3874 211.34 51.1609C211.182 50.9343 211.238 50.6227 211.464 50.4648C212.341 49.8538 213.289 49.4333 214.207 49.0264C214.351 48.9627 214.494 48.8993 214.635 48.8356C216.421 48.0331 217.998 47.0792 219.578 45.9106C219.8 45.7463 220.113 45.7931 220.277 46.0151Z" fill="#BEAC83"/>
<path fill-rule="evenodd" clip-rule="evenodd" d="M192.017 33.5645C192.292 33.5397 192.536 33.7425 192.56 34.0175C192.756 36.1777 193.279 38.2145 194.032 40.2688C194.139 40.561 194.212 40.8527 194.276 41.1202C194.283 41.1493 194.29 41.1781 194.297 41.2065C194.354 41.4472 194.407 41.666 194.476 41.8817C194.488 41.9197 194.503 41.9611 194.519 42.0058C194.591 42.2106 194.688 42.484 194.688 42.8125C194.688 43.0886 194.464 43.3125 194.188 43.3125C193.911 43.3125 193.688 43.0886 193.688 42.8125C193.688 42.668 193.658 42.5835 193.598 42.4083C193.577 42.3477 193.552 42.2763 193.524 42.1877C193.442 41.9332 193.381 41.6759 193.324 41.4399C193.317 41.4109 193.311 41.3822 193.304 41.3538C193.24 41.0874 193.178 40.8457 193.093 40.6131C192.317 38.4973 191.769 36.374 191.565 34.1075C191.54 33.8325 191.742 33.5894 192.017 33.5645Z" fill="#BEAC83"/>
<path fill-rule="evenodd" clip-rule="evenodd" d="M188.48 23.693C188.65 23.4751 188.964 23.4358 189.182 23.6053C190.51 24.6385 191.652 25.8682 192.723 27.1112C193.065 27.5084 193.572 28.1674 194.019 28.8574C194.452 29.5262 194.881 30.302 194.992 30.9106C195.041 31.1822 194.861 31.4425 194.589 31.4919C194.318 31.5413 194.057 31.3611 194.008 31.0894C193.937 30.699 193.615 30.0738 193.18 29.4011C192.758 28.7498 192.278 28.127 191.965 27.7638C190.907 26.5351 189.817 25.3658 188.568 24.3947C188.35 24.2251 188.311 23.911 188.48 23.693Z" fill="#BEAC83"/>
<path fill-rule="evenodd" clip-rule="evenodd" d="M186.614 56.5294C186.736 56.2816 187.035 56.1795 187.283 56.3013C187.64 56.4765 188.003 56.6347 188.378 56.7982C188.472 56.839 188.567 56.8801 188.662 56.9219C189.133 57.1285 189.618 57.3488 190.086 57.6132C190.7 57.9595 191.249 58.3926 191.728 58.9103C192.195 59.415 192.482 59.9842 192.745 60.5075C192.811 60.6387 192.876 60.767 192.942 60.8906C193.071 61.1346 192.978 61.4372 192.734 61.5667C192.49 61.6961 192.188 61.6033 192.058 61.3594C191.972 61.1961 191.894 61.0424 191.82 60.8964C191.565 60.3927 191.357 59.9814 190.994 59.5897C190.585 59.1484 190.118 58.7798 189.595 58.484C189.173 58.2459 188.727 58.0422 188.26 57.8377C188.171 57.7985 188.08 57.7591 187.989 57.7193C187.611 57.555 187.221 57.3852 186.842 57.1987C186.594 57.0769 186.492 56.7772 186.614 56.5294Z" fill="#BEAC83"/>
<path fill-rule="evenodd" clip-rule="evenodd" d="M194.907 53.6885C195.183 53.7063 195.392 53.9441 195.374 54.2197C195.328 54.9254 195.343 55.6084 195.359 56.3176C195.367 56.6851 195.375 57.0595 195.375 57.4479C195.375 58.8531 195.406 60.1298 195.645 61.4714C195.705 61.8093 195.774 62.1593 195.845 62.5148C195.962 63.1079 196.082 63.7163 196.168 64.3098L196.172 64.3365C196.272 65.0234 196.319 65.3458 196.666 65.5931C196.89 65.7536 196.942 66.0659 196.782 66.2906C196.621 66.5153 196.309 66.5674 196.084 66.4069C195.38 65.9035 195.277 65.1615 195.198 64.5886C195.191 64.5426 195.185 64.4977 195.179 64.4541C195.095 63.8778 194.985 63.3221 194.872 62.7528C194.801 62.3924 194.728 62.0266 194.661 61.6466C194.405 60.2133 194.375 58.8627 194.375 57.4479C194.375 57.1063 194.367 56.755 194.36 56.3982C194.344 55.662 194.328 54.9022 194.376 54.1553C194.394 53.8797 194.632 53.6708 194.907 53.6885Z" fill="#BEAC83"/>
<path fill-rule="evenodd" clip-rule="evenodd" d="M213.562 52.375C213.839 52.375 214.062 52.5989 214.062 52.875C214.062 53.1273 214.066 53.3832 214.069 53.6421C214.079 54.563 214.091 55.5201 213.968 56.4735C213.865 57.2789 213.709 58.0837 213.537 58.8645C213.445 59.2799 213.33 59.6869 213.219 60.077C213.207 60.1183 213.195 60.1593 213.184 60.2002C213.061 60.6335 212.947 61.0485 212.866 61.469C212.814 61.7402 212.552 61.918 212.281 61.8661C212.01 61.8141 211.832 61.5522 211.884 61.281C211.974 60.8129 212.099 60.3603 212.222 59.9274C212.233 59.8868 212.245 59.8464 212.256 59.8061C212.368 59.4115 212.476 59.0337 212.56 58.6494C212.729 57.8841 212.878 57.111 212.976 56.346C213.089 55.4688 213.079 54.6048 213.069 53.6961C213.066 53.4268 213.062 53.1536 213.062 52.875C213.062 52.5989 213.286 52.375 213.562 52.375Z" fill="#BEAC83"/>
<path d="M196.5 4C196.5 4.55228 196.052 5 195.5 5C194.948 5 194.5 4.55228 194.5 4C194.5 3.44772 194.948 3 195.5 3C196.052 3 196.5 3.44772 196.5 4Z" fill="#BEAC83"/>
<path d="M202.5 8C202.5 8.55228 202.052 9 201.5 9C200.948 9 200.5 8.55228 200.5 8C200.5 7.44772 200.948 7 201.5 7C202.052 7 202.5 7.44772 202.5 8Z" fill="#BEAC83"/>
<path d="M208.5 6C208.5 6.55228 208.052 7 207.5 7C206.948 7 206.5 6.55228 206.5 6C206.5 5.44772 206.948 5 207.5 5C208.052 5 208.5 5.44772 208.5 6Z" fill="#BEAC83"/>
<path d="M192.5 17C192.5 17.5523 192.052 18 191.5 18C190.948 18 190.5 17.5523 190.5 17C190.5 16.4477 190.948 16 191.5 16C192.052 16 192.5 16.4477 192.5 17Z" fill="#BEAC83"/>
<path d="M189.5 24C189.5 24.5523 189.052 25 188.5 25C187.948 25 187.5 24.5523 187.5 24C187.5 23.4477 187.948 23 188.5 23C189.052 23 189.5 23.4477 189.5 24Z" fill="#BEAC83"/>
<path d="M187.5 22C187.5 22.5523 187.052 23 186.5 23C185.948 23 185.5 22.5523 185.5 22C185.5 21.4477 185.948 21 186.5 21C187.052 21 187.5 21.4477 187.5 22Z" fill="#BEAC83"/>
<path d="M190.5 22C190.5 22.5523 190.052 23 189.5 23C188.948 23 188.5 22.5523 188.5 22C188.5 21.4477 188.948 21 189.5 21C190.052 21 190.5 21.4477 190.5 22Z" fill="#BEAC83"/>
<path d="M190.5 14C190.5 14.5523 190.052 15 189.5 15C188.948 15 188.5 14.5523 188.5 14C188.5 13.4477 188.948 13 189.5 13C190.052 13 190.5 13.4477 190.5 14Z" fill="#BEAC83"/>
<path d="M204.5 13C204.5 13.5523 204.052 14 203.5 14C202.948 14 202.5 13.5523 202.5 13C202.5 12.4477 202.948 12 203.5 12C204.052 12 204.5 12.4477 204.5 13Z" fill="#BEAC83"/>
<path d="M209.5 33C209.5 33.5523 209.052 34 208.5 34C207.948 34 207.5 33.5523 207.5 33C207.5 32.4477 207.948 32 208.5 32C209.052 32 209.5 32.4477 209.5 33Z" fill="#BEAC83"/>
<path d="M211.5 18C211.5 18.5523 211.052 19 210.5 19C209.948 19 209.5 18.5523 209.5 18C209.5 17.4477 209.948 17 210.5 17C211.052 17 211.5 17.4477 211.5 18Z" fill="#BEAC83"/>
<path d="M196.5 18C196.5 18.5523 196.052 19 195.5 19C194.948 19 194.5 18.5523 194.5 18C194.5 17.4477 194.948 17 195.5 17C196.052 17 196.5 17.4477 196.5 18Z" fill="#BEAC83"/>
<path d="M208.5 10C208.5 10.5523 208.052 11 207.5 11C206.948 11 206.5 10.5523 206.5 10C206.5 9.44772 206.948 9 207.5 9C208.052 9 208.5 9.44772 208.5 10Z" fill="#BEAC83"/>
<path d="M202.5 5C202.5 5.55228 202.052 6 201.5 6C200.948 6 200.5 5.55228 200.5 5C200.5 4.44772 200.948 4 201.5 4C202.052 4 202.5 4.44772 202.5 5Z" fill="#BEAC83"/>
<path d="M203.5 1C203.5 1.55228 203.052 2 202.5 2C201.948 2 201.5 1.55228 201.5 1C201.5 0.447715 201.948 0 202.5 0C203.052 0 203.5 0.447715 203.5 1Z" fill="#BEAC83"/>
<path d="M201.5 3C201.5 3.55228 201.052 4 200.5 4C199.948 4 199.5 3.55228 199.5 3C199.5 2.44772 199.948 2 200.5 2C201.052 2 201.5 2.44772 201.5 3Z" fill="#BEAC83"/>
<path d="M200.484 5.81889C200.584 6.36204 200.224 6.88346 199.681 6.98351C199.138 7.08356 198.617 6.72435 198.517 6.18121C198.417 5.63806 198.776 5.11665 199.319 5.0166C199.862 4.91655 200.383 5.27575 200.484 5.81889Z" fill="#BEAC83"/>
<path d="M198.5 3C198.5 3.55228 198.052 4 197.5 4C196.948 4 196.5 3.55228 196.5 3C196.5 2.44772 196.948 2 197.5 2C198.052 2 198.5 2.44772 198.5 3Z" fill="#BEAC83"/>
<path d="M196.5 10C196.5 10.5523 196.052 11 195.5 11C194.948 11 194.5 10.5523 194.5 10C194.5 9.44772 194.948 9 195.5 9C196.052 9 196.5 9.44772 196.5 10Z" fill="#BEAC83"/>
<path d="M195.5 13C195.5 13.5523 195.052 14 194.5 14C193.948 14 193.5 13.5523 193.5 13C193.5 12.4477 193.948 12 194.5 12C195.052 12 195.5 12.4477 195.5 13Z" fill="#BEAC83"/>
<path d="M194.5 11C194.5 11.5523 194.052 12 193.5 12C192.948 12 192.5 11.5523 192.5 11C192.5 10.4477 192.948 10 193.5 10C194.052 10 194.5 10.4477 194.5 11Z" fill="#BEAC83"/>
<path d="M191.5 17C191.5 17.5523 191.052 18 190.5 18C189.948 18 189.5 17.5523 189.5 17C189.5 16.4477 189.948 16 190.5 16C191.052 16 191.5 16.4477 191.5 17Z" fill="#BEAC83"/>
<path d="M205.5 4C205.5 4.55228 205.052 5 204.5 5C203.948 5 203.5 4.55228 203.5 4C203.5 3.44772 203.948 3 204.5 3C205.052 3 205.5 3.44772 205.5 4Z" fill="#BEAC83"/>
<path d="M206.5 8C206.5 8.55228 206.052 9 205.5 9C204.948 9 204.5 8.55228 204.5 8C204.5 7.44772 204.948 7 205.5 7C206.052 7 206.5 7.44772 206.5 8Z" fill="#BEAC83"/>
<path d="M208.5 18C208.5 18.5523 208.052 19 207.5 19C206.948 19 206.5 18.5523 206.5 18C206.5 17.4477 206.948 17 207.5 17C208.052 17 208.5 17.4477 208.5 18Z" fill="#BEAC83"/>
<path d="M209.5 21C209.5 21.5523 209.052 22 208.5 22C207.948 22 207.5 21.5523 207.5 21C207.5 20.4477 207.948 20 208.5 20C209.052 20 209.5 20.4477 209.5 21Z" fill="#BEAC83"/>
<path d="M214.5 12C214.5 12.5523 214.052 13 213.5 13C212.948 13 212.5 12.5523 212.5 12C212.5 11.4477 212.948 11 213.5 11C214.052 11 214.5 11.4477 214.5 12Z" fill="#BEAC83"/>
<path d="M215.5 16C215.5 16.5523 215.052 17 214.5 17C213.948 17 213.5 16.5523 213.5 16C213.5 15.4477 213.948 15 214.5 15C215.052 15 215.5 15.4477 215.5 16Z" fill="#BEAC83"/>
<path d="M218.5 14C218.5 14.5523 218.052 15 217.5 15C216.948 15 216.5 14.5523 216.5 14C216.5 13.4477 216.948 13 217.5 13C218.052 13 218.5 13.4477 218.5 14Z" fill="#BEAC83"/>
<path d="M217.5 17C217.5 17.5523 217.052 18 216.5 18C215.948 18 215.5 17.5523 215.5 17C215.5 16.4477 215.948 16 216.5 16C217.052 16 217.5 16.4477 217.5 17Z" fill="#BEAC83"/>
<path d="M218.5 20C218.5 20.5523 218.052 21 217.5 21C216.948 21 216.5 20.5523 216.5 20C216.5 19.4477 216.948 19 217.5 19C218.052 19 218.5 19.4477 218.5 20Z" fill="#BEAC83"/>
<path d="M219.5 17C219.5 17.5523 219.052 18 218.5 18C217.948 18 217.5 17.5523 217.5 17C217.5 16.4477 217.948 16 218.5 16C219.052 16 219.5 16.4477 219.5 17Z" fill="#BEAC83"/>
<path d="M220.5 25C220.5 25.5523 220.052 26 219.5 26C218.948 26 218.5 25.5523 218.5 25C218.5 24.4477 218.948 24 219.5 24C220.052 24 220.5 24.4477 220.5 25Z" fill="#BEAC83"/>
<path d="M217.5 30C217.5 30.5523 217.052 31 216.5 31C215.948 31 215.5 30.5523 215.5 30C215.5 29.4477 215.948 29 216.5 29C217.052 29 217.5 29.4477 217.5 30Z" fill="#BEAC83"/>
<path d="M217.5 28C217.5 28.5523 217.052 29 216.5 29C215.948 29 215.5 28.5523 215.5 28C215.5 27.4477 215.948 27 216.5 27C217.052 27 217.5 27.4477 217.5 28Z" fill="#BEAC83"/>
<path d="M218.5 33C218.5 33.5523 218.052 34 217.5 34C216.948 34 216.5 33.5523 216.5 33C216.5 32.4477 216.948 32 217.5 32C218.052 32 218.5 32.4477 218.5 33Z" fill="#BEAC83"/>
<path d="M224.5 31C224.5 31.5523 224.052 32 223.5 32C222.948 32 222.5 31.5523 222.5 31C222.5 30.4477 222.948 30 223.5 30C224.052 30 224.5 30.4477 224.5 31Z" fill="#BEAC83"/>
<path d="M225.5 34C225.5 34.5523 225.052 35 224.5 35C223.948 35 223.5 34.5523 223.5 34C223.5 33.4477 223.948 33 224.5 33C225.052 33 225.5 33.4477 225.5 34Z" fill="#BEAC83"/>
<path d="M226.5 29C226.5 29.5523 226.052 30 225.5 30C224.948 30 224.5 29.5523 224.5 29C224.5 28.4477 224.948 28 225.5 28C226.052 28 226.5 28.4477 226.5 29Z" fill="#BEAC83"/>
<path d="M225.5 50C225.5 50.5523 225.052 51 224.5 51C223.948 51 223.5 50.5523 223.5 50C223.5 49.4477 223.948 49 224.5 49C225.052 49 225.5 49.4477 225.5 50Z" fill="#BEAC83"/>
<path d="M224.5 52C224.5 52.5523 224.052 53 223.5 53C222.948 53 222.5 52.5523 222.5 52C222.5 51.4477 222.948 51 223.5 51C224.052 51 224.5 51.4477 224.5 52Z" fill="#BEAC83"/>
<path d="M227.5 52C227.5 52.5523 227.052 53 226.5 53C225.948 53 225.5 52.5523 225.5 52C225.5 51.4477 225.948 51 226.5 51C227.052 51 227.5 51.4477 227.5 52Z" fill="#BEAC83"/>
<path d="M225.5 55C225.5 55.5523 225.052 56 224.5 56C223.948 56 223.5 55.5523 223.5 55C223.5 54.4477 223.948 54 224.5 54C225.052 54 225.5 54.4477 225.5 55Z" fill="#BEAC83"/>
<path d="M226.5 52C226.5 52.5523 226.052 53 225.5 53C224.948 53 224.5 52.5523 224.5 52C224.5 51.4477 224.948 51 225.5 51C226.052 51 226.5 51.4477 226.5 52Z" fill="#BEAC83"/>
<path d="M226.5 57C226.5 57.5523 226.052 58 225.5 58C224.948 58 224.5 57.5523 224.5 57C224.5 56.4477 224.948 56 225.5 56C226.052 56 226.5 56.4477 226.5 57Z" fill="#BEAC83"/>
<path d="M215.5 68C215.5 68.5523 215.052 69 214.5 69C213.948 69 213.5 68.5523 213.5 68C213.5 67.4477 213.948 67 214.5 67C215.052 67 215.5 67.4477 215.5 68Z" fill="#BEAC83"/>
<path d="M213.5 68C213.5 68.5523 213.052 69 212.5 69C211.948 69 211.5 68.5523 211.5 68C211.5 67.4477 211.948 67 212.5 67C213.052 67 213.5 67.4477 213.5 68Z" fill="#BEAC83"/>
<path d="M214.5 67C214.5 67.5523 214.052 68 213.5 68C212.948 68 212.5 67.5523 212.5 67C212.5 66.4477 212.948 66 213.5 66C214.052 66 214.5 66.4477 214.5 67Z" fill="#BEAC83"/>
<path d="M216.5 64C216.5 64.5523 216.052 65 215.5 65C214.948 65 214.5 64.5523 214.5 64C214.5 63.4477 214.948 63 215.5 63C216.052 63 216.5 63.4477 216.5 64Z" fill="#BEAC83"/>
<path d="M216.5 70C216.5 70.5523 216.052 71 215.5 71C214.948 71 214.5 70.5523 214.5 70C214.5 69.4477 214.948 69 215.5 69C216.052 69 216.5 69.4477 216.5 70Z" fill="#BEAC83"/>
<path d="M217.5 67C217.5 67.5523 217.052 68 216.5 68C215.948 68 215.5 67.5523 215.5 67C215.5 66.4477 215.948 66 216.5 66C217.052 66 217.5 66.4477 217.5 67Z" fill="#BEAC83"/>
<path d="M220.5 67C220.5 67.5523 220.052 68 219.5 68C218.948 68 218.5 67.5523 218.5 67C218.5 66.4477 218.948 66 219.5 66C220.052 66 220.5 66.4477 220.5 67Z" fill="#BEAC83"/>
<path d="M196.5 67C196.5 67.5523 196.052 68 195.5 68C194.948 68 194.5 67.5523 194.5 67C194.5 66.4477 194.948 66 195.5 66C196.052 66 196.5 66.4477 196.5 67Z" fill="#BEAC83"/>
<path d="M193.5 65C193.5 65.5523 193.052 66 192.5 66C191.948 66 191.5 65.5523 191.5 65C191.5 64.4477 191.948 64 192.5 64C193.052 64 193.5 64.4477 193.5 65Z" fill="#BEAC83"/>
<path d="M194.5 68C194.5 68.5523 194.052 69 193.5 69C192.948 69 192.5 68.5523 192.5 68C192.5 67.4477 192.948 67 193.5 67C194.052 67 194.5 67.4477 194.5 68Z" fill="#BEAC83"/>
<path d="M195.5 71C195.5 71.5523 195.052 72 194.5 72C193.948 72 193.5 71.5523 193.5 71C193.5 70.4477 193.948 70 194.5 70C195.052 70 195.5 70.4477 195.5 71Z" fill="#BEAC83"/>
<path d="M218.5 73C218.5 73.5523 218.052 74 217.5 74C216.948 74 216.5 73.5523 216.5 73C216.5 72.4477 216.948 72 217.5 72C218.052 72 218.5 72.4477 218.5 73Z" fill="#BEAC83"/>
<path d="M218.5 70C218.5 70.5523 218.052 71 217.5 71C216.948 71 216.5 70.5523 216.5 70C216.5 69.4477 216.948 69 217.5 69C218.052 69 218.5 69.4477 218.5 70Z" fill="#BEAC83"/>
<path d="M217.5 71C217.5 71.5523 217.052 72 216.5 72C215.948 72 215.5 71.5523 215.5 71C215.5 70.4477 215.948 70 216.5 70C217.052 70 217.5 70.4477 217.5 71Z" fill="#BEAC83"/>
<path d="M226.5 36C226.5 36.5523 226.052 37 225.5 37C224.948 37 224.5 36.5523 224.5 36C224.5 35.4477 224.948 35 225.5 35C226.052 35 226.5 35.4477 226.5 36Z" fill="#BEAC83"/>
<path d="M226.5 33C226.5 33.5523 226.052 34 225.5 34C224.948 34 224.5 33.5523 224.5 33C224.5 32.4477 224.948 32 225.5 32C226.052 32 226.5 32.4477 226.5 33Z" fill="#BEAC83"/>
<path d="M226.5 36C226.5 36.5523 226.052 37 225.5 37C224.948 37 224.5 36.5523 224.5 36C224.5 35.4477 224.948 35 225.5 35C226.052 35 226.5 35.4477 226.5 36Z" fill="#BEAC83"/>
<path d="M186.5 32C186.5 32.5523 186.052 33 185.5 33C184.948 33 184.5 32.5523 184.5 32C184.5 31.4477 184.948 31 185.5 31C186.052 31 186.5 31.4477 186.5 32Z" fill="#BEAC83"/>
<path d="M184.5 28C184.5 28.5523 184.052 29 183.5 29C182.948 29 182.5 28.5523 182.5 28C182.5 27.4477 182.948 27 183.5 27C184.052 27 184.5 27.4477 184.5 28Z" fill="#BEAC83"/>
<path d="M181.5 49C181.5 49.5523 181.052 50 180.5 50C179.948 50 179.5 49.5523 179.5 49C179.5 48.4477 179.948 48 180.5 48C181.052 48 181.5 48.4477 181.5 49Z" fill="#BEAC83"/>
<path d="M188.5 60C188.5 60.5523 188.052 61 187.5 61C186.948 61 186.5 60.5523 186.5 60C186.5 59.4477 186.948 59 187.5 59C188.052 59 188.5 59.4477 188.5 60Z" fill="#BEAC83"/>
<path d="M186.5 58C186.5 58.5523 186.052 59 185.5 59C184.948 59 184.5 58.5523 184.5 58C184.5 57.4477 184.948 57 185.5 57C186.052 57 186.5 57.4477 186.5 58Z" fill="#BEAC83"/>
<path d="M207.5 39C207.5 39.5523 207.052 40 206.5 40C205.948 40 205.5 39.5523 205.5 39C205.5 38.4477 205.948 38 206.5 38C207.052 38 207.5 38.4477 207.5 39Z" fill="#BEAC83"/>
<path d="M208.5 42C208.5 42.5523 208.052 43 207.5 43C206.948 43 206.5 42.5523 206.5 42C206.5 41.4477 206.948 41 207.5 41C208.052 41 208.5 41.4477 208.5 42Z" fill="#BEAC83"/>
<path d="M209.5 39C209.5 39.5523 209.052 40 208.5 40C207.948 40 207.5 39.5523 207.5 39C207.5 38.4477 207.948 38 208.5 38C209.052 38 209.5 38.4477 209.5 39Z" fill="#BEAC83"/>
<path d="M198.5 42C198.5 42.5523 198.052 43 197.5 43C196.948 43 196.5 42.5523 196.5 42C196.5 41.4477 196.948 41 197.5 41C198.052 41 198.5 41.4477 198.5 42Z" fill="#BEAC83"/>
<path d="M193.5 34C193.5 34.5523 193.052 35 192.5 35C191.948 35 191.5 34.5523 191.5 34C191.5 33.4477 191.948 33 192.5 33C193.052 33 193.5 33.4477 193.5 34Z" fill="#BEAC83"/>
<path d="M195.5 36C195.5 36.5523 195.052 37 194.5 37C193.948 37 193.5 36.5523 193.5 36C193.5 35.4477 193.948 35 194.5 35C195.052 35 195.5 35.4477 195.5 36Z" fill="#BEAC83"/>
<path d="M180.5 47C180.5 47.5523 180.052 48 179.5 48C178.948 48 178.5 47.5523 178.5 47C178.5 46.4477 178.948 46 179.5 46C180.052 46 180.5 46.4477 180.5 47Z" fill="#BEAC83"/>
<path d="M224.5 46C224.5 46.5523 224.052 47 223.5 47C222.948 47 222.5 46.5523 222.5 46C222.5 45.4477 222.948 45 223.5 45C224.052 45 224.5 45.4477 224.5 46Z" fill="#BEAC83"/>
<path d="M223.5 43C223.5 43.5523 223.052 44 222.5 44C221.948 44 221.5 43.5523 221.5 43C221.5 42.4477 221.948 42 222.5 42C223.052 42 223.5 42.4477 223.5 43Z" fill="#BEAC83"/>
<path d="M221.5 46C221.5 46.5523 221.052 47 220.5 47C219.948 47 219.5 46.5523 219.5 46C219.5 45.4477 219.948 45 220.5 45C221.052 45 221.5 45.4477 221.5 46Z" fill="#BEAC83"/>
<path d="M218.5 46C218.5 46.5523 218.052 47 217.5 47C216.948 47 216.5 46.5523 216.5 46C216.5 45.4477 216.948 45 217.5 45C218.052 45 218.5 45.4477 218.5 46Z" fill="#BEAC83"/>
<path d="M214.5 52C214.5 52.5523 214.052 53 213.5 53C212.948 53 212.5 52.5523 212.5 52C212.5 51.4477 212.948 51 213.5 51C214.052 51 214.5 51.4477 214.5 52Z" fill="#BEAC83"/>
<path d="M213.5 54C213.5 54.5523 213.052 55 212.5 55C211.948 55 211.5 54.5523 211.5 54C211.5 53.4477 211.948 53 212.5 53C213.052 53 213.5 53.4477 213.5 54Z" fill="#BEAC83"/>
<path d="M216.5 52C216.5 52.5523 216.052 53 215.5 53C214.948 53 214.5 52.5523 214.5 52C214.5 51.4477 214.948 51 215.5 51C216.052 51 216.5 51.4477 216.5 52Z" fill="#BEAC83"/>
<path d="M215.5 38C215.5 38.5523 215.052 39 214.5 39C213.948 39 213.5 38.5523 213.5 38C213.5 37.4477 213.948 37 214.5 37C215.052 37 215.5 37.4477 215.5 38Z" fill="#BEAC83"/>
<path d="M219.5 35C219.5 35.5523 219.052 36 218.5 36C217.948 36 217.5 35.5523 217.5 35C217.5 34.4477 217.948 34 218.5 34C219.052 34 219.5 34.4477 219.5 35Z" fill="#BEAC83"/>
<path d="M219.5 32C219.5 32.5523 219.052 33 218.5 33C217.948 33 217.5 32.5523 217.5 32C217.5 31.4477 217.948 31 218.5 31C219.052 31 219.5 31.4477 219.5 32Z" fill="#BEAC83"/>
<path d="M209.5 30C209.5 30.5523 209.052 31 208.5 31C207.948 31 207.5 30.5523 207.5 30C207.5 29.4477 207.948 29 208.5 29C209.052 29 209.5 29.4477 209.5 30Z" fill="#BEAC83"/>
<path d="M211.5 31C211.5 31.5523 211.052 32 210.5 32C209.948 32 209.5 31.5523 209.5 31C209.5 30.4477 209.948 30 210.5 30C211.052 30 211.5 30.4477 211.5 31Z" fill="#BEAC83"/>
<path d="M189.5 26C189.5 26.5523 189.052 27 188.5 27C187.948 27 187.5 26.5523 187.5 26C187.5 25.4477 187.948 25 188.5 25C189.052 25 189.5 25.4477 189.5 26Z" fill="#BEAC83"/>
<path d="M185.5 24C185.5 24.5523 185.052 25 184.5 25C183.948 25 183.5 24.5523 183.5 24C183.5 23.4477 183.948 23 184.5 23C185.052 23 185.5 23.4477 185.5 24Z" fill="#BEAC83"/>
<path d="M187.5 24C187.5 24.5523 187.052 25 186.5 25C185.948 25 185.5 24.5523 185.5 24C185.5 23.4477 185.948 23 186.5 23C187.052 23 187.5 23.4477 187.5 24Z" fill="#BEAC83"/>
<path d="M188.5 25C188.5 25.5523 188.052 26 187.5 26C186.948 26 186.5 25.5523 186.5 25C186.5 24.4477 186.948 24 187.5 24C188.052 24 188.5 24.4477 188.5 25Z" fill="#BEAC83"/>
<path d="M195.5 20C195.5 20.5523 195.052 21 194.5 21C193.948 21 193.5 20.5523 193.5 20C193.5 19.4477 193.948 19 194.5 19C195.052 19 195.5 19.4477 195.5 20Z" fill="#BEAC83"/>
<path d="M193.5 12C193.5 12.5523 193.052 13 192.5 13C191.948 13 191.5 12.5523 191.5 12C191.5 11.4477 191.948 11 192.5 11C193.052 11 193.5 11.4477 193.5 12Z" fill="#BEAC83"/>
<path d="M194.5 9C194.5 9.55228 194.052 10 193.5 10C192.948 10 192.5 9.55228 192.5 9C192.5 8.44772 192.948 8 193.5 8C194.052 8 194.5 8.44772 194.5 9Z" fill="#BEAC83"/>
<path d="M197.5 5C197.5 5.55228 197.052 6 196.5 6C195.948 6 195.5 5.55228 195.5 5C195.5 4.44772 195.948 4 196.5 4C197.052 4 197.5 4.44772 197.5 5Z" fill="#BEAC83"/>
<path d="M206.5 5C206.5 5.55228 206.052 6 205.5 6C204.948 6 204.5 5.55228 204.5 5C204.5 4.44772 204.948 4 205.5 4C206.052 4 206.5 4.44772 206.5 5Z" fill="#BEAC83"/>
<path d="M206.5 3C206.5 3.55228 206.052 4 205.5 4C204.948 4 204.5 3.55228 204.5 3C204.5 2.44772 204.948 2 205.5 2C206.052 2 206.5 2.44772 206.5 3Z" fill="#BEAC83"/>
<path d="M206.5 30C206.5 30.5523 206.052 31 205.5 31C204.948 31 204.5 30.5523 204.5 30C204.5 29.4477 204.948 29 205.5 29C206.052 29 206.5 29.4477 206.5 30Z" fill="#BEAC83"/>
<path d="M207.5 32C207.5 32.5523 207.052 33 206.5 33C205.948 33 205.5 32.5523 205.5 32C205.5 31.4477 205.948 31 206.5 31C207.052 31 207.5 31.4477 207.5 32Z" fill="#BEAC83"/>
<path d="M190.5 30C190.5 30.5523 190.052 31 189.5 31C188.948 31 188.5 30.5523 188.5 30C188.5 29.4477 188.948 29 189.5 29C190.052 29 190.5 29.4477 190.5 30Z" fill="#BEAC83"/>
<path d="M186.5 30C186.5 30.5523 186.052 31 185.5 31C184.948 31 184.5 30.5523 184.5 30C184.5 29.4477 184.948 29 185.5 29C186.052 29 186.5 29.4477 186.5 30Z" fill="#BEAC83"/>
<path d="M185.5 36C185.5 36.5523 185.052 37 184.5 37C183.948 37 183.5 36.5523 183.5 36C183.5 35.4477 183.948 35 184.5 35C185.052 35 185.5 35.4477 185.5 36Z" fill="#BEAC83"/>
<path d="M184.5 34C184.5 34.5523 184.052 35 183.5 35C182.948 35 182.5 34.5523 182.5 34C182.5 33.4477 182.948 33 183.5 33C184.052 33 184.5 33.4477 184.5 34Z" fill="#BEAC83"/>
<path d="M184.5 37C184.5 37.5523 184.052 38 183.5 38C182.948 38 182.5 37.5523 182.5 37C182.5 36.4477 182.948 36 183.5 36C184.052 36 184.5 36.4477 184.5 37Z" fill="#BEAC83"/>
<path d="M186.5 38C186.5 38.5523 186.052 39 185.5 39C184.948 39 184.5 38.5523 184.5 38C184.5 37.4477 184.948 37 185.5 37C186.052 37 186.5 37.4477 186.5 38Z" fill="#BEAC83"/>
<path d="M189.5 39C189.5 39.5523 189.052 40 188.5 40C187.948 40 187.5 39.5523 187.5 39C187.5 38.4477 187.948 38 188.5 38C189.052 38 189.5 38.4477 189.5 39Z" fill="#BEAC83"/>
<path d="M184.5 40C184.5 40.5523 184.052 41 183.5 41C182.948 41 182.5 40.5523 182.5 40C182.5 39.4477 182.948 39 183.5 39C184.052 39 184.5 39.4477 184.5 40Z" fill="#BEAC83"/>
<path d="M181.5 38C181.5 38.5523 181.052 39 180.5 39C179.948 39 179.5 38.5523 179.5 38C179.5 37.4477 179.948 37 180.5 37C181.052 37 181.5 37.4477 181.5 38Z" fill="#BEAC83"/>
<path d="M182.5 43C182.5 43.5523 182.052 44 181.5 44C180.948 44 180.5 43.5523 180.5 43C180.5 42.4477 180.948 42 181.5 42C182.052 42 182.5 42.4477 182.5 43Z" fill="#BEAC83"/>
<path d="M182.5 46C182.5 46.5523 182.052 47 181.5 47C180.948 47 180.5 46.5523 180.5 46C180.5 45.4477 180.948 45 181.5 45C182.052 45 182.5 45.4477 182.5 46Z" fill="#BEAC83"/>
<path d="M183.5 44C183.5 44.5523 183.052 45 182.5 45C181.948 45 181.5 44.5523 181.5 44C181.5 43.4477 181.948 43 182.5 43C183.052 43 183.5 43.4477 183.5 44Z" fill="#BEAC83"/>
<path d="M190.5 46C190.5 46.5523 190.052 47 189.5 47C188.948 47 188.5 46.5523 188.5 46C188.5 45.4477 188.948 45 189.5 45C190.052 45 190.5 45.4477 190.5 46Z" fill="#BEAC83"/>
<path d="M190.5 45C190.5 45.5523 190.052 46 189.5 46C188.948 46 188.5 45.5523 188.5 45C188.5 44.4477 188.948 44 189.5 44C190.052 44 190.5 44.4477 190.5 45Z" fill="#BEAC83"/>
<path d="M192.5 47C192.5 47.5523 192.052 48 191.5 48C190.948 48 190.5 47.5523 190.5 47C190.5 46.4477 190.948 46 191.5 46C192.052 46 192.5 46.4477 192.5 47Z" fill="#BEAC83"/>
<path d="M187.5 56C187.5 56.5523 187.052 57 186.5 57C185.948 57 185.5 56.5523 185.5 56C185.5 55.4477 185.948 55 186.5 55C187.052 55 187.5 55.4477 187.5 56Z" fill="#BEAC83"/>
<path d="M187.5 57C187.5 57.5523 187.052 58 186.5 58C185.948 58 185.5 57.5523 185.5 57C185.5 56.4477 185.948 56 186.5 56C187.052 56 187.5 56.4477 187.5 57Z" fill="#BEAC83"/>
<path d="M195.5 57C195.5 57.5523 195.052 58 194.5 58C193.948 58 193.5 57.5523 193.5 57C193.5 56.4477 193.948 56 194.5 56C195.052 56 195.5 56.4477 195.5 57Z" fill="#BEAC83"/>
<path d="M195.5 54C195.5 54.5523 195.052 55 194.5 55C193.948 55 193.5 54.5523 193.5 54C193.5 53.4477 193.948 53 194.5 53C195.052 53 195.5 53.4477 195.5 54Z" fill="#BEAC83"/>
<path d="M196.5 56C196.5 56.5523 196.052 57 195.5 57C194.948 57 194.5 56.5523 194.5 56C194.5 55.4477 194.948 55 195.5 55C196.052 55 196.5 55.4477 196.5 56Z" fill="#BEAC83"/>
<path d="M188.5 29C188.5 29.5523 188.052 30 187.5 30C186.948 30 186.5 29.5523 186.5 29C186.5 28.4477 186.948 28 187.5 28C188.052 28 188.5 28.4477 188.5 29Z" fill="#BEAC83"/>
<path d="M187.5 28C187.5 28.5523 187.052 29 186.5 29C185.948 29 185.5 28.5523 185.5 28C185.5 27.4477 185.948 27 186.5 27C187.052 27 187.5 27.4477 187.5 28Z" fill="#BEAC83"/>
<path d="M222.5 24C222.5 24.5523 222.052 25 221.5 25C220.948 25 220.5 24.5523 220.5 24C220.5 23.4477 220.948 23 221.5 23C222.052 23 222.5 23.4477 222.5 24Z" fill="#BEAC83"/>
<path d="M222.5 28C222.5 28.5523 222.052 29 221.5 29C220.948 29 220.5 28.5523 220.5 28C220.5 27.4477 220.948 27 221.5 27C222.052 27 222.5 27.4477 222.5 28Z" fill="#BEAC83"/>
<path d="M223.5 25C223.5 25.5523 223.052 26 222.5 26C221.948 26 221.5 25.5523 221.5 25C221.5 24.4477 221.948 24 222.5 24C223.052 24 223.5 24.4477 223.5 25Z" fill="#BEAC83"/>
<path d="M223.5 21C223.5 21.5523 223.052 22 222.5 22C221.948 22 221.5 21.5523 221.5 21C221.5 20.4477 221.948 20 222.5 20C223.052 20 223.5 20.4477 223.5 21Z" fill="#BEAC83"/>
<path d="M211.5 15C211.5 15.5523 211.052 16 210.5 16C209.948 16 209.5 15.5523 209.5 15C209.5 14.4477 209.948 14 210.5 14C211.052 14 211.5 14.4477 211.5 15Z" fill="#BEAC83"/>
<path d="M210.5 19C210.5 19.5523 210.052 20 209.5 20C208.948 20 208.5 19.5523 208.5 19C208.5 18.4477 208.948 18 209.5 18C210.052 18 210.5 18.4477 210.5 19Z" fill="#BEAC83"/>
<path d="M199.5 26C199.5 26.5523 199.052 27 198.5 27C197.948 27 197.5 26.5523 197.5 26C197.5 25.4477 197.948 25 198.5 25C199.052 25 199.5 25.4477 199.5 26Z" fill="#BEAC83"/>
<path d="M194.5 29C194.5 29.5523 194.052 30 193.5 30C192.948 30 192.5 29.5523 192.5 29C192.5 28.4477 192.948 28 193.5 28C194.052 28 194.5 28.4477 194.5 29Z" fill="#BEAC83"/>
<path d="M210.5 27C210.5 27.5523 210.052 28 209.5 28C208.948 28 208.5 27.5523 208.5 27C208.5 26.4477 208.948 26 209.5 26C210.052 26 210.5 26.4477 210.5 27Z" fill="#BEAC83"/>
<path d="M263.5 23C263.5 23.5523 263.052 24 262.5 24C261.948 24 261.5 23.5523 261.5 23C261.5 22.4477 261.948 22 262.5 22C263.052 22 263.5 22.4477 263.5 23Z" fill="#BEAC83"/>
<path d="M264.5 25C265.052 25 265.5 24.5523 265.5 24C265.5 23.4477 265.052 23 264.5 23C263.948 23 263.5 23.4477 263.5 24C263.5 24.5523 263.948 25 264.5 25Z" fill="#BEAC83"/>
<path d="M262.5 27C262.5 27.5523 262.052 28 261.5 28C260.948 28 260.5 27.5523 260.5 27C260.5 26.4477 260.948 26 261.5 26C262.052 26 262.5 26.4477 262.5 27Z" fill="#BEAC83"/>
<path fill-rule="evenodd" clip-rule="evenodd" d="M261.142 45.3311C261.262 45.5699 261.382 45.8076 261.5 46.0449L261.5 57.2715C260.355 56.0613 259.282 54.8186 258.382 53.4723C258.457 53.3316 258.5 53.1708 258.5 53C258.5 52.4477 258.052 52 257.5 52L257.495 52C257.171 51.3955 256.884 50.7679 256.643 50.1119C255.914 48.1342 255.518 45.8518 255.5 43.7457C255.498 43.4696 255.272 43.2476 254.996 43.25C254.72 43.2524 254.498 43.4782 254.5 43.7543C254.509 44.8274 254.611 45.9432 254.802 47.0464C254.707 47.0163 254.605 47 254.5 47C253.948 47 253.5 47.4477 253.5 48C253.5 48.5523 253.948 49 254.5 49C254.757 49 254.991 48.903 255.169 48.7436C255.322 49.3303 255.501 49.9046 255.704 50.4576C255.968 51.1717 256.28 51.8523 256.631 52.5048C256.548 52.6508 256.5 52.8198 256.5 53C255.948 53 255.5 53.4477 255.5 54C255.5 54.5263 255.907 54.9576 256.423 54.9971C256.278 55.1222 256.213 55.325 256.272 55.5198C257.34 59.0556 259.064 62.0432 261.5 64.7768L261.5 72.4881C259.491 71.3513 257.982 69.3791 256.656 67.3259C255.636 65.7464 254.815 63.954 254.025 62.1978C253.844 61.7949 253.712 61.3977 253.615 60.9934C254.113 60.9362 254.5 60.5132 254.5 60C254.5 59.4477 254.052 59 253.5 59C253.5 58.4477 253.052 58 252.5 58C253.052 58 253.5 57.5523 253.5 57C253.5 56.4477 253.052 56 252.5 56C251.948 56 251.5 56.4477 251.5 57C251.5 56.4477 251.052 56 250.5 56C249.948 56 249.5 56.4477 249.5 57C249.5 57.5523 249.948 58 250.5 58C251.052 58 251.5 57.5523 251.5 57C251.5 57.5523 251.948 58 252.5 58C251.948 58 251.5 58.4477 251.5 59C251.5 59.5323 251.916 59.9674 252.44 59.9983L252.441 60.0017C251.916 60.0324 251.5 60.4676 251.5 61C251.5 61.5523 251.948 62 252.5 62C252.623 62 252.74 61.9779 252.849 61.9375C252.925 62.1596 253.012 62.3827 253.113 62.6077C253.9 64.3569 254.749 66.2163 255.816 67.8685C257.241 70.0742 258.996 72.3978 261.5 73.6174L261.5 104.5H138.546C134.263 103.064 129.155 101.667 124.051 100.64C124.082 94.65 122.747 90.4863 120 84.5L127 74C126.333 73.8333 125.2 74.1 124 74.5C123.145 74.7849 121.818 77.2842 120.522 79.7229C119.998 80.7086 119.48 81.6844 119 82.5001C119.5 80.6667 120 77.2 120 76C120 74.8 119 73 119 73C119 73 117.5 78.6745 117.5 82C117.369 82.0654 117.079 82.1718 116.727 82.3012C116.182 82.5016 115.486 82.757 115 83.0001C114 83.5001 114 85.0001 114 85.0001C114 85.0001 115.667 85.6667 116.5 86.5C116.5 89.0294 116.59 96.0273 116.941 99.4719C115.209 99.2587 113.526 99.1107 111.928 99.0426C111.93 98.5944 111.974 98.1322 112.023 97.6208C112.133 96.4666 112.267 95.0613 112 92.9983C113.062 91.4054 113.369 86.8762 113 84.5C112.906 83.8928 111.5 83.5 111.5 83.5C111.5 83.5 111.5 89.8333 111 92C110.833 88.8333 109 84 109 84L108 86C108 86 109 90.5 109.5 92.9983C109.412 93.0859 109.296 93.1815 109.16 93.2932C108.319 93.9837 106.727 95.2917 106.522 99.1452C103.275 99.3936 99.7751 99.9226 96.3958 100.433C90.9157 101.262 85.7527 102.042 82.5 101.5C78.1948 100.782 73.8361 102.961 71.6603 104.5H0V105.5H446V104.5H403.5C399.647 103.149 398.659 101.892 397.896 100.922C396.977 99.753 396.385 99 391.5 99C387.379 99 382.524 99.7338 377.896 100.433C372.416 101.262 367.253 102.042 364 101.5C359.695 100.782 355.336 102.961 353.16 104.5H264.479C264.169 96.9627 263.862 85.1581 263.677 76.6226C263.889 76.6006 264.071 76.4434 264.115 76.2232C264.372 74.9407 264.769 73.6782 265.203 72.4017C265.312 72.0792 265.424 71.7549 265.537 71.4291L265.538 71.4268L265.538 71.4256C265.868 70.4725 266.202 69.5069 266.487 68.5369C267.015 66.7374 267.584 64.9509 268.158 63.1599L268.302 62.7093L268.303 62.7071L268.304 62.7044L268.305 62.7021L268.305 62.7001L268.306 62.6985C268.811 61.1234 269.317 59.5439 269.798 57.9549C270.205 57.8282 270.5 57.4486 270.5 57C271.052 57 271.5 56.5523 271.5 56C271.5 55.4477 271.052 55 270.5 55C269.948 55 269.5 55.4477 269.5 56C268.948 56 268.5 56.4477 268.5 57C268.5 57.2897 268.623 57.5507 268.82 57.7333C268.347 59.2946 267.849 60.8479 267.35 62.4054L267.206 62.8548C266.632 64.6455 266.06 66.4426 265.527 68.2551C265.25 69.2009 264.927 70.1346 264.599 71.0818L264.598 71.0838C264.484 71.4139 264.37 71.7457 264.256 72.0801C264.034 72.7341 263.817 73.3952 263.623 74.0645C263.546 70.2841 263.5 67.4636 263.5 66.471C263.5 65.6923 263.428 63.7211 263.312 61.0926C263.43 60.7372 263.55 60.3812 263.67 60.0243C264.253 58.2959 264.842 56.546 265.239 54.7318C265.298 54.4621 265.127 54.1956 264.857 54.1366C264.587 54.0777 264.321 54.2486 264.262 54.5184C263.976 55.8237 263.596 57.0718 263.185 58.321C263.115 56.8379 263.036 55.2371 262.951 53.583C262.981 53.5699 263.01 53.5536 263.038 53.534C263.567 53.1614 264.08 52.7777 264.575 52.3812C264.725 52.7444 265.083 53 265.5 53C266.052 53 266.5 52.5523 266.5 52C266.5 51.6353 266.305 51.3163 266.013 51.1416C267.378 49.8714 268.56 48.4707 269.506 46.8926C269.504 46.9079 269.503 46.9234 269.502 46.939C269.501 46.9504 269.501 46.962 269.5 46.9735L269.5 46.989L269.5 47C269.5 47.5523 269.948 48 270.5 48C271.052 48 271.5 47.5523 271.5 47C271.5 46.4477 271.052 46 270.5 46C270.274 46 270.066 46.0748 269.899 46.201C270.439 45.1953 270.887 44.1196 271.229 42.9628C271.315 42.987 271.406 43 271.5 43C272.052 43 272.5 42.5523 272.5 42C272.5 41.4477 272.052 41 271.5 41C271.5 40.4477 271.052 40 270.5 40C269.948 40 269.5 40.4477 269.5 41C269.5 41.5373 269.924 41.9757 270.455 41.999C269.339 46.4579 266.604 49.7042 262.891 52.4095C262.843 51.4855 262.793 50.5499 262.743 49.6135C264.247 47.3776 264.847 44.6062 265.255 41.9698C265.334 41.9895 265.416 42 265.5 42C266.052 42 266.5 41.5523 266.5 41C266.5 40.4613 266.074 40.0221 265.541 40.0008C265.567 39.8144 265.593 39.6297 265.62 39.4469C265.66 39.1736 265.47 38.9199 265.197 38.8802C264.924 38.8406 264.67 39.03 264.63 39.3032C264.592 39.5684 264.554 39.8356 264.516 40.1033L264.512 40.1304C264.185 42.4368 263.848 44.8116 263.026 46.9024C262.868 46.563 262.705 46.2252 262.539 45.8893C262.485 44.9165 262.43 43.9591 262.376 43.0298C262.488 42.2173 262.666 41.4148 262.849 40.5885L262.85 40.5828C263.035 39.7485 263.225 38.8898 263.343 38.011C263.461 37.1303 263.522 36.2445 263.571 35.3703C263.718 35.7393 264.079 36 264.5 36C265.052 36 265.5 35.5523 265.5 35C265.5 34.4477 265.052 34 264.5 34C265.052 34 265.5 33.5523 265.5 33C265.5 32.4477 265.052 32 264.5 32C264.318 32 264.147 32.0487 264 32.1338C263.937 32.0971 263.869 32.0672 263.798 32.045C263.842 31.6424 263.896 31.2426 263.966 30.8454C264.12 30.9433 264.303 31 264.5 31C265.052 31 265.5 30.5523 265.5 30C265.5 29.4477 265.052 29 264.5 29C264.13 29 263.807 29.2011 263.634 29.5001C263.402 29.4958 263.191 29.6542 263.137 29.8893C262.953 30.7002 262.841 31.5139 262.764 32.3229C262.6 32.5011 262.5 32.7388 262.5 33C262.5 33.2062 262.562 33.3978 262.669 33.557C262.662 33.6822 262.654 33.8071 262.647 33.9317C262.633 34.1787 262.62 34.4247 262.607 34.6693L262.606 34.6833C262.549 35.7638 262.493 36.8222 262.352 37.8782C262.296 38.2948 262.223 38.7084 262.14 39.1234C261.968 36.386 261.813 34.1778 261.698 32.9804C262.155 32.8885 262.5 32.4845 262.5 32C262.5 31.4477 262.052 31 261.5 31C262.052 31 262.5 30.5523 262.5 30C262.5 29.4477 262.052 29 261.5 29C260.948 29 260.5 29.4477 260.5 30C260.5 29.4477 260.052 29 259.5 29C258.948 29 258.5 29.4477 258.5 30C258.5 30.5523 258.948 31 259.5 31C260.052 31 260.5 30.5523 260.5 30C260.5 30.5523 260.948 31 261.5 31C260.948 31 260.5 31.4477 260.5 32C259.948 32 259.5 32.4477 259.5 33C259.5 33.5523 259.948 34 260.5 34C261.052 34 261.5 33.5523 261.5 33C261.5 33.0571 261.5 33.1167 261.5 33.1789V42.1714C261.455 42.4236 261.414 42.6774 261.38 42.9328C261.359 43.0825 261.407 43.2257 261.5 43.3308V43.809C261.148 43.093 260.812 42.3803 260.519 41.6588C260.218 40.9207 260.058 40.1358 259.925 39.3058C259.892 39.0984 259.86 38.8863 259.828 38.6714C259.733 38.0438 259.635 37.392 259.487 36.7606C259.424 36.4918 259.154 36.3252 258.886 36.3884C258.617 36.4517 258.45 36.7208 258.513 36.9896C258.652 37.5777 258.741 38.1702 258.833 38.7857C258.867 39.0086 258.901 39.2345 258.938 39.4643C259.074 40.312 259.248 41.1889 259.593 42.0359C259.991 43.0143 260.459 43.9689 260.929 44.9064C260.995 45.0389 261.062 45.1709 261.128 45.3027L261.142 45.3311ZM264.5 34C264.117 34 263.784 34.2158 263.616 34.5326C263.625 34.3507 263.635 34.1697 263.645 33.9895C263.773 33.9709 263.893 33.9282 264 33.8662C264.147 33.9513 264.318 34 264.5 34ZM261.266 58.4727C261.332 58.5415 261.414 58.587 261.5 58.6092V63.237C259.546 60.8451 258.14 58.2461 257.229 55.2305C257.182 55.0746 257.065 54.9587 256.924 54.9061C257.264 54.7467 257.5 54.4009 257.5 54L257.516 53.9999L257.531 53.9995C258.615 55.6258 259.921 57.083 261.266 58.4727Z" fill="#BEAC83"/>
<path d="M259.5 35C259.5 35.5523 259.052 36 258.5 36C257.948 36 257.5 35.5523 257.5 35C257.5 34.4477 257.948 34 258.5 34C259.052 34 259.5 34.4477 259.5 35Z" fill="#BEAC83"/>
<path d="M255.5 43C256.052 43 256.5 42.5523 256.5 42C256.5 41.4477 256.052 41 255.5 41C254.948 41 254.5 41.4477 254.5 42C254.5 42.5523 254.948 43 255.5 43Z" fill="#BEAC83"/>
<path d="M268.5 44C268.5 44.5523 268.052 45 267.5 45C266.948 45 266.5 44.5523 266.5 44C266.5 43.4477 266.948 43 267.5 43C268.052 43 268.5 43.4477 268.5 44Z" fill="#BEAC83"/>
<path d="M269.5 55C270.052 55 270.5 54.5523 270.5 54C270.5 53.4477 270.052 53 269.5 53C268.948 53 268.5 53.4477 268.5 54C268.5 54.5523 268.948 55 269.5 55Z" fill="#BEAC83"/>
<path d="M265.5 63C266.052 63 266.5 62.5523 266.5 62C266.5 61.4477 266.052 61 265.5 61C264.948 61 264.5 61.4477 264.5 62C264.5 62.5523 264.948 63 265.5 63Z" fill="#BEAC83"/>
<path d="M272.5 40C273.052 40 273.5 39.5523 273.5 39C273.5 38.4477 273.052 38 272.5 38C271.948 38 271.5 38.4477 271.5 39C271.5 39.5523 271.948 40 272.5 40Z" fill="#BEAC83"/>
<path d="M268.5 30C269.052 30 269.5 29.5523 269.5 29C269.5 28.4477 269.052 28 268.5 28C267.948 28 267.5 28.4477 267.5 29C267.5 29.5523 267.948 30 268.5 30Z" fill="#BEAC83"/>
<path d="M267.5 26C267.5 26.5523 267.052 27 266.5 27C265.948 27 265.5 26.5523 265.5 26C265.5 25.4477 265.948 25 266.5 25C267.052 25 267.5 25.4477 267.5 26Z" fill="#BEAC83"/>
<path d="M266.5 28C266.5 28.5523 266.052 29 265.5 29C264.948 29 264.5 28.5523 264.5 28C263.948 28 263.5 27.5523 263.5 27C263.5 26.4477 263.948 26 264.5 26C265.052 26 265.5 26.4477 265.5 27C266.052 27 266.5 27.4477 266.5 28Z" fill="#BEAC83"/>
<path d="M270.5 35C271.052 35 271.5 34.5523 271.5 34C271.5 33.4477 271.052 33 270.5 33C269.948 33 269.5 33.4477 269.5 34C269.5 34.5523 269.948 35 270.5 35Z" fill="#BEAC83"/>
<path d="M273.5 46C274.052 46 274.5 45.5523 274.5 45C274.5 44.4477 274.052 44 273.5 44C272.948 44 272.5 44.4477 272.5 45C272.5 45.5523 272.948 46 273.5 46Z" fill="#BEAC83"/>
<path d="M273.5 49C274.052 49 274.5 48.5523 274.5 48C274.5 47.4477 274.052 47 273.5 47C272.948 47 272.5 47.4477 272.5 48C272.5 48.5523 272.948 49 273.5 49Z" fill="#BEAC83"/>
<path d="M271.5 61C272.052 61 272.5 60.5523 272.5 60C272.5 59.4477 272.052 59 271.5 59C270.948 59 270.5 59.4477 270.5 60C270.5 60.5523 270.948 61 271.5 61Z" fill="#BEAC83"/>
<path d="M273.5 55C274.052 55 274.5 54.5523 274.5 54C274.5 53.4477 274.052 53 273.5 53C272.948 53 272.5 53.4477 272.5 54C272.5 54.5523 272.948 55 273.5 55Z" fill="#BEAC83"/>
<path d="M256.5 61C257.052 61 257.5 60.5523 257.5 60C257.5 59.4477 257.052 59 256.5 59C255.948 59 255.5 59.4477 255.5 60C255.5 60.5523 255.948 61 256.5 61Z" fill="#BEAC83"/>
<path d="M255.5 58C256.052 58 256.5 57.5523 256.5 57C256.5 56.4477 256.052 56 255.5 56C254.948 56 254.5 56.4477 254.5 57C254.5 57.5523 254.948 58 255.5 58Z" fill="#BEAC83"/>
<path d="M252.5 55C253.052 55 253.5 54.5523 253.5 54C253.5 53.4477 253.052 53 252.5 53C251.948 53 251.5 53.4477 251.5 54C250.948 54 250.5 54.4477 250.5 55C250.5 55.5523 250.948 56 251.5 56C252.052 56 252.5 55.5523 252.5 55Z" fill="#BEAC83"/>
<path d="M250.5 51C251.052 51 251.5 50.5523 251.5 50C251.5 50.5523 251.948 51 252.5 51C253.052 51 253.5 50.5523 253.5 50C253.5 49.4477 253.052 49 252.5 49C251.948 49 251.5 49.4477 251.5 50C251.5 49.4477 251.052 49 250.5 49C249.948 49 249.5 49.4477 249.5 50C249.5 50.5523 249.948 51 250.5 51Z" fill="#BEAC83"/>
<path d="M251.5 43C251.5 43.5523 251.052 44 250.5 44C249.948 44 249.5 43.5523 249.5 43C249.5 42.4477 249.948 42 250.5 42C251.052 42 251.5 42.4477 251.5 43Z" fill="#BEAC83"/>
<path d="M254.5 36C254.5 36.5523 254.052 37 253.5 37C252.948 37 252.5 36.5523 252.5 36C252.5 35.4477 252.948 35 253.5 35C254.052 35 254.5 35.4477 254.5 36Z" fill="#BEAC83"/>
<path d="M257.5 32C257.5 32.5523 257.052 33 256.5 33C255.948 33 255.5 32.5523 255.5 32C254.948 32 254.5 31.5523 254.5 31C254.5 30.4477 254.948 30 255.5 30C256.052 30 256.5 30.4477 256.5 31C257.052 31 257.5 31.4477 257.5 32Z" fill="#BEAC83"/>
<path d="M258.5 28C258.5 28.5523 258.052 29 257.5 29C256.948 29 256.5 28.5523 256.5 28C256.5 27.4477 256.948 27 257.5 27C258.052 27 258.5 27.4477 258.5 28Z" fill="#BEAC83"/>
<path d="M261.5 24C261.5 24.5523 261.052 25 260.5 25C260.5 25.5523 260.052 26 259.5 26C258.948 26 258.5 25.5523 258.5 25C258.5 24.4477 258.948 24 259.5 24C259.5 23.4477 259.948 23 260.5 23C261.052 23 261.5 23.4477 261.5 24Z" fill="#BEAC83"/>
<path d="M273.5 62C273.5 62.5523 273.052 63 272.5 63C271.948 63 271.5 62.5523 271.5 62C271.5 61.4477 271.948 61 272.5 61C273.052 61 273.5 61.4477 273.5 62Z" fill="#BEAC83"/>
<path d="M267.5 38C268.052 38 268.5 37.5523 268.5 37C268.5 36.4477 268.052 36 267.5 36C266.948 36 266.5 36.4477 266.5 37C266.5 37.5523 266.948 38 267.5 38Z" fill="#BEAC83"/>
<path d="M266.5 33C267.052 33 267.5 32.5523 267.5 32C267.5 31.4477 267.052 31 266.5 31C265.948 31 265.5 31.4477 265.5 32C265.5 32.5523 265.948 33 266.5 33Z" fill="#BEAC83"/>
<path d="M256.5 39C257.052 39 257.5 38.5523 257.5 38C257.5 37.4477 257.052 37 256.5 37C255.948 37 255.5 37.4477 255.5 38C255.5 38.5523 255.948 39 256.5 39Z" fill="#BEAC83"/>
<path d="M252.5 42C253.052 42 253.5 41.5523 253.5 41C253.5 40.4477 253.052 40 252.5 40C251.948 40 251.5 40.4477 251.5 41C251.5 41.5523 251.948 42 252.5 42Z" fill="#BEAC83"/>
<path d="M259.5 47C259.5 47.5523 259.052 48 258.5 48C257.948 48 257.5 47.5523 257.5 47C257.5 46.4477 257.948 46 258.5 46C259.052 46 259.5 46.4477 259.5 47Z" fill="#BEAC83"/>
</svg>
