<svg width="145" height="52" viewBox="0 0 145 52" fill="none" xmlns="http://www.w3.org/2000/svg">
<path fill-rule="evenodd" clip-rule="evenodd" d="M3.69304 7L5.37681 20.125L0.999261 21.8077L0.999161 25.8462L6.72365 28.5L5 35L-0.000976562 40L2 42L5 40L11.106 37.9375L17.32 43.1158L16.6798 43.884L10.8938 39.0623L5.56752 40.8637L5 42L5.99888 49H3.72365L2 52H20.7441L25 48V47L22 46.5V38L13.1216 23.8269L11.7748 20.4615L13.4583 7H10.091L8.74415 19.4519L6.72365 7H3.69304ZM7.99902 24C8.55131 24 8.99902 23.5523 8.99902 23C8.99902 22.4477 8.55131 22 7.99902 22C7.44674 22 6.99902 22.4477 6.99902 23C6.99902 23.5523 7.44674 24 7.99902 24Z" fill="#BEAC83"/>
<path fill-rule="evenodd" clip-rule="evenodd" d="M114.693 17L116.377 30.125L111.999 31.8077L111.999 35.8462L116.04 38.2019L119.744 48.9712H117.724L116.377 52H125.191L127.191 48H132.323L130.353 41.6008L136.917 40.5068L137.081 41.4932L131.645 42.3993L133.677 49H127.809L126.309 52H141.744L144.999 47.9615L144.326 45.6058L142.642 46.6154L139.611 38.875L124.121 33.8269L122.775 30.4615L124.458 17H121.091L119.744 29.4519L117.724 17H114.693ZM118.999 34C119.551 34 119.999 33.5523 119.999 33C119.999 32.4477 119.551 32 118.999 32C118.447 32 117.999 32.4477 117.999 33C117.999 33.5523 118.447 34 118.999 34Z" fill="#BEAC83"/>
<path fill-rule="evenodd" clip-rule="evenodd" d="M50.499 0L52.9992 19.5L46.4992 22L46.499 28L52.4992 31.5L58 48H55L52.9992 52H66.1528L67.6529 48H75.4003L73.4167 37.0903L82.9172 35.5068L83.0816 36.4932L74.5821 37.9098L76.5985 49H68.3459L67.2208 52H90.6658L95.499 46L94.499 42.5L91.999 44L87.499 32.5L64.499 25L62.4992 20L64.999 0H59.999L57.9992 18.5L54.999 0H50.499ZM55.999 24C56.5513 24 56.999 23.5523 56.999 23C56.999 22.4477 56.5513 22 55.999 22C55.4467 22 54.999 22.4477 54.999 23C54.999 23.5523 55.4467 24 55.999 24Z" fill="#BEAC83"/>
</svg>
