<svg width="61" height="64" viewBox="0 0 61 64" fill="none" xmlns="http://www.w3.org/2000/svg">
<path d="M14.1484 33.6625C9.83477 33.4965 0.822266 32.3368 0.822266 32.3368C0.822266 32.3368 1.12026 34.035 1.4452 35.6564C2.21772 35.7982 3.15736 35.9848 4.18648 36.1891L4.18765 36.1893L4.18874 36.1896C5.29188 36.4086 6.49775 36.648 7.71078 36.8747C10.6081 37.416 13.5528 37.8862 15.4189 37.8862C17.1934 37.8862 21.1337 37.909 25.5223 37.9345L25.525 37.9345C33.0507 37.9782 41.8951 38.0295 43.4047 37.9864C45.116 37.9375 48.1284 37.5185 51.2811 37.0052C54.0408 36.5558 56.8804 36.0389 58.9944 35.6487C59.3114 33.9586 59.6063 32.3377 59.6063 32.3377C59.6063 32.3377 49.7351 33.6072 45.1371 33.7584C39.2272 33.9529 20.0665 33.8902 14.1484 33.6625Z" fill="#BEAC83"/>
<path d="M58.7954 36.7022C56.7257 37.0833 54.0491 37.5676 51.4418 37.9922C48.2995 38.5038 45.2219 38.9349 43.4332 38.986C41.9081 39.0295 32.9944 38.9779 25.4485 38.9342L25.4262 38.934C21.0679 38.9088 17.1692 38.8862 15.4189 38.8862C13.4451 38.8862 10.4098 38.3963 7.52711 37.8577C6.28029 37.6247 5.06246 37.3828 3.95877 37.1635L3.95773 37.1633L3.95528 37.1628C3.1127 36.9954 2.33657 36.8412 1.66454 36.7143C1.8106 37.3907 1.94977 37.9703 2.05708 38.2896C2.43493 39.4121 3.11383 40.612 3.90041 41.7627C7.26613 42.2009 12.2873 42.6862 15.4189 42.6862H43.6023C45.3189 42.6862 52.7994 42.3629 57.3992 41.7224C57.7665 40.9233 58.078 40.0887 58.2825 39.2512C58.3764 38.8677 58.5775 37.8461 58.7954 36.7022Z" fill="#BEAC83"/>
<path d="M4.6998 42.8712C6.64194 45.437 8.8238 47.5135 8.8238 47.5135L30.2147 48.9471L53.5973 47.5144C53.5973 47.5144 55.4272 45.4709 56.8604 42.8022C52.1656 43.3932 45.2544 43.6862 43.6023 43.6862H15.4189C12.5101 43.6862 8.04016 43.2785 4.6998 42.8712Z" fill="#BEAC83"/>
<path d="M44.6584 32.8122L44.6626 32.8011C44.5717 32.8054 44.6584 32.8122 44.6584 32.8122Z" fill="#BEAC83"/>
<path d="M48.2051 23.3551L44.6626 32.8011C44.7215 32.7983 44.8554 32.7966 45.1364 32.7984C47.9087 32.8141 58.3872 31.5307 58.3872 31.5307C57.924 30.2917 54.9222 23.1643 54.9222 23.1643L56.2057 20.3939L55.7672 16.1005L60.3248 1.30913L55.6039 0L52.3655 13.1107L49.6802 0L45.4098 1.29346L48.9381 16.2876L45.6685 17.7037L44.7694 21.7012L48.2051 23.3551Z" fill="#BEAC83"/>
<path d="M45.9753 54.9164C46.2478 54.7042 46.2967 54.3113 46.0845 54.0387L21.371 22.2964C21.1588 22.0238 20.7659 21.9749 20.4933 22.1871C20.2208 22.3993 20.1718 22.7923 20.384 23.0648L45.0976 54.8072C45.3098 55.0797 45.7027 55.1286 45.9753 54.9164Z" fill="#F2EEE6"/>
<path d="M51.5148 60.3759C53.0138 59.2088 53.2829 57.0475 52.1158 55.5485L48.3794 50.7494C48.1684 50.4784 47.8912 50.2663 47.5744 50.1335L42.7631 48.1171L41.7762 48.8855L42.5513 54.0443C42.6024 54.384 42.74 54.7047 42.951 54.9758L46.6874 59.7749C47.8545 61.2739 50.0158 61.543 51.5148 60.3759Z" fill="#BEAC83"/>
<path d="M47.2643 54.9164C47.5369 54.7042 47.5858 54.3113 47.3736 54.0387L22.6601 22.2964C22.4479 22.0238 22.0549 21.9749 21.7824 22.1871C21.5098 22.3993 21.4609 22.7923 21.6731 23.0648L46.3866 54.8072C46.5988 55.0797 46.9918 55.1286 47.2643 54.9164Z" fill="#BEAC83"/>
<path d="M27.2546 36.0092C27.5271 35.797 27.576 35.4041 27.3638 35.1315L17.3709 22.2965C17.1587 22.024 16.7658 21.975 16.4932 22.1872C16.2207 22.3994 16.1718 22.7924 16.3839 23.0649L26.3769 35.8999C26.589 36.1725 26.982 36.2214 27.2546 36.0092Z" fill="#BEAC83"/>
</svg>
