<svg id="icon" width="94" height="44" viewBox="0 0 94 44" fill="none" xmlns="http://www.w3.org/2000/svg">
<path d="M47.0002 0.984863L93.1214 12.5152L92.8789 13.4853L47.0002 2.01564L1.12144 13.4853L0.878906 12.5152L47.0002 0.984863Z" fill="#BEAC83"/>
<path fill-rule="evenodd" clip-rule="evenodd" d="M21 19.0005H10V34.0005H21V19.0005ZM11 20.0005H20V26.0005H11V20.0005ZM11 33.0005V27.0005H15V33.0005H11ZM16 33.0005V27.0005H20V33.0005H16Z" fill="#BEAC83"/>
<path fill-rule="evenodd" clip-rule="evenodd" d="M30 34.0005V19.0005H41V34.0005H30ZM31 20.0005H40V26.0005H31V20.0005ZM31 27.0005V33.0005H35V27.0005H31ZM36 27.0005V33.0005H40V27.0005H36Z" fill="#BEAC83"/>
<path fill-rule="evenodd" clip-rule="evenodd" d="M53 34.0005H64V19.0005H53V34.0005ZM63 20.0005H54V26.0005H63V20.0005ZM54 27.0005H58V33.0005H54V27.0005ZM63 33.0005H59V27.0005H63V33.0005Z" fill="#BEAC83"/>
<path fill-rule="evenodd" clip-rule="evenodd" d="M73 19.0005H84V34.0005H73V19.0005ZM74 20.0005H83V26.0005H74V20.0005ZM83 27.0005V33.0005H79V27.0005H83ZM78 27.0005H74V33.0005H78V27.0005Z" fill="#BEAC83"/>
<path fill-rule="evenodd" clip-rule="evenodd" d="M4.06641 14.8668V39H89.9331V14.8668L46.9995 5L4.06641 14.8668ZM21.9995 18H8.99951V35H21.9995V18ZM28.9995 18H41.9995V35H28.9995V18ZM64.9995 18H51.9995V35H64.9995V18ZM71.9995 18H84.9995V35H71.9995V18Z" fill="#BEAC83"/>
<path d="M89.9331 44V40H4.06641V44H89.9331Z" fill="#BEAC83"/>
</svg>
