<svg width="128" height="50" viewBox="0 0 128 50" fill="none" xmlns="http://www.w3.org/2000/svg">
<path d="M108.167 18.7547C108.157 18.7556 108.146 18.7566 108.136 18.7576L108.17 18.7418C108.169 18.7461 108.168 18.7504 108.167 18.7547Z" fill="white"/>
<path d="M108.167 18.7547C106.998 23.8211 106.43 29.077 106.456 34.5278C106.456 36.2258 106.549 37.6997 106.736 38.9469L112.573 38.3668V33.9872C112.573 32.8904 112.626 31.6828 112.732 30.367L117.908 27.3638C118.066 27.2821 118.224 27.2399 118.382 27.2399C118.685 27.2399 118.851 27.5352 118.878 28.1232V31.862C118.878 33.2991 118.944 34.715 119.078 36.1124C119.16 36.7558 119.252 37.3042 119.36 37.7551C119.508 38.1796 119.677 38.4459 119.864 38.5567C121.203 38.8177 122.342 38.9469 123.281 38.9469C124.299 38.9759 124.821 38.4828 124.847 37.4677C124.679 34.069 124.549 30.8416 124.46 27.7857C124.433 25.004 124.818 22.1959 125.62 19.3588C125.694 19.1399 125.746 18.8736 125.778 18.5572C125.778 18.3172 125.752 18.1169 125.696 17.956C125.599 17.782 125.456 17.695 125.267 17.695C125.24 17.695 124.837 17.7424 124.062 17.8347C123.273 17.9428 121.781 18.1564 119.59 18.4755C119.276 19.6831 119.052 21.7002 118.915 24.5346C117.333 25.5471 116.117 26.2801 115.268 26.731C114.406 27.1687 113.768 27.3875 113.357 27.3875C113.143 27.3875 113.037 27.2926 113.037 27.1001C113.064 26.1852 113.283 24.9117 113.694 23.2822C113.747 23.0183 113.798 22.7611 113.848 22.5108C113.949 22.0081 114.044 21.5329 114.132 21.0858C114.266 20.3871 114.332 19.8676 114.332 19.5249C114.332 18.7602 114.008 18.3753 113.357 18.3753C112.325 18.4041 110.595 18.5297 108.167 18.7547Z" fill="white"/>
<path d="M120.671 1.08633L118.414 4.71972L119.355 5.33671C120.18 4.31103 121.064 3.77841 122.008 3.73622C122.764 3.77841 123.64 4.14755 124.634 4.84628C125.066 5.17587 125.446 5.5661 125.768 6.01698C126.047 6.46786 126.187 6.97411 126.187 7.53573C126.187 8.23182 126.092 8.83563 125.905 9.34188C125.675 9.84813 125.401 10.2647 125.079 10.5943C124.354 11.2113 123.637 11.504 122.925 11.4776C121.691 11.4776 120.787 11.1718 120.209 10.5548C119.606 10.0221 119.054 9.37879 118.559 8.62469C118.087 7.87059 117.404 7.21405 116.505 6.65243C115.592 6.09081 114.19 5.7955 112.299 5.76913C111.279 5.76913 110.414 5.93261 109.702 6.2622C109.017 6.63397 108.468 7.09803 108.051 7.65965C107.661 8.22127 107.387 8.82244 107.226 9.4658C107.039 10.1382 106.944 10.7947 106.944 11.4381C106.944 12.2001 107.1 12.941 107.413 13.6608L109.523 12.7353C109.351 12.556 109.172 12.2897 108.985 11.9338C108.745 11.5646 108.626 11.1243 108.626 10.618C108.626 10.0828 108.813 9.58446 109.191 9.11776C109.525 8.66424 109.982 8.4243 110.559 8.39793C111.192 8.42694 111.714 8.71961 112.13 9.28123C112.573 9.84285 113.061 10.502 113.599 11.2535C114.15 11.9812 114.949 12.6378 115.996 13.2258C117.016 13.8401 118.39 14.1486 120.122 14.1486C120.484 14.1486 121.087 14.0801 121.934 13.9429C122.764 13.7768 123.645 13.4578 124.57 12.9779C125.509 12.4453 126.308 11.6437 126.965 10.5785C127.595 9.51326 127.924 8.04198 127.951 6.16991C127.924 4.77773 127.687 3.6914 127.239 2.91093C126.804 2.17265 126.337 1.62685 125.836 1.2709C125.604 1.06787 125.224 0.801561 124.697 0.471972C124.167 0.18457 123.598 0.0263671 122.988 0C122.717 0 122.345 0.0527343 121.87 0.163476C121.396 0.340136 120.995 0.648632 120.671 1.08633Z" fill="white"/>
<path d="M16.9978 9.13358C17.156 9.91404 17.3617 11.2298 17.6148 13.0781C17.8548 14.9001 18.1263 16.8644 18.4296 18.9738C18.7486 21.0146 19.1257 22.7812 19.5634 24.2736C19.7743 24.9987 20.009 25.5603 20.2594 25.9584C20.4704 26.4093 20.7024 26.6361 20.9555 26.6361C21.1691 26.6361 21.4671 26.3698 21.852 25.8345C22.1711 25.2993 22.5217 24.6084 22.9067 23.7594C23.7162 21.9375 24.3516 19.8334 24.8183 17.4498C24.9765 16.4636 25.0583 15.4828 25.0583 14.5098C25.0319 12.3741 24.8447 10.7156 24.5019 9.53699L32.2038 9.13621C33.3165 19.7648 35.1094 29.5628 37.5747 38.5329L29.9546 39.0339C28.9211 34.6517 28.1432 30.8786 27.6264 27.7171C27.0833 24.5135 26.6508 22.1036 26.3344 20.4873H25.8756C25.0662 23.4615 24.1565 26.2775 23.1493 28.9353C22.1421 31.6617 21.5172 34.8494 21.2799 38.4934L13.6202 39.0339C13.752 37.705 13.818 36.3972 13.818 35.1105C13.7916 31.9754 13.4673 28.6136 12.8424 25.025C12.7105 24.176 12.5629 23.3876 12.4047 22.6626C12.2333 21.9638 12.0672 21.3627 11.9063 20.8538C11.7481 20.2921 11.582 19.8755 11.408 19.6013C11.2498 19.3139 11.0758 19.1689 10.8912 19.1689C10.6644 19.1689 10.4192 19.3957 10.1556 19.8465C8.33623 22.5044 7.16816 24.677 6.65137 26.3619C6.1583 28.0467 5.92627 29.7474 5.95528 31.4586C5.95528 33.597 6.49844 35.4875 7.5874 37.1328L7.6665 38.4907L0.122865 39.0313C0.0437637 38.2376 0.00421301 37.5442 0.00421301 36.9562C-0.051158 34.628 0.439271 32.0466 1.4755 29.2095C2.53809 26.3882 4.88477 22.3541 8.5208 17.107C9.25117 16.0391 9.72841 15.1136 9.95517 14.3332C10.1397 13.5395 10.2347 12.8065 10.2347 12.1342C10.2347 11.5725 10.2083 11.0373 10.1556 10.531L10.7726 9.81121L16.9978 9.13358Z" fill="white"/>
<path fill-rule="evenodd" clip-rule="evenodd" d="M51.4386 17.9244C52.1083 17.9244 52.5618 18.1432 52.7938 18.5809C53.0391 19.0608 53.1894 19.7094 53.2447 20.5321C53.7773 24.8985 55.0113 29.5945 56.9414 34.6174C57.2552 35.3425 57.5373 35.9595 57.7825 36.4657C58.0145 36.972 58.1306 37.3886 58.1306 37.7182C58.1306 37.8553 58.0752 37.9977 57.9671 38.1506C57.8168 38.2877 57.5215 38.3958 57.0838 38.4802L54.331 38.8098C53.8934 38.9047 53.5295 38.968 53.2421 38.9944C53.105 38.9944 52.9257 38.9073 52.7095 38.7333C52.4484 38.6252 52.2639 38.4538 52.1558 38.2139L50.0622 31.0948C49.1051 33.1883 48.1743 35.0077 47.2699 36.5528C46.3524 38.1111 45.2634 38.9258 44.0057 38.9944C43.5258 38.968 43.1145 38.6595 42.7743 38.0689C42.4184 37.4809 42.2417 36.6793 42.2417 35.6642C42.2681 34.4856 42.5634 33.2806 43.125 32.0466C43.6576 30.8153 44.2746 29.6208 44.9734 28.4712C45.6721 27.3216 46.2864 26.2669 46.8217 25.3072C47.3543 24.3474 47.6364 23.5749 47.6628 22.9842C47.6628 22.093 47.5468 21.2387 47.3148 20.4161C47.0695 19.6356 46.7057 19.0186 46.2258 18.5677L46.5343 17.927H51.4386V17.9244ZM48.7069 25.9874C48.4327 25.9874 48.1664 26.1667 47.9054 26.5227C47.6602 26.9208 47.4466 27.4139 47.2699 28.0045C46.914 29.2939 46.7373 30.5015 46.7373 31.6274C46.7373 32.45 46.8481 32.8772 47.0669 32.9035C47.4097 32.9035 47.7313 32.7453 48.0319 32.4316C48.3457 32.1574 48.5988 31.8067 48.7913 31.3822C49.2422 30.4488 49.4821 29.5918 49.5111 28.8087C49.4795 27.9703 49.2132 27.0289 48.7069 25.9874Z" fill="white"/>
<path d="M64.0922 19.2981C61.9433 20.5294 60.8411 22.8287 60.7884 26.1957L65.5608 25.7501C65.4817 25.2439 65.4422 24.7508 65.4422 24.2709C65.4685 20.7958 67.4935 19.0713 71.5119 19.0977C72.44 19.0977 73.2679 19.3772 73.9983 19.9388C74.7287 20.5004 75.3509 21.2387 75.8677 22.1563C76.9541 24.0732 77.4972 25.998 77.4972 27.9281C77.4972 29.1067 77.2757 30.1455 76.8354 31.0499C76.6482 31.4613 76.4004 31.8093 76.0919 32.0967C75.7965 32.3709 75.4828 32.508 75.1479 32.508C74.5441 32.508 74.0563 32.4131 73.6819 32.2206C73.2943 32.0835 72.9331 31.899 72.5982 31.6669C72.3029 31.4481 71.9891 31.2714 71.6543 31.1343C71.3062 30.984 70.9107 30.9076 70.4704 30.9076C69.3999 30.9076 68.4744 31.1343 67.6992 31.5852C66.8238 32.0914 66.3703 33.0011 66.3439 34.3142C66.3703 34.8758 66.6524 35.3267 67.185 35.6695C67.6913 36.0518 68.1712 36.2443 68.622 36.2443C68.9147 36.2443 69.2259 36.2179 69.5581 36.1625C69.8771 36.1072 70.2014 36.065 70.5337 36.0386C70.8527 35.9832 71.1638 35.941 71.4697 35.9147C71.7096 35.8857 71.9153 35.8725 72.0867 35.8725C73.0807 35.8461 73.8243 36.1388 74.3147 36.7558C74.7788 37.4282 75.0108 38.6463 75.0108 40.4129C74.9844 41.9053 74.6206 43.2395 73.9166 44.4181C73.5843 44.9797 73.26 45.4227 72.941 45.7523C72.6088 46.0924 72.324 46.2796 72.0841 46.306C71.6464 46.277 71.1032 46.0107 70.4519 45.507C69.8007 45.0008 69.0386 44.4286 68.1633 43.7879C67.3538 43.1182 66.4573 42.546 65.4764 42.0688C64.4956 41.5652 63.4752 41.312 62.4126 41.312C61.6559 41.312 60.7989 41.6469 59.8444 42.314C58.9031 42.9257 58.1464 43.6007 57.5769 44.3363L57.9354 44.9902C58.3731 44.716 58.8899 44.4945 59.4858 44.3311C60.0817 44.1808 60.5722 44.1043 60.9571 44.1043C61.5267 44.1043 62.1252 44.3996 62.7474 44.9876C63.3697 45.5782 64.0078 46.2691 64.6564 47.0627C65.0414 47.3923 65.4053 47.7272 65.7507 48.0699C66.0829 48.3995 66.4072 48.7212 66.7262 49.035C67.4434 49.652 68.1369 49.9736 68.8145 50C69.8745 49.9736 71.2087 49.4674 72.8118 48.4813C74.3754 47.5663 75.8546 46.6145 77.2467 45.6283C77.7108 45.2987 78.101 44.8057 78.4201 44.1491C78.7497 43.5585 79.0107 42.902 79.1953 42.1769C79.5802 40.6423 79.7727 39.411 79.7727 38.4802C79.7727 37.5494 79.6145 36.8033 79.3007 36.2416C79.0002 35.7196 78.6521 35.2898 78.254 34.947C77.8585 34.6042 77.5078 34.3379 77.2072 34.1454C76.8381 33.9793 76.6535 33.8106 76.6535 33.6313C76.6535 33.3861 76.9752 33.0776 77.6185 32.7084C78.2091 32.3788 78.9 31.9464 79.6936 31.4138C80.4767 30.8786 81.1596 30.222 81.7502 29.4415C82.3119 28.6743 82.6072 27.7646 82.6335 26.7099C82.5782 23.741 81.4259 21.4681 79.1715 19.894C76.9699 18.3199 74.4307 17.5315 71.5541 17.5315C68.6748 17.5051 66.1884 18.0931 64.0922 19.2981Z" fill="white"/>
<path fill-rule="evenodd" clip-rule="evenodd" d="M96.057 17.9244C96.7268 17.9244 97.1803 18.1432 97.4123 18.5809C97.6575 19.0608 97.8078 19.7094 97.8632 20.5321C98.3958 24.8985 99.6298 29.5945 101.56 34.6174C101.874 35.3425 102.156 35.9595 102.401 36.4657C102.633 36.972 102.749 37.3886 102.749 37.7182C102.749 37.8553 102.694 37.9977 102.586 38.1506C102.435 38.2877 102.14 38.3958 101.702 38.4802L98.9495 38.8098C98.5118 38.9047 98.1479 38.968 97.8605 38.9944C97.7234 38.9944 97.5441 38.9073 97.3279 38.7333C97.0669 38.6252 96.8823 38.4538 96.7742 38.2139L94.6807 31.0948C93.7235 33.1883 92.7928 35.0077 91.8884 36.5528C90.9708 38.1111 89.8819 38.9258 88.6241 38.9944C88.1443 38.968 87.7329 38.6595 87.3928 38.0689C87.0368 37.4809 86.8602 36.6793 86.8602 35.6642C86.8865 34.4856 87.1819 33.2806 87.7435 32.0466C88.2761 30.8153 88.8931 29.6208 89.5918 28.4712C90.2906 27.3216 90.9049 26.2669 91.4401 25.3072C91.9728 24.3474 92.2549 23.5749 92.2813 22.9842C92.2813 22.093 92.1653 21.2387 91.9332 20.4161C91.688 19.6356 91.3241 19.0186 90.8443 18.5677L91.1527 17.927H96.057V17.9244ZM93.328 25.9874C93.0538 25.9874 92.7875 26.1667 92.5265 26.5227C92.2813 26.9208 92.0677 27.4139 91.891 28.0045C91.5351 29.2939 91.3584 30.5015 91.3584 31.6274C91.3584 32.45 91.4692 32.8772 91.688 32.9035C92.0308 32.9035 92.3524 32.7453 92.653 32.4316C92.9668 32.1574 93.2199 31.8067 93.4124 31.3822C93.8633 30.4488 94.1032 29.5918 94.1322 28.8087C94.1006 27.9703 93.8343 27.0289 93.328 25.9874Z" fill="white"/>
</svg>
