<svg width="60" height="40" viewBox="0 0 60 40" fill="none" xmlns="http://www.w3.org/2000/svg">
<rect opacity="0.3" x="0.5" y="0.5" width="59" height="39" rx="3.5" stroke="#BEAC83"/>
<g opacity="0.8">
<path d="M45.6905 26.4424V26.0726H45.5905L45.4748 26.3266L45.3598 26.0726H45.2592V26.4424H45.3302V26.1635L45.4384 26.4042H45.5119L45.6201 26.1629V26.4424H45.6905ZM45.0561 26.4424V26.1356H45.1844V26.0732H44.8574V26.1356H44.9857V26.4424H45.0561Z" fill="#BEAC83"/>
<path d="M26.2227 20.5345C26.2227 17.4933 27.6996 14.7842 29.9995 13.0384C28.3176 11.7617 26.195 10.9997 23.8881 10.9997C18.4269 10.9997 14 15.2685 14 20.5345C14 25.8005 18.4269 30.0693 23.8881 30.0693C26.195 30.0693 28.3176 29.3074 29.9995 28.0307C27.6996 26.2849 26.2227 23.5758 26.2227 20.5345Z" fill="#BEAC83"/>
<path d="M46.0001 20.5345C46.0001 25.8005 41.5732 30.0693 36.112 30.0693C33.8051 30.0693 31.6825 29.3074 30 28.0307C32.3005 26.2849 33.7775 23.5758 33.7775 20.5345C33.7775 17.4933 32.3005 14.7842 30 13.0384C31.6825 11.7617 33.8051 10.9997 36.112 10.9997C41.5732 10.9997 46.0001 15.2685 46.0001 20.5345Z" fill="#BEAC83"/>
<path d="M26.583 20.5346C26.583 17.6806 27.8409 15.1383 29.9992 13.5C32.1581 15.1383 33.4372 17.6806 33.4372 20.5346C33.4372 23.3885 32.1585 25.9307 29.9998 27.569H29.999C27.8408 25.9307 26.583 23.3885 26.583 20.5346Z" fill="#BEAC83"/>
</g>
</svg>
