<svg width="72" height="28" viewBox="0 0 72 28" fill="none" xmlns="http://www.w3.org/2000/svg">
<path d="M60.5736 10.5026C60.5678 10.5032 60.5619 10.5037 60.5561 10.5042L60.5753 10.4954C60.5747 10.4978 60.5742 10.5002 60.5736 10.5026Z" fill="white"/>
<path d="M60.5736 10.5026C59.9191 13.3398 59.6008 16.2831 59.6155 19.3356C59.6155 20.2865 59.6672 21.1119 59.772 21.8103L63.0411 21.4854V19.0329C63.0411 18.4186 63.0707 17.7423 63.1297 17.0055L66.0282 15.3237C66.1168 15.278 66.2054 15.2543 66.294 15.2543C66.4638 15.2543 66.5568 15.4197 66.5716 15.749V17.8427C66.5716 18.6475 66.6085 19.4404 66.6838 20.223C66.7296 20.5832 66.7812 20.8904 66.8418 21.1429C66.9245 21.3806 67.019 21.5297 67.1238 21.5917C67.8739 21.7379 68.5118 21.8103 69.0374 21.8103C69.6074 21.8265 69.8997 21.5504 69.9145 20.9819C69.82 19.0786 69.7477 17.2713 69.6975 15.56C69.6827 14.0022 69.8983 12.4297 70.3471 10.8409C70.3885 10.7183 70.418 10.5692 70.4357 10.392C70.4357 10.2577 70.421 10.1454 70.39 10.0554C70.3353 9.95792 70.2556 9.90919 70.1493 9.90919C70.1345 9.90919 69.9086 9.93577 69.4745 9.98745C69.033 10.048 68.1973 10.1676 66.9702 10.3463C66.7945 11.0225 66.669 12.1521 66.5923 13.7394C65.7063 14.3064 65.0256 14.7169 64.5502 14.9694C64.0673 15.2145 63.71 15.337 63.4797 15.337C63.3601 15.337 63.301 15.2839 63.301 15.1761C63.3158 14.6637 63.4383 13.9505 63.6687 13.038C63.6981 12.8902 63.7269 12.7462 63.755 12.606C63.8113 12.3245 63.8645 12.0584 63.9138 11.808C63.9891 11.4168 64.026 11.1259 64.026 10.9339C64.026 10.5057 63.8444 10.2901 63.4797 10.2901C62.9019 10.3063 61.9332 10.3767 60.5736 10.5026Z" fill="white"/>
<path d="M67.5756 0.608343L66.3117 2.64304L66.8388 2.98856C67.301 2.41418 67.7956 2.11591 68.3243 2.09228C68.748 2.11591 69.2382 2.32263 69.7949 2.71392C70.0371 2.89849 70.2497 3.11702 70.4298 3.36951C70.5863 3.622 70.6646 3.9055 70.6646 4.22001C70.6646 4.60982 70.6114 4.94795 70.5066 5.23145C70.3782 5.51495 70.2246 5.74825 70.0444 5.93282C69.6384 6.27833 69.2368 6.44223 68.8381 6.42746C68.1471 6.42746 67.6406 6.25618 67.3172 5.91067C66.9791 5.6124 66.6705 5.25212 66.3929 4.82983C66.1286 4.40753 65.7462 4.03987 65.2427 3.72536C64.7318 3.41085 63.9463 3.24548 62.8876 3.23071C62.3161 3.23071 61.8318 3.32226 61.4332 3.50683C61.0492 3.71502 60.7421 3.9749 60.5088 4.28941C60.2903 4.60391 60.1367 4.94057 60.0467 5.30085C59.9418 5.67737 59.8887 6.04504 59.8887 6.40532C59.8887 6.83204 59.9758 7.24696 60.1515 7.65006L61.3327 7.13178C61.2368 7.03138 61.1364 6.88224 61.0315 6.68291C60.8972 6.47619 60.8307 6.2296 60.8307 5.94611C60.8307 5.64636 60.9356 5.36729 61.1467 5.10594C61.3342 4.85198 61.5897 4.71761 61.913 4.70284C62.2674 4.71908 62.5598 4.88298 62.7931 5.19749C63.0411 5.512 63.3143 5.88114 63.6155 6.30196C63.9241 6.70949 64.3715 7.07715 64.9577 7.40642C65.5291 7.75046 66.2984 7.92322 67.2685 7.92322C67.4708 7.92322 67.8089 7.88483 68.2829 7.80805C68.748 7.71502 69.2412 7.53636 69.7595 7.26763C70.2851 6.96936 70.7325 6.52049 71.1002 5.92396C71.4531 5.32743 71.6376 4.50351 71.6524 3.45515C71.6376 2.67553 71.5048 2.06718 71.2537 1.63012C71.0101 1.21669 70.7488 0.911037 70.4682 0.711702C70.3383 0.598007 70.1257 0.448874 69.8303 0.264304C69.5336 0.103359 69.2146 0.0147656 68.8735 0C68.7215 0 68.5133 0.0295312 68.2475 0.0915467C67.9817 0.190476 67.7573 0.363234 67.5756 0.608343Z" fill="white"/>
<path d="M9.51879 5.1148C9.60738 5.55186 9.72255 6.28867 9.8643 7.32374C9.99867 8.34404 10.1508 9.44408 10.3206 10.6253C10.4992 11.7682 10.7104 12.7575 10.9555 13.5932C11.0736 13.9993 11.205 14.3138 11.3453 14.5367C11.4634 14.7892 11.5934 14.9162 11.7351 14.9162C11.8547 14.9162 12.0216 14.7671 12.2371 14.4673C12.4158 14.1676 12.6122 13.7807 12.8278 13.3053C13.2811 12.285 13.6369 11.1067 13.8983 9.77187C13.9869 9.21964 14.0326 8.67036 14.0326 8.12551C14.0179 6.92949 13.913 6.00074 13.7211 5.34072L18.0341 5.11628C18.6572 11.0683 19.6613 16.5552 21.0419 21.5784L16.7746 21.859C16.1958 19.4049 15.7602 17.292 15.4708 15.5216C15.1666 13.7276 14.9245 12.378 14.7473 11.4729H14.4904C14.0371 13.1384 13.5276 14.7154 12.9636 16.2038C12.3996 17.7305 12.0496 19.5157 11.9167 21.5563L7.62731 21.859C7.70114 21.1148 7.73806 20.3824 7.73806 19.6619C7.72329 17.9062 7.54167 16.0236 7.19173 14.014C7.1179 13.5386 7.03521 13.0971 6.94662 12.691C6.85064 12.2997 6.75762 11.9631 6.66755 11.6781C6.57896 11.3636 6.48593 11.1303 6.38848 10.9767C6.29989 10.8158 6.20243 10.7346 6.09907 10.7346C5.97209 10.7346 5.83477 10.8616 5.68711 11.1141C4.66829 12.6024 4.01417 13.8191 3.72477 14.7626C3.44865 15.7062 3.31871 16.6585 3.33495 17.6168C3.33495 18.8143 3.63913 19.873 4.24894 20.7944L4.29324 21.5548L0.0688045 21.8575C0.0245077 21.4131 0.00235929 21.0247 0.00235929 20.6955C-0.0286485 19.3917 0.245992 17.9461 0.82628 16.3573C1.42133 14.7774 2.73547 12.5183 4.77165 9.57992C5.18065 8.98191 5.44791 8.46364 5.5749 8.02658C5.67826 7.58213 5.73141 7.17165 5.73141 6.79513C5.73141 6.48062 5.71665 6.18088 5.68711 5.89738L6.03263 5.49428L9.51879 5.1148Z" fill="white"/>
<path fill-rule="evenodd" clip-rule="evenodd" d="M28.8056 10.0377C29.1806 10.0377 29.4346 10.1602 29.5646 10.4053C29.7019 10.674 29.786 11.0373 29.817 11.498C30.1153 13.9432 30.8063 16.5729 31.8872 19.3858C32.0629 19.7918 32.2209 20.1373 32.3582 20.4208C32.4881 20.7043 32.5531 20.9376 32.5531 21.1222C32.5531 21.199 32.5221 21.2787 32.4616 21.3643C32.3774 21.4411 32.212 21.5017 31.9669 21.5489L30.4254 21.7335C30.1803 21.7866 29.9765 21.8221 29.8156 21.8368C29.7388 21.8368 29.6384 21.7881 29.5173 21.6907C29.3711 21.6301 29.2678 21.5341 29.2072 21.3998L28.0348 17.4131C27.4988 18.5855 26.9776 19.6043 26.4712 20.4695C25.9573 21.3422 25.3475 21.7984 24.6432 21.8368C24.3744 21.8221 24.1441 21.6493 23.9536 21.3186C23.7543 20.9893 23.6554 20.5404 23.6554 19.9719C23.6701 19.3119 23.8355 18.6371 24.15 17.9461C24.4483 17.2566 24.7938 16.5877 25.1851 15.9439C25.5764 15.3001 25.9204 14.7095 26.2201 14.172C26.5184 13.6346 26.6764 13.2019 26.6912 12.8712C26.6912 12.3721 26.6262 11.8937 26.4963 11.433C26.3589 10.9959 26.1552 10.6504 25.8864 10.3979L26.0592 10.0391H28.8056V10.0377ZM27.2759 14.553C27.1223 14.553 26.9732 14.6534 26.827 14.8527C26.6897 15.0757 26.5701 15.3518 26.4712 15.6825C26.2718 16.4046 26.1729 17.0808 26.1729 17.7113C26.1729 18.172 26.2349 18.4112 26.3575 18.426C26.5494 18.426 26.7296 18.3374 26.8979 18.1617C27.0736 18.0081 27.2153 17.8117 27.3231 17.574C27.5756 17.0513 27.71 16.5714 27.7262 16.1329C27.7085 15.6633 27.5594 15.1362 27.2759 14.553Z" fill="white"/>
<path d="M35.8916 10.8069C34.6882 11.4965 34.071 12.7841 34.0415 14.6696L36.7141 14.4201C36.6698 14.1366 36.6476 13.8605 36.6476 13.5917C36.6624 11.6456 37.7964 10.68 40.0467 10.6947C40.5664 10.6947 41.03 10.8512 41.4391 11.1657C41.8481 11.4802 42.1965 11.8937 42.4859 12.4075C43.0943 13.481 43.3984 14.5589 43.3984 15.6397C43.3984 16.2997 43.2744 16.8815 43.0278 17.388C42.923 17.6183 42.7842 17.8132 42.6114 17.9742C42.4461 18.1277 42.2704 18.2045 42.0828 18.2045C41.7447 18.2045 41.4715 18.1513 41.2619 18.0436C41.0448 17.9668 40.8425 17.8634 40.655 17.7335C40.4896 17.6109 40.3139 17.512 40.1264 17.4352C39.9315 17.3511 39.71 17.3082 39.4634 17.3082C38.8639 17.3082 38.3457 17.4352 37.9116 17.6877C37.4213 17.9712 37.1674 18.4806 37.1526 19.2159C37.1674 19.5305 37.3254 19.7829 37.6236 19.9749C37.9071 20.189 38.1759 20.2968 38.4283 20.2968C38.5922 20.2968 38.7665 20.282 38.9525 20.251C39.1312 20.22 39.3128 20.1964 39.4989 20.1816C39.6775 20.1506 39.8517 20.127 40.023 20.1122C40.1574 20.096 40.2726 20.0886 40.3685 20.0886C40.9252 20.0738 41.3416 20.2377 41.6162 20.5832C41.8761 20.9598 42.0061 21.6419 42.0061 22.6312C41.9913 23.467 41.7875 24.2141 41.3933 24.8741C41.2072 25.1886 41.0256 25.4367 40.847 25.6213C40.6609 25.8117 40.5014 25.9166 40.3671 25.9313C40.122 25.9151 39.8178 25.766 39.4531 25.4839C39.0884 25.2004 38.6616 24.88 38.1714 24.5212C37.7181 24.1462 37.2161 23.8258 36.6668 23.5585C36.1175 23.2765 35.5461 23.1347 34.951 23.1347C34.5273 23.1347 34.0474 23.3223 33.5129 23.6958C32.9857 24.0384 32.562 24.4164 32.243 24.8284L32.4439 25.1945C32.689 25.041 32.9784 24.9169 33.3121 24.8254C33.6458 24.7412 33.9204 24.6984 34.136 24.6984C34.4549 24.6984 34.7901 24.8638 35.1386 25.1931C35.487 25.5238 35.8444 25.9107 36.2076 26.3551C36.4232 26.5397 36.6269 26.7272 36.8204 26.9192C37.0064 27.1037 37.188 27.2839 37.3667 27.4596C37.7683 27.8051 38.1567 27.9852 38.5361 28C39.1297 27.9852 39.8769 27.7017 40.7746 27.1495C41.6502 26.6371 42.4786 26.1041 43.2582 25.5519C43.5181 25.3673 43.7366 25.0912 43.9152 24.7235C44.0998 24.3928 44.246 24.0251 44.3493 23.619C44.5649 22.7597 44.6727 22.0701 44.6727 21.5489C44.6727 21.0277 44.5841 20.6098 44.4084 20.2953C44.2401 20.003 44.0452 19.7623 43.8222 19.5703C43.6007 19.3784 43.4044 19.2292 43.236 19.1214C43.0293 19.0284 42.9259 18.9339 42.9259 18.8335C42.9259 18.6962 43.1061 18.5234 43.4664 18.3167C43.7971 18.1322 44.184 17.89 44.6284 17.5917C45.067 17.292 45.4494 16.9243 45.7801 16.4873C46.0946 16.0576 46.26 15.5482 46.2748 14.9575C46.2438 13.2949 45.5985 12.0221 44.3361 11.1406C43.1031 10.2591 41.6812 9.81764 40.0703 9.81764C38.4579 9.80288 37.0655 10.1321 35.8916 10.8069Z" fill="white"/>
<path fill-rule="evenodd" clip-rule="evenodd" d="M53.7919 10.0377C54.167 10.0377 54.421 10.1602 54.5509 10.4053C54.6882 10.674 54.7724 11.0373 54.8034 11.498C55.1017 13.9432 55.7927 16.5729 56.8735 19.3858C57.0492 19.7918 57.2072 20.1373 57.3445 20.4208C57.4745 20.7043 57.5394 20.9376 57.5394 21.1222C57.5394 21.199 57.5084 21.2787 57.4479 21.3643C57.3637 21.4411 57.1984 21.5017 56.9533 21.5489L55.4117 21.7335C55.1666 21.7866 54.9629 21.8221 54.8019 21.8368C54.7251 21.8368 54.6247 21.7881 54.5036 21.6907C54.3575 21.6301 54.2541 21.5341 54.1936 21.3998L53.0212 17.4131C52.4852 18.5855 51.964 19.6043 51.4575 20.4695C50.9437 21.3422 50.3338 21.7984 49.6295 21.8368C49.3608 21.8221 49.1304 21.6493 48.94 21.3186C48.7406 20.9893 48.6417 20.5404 48.6417 19.9719C48.6565 19.3119 48.8218 18.6371 49.1363 17.9461C49.4346 17.2566 49.7801 16.5877 50.1714 15.9439C50.5627 15.3001 50.9067 14.7095 51.2065 14.172C51.5047 13.6346 51.6627 13.2019 51.6775 12.8712C51.6775 12.3721 51.6125 11.8937 51.4826 11.433C51.3453 10.9959 51.1415 10.6504 50.8728 10.3979L51.0455 10.0391H53.7919V10.0377ZM52.2637 14.553C52.1101 14.553 51.961 14.6534 51.8148 14.8527C51.6775 15.0757 51.5579 15.3518 51.459 15.6825C51.2596 16.4046 51.1607 17.0808 51.1607 17.7113C51.1607 18.172 51.2227 18.4112 51.3453 18.426C51.5372 18.426 51.7174 18.3374 51.8857 18.1617C52.0614 18.0081 52.2032 17.8117 52.311 17.574C52.5634 17.0513 52.6978 16.5714 52.7141 16.1329C52.6963 15.6633 52.5472 15.1362 52.2637 14.553Z" fill="white"/>
</svg>
