<svg width="156" height="22" viewBox="0 0 156 22" fill="none" xmlns="http://www.w3.org/2000/svg">
<path d="M155.125 17C155.125 19.7614 152.886 22 150.125 22L123.524 22C123.18 22 122.843 21.9115 122.543 21.7432L107 13L107 9L122.543 0.256852C122.843 0.0884599 123.18 2.79268e-06 123.524 2.76266e-06L150.125 4.37114e-07C152.886 1.95703e-07 155.125 2.23858 155.125 5L155.125 17Z" fill="#BEAC83"/>
<path d="M133 11C133 12.1046 132.105 13 131 13L21 13L21 9.00001L131 9C132.105 9 133 9.89543 133 11Z" fill="#BEAC83"/>
<path d="M20 13L2 13C0.895432 13 -7.8281e-08 12.1046 -1.74846e-07 11C-2.7141e-07 9.89543 0.895429 9 2 9L20 9L20 13Z" fill="#BEAC83"/>
</svg>
