<svg id="icon" width="154" height="72" viewBox="0 0 154 72" fill="none" xmlns="http://www.w3.org/2000/svg">
<path d="M7.13074 54.449C7.42613 54.0901 7.85564 54 8.50004 54V55C8.20587 55 8.05288 55.0234 7.97219 55.0476C7.91883 55.0637 7.91003 55.0752 7.90443 55.0825L7.90287 55.0845C7.87962 55.1127 7.86635 55.1364 7.83639 55.1896C7.81737 55.2234 7.79164 55.2692 7.75238 55.3357C7.66581 55.4822 7.54758 55.6596 7.35359 55.8536L6.64648 55.1464C6.76347 55.0295 6.83274 54.9263 6.89137 54.8271C6.90021 54.8121 6.91095 54.793 6.92332 54.771C6.97264 54.6834 7.04786 54.5497 7.13074 54.449Z" fill="#BEAC83"/>
<path fill-rule="evenodd" clip-rule="evenodd" d="M9.45233 50.4118C9.35337 50.1675 9.20816 49.945 8.99181 49.7981C8.76244 49.6423 8.50523 49.6071 8.26478 49.6528C7.83501 49.7345 7.45718 50.0712 7.17351 50.4007C6.58325 51.0864 6.04423 52.1682 5.92077 52.9986C5.81891 53.6836 5.61726 54.0267 5.42809 54.299C5.40094 54.338 5.37114 54.3789 5.33978 54.4218C5.15638 54.6732 4.91976 54.9974 4.84862 55.4703C4.81638 55.6845 4.72917 55.8008 4.5891 55.9876C4.5611 56.025 4.53098 56.0651 4.49877 56.1095C4.41054 56.2309 4.28792 56.414 4.24627 56.6545C4.20178 56.9114 4.25974 57.1619 4.38918 57.4077C4.45959 57.5414 4.50647 57.6764 4.55504 57.8287L4.57114 57.8796C4.61231 58.0104 4.66504 58.178 4.73943 58.3251C4.83352 58.5112 4.97668 58.699 5.21424 58.8294C5.44094 58.9539 5.70627 58.9999 5.99982 58.9999C6.30468 58.9999 6.57508 58.9455 6.81185 58.8199C7.0503 58.6933 7.21583 58.5149 7.34126 58.3305C7.45894 58.1575 7.55262 57.9609 7.63414 57.7898L7.64038 57.7767C7.72655 57.5959 7.80903 57.4228 7.91612 57.2448C7.99991 57.1056 8.12795 56.9676 8.30503 56.8145C8.43441 56.7027 8.57002 56.599 8.72034 56.484C8.7819 56.4369 8.84594 56.3879 8.91302 56.3358C9.34282 56.0014 9.86703 55.5612 10.104 54.8861C10.2189 54.5589 10.2485 54.2458 10.1378 53.9565C10.0303 53.6758 9.82264 53.5076 9.68236 53.4051C9.62624 53.3641 9.57793 53.3297 9.53629 53.2999C9.33073 53.1532 9.28764 53.1224 9.26888 52.9977C9.22111 52.6802 9.28008 52.194 9.36214 51.6922C9.3754 51.6111 9.38945 51.5283 9.40325 51.4471C9.42863 51.2975 9.45317 51.153 9.47024 51.0339C9.48371 50.94 9.49528 50.8443 9.49938 50.7587C9.5022 50.6997 9.50903 50.5518 9.45233 50.4118ZM6.90989 53.1456C7.00089 52.5336 7.44186 51.6218 7.93139 51.0531C8.1778 50.7669 8.3602 50.6582 8.44211 50.6373C8.45432 50.6511 8.47485 50.6786 8.49945 50.7287C8.49677 50.7664 8.49071 50.8198 8.48037 50.892C8.46493 50.9996 8.44433 51.1208 8.42076 51.2595C8.40651 51.3432 8.39118 51.4334 8.37525 51.5308C8.29738 52.007 8.20507 52.6484 8.28001 53.1465C8.36823 53.7328 8.80966 54.0245 9.02088 54.164C9.04935 54.1828 9.07385 54.199 9.0925 54.2126C9.14266 54.2493 9.17058 54.2739 9.1876 54.2923C9.19533 54.3007 9.19935 54.3063 9.2013 54.3093C9.20309 54.312 9.20363 54.3134 9.20385 54.314C9.20404 54.3145 9.20494 54.3168 9.20577 54.3224C9.20663 54.3282 9.20767 54.3392 9.20677 54.3569C9.20494 54.3935 9.19496 54.4567 9.1605 54.5549C9.02937 54.9284 8.7267 55.2137 8.29895 55.5465C8.2471 55.5868 8.19225 55.6288 8.13578 55.672C7.9767 55.7937 7.8048 55.9251 7.65113 56.058C7.43761 56.2425 7.2209 56.4606 7.05929 56.7292C6.92681 56.9494 6.82631 57.1604 6.74353 57.3342L6.73484 57.3524C6.64555 57.5398 6.58298 57.6673 6.5144 57.7681C6.45192 57.86 6.39885 57.9069 6.34298 57.9366C6.28543 57.9671 6.18578 57.9999 5.99982 57.9999C5.80254 57.9999 5.72244 57.9677 5.69559 57.9529C5.6796 57.9441 5.66109 57.9317 5.63184 57.8739C5.59669 57.8044 5.57007 57.7207 5.52333 57.5737L5.50774 57.5248C5.45614 57.363 5.38766 57.1576 5.274 56.9418C5.24549 56.8876 5.23622 56.8549 5.23317 56.8396C5.23241 56.8358 5.232 56.8329 5.23177 56.8308L5.23151 56.8269L5.2316 56.8251C5.23217 56.8218 5.23742 56.7941 5.30773 56.6973C5.32384 56.6752 5.3433 56.65 5.36516 56.6217C5.51128 56.4325 5.7644 56.1048 5.83749 55.6191C5.86992 55.4035 5.95058 55.2904 6.12406 55.047C6.16138 54.9946 6.203 54.9362 6.24935 54.8695C6.50797 54.4972 6.78111 54.0118 6.90989 53.1456Z" fill="#BEAC83"/>
<path fill-rule="evenodd" clip-rule="evenodd" d="M10.1694 47.743C10.4635 47.9309 10.6864 48.2159 10.8434 48.5762C10.8433 48.5759 10.8433 48.5758 10.8434 48.5762C10.8441 48.5776 10.8481 48.5858 10.8575 48.6023C10.8682 48.6212 10.8829 48.6456 10.9023 48.6765C10.9416 48.7389 10.9922 48.8151 11.0547 48.909L11.069 48.9305C11.1896 49.1115 11.3431 49.3418 11.4987 49.6005C11.8172 50.13 12.1751 50.8262 12.2917 51.5466C12.3078 51.6461 12.3244 51.7443 12.3408 51.8416C12.4224 52.3256 12.5 52.7861 12.5 53.2745C12.5 53.8815 12.3833 54.5209 12.064 55.3663C11.7176 56.2836 11.1896 56.7956 10.6805 57.2212C10.5978 57.2904 10.5175 57.3561 10.4393 57.4199L10.4373 57.4216C10.0318 57.753 9.68601 58.0355 9.39172 58.4901C8.47172 59.9112 7.08141 60.5 5.3385 60.5C4.49802 60.5 3.94659 60.3664 3.56971 59.9229C3.40541 59.7296 3.2984 59.502 3.20879 59.3057L3.16861 59.2172C3.08679 59.0365 3.00338 58.8523 2.8848 58.643C2.51295 57.9866 2.46396 57.2932 2.51879 56.6399C2.554 56.2204 2.63966 55.7672 2.71986 55.3429C2.75874 55.1373 2.79633 54.9384 2.82626 54.7535C2.94064 54.0468 3.1738 53.5412 3.51988 52.9538C3.65317 52.7276 3.79373 52.5034 3.94927 52.2552C4.2121 51.8358 4.51786 51.348 4.90346 50.6674C5.069 50.3752 5.42467 49.9424 5.85288 49.5079C6.2891 49.0653 6.83539 48.5856 7.40655 48.2079C7.96362 47.8396 8.60752 47.5256 9.22589 47.5015C9.54743 47.489 9.87454 47.5546 10.1694 47.743ZM6.56512 50.2098C6.15505 50.6259 5.87338 50.9841 5.77354 51.1603C5.38618 51.844 5.04091 52.3964 4.76489 52.8379C4.61536 53.0771 4.48601 53.284 4.38146 53.4615C4.07148 53.9876 3.9009 54.3728 3.81341 54.9132C3.77383 55.1578 3.73049 55.3855 3.68894 55.6037C3.61485 55.9929 3.54646 56.3522 3.51529 56.7236C3.46918 57.2729 3.52113 57.7375 3.75488 58.1501C3.89741 58.4017 4.00008 58.6288 4.0817 58.8093L4.11852 58.8905C4.21187 59.095 4.26889 59.2014 4.33171 59.2753C4.40904 59.3663 4.56415 59.5 5.3385 59.5C6.82526 59.5 7.85754 59.0198 8.55227 57.9467C8.93909 57.3492 9.41901 56.9593 9.82797 56.6272C9.90081 56.568 9.97167 56.5104 10.0391 56.4541C10.4889 56.078 10.8693 55.6992 11.1285 55.013C11.4148 54.255 11.5 53.7363 11.5 53.2745C11.5 52.8769 11.439 52.5126 11.3584 52.0319C11.3412 51.9292 11.3231 51.8211 11.3045 51.7064C11.2193 51.1796 10.9431 50.6168 10.6418 50.116C10.4983 49.8775 10.356 49.6638 10.2342 49.481L10.2043 49.4362C10.0999 49.2796 9.98224 49.1031 9.92669 48.9757C9.83134 48.7569 9.72396 48.6451 9.63097 48.5857C9.53883 48.5268 9.42226 48.4946 9.26484 48.5007C8.92529 48.514 8.47014 48.7035 7.95808 49.0421C7.46011 49.3713 6.96719 49.8018 6.56512 50.2098Z" fill="#BEAC83"/>
<path fill-rule="evenodd" clip-rule="evenodd" d="M64.6346 37.2223C69.696 33.2965 72.8829 31.7476 75.219 30.8907C75.8418 30.6622 76.4 30.4844 76.9083 30.3256L77.0984 30.2662C77.5332 30.1307 77.9256 30.0083 78.301 29.874C79.1459 29.5718 79.8831 29.2164 80.6864 28.5562C82.3169 27.2161 83.2443 25.5093 84.1034 23.8256C84.1583 23.718 84.213 23.6102 84.2678 23.5023C85.0501 21.9614 85.8377 20.41 87.1469 19.4168C87.5782 19.0896 87.7489 18.5213 87.6191 17.6401C87.4899 16.7627 87.0757 15.7062 86.5196 14.6081C85.6253 12.8419 84.4253 11.081 83.6461 9.93756C83.4575 9.66081 83.2935 9.42015 83.1645 9.22444C82.3937 8.05498 81.4001 6.66347 80.4003 5.26321C79.7293 4.32354 79.0555 3.37992 78.4443 2.49683C78.1016 2.00155 77.8566 1.61054 77.7644 1.34901C77.7404 1.28078 77.7104 1.17813 77.7121 1.06271C77.7139 0.938506 77.7584 0.727448 77.9641 0.592676C78.1389 0.47814 78.3192 0.496728 78.3966 0.509831C78.488 0.525295 78.5721 0.557174 78.638 0.586257C78.8896 0.697305 79.2519 0.941084 79.6754 1.24633C80.1134 1.56205 80.663 1.97822 81.3061 2.46607C82.6622 3.49487 83.989 5.18175 85.1188 6.78715C85.6872 7.59479 86.2144 8.39467 86.6768 9.09628L86.6783 9.09855C87.1447 9.80623 87.5387 10.4037 87.8508 10.8246C87.9732 10.9898 88.0635 11.0407 88.1094 11.057C88.1479 11.0706 88.1983 11.076 88.2862 11.0449C88.5039 10.9679 88.7842 10.7318 89.1551 10.3428C89.2573 10.2356 89.3667 10.1163 89.4805 9.99226C89.7368 9.7128 90.0155 9.40901 90.2846 9.16375C90.6658 8.81639 91.1659 8.44929 91.7459 8.44929C92.0159 8.44929 92.4342 8.33509 92.9908 8.10384C93.5323 7.87888 94.1463 7.56884 94.7892 7.23017C95.0168 7.11025 95.2491 6.98603 95.483 6.86095C96.5395 6.29606 97.6288 5.71365 98.4611 5.43301C98.7107 5.34886 98.9794 5.28376 99.213 5.32091C99.343 5.34159 99.5198 5.40389 99.6453 5.57285C99.7713 5.74248 99.7785 5.92921 99.7603 6.05608C99.7278 6.28205 99.5923 6.49468 99.4753 6.65211C99.3436 6.82918 99.1695 7.02085 98.97 7.21552C98.1814 7.98472 96.8343 8.95379 95.5708 9.41855C94.6304 9.76446 93.6781 10.3739 92.9672 11.1428C92.2556 11.9124 91.8162 12.8065 91.8162 13.7302C91.8162 17.9441 90.7543 20.1154 89.4162 22.0999C89.1713 22.463 88.9203 22.8163 88.6673 23.1726C87.5585 24.7336 86.4099 26.3508 85.5636 29.09C84.9649 31.0278 83.4137 32.142 81.8141 32.9231C81.056 33.2933 80.2632 33.5998 79.5312 33.8829L79.4052 33.9316C78.6267 34.2329 77.9343 34.5064 77.3783 34.8131C76.2367 35.443 75.2439 36.199 74.2859 36.9887C73.9886 37.2337 73.6918 37.4845 73.3941 37.736C73.31 37.8071 73.2259 37.8782 73.1416 37.9492C73.1562 37.9502 73.1706 37.9511 73.1847 37.952C76.6326 38.1661 91.2861 37.0953 93.2255 35.8102C94.147 35.1997 95.3117 33.187 96.7428 30.7141C98.3237 27.9823 100.23 24.6887 102.492 22.1033C103.914 20.4779 104.914 19.0623 105.754 17.872C107.461 15.4551 108.512 13.967 111.111 13.5364C112.901 13.24 115.058 13.6731 117.286 14.1205C119.886 14.6426 122.582 15.184 124.903 14.6073C129.213 13.5364 127.92 17.1773 123.61 17.3915C121.582 17.4923 119.649 17.024 117.947 16.6114C116.031 16.1473 114.407 15.7537 113.266 16.3207C112.987 16.4595 112.689 16.5984 112.38 16.7428C110.302 17.7125 107.683 18.9345 106.371 22.1033C105.709 23.7005 105.172 24.6382 104.649 25.5493C103.981 26.7152 103.338 27.8374 102.492 30.2418C101.999 31.6396 101.14 32.8777 100.355 34.0083C98.7352 36.3423 97.4333 38.218 100.337 40.0936C102.082 41.2212 107.574 42.1381 113.764 43.1714C122.858 44.6894 133.457 46.4588 135.893 49.5172C139.168 53.6293 147.314 58.5124 150.977 60.4399C152.558 61.2966 155.244 62.9671 153.348 62.7958C151.488 62.6278 142.734 58.9018 137.278 56.5794L137.277 56.5789L137.276 56.5784C135.777 55.9405 134.527 55.4087 133.738 55.0856C132.21 54.4602 130.682 53.4621 129.106 52.4333C126.906 50.996 124.613 49.4988 122.101 48.8747C120.109 48.3795 116.355 48.6813 114.603 48.8222C114.312 48.8456 114.076 48.8645 113.913 48.8747C114.719 49.4934 115.913 51.1848 117.187 52.9895C118.411 54.7244 119.71 56.5639 120.809 57.6557C122.701 59.5364 126.462 64.74 128.902 68.117C130.075 69.7392 130.942 70.94 131.152 71.1485C131.799 71.791 124.903 70.0776 122.101 66.2225C121.614 65.551 121.053 64.676 120.423 63.6934C118.154 60.153 114.991 55.2164 111.111 53.3723C107.471 51.642 104.157 50.6511 99.8531 49.3645C98.2969 48.8993 96.6109 48.3953 94.734 47.8038C89.6391 46.1983 83.326 46.8005 77.1171 47.3928C72.5589 47.8277 68.0568 48.2571 64.1341 47.8038C61.3669 47.484 58.2923 46.9541 55.1569 46.4138C47.7932 45.1447 40.0946 43.8179 35.2581 45.0196C28.3624 46.7329 21.2742 50.2769 17.3723 55.0856C17.2287 55.2625 17.4152 55.4388 17.6107 55.6235C17.9157 55.9117 18.2426 56.2206 17.3723 56.5848C15.4098 57.4061 13.2222 58.9128 11.2993 60.2373C10.4714 60.8076 9.69244 61.3441 9.00171 61.7775C7.6448 62.7165 6.51415 63.1681 5.541 63.2832C3.61026 63.5117 2.43993 62.4009 1.59631 61.5969C1.02893 61.0562 0.725351 60.1694 0.58983 59.1973C0.451547 58.2055 0.475855 57.0353 0.642495 55.8307C0.974087 53.4338 1.88519 50.794 3.33405 49.0678C5.14114 46.9149 6.65051 45.7889 8.1752 45.2191C8.31702 45.1661 8.45852 45.1181 8.5999 45.0747C15.5985 40.1483 27.6697 35.9288 33.3187 34.5252C37.1155 33.5818 39.7178 34.2497 42.3603 34.928C43.9173 35.3276 45.4882 35.7308 47.3257 35.8102C50.3431 35.9406 57.9932 36.6267 64.2947 37.1918L64.2961 37.192C64.4093 37.2021 64.5223 37.2123 64.6346 37.2223ZM81.1924 4.65155C80.66 3.90567 80.1293 3.16235 79.6367 2.4591C79.9507 2.69333 80.3061 2.96266 80.7017 3.26275C81.9237 4.18981 83.175 5.76265 84.301 7.36267C84.8599 8.15685 85.3796 8.94524 85.8433 9.64885L85.8513 9.66102C86.3081 10.3541 86.717 10.9745 87.0475 11.4202C87.2473 11.6897 87.486 11.8968 87.7749 11.9994C88.0713 12.1046 88.3616 12.0789 88.6195 11.9877C89.0933 11.8202 89.5246 11.4044 89.8789 11.0328C90.0115 10.8937 90.137 10.7567 90.2588 10.6238C90.4974 10.3632 90.722 10.118 90.9581 9.90289C91.3222 9.57114 91.574 9.44929 91.7459 9.44929C92.2279 9.44929 92.8032 9.26467 93.3745 9.02732C93.9609 8.78368 94.6091 8.45534 95.2553 8.11489C95.5029 7.98444 95.7492 7.85288 95.9921 7.72316C96.7589 7.31365 97.4912 6.92253 98.1202 6.64301C97.391 7.3136 96.2512 8.10278 95.2256 8.48002C94.147 8.87678 93.0583 9.57123 92.233 10.4639C91.4084 11.3557 90.8162 12.4808 90.8162 13.7302C90.8162 17.717 89.8304 19.6968 88.587 21.5408C88.3586 21.8796 88.1186 22.217 87.8721 22.5635C86.7549 24.134 85.5055 25.8903 84.6081 28.7949C84.1326 30.3341 82.8909 31.2844 81.3753 32.0245C80.6569 32.3753 79.9008 32.6677 79.16 32.9543L79.0443 32.999C78.2786 33.2953 77.5209 33.5923 76.8952 33.9375C75.6736 34.6116 74.6254 35.413 73.6498 36.217C73.3318 36.4791 73.0244 36.7389 72.7219 36.9946L72.7204 36.9958C72.3797 37.2839 72.045 37.5668 71.7083 37.8418C70.326 37.7297 68.3535 37.5552 66.1079 37.3543C70.6051 33.9637 73.4727 32.5964 75.5634 31.8295C76.1625 31.6097 76.7019 31.4378 77.2066 31.28L77.3951 31.2212C77.8276 31.0864 78.2415 30.9574 78.6378 30.8156C79.5587 30.4862 80.406 30.0811 81.3214 29.3287C83.1283 27.8437 84.1345 25.9648 84.9941 24.2801L85.1236 24.026C85.9444 22.4137 86.6324 21.0623 87.7513 20.2135C88.6091 19.5627 88.7607 18.5283 88.6084 17.4944C88.4556 16.4567 87.9837 15.2857 87.4118 14.1563C86.4837 12.3235 85.2303 10.4853 84.4548 9.34791C84.2735 9.08202 84.1183 8.85442 83.9995 8.67414C83.2227 7.49557 82.2043 6.06893 81.1924 4.65155ZM9.63381 45.8467C9.26004 45.9187 8.89347 46.0182 8.52528 46.1558C7.22005 46.6436 5.84404 47.6329 4.09999 49.7107C2.81426 51.2425 1.94963 53.6794 1.63306 55.9678C1.47562 57.1059 1.45774 58.1805 1.58025 59.0593C1.70553 59.9579 1.96574 60.5676 2.28621 60.873C3.14024 61.6869 3.99928 62.4587 5.4235 62.2902C6.61253 62.1495 8.27778 61.344 10.6787 59.1194C12.0423 57.4433 13.0474 55.4943 13.2779 53.3723C13.5744 50.6427 11.8097 46.8031 9.63381 45.8467Z" fill="#BEAC83"/>
</svg>
