<svg width="812" height="199" viewBox="0 0 812 199" fill="none" xmlns="http://www.w3.org/2000/svg">
<path d="M195 88C198.478 88 202.826 84.8571 205 82C207.174 85 211.957 88 215 88" stroke="#BEAC83"/>
<path d="M294 106C297.652 106 302.217 102.857 304.5 100C306.783 103 311.804 106 315 106" stroke="#BEAC83"/>
<path d="M0 46C3.47826 46 7.82609 42.8571 10 40C12.1739 43 16.9565 46 20 46C23.4783 46 27.8261 42.8571 30 40C32.1739 43 36.9565 46 40 46" stroke="#BEAC83"/>
<path d="M698 91C701.652 91 706.217 87.8571 708.5 85C710.783 88 715.804 91 719 91" stroke="#BEAC83"/>
<path d="M513 43C516.652 43 521.217 39.8571 523.5 37C525.783 40 530.804 43 534 43" stroke="#BEAC83"/>
<path d="M71 7C74.4783 7 78.8261 3.85714 81 1C83.1739 4 87.9565 7 91 7" stroke="#BEAC83"/>
<path d="M428 198C431.478 198 435.826 194.857 438 192C440.174 195 444.957 198 448 198" stroke="#BEAC83"/>
<path d="M655 57C658.565 57 663.022 53.8571 665.25 51C667.478 54 672.38 57 675.5 57C679.065 57 683.522 53.8571 685.75 51C687.978 54 692.88 57 696 57" stroke="#BEAC83"/>
<path d="M234 140C237.478 140 241.826 136.857 244 134C246.174 137 250.957 140 254 140C257.478 140 261.826 136.857 264 134C266.174 137 270.957 140 274 140C277.478 140 281.826 136.857 284 134C286.174 137 290.957 140 294 140" stroke="#BEAC83"/>
<path d="M116 161C119.478 161 123.826 158.381 126 156C128.174 158.5 132.957 161 136 161C139.478 161 143.826 158.381 146 156C148.174 158.5 152.957 161 156 161C159.478 161 163.826 158.381 166 156C168.174 158.5 172.957 161 176 161" stroke="#BEAC83"/>
<path d="M751 7C754.536 7 758.957 3.85714 761.167 1C763.377 4 768.239 7 771.333 7C774.87 7 779.29 3.85714 781.5 1C783.71 4 788.572 7 791.667 7C795.203 7 799.623 3.85714 801.833 1C804.043 4 808.906 7 812 7" stroke="#BEAC83"/>
<path d="M481 177C484.478 177 488.826 173.857 491 171C493.174 174 497.957 177 501 177C504.478 177 508.826 173.857 511 171C513.174 174 517.957 177 521 177C524.478 177 528.826 173.857 531 171C533.174 174 537.957 177 541 177" stroke="#BEAC83"/>
<path d="M534 130C537.507 130 541.891 126.857 544.083 124C546.275 127 551.098 130 554.167 130C557.674 130 562.058 126.857 564.25 124C566.442 127 571.264 130 574.333 130C577.841 130 582.225 126.857 584.417 124C586.609 127 591.431 130 594.5 130C598.007 130 602.391 126.857 604.583 124C606.775 127 611.598 130 614.667 130C618.174 130 622.558 126.857 624.75 124C626.942 127 631.764 130 634.833 130C638.341 130 642.725 126.857 644.917 124C647.109 127 651.931 130 655 130" stroke="#BEAC83"/>
</svg>
