<svg width="300" height="71" viewBox="0 0 300 71" fill="none" xmlns="http://www.w3.org/2000/svg">
<path d="M0 70L300 70" stroke="#E5DECD"/>
<path d="M270.334 22.1195V70.0002H272.334C272.001 62.1032 271.667 46.5087 271.667 44.3142C271.667 41.571 270.334 16.6331 270.334 22.1195Z" fill="#E5DECD"/>
<circle cx="270.335" cy="18.0002" r="0.666667" fill="#E5DECD"/>
<circle cx="269.667" cy="22.0002" r="0.666667" fill="#E5DECD"/>
<circle cx="270.335" cy="20.0002" r="0.666667" fill="#E5DECD"/>
<circle cx="272.335" cy="20.0002" r="0.666667" fill="#E5DECD"/>
<circle cx="270.335" cy="21.3335" r="0.666667" fill="#E5DECD"/>
<circle cx="271.667" cy="22.0002" r="0.666667" fill="#E5DECD"/>
<circle cx="268.335" cy="23.3335" r="0.666667" fill="#E5DECD"/>
<circle cx="269.001" cy="20.0002" r="0.666667" fill="#E5DECD"/>
<circle cx="266.335" cy="28.0002" r="0.666667" fill="#E5DECD"/>
<circle cx="267.667" cy="35.3335" r="0.666667" fill="#E5DECD"/>
<circle cx="274.335" cy="29.3335" r="0.666667" fill="#E5DECD"/>
<circle cx="273.001" cy="34.6668" r="0.666667" fill="#E5DECD"/>
<circle cx="275.667" cy="36.0002" r="0.666667" fill="#E5DECD"/>
<circle cx="273.001" cy="41.3335" r="0.666667" fill="#E5DECD"/>
<circle cx="277.667" cy="26.0002" r="0.666667" fill="#E5DECD"/>
<circle cx="275.001" cy="19.3335" r="0.666667" fill="#E5DECD"/>
<circle cx="272.335" cy="16.0002" r="0.666667" fill="#E5DECD"/>
<circle cx="273.667" cy="17.3335" r="0.666667" fill="#E5DECD"/>
<circle cx="273.001" cy="18.6668" r="0.666667" fill="#E5DECD"/>
<circle cx="272.335" cy="22.0002" r="0.666667" fill="#E5DECD"/>
<circle cx="276.335" cy="22.6668" r="0.666667" fill="#E5DECD"/>
<circle cx="276.335" cy="27.3335" r="0.666667" fill="#E5DECD"/>
<circle cx="277.001" cy="28.0002" r="0.666667" fill="#E5DECD"/>
<circle cx="278.335" cy="30.0002" r="0.666667" fill="#E5DECD"/>
<circle cx="278.335" cy="32.0002" r="0.666667" fill="#E5DECD"/>
<circle cx="276.335" cy="37.3335" r="0.666667" fill="#E5DECD"/>
<circle cx="275.667" cy="38.0002" r="0.666667" fill="#E5DECD"/>
<circle cx="277.001" cy="40.0002" r="0.666667" fill="#E5DECD"/>
<circle cx="278.335" cy="36.0002" r="0.666667" fill="#E5DECD"/>
<circle cx="265.667" cy="32.0002" r="0.666667" fill="#E5DECD"/>
<circle cx="267.001" cy="36.0002" r="0.666667" fill="#E5DECD"/>
<circle cx="267.001" cy="40.0002" r="0.666667" fill="#E5DECD"/>
<circle cx="266.335" cy="38.0002" r="0.666667" fill="#E5DECD"/>
<circle cx="264.335" cy="36.0002" r="0.666667" fill="#E5DECD"/>
<circle cx="263.667" cy="36.6668" r="0.666667" fill="#E5DECD"/>
<circle cx="264.335" cy="38.0002" r="0.666667" fill="#E5DECD"/>
<circle cx="265.001" cy="40.0002" r="0.666667" fill="#E5DECD"/>
<circle cx="264.335" cy="40.6668" r="0.666667" fill="#E5DECD"/>
<circle cx="264.335" cy="39.3335" r="0.666667" fill="#E5DECD"/>
<circle cx="263.001" cy="38.0002" r="0.666667" fill="#E5DECD"/>
<circle cx="263.001" cy="33.3335" r="0.666667" fill="#E5DECD"/>
<circle cx="263.001" cy="28.6668" r="0.666667" fill="#E5DECD"/>
<circle cx="265.001" cy="24.0002" r="0.666667" fill="#E5DECD"/>
<circle cx="267.001" cy="21.3335" r="0.666667" fill="#E5DECD"/>
<circle cx="267.667" cy="18.6668" r="0.666667" fill="#E5DECD"/>
<circle cx="269.667" cy="16.0002" r="0.666667" fill="#E5DECD"/>
<circle cx="272.335" cy="23.3335" r="0.666667" fill="#E5DECD"/>
<circle cx="276.335" cy="31.3335" r="0.666667" fill="#E5DECD"/>
<circle cx="277.667" cy="41.3335" r="0.666667" fill="#E5DECD"/>
<circle cx="273.001" cy="27.3335" r="0.666667" fill="#E5DECD"/>
<circle cx="274.335" cy="24.6668" r="0.666667" fill="#E5DECD"/>
<circle cx="273.667" cy="21.3335" r="0.666667" fill="#E5DECD"/>
<circle cx="272.335" cy="18.0002" r="0.666667" fill="#E5DECD"/>
<circle cx="271.001" cy="15.3335" r="0.666667" fill="#E5DECD"/>
<circle cx="269.001" cy="16.6668" r="0.666667" fill="#E5DECD"/>
<circle cx="266.335" cy="20.6668" r="0.666667" fill="#E5DECD"/>
<circle cx="267.001" cy="25.3335" r="0.666667" fill="#E5DECD"/>
<circle cx="264.335" cy="27.3335" r="0.666667" fill="#E5DECD"/>
<circle cx="264.335" cy="33.3335" r="0.666667" fill="#E5DECD"/>
<circle cx="268.335" cy="31.3335" r="0.666667" fill="#E5DECD"/>
<path d="M268.668 24.5833C268.927 25.6824 268.941 26.8414 269.372 27.8982C269.892 29.1766 270.6 30.4036 271.168 31.6667" stroke="#E5DECD" stroke-linecap="round"/>
<path d="M272.75 26.25C272.416 28.5524 272.145 31.1648 270.75 33.0833" stroke="#E5DECD" stroke-linecap="round"/>
<path d="M267.168 36.9167C267.925 39.4209 269.184 41.5036 271.001 43.4167" stroke="#E5DECD" stroke-linecap="round"/>
<path d="M272.501 36.4167C272.113 38.195 271.452 39.8474 270.918 41.5833" stroke="#E5DECD" stroke-linecap="round"/>
<path d="M275.583 38.4167C274.859 40.819 274.045 43.1892 273.338 45.5972C272.833 47.3164 272.101 48.9958 271.75 50.75" stroke="#E5DECD" stroke-linecap="round"/>
<path d="M270.584 28.6667C270.738 27.5315 271.079 26.4356 271.232 25.2963C271.469 23.5307 271.354 21.7441 271.751 20" stroke="#E5DECD" stroke-linecap="round"/>
<path d="M266 29.1667C266.012 30.607 266.283 32.1668 266.782 33.5231C267.538 35.5729 268.923 37.2068 270.417 38.75" stroke="#E5DECD" stroke-linecap="round"/>
<path d="M264.584 39.25C264.605 40.0927 264.7 40.8302 265.047 41.6019C265.572 42.7703 266.129 43.9876 266.825 45.0648C267.921 46.7618 269.257 48.47 271.251 49.0833" stroke="#E5DECD" stroke-linecap="round"/>
<path d="M271.168 35.4167C273.876 33.5113 275.898 31.1903 276.668 27.9167" stroke="#E5DECD" stroke-linecap="round"/>
<path d="M48.334 5.66675V69.6667H50.3341C50.0008 59.1112 49.6674 38.2668 49.6674 35.3334C49.6674 31.6668 48.334 -1.66658 48.334 5.66675Z" fill="#E5DECD"/>
<path d="M49.334 46.3333C54.0007 44 54.334 43 62.6673 30.6667" stroke="#E5DECD"/>
<path d="M57.666 38.3333C60.9993 36 63.3327 34 63.666 33.3333" stroke="#E5DECD"/>
<path d="M49 36C54 28 58.3333 22 56.3333 8" stroke="#E5DECD"/>
<path d="M48.9993 30.6667C44.666 23.6667 41.9993 17.3333 41.9993 11.3333M48.9993 47C43.9993 46 39.3327 36 38.3327 31.3333C37.5327 27.6 36.8882 24.4445 36.666 23.3333" stroke="#E5DECD"/>
<path d="M56.666 18C58.266 14.5333 58.4438 12.4444 58.3327 11.3333M48.9993 39.3333C57.3327 32.6667 58.9993 28 59.9993 24.3333C60.7993 21.4 61.2216 17.5555 61.3327 16M48.666 22.3333C46.7993 19.1333 45.1105 10.1111 44.666 6.66666" stroke="#E5DECD"/>
<path d="M58.334 29C59.0007 27.6667 59.8755 27.065 60.5145 26.213C61.7855 24.5184 62.2185 22.6499 62.834 20.6667" stroke="#E5DECD" stroke-linecap="round"/>
<path d="M53.75 27.75C53.7637 26.5431 53.9167 25.3476 53.9167 24.1389C53.9167 21.9811 53.7878 19.824 53.75 17.6667" stroke="#E5DECD" stroke-linecap="round"/>
<path d="M52.0827 6.83334C51.9247 7.73069 51.8127 8.64158 51.4947 9.50001C51.1957 10.3073 50.8771 11.1071 50.5827 11.9167C49.9403 13.6831 48.8293 17.1221 48.666 19" stroke="#E5DECD" stroke-linecap="round"/>
<path d="M50.7507 3.08334C50.551 3.8821 50.2954 4.63511 49.9821 5.39816C49.249 7.18376 48.6673 7.33334 48.334 11" stroke="#E5DECD" stroke-linecap="round"/>
<path d="M44.916 3.33334C44.9296 5.21135 45.7685 6.35621 46.666 8.00001C47.513 9.55122 48.666 10.3333 48.666 15" stroke="#E5DECD" stroke-linecap="round"/>
<path d="M38.416 20C38.8809 21.6184 39.6954 23.268 40.4716 24.7546C41.8138 27.3256 45.3327 29.6667 48.666 34.3333" stroke="#E5DECD" stroke-linecap="round"/>
<path d="M39.8342 20.25C39.8342 21.4483 39.8256 22.6382 39.9175 23.8333" stroke="#E5DECD" stroke-linecap="round"/>
<path d="M34.916 28.3333C35.54 29.8567 37.466 32.2191 38.666 33.3333" stroke="#E5DECD" stroke-linecap="round"/>
<path d="M40.416 31C41.382 31.8434 42.3162 32.6606 43.1938 33.5926C44.0083 34.4576 44.9838 35.1889 45.6568 36.1759C46.3569 37.2029 46.8128 38.3971 47.3373 39.5185C47.9796 40.8917 48.5203 42.3129 48.9993 43.75" stroke="#E5DECD" stroke-linecap="round"/>
<path d="M49 51.75C49.6561 50.6422 50.3183 49.6603 51.3565 48.875C51.9555 48.4219 52.6321 48.09 53.2454 47.6574C54.2327 46.9609 55.11 46.1448 56 45.3333" stroke="#E5DECD" stroke-linecap="round"/>
<path d="M49.916 5.99999C50.5572 5.58848 51.1079 5.05571 51.666 4.54166" stroke="#E5DECD" stroke-linecap="round"/>
<path d="M49.625 15.5C50.9671 14.8631 52.246 14.2599 53.25 13.125" stroke="#E5DECD" stroke-linecap="round"/>
<path d="M51.834 31.625C53.4873 31.0521 54.5345 29.4572 55.4821 28.0741C56.1369 27.1185 56.6071 26.0876 56.8525 24.9537C57.0697 23.9499 57.1746 22.9268 57.3803 21.9213C57.5122 21.2762 57.7298 20.6946 57.959 20.0833" stroke="#E5DECD" stroke-linecap="round"/>
<path d="M56.834 25.6667C57.6305 24.8229 58.4646 24.021 59.2507 23.1667" stroke="#E5DECD" stroke-linecap="round"/>
<path d="M55.166 33.9167C55.8096 33.4681 56.5122 33.182 57.2262 32.8611C58.4412 32.3151 59.5133 31.6663 60.5827 30.875" stroke="#E5DECD" stroke-linecap="round"/>
<path d="M42.041 22.7083C42.1744 24.1839 42.5313 25.5706 43.041 26.9606C43.1693 27.3105 43.2197 27.6718 43.3327 28.0231C43.3923 28.2087 43.4577 28.3435 43.4577 28.5417" stroke="#E5DECD" stroke-linecap="round"/>
<path d="M39.916 16C40.775 16.6681 41.519 17.4678 42.2285 18.2917C42.665 18.7986 43.5449 20.0007 43.666 20.6667" stroke="#E5DECD" stroke-linecap="round"/>
<path d="M38.709 37.8333C39.32 38.1337 39.9673 38.3641 40.5608 38.6991C40.94 38.9131 41.2787 39.1803 41.5747 39.5C41.9255 39.8788 42.0963 40.3021 42.334 40.75" stroke="#E5DECD" stroke-linecap="round"/>
<path d="M43.9173 36.125C43.8704 36.8518 43.9173 37.5705 43.9173 38.2986C43.9173 39.2386 43.9379 40.1143 44.1025 41.0394C44.2141 41.6666 44.3578 42.2912 44.4497 42.9213C44.5125 43.352 44.5467 43.7352 44.9173 44" stroke="#E5DECD" stroke-linecap="round"/>
<path d="M55.584 40.9167C55.6974 40.3243 55.9034 39.7598 56.0331 39.1713C56.1466 38.6559 56.2482 38.13 56.3155 37.6065C56.4165 36.8204 56.3757 36.0395 56.3757 35.25" stroke="#E5DECD" stroke-linecap="round"/>
<circle cx="44.3327" cy="2.66667" r="0.666667" fill="#E5DECD"/>
<circle cx="48.3327" cy="5.33332" r="0.666667" fill="#E5DECD"/>
<circle cx="52.3327" cy="4.00001" r="0.666667" fill="#E5DECD"/>
<circle cx="41.6667" cy="11.3333" r="0.666667" fill="#E5DECD"/>
<circle cx="39.6667" cy="16" r="0.666667" fill="#E5DECD"/>
<circle cx="38.3327" cy="14.6667" r="0.666667" fill="#E5DECD"/>
<circle cx="40.3327" cy="14.6667" r="0.666667" fill="#E5DECD"/>
<circle cx="40.3327" cy="9.33332" r="0.666667" fill="#E5DECD"/>
<circle cx="49.6667" cy="8.66667" r="0.666667" fill="#E5DECD"/>
<circle cx="53.0007" cy="22" r="0.666667" fill="#E5DECD"/>
<circle cx="54.3327" cy="12" r="0.666667" fill="#E5DECD"/>
<circle cx="44.3327" cy="12" r="0.666667" fill="#E5DECD"/>
<circle cx="52.3327" cy="6.66667" r="0.666667" fill="#E5DECD"/>
<circle cx="48.3327" cy="3.33332" r="0.666667" fill="#E5DECD"/>
<circle cx="49.0007" cy="0.666667" r="0.666667" fill="#E5DECD"/>
<circle cx="47.6667" cy="2.00001" r="0.666667" fill="#E5DECD"/>
<circle cx="47.001" cy="4.00004" r="0.666667" transform="rotate(-10.4371 47.001 4.00004)" fill="#E5DECD"/>
<circle cx="45.6667" cy="2.00001" r="0.666667" fill="#E5DECD"/>
<circle cx="44.3327" cy="6.66667" r="0.666667" fill="#E5DECD"/>
<circle cx="43.6667" cy="8.66667" r="0.666667" fill="#E5DECD"/>
<circle cx="43.0007" cy="7.33332" r="0.666667" fill="#E5DECD"/>
<circle cx="41.0007" cy="11.3333" r="0.666667" fill="#E5DECD"/>
<circle cx="50.3327" cy="2.66667" r="0.666667" fill="#E5DECD"/>
<circle cx="51.0007" cy="5.33332" r="0.666667" fill="#E5DECD"/>
<circle cx="52.3327" cy="12" r="0.666667" fill="#E5DECD"/>
<circle cx="53.0007" cy="14" r="0.666667" fill="#E5DECD"/>
<circle cx="56.3327" cy="8.00001" r="0.666667" fill="#E5DECD"/>
<circle cx="57.0007" cy="10.6667" r="0.666667" fill="#E5DECD"/>
<circle cx="59.0007" cy="9.33332" r="0.666667" fill="#E5DECD"/>
<circle cx="58.3327" cy="11.3333" r="0.666667" fill="#E5DECD"/>
<circle cx="59.0007" cy="13.3333" r="0.666667" fill="#E5DECD"/>
<circle cx="59.6667" cy="11.3333" r="0.666667" fill="#E5DECD"/>
<circle cx="60.3327" cy="16.6667" r="0.666667" fill="#E5DECD"/>
<circle cx="58.3327" cy="20" r="0.666667" fill="#E5DECD"/>
<circle cx="58.3327" cy="18.6667" r="0.666667" fill="#E5DECD"/>
<circle cx="59.0007" cy="22" r="0.666667" fill="#E5DECD"/>
<circle cx="63.0007" cy="20.6667" r="0.666667" fill="#E5DECD"/>
<circle cx="63.6667" cy="22.6667" r="0.666667" fill="#E5DECD"/>
<circle cx="64.3327" cy="19.3333" r="0.666667" fill="#E5DECD"/>
<circle cx="63.6667" cy="33.3333" r="0.666667" fill="#E5DECD"/>
<circle cx="63.0007" cy="34.6667" r="0.666667" fill="#E5DECD"/>
<circle cx="65.0006" cy="34.6667" r="0.666667" fill="#E5DECD"/>
<circle cx="63.6667" cy="36.6667" r="0.666667" fill="#E5DECD"/>
<circle cx="64.3327" cy="34.6667" r="0.666667" fill="#E5DECD"/>
<circle cx="64.3327" cy="38" r="0.666667" fill="#E5DECD"/>
<circle cx="57.0007" cy="45.3333" r="0.666667" fill="#E5DECD"/>
<circle cx="55.6667" cy="45.3333" r="0.666667" fill="#E5DECD"/>
<circle cx="56.3327" cy="44.6667" r="0.666667" fill="#E5DECD"/>
<circle cx="57.6667" cy="42.6667" r="0.666667" fill="#E5DECD"/>
<circle cx="57.6667" cy="46.6667" r="0.666667" fill="#E5DECD"/>
<circle cx="58.3327" cy="44.6667" r="0.666667" fill="#E5DECD"/>
<circle cx="60.3327" cy="44.6667" r="0.666667" fill="#E5DECD"/>
<circle cx="44.3327" cy="44.6667" r="0.666667" fill="#E5DECD"/>
<circle cx="42.3327" cy="43.3333" r="0.666667" fill="#E5DECD"/>
<circle cx="43.0007" cy="45.3333" r="0.666667" fill="#E5DECD"/>
<circle cx="43.6667" cy="47.3333" r="0.666667" fill="#E5DECD"/>
<circle cx="59.0007" cy="48.6667" r="0.666667" fill="#E5DECD"/>
<circle cx="59.0007" cy="46.6667" r="0.666667" fill="#E5DECD"/>
<circle cx="58.3327" cy="47.3333" r="0.666667" fill="#E5DECD"/>
<circle cx="64.3327" cy="24" r="0.666667" fill="#E5DECD"/>
<circle cx="64.3327" cy="22" r="0.666667" fill="#E5DECD"/>
<circle cx="64.3327" cy="24" r="0.666667" fill="#E5DECD"/>
<circle cx="37.6667" cy="21.3333" r="0.666667" fill="#E5DECD"/>
<circle cx="36.3327" cy="18.6667" r="0.666667" fill="#E5DECD"/>
<circle cx="34.3327" cy="32.6667" r="0.666667" fill="#E5DECD"/>
<circle cx="39.0007" cy="40" r="0.666667" fill="#E5DECD"/>
<circle cx="37.6667" cy="38.6667" r="0.666667" fill="#E5DECD"/>
<circle cx="51.6667" cy="26" r="0.666667" fill="#E5DECD"/>
<circle cx="52.3327" cy="28" r="0.666667" fill="#E5DECD"/>
<circle cx="53.0007" cy="26" r="0.666667" fill="#E5DECD"/>
<circle cx="45.6667" cy="28" r="0.666667" fill="#E5DECD"/>
<circle cx="42.3327" cy="22.6667" r="0.666667" fill="#E5DECD"/>
<circle cx="43.6667" cy="24" r="0.666667" fill="#E5DECD"/>
<circle cx="33.6667" cy="31.3333" r="0.666667" fill="#E5DECD"/>
<circle cx="63.0007" cy="30.6667" r="0.666667" fill="#E5DECD"/>
<circle cx="62.3327" cy="28.6667" r="0.666667" fill="#E5DECD"/>
<circle cx="61.0007" cy="30.6667" r="0.666667" fill="#E5DECD"/>
<circle cx="59.0007" cy="30.6667" r="0.666667" fill="#E5DECD"/>
<circle cx="56.3327" cy="34.6667" r="0.666667" fill="#E5DECD"/>
<circle cx="55.6667" cy="36" r="0.666667" fill="#E5DECD"/>
<circle cx="57.6667" cy="34.6667" r="0.666667" fill="#E5DECD"/>
<circle cx="57.0007" cy="25.3333" r="0.666667" fill="#E5DECD"/>
<circle cx="59.6667" cy="23.3333" r="0.666667" fill="#E5DECD"/>
<circle cx="59.6667" cy="21.3333" r="0.666667" fill="#E5DECD"/>
<circle cx="53.0007" cy="20" r="0.666667" fill="#E5DECD"/>
<circle cx="54.3327" cy="20.6667" r="0.666667" fill="#E5DECD"/>
<circle cx="39.6667" cy="17.3333" r="0.666667" fill="#E5DECD"/>
<circle cx="37.0007" cy="16" r="0.666667" fill="#E5DECD"/>
<circle cx="38.3327" cy="16" r="0.666667" fill="#E5DECD"/>
<circle cx="39.0007" cy="16.6667" r="0.666667" fill="#E5DECD"/>
<circle cx="43.6667" cy="13.3333" r="0.666667" fill="#E5DECD"/>
<circle cx="42.3327" cy="8.00001" r="0.666667" fill="#E5DECD"/>
<circle cx="43.0007" cy="6.00001" r="0.666667" fill="#E5DECD"/>
<circle cx="45.0007" cy="3.33332" r="0.666667" fill="#E5DECD"/>
<circle cx="51.0007" cy="3.33332" r="0.666667" fill="#E5DECD"/>
<circle cx="51.0007" cy="2.00001" r="0.666667" fill="#E5DECD"/>
<circle cx="51.0007" cy="20" r="0.666667" fill="#E5DECD"/>
<circle cx="51.6667" cy="21.3333" r="0.666667" fill="#E5DECD"/>
<circle cx="40.3327" cy="20" r="0.666667" fill="#E5DECD"/>
<circle cx="37.6667" cy="20" r="0.666667" fill="#E5DECD"/>
<circle cx="37.0007" cy="24" r="0.666667" fill="#E5DECD"/>
<circle cx="36.3327" cy="22.6667" r="0.666667" fill="#E5DECD"/>
<circle cx="36.3327" cy="24.6667" r="0.666667" fill="#E5DECD"/>
<circle cx="37.6667" cy="25.3333" r="0.666667" fill="#E5DECD"/>
<circle cx="39.6667" cy="26" r="0.666667" fill="#E5DECD"/>
<circle cx="36.3327" cy="26.6667" r="0.666667" fill="#E5DECD"/>
<circle cx="34.3327" cy="25.3333" r="0.666667" fill="#E5DECD"/>
<circle cx="35.0007" cy="28.6667" r="0.666667" fill="#E5DECD"/>
<circle cx="35.0007" cy="30.6667" r="0.666667" fill="#E5DECD"/>
<circle cx="35.6667" cy="29.3333" r="0.666667" fill="#E5DECD"/>
<circle cx="40.3327" cy="30.6667" r="0.666667" fill="#E5DECD"/>
<circle cx="40.3327" cy="30" r="0.666667" fill="#E5DECD"/>
<circle cx="41.6667" cy="31.3333" r="0.666667" fill="#E5DECD"/>
<circle cx="38.3327" cy="37.3333" r="0.666667" fill="#E5DECD"/>
<circle cx="38.3327" cy="38" r="0.666667" fill="#E5DECD"/>
<circle cx="43.6667" cy="38" r="0.666667" fill="#E5DECD"/>
<circle cx="43.6667" cy="36" r="0.666667" fill="#E5DECD"/>
<circle cx="44.3327" cy="37.3333" r="0.666667" fill="#E5DECD"/>
<circle cx="39.0007" cy="19.3333" r="0.666667" fill="#E5DECD"/>
<circle cx="38.3327" cy="18.6667" r="0.666667" fill="#E5DECD"/>
<circle cx="61.6667" cy="16" r="0.666667" fill="#E5DECD"/>
<circle cx="61.6667" cy="18.6667" r="0.666667" fill="#E5DECD"/>
<circle cx="62.3327" cy="16.6667" r="0.666667" fill="#E5DECD"/>
<circle cx="62.3327" cy="14" r="0.666667" fill="#E5DECD"/>
<circle cx="54.3327" cy="10" r="0.666667" fill="#E5DECD"/>
<circle cx="53.6667" cy="12.6667" r="0.666667" fill="#E5DECD"/>
<circle cx="46.3327" cy="17.3333" r="0.666667" fill="#E5DECD"/>
<circle cx="43.0007" cy="19.3333" r="0.666667" fill="#E5DECD"/>
<circle cx="53.6667" cy="18" r="0.666667" fill="#E5DECD"/>
<path d="M18.0007 67.6667C22.0007 68.3333 30.334 66 36.334 66C42.2923 66 50.5516 67.9723 56.2155 69.9583L10.334 70C11.5562 69 14.8007 67.1333 18.0007 67.6667Z" fill="#E5DECD"/>
<path d="M236.667 67.6667C240.667 68.3333 249 66 255 66C260.958 66 257.336 67.6807 263 69.6667L229 70C230.222 69 233.467 67.1333 236.667 67.6667Z" fill="#E5DECD"/>
</svg>
