<svg id="icon" width="992" height="106" viewBox="0 0 992 106" fill="none" xmlns="http://www.w3.org/2000/svg">
<path d="M0 105L992 105" stroke="#E5DECD"/>
<path d="M212.5 33.1789C212.5 41.4084 212.5 91.1595 212.5 105H215.5C215 93.1545 214.5 69.7628 214.5 66.471C214.5 62.3562 212.5 24.9494 212.5 33.1789Z" fill="#E5DECD"/>
<circle cx="212.5" cy="27" r="1" fill="#E5DECD"/>
<circle cx="211.5" cy="33" r="1" fill="#E5DECD"/>
<circle cx="212.5" cy="30" r="1" fill="#E5DECD"/>
<circle cx="215.5" cy="30" r="1" fill="#E5DECD"/>
<circle cx="212.5" cy="32" r="1" fill="#E5DECD"/>
<circle cx="214.5" cy="33" r="1" fill="#E5DECD"/>
<circle cx="209.5" cy="35" r="1" fill="#E5DECD"/>
<circle cx="210.5" cy="30" r="1" fill="#E5DECD"/>
<circle cx="206.5" cy="42" r="1" fill="#E5DECD"/>
<circle cx="208.5" cy="53" r="1" fill="#E5DECD"/>
<circle cx="218.5" cy="44" r="1" fill="#E5DECD"/>
<circle cx="216.5" cy="52" r="1" fill="#E5DECD"/>
<circle cx="220.5" cy="54" r="1" fill="#E5DECD"/>
<circle cx="216.5" cy="62" r="1" fill="#E5DECD"/>
<circle cx="223.5" cy="39" r="1" fill="#E5DECD"/>
<circle cx="219.5" cy="29" r="1" fill="#E5DECD"/>
<circle cx="215.5" cy="24" r="1" fill="#E5DECD"/>
<circle cx="217.5" cy="26" r="1" fill="#E5DECD"/>
<circle cx="216.5" cy="28" r="1" fill="#E5DECD"/>
<circle cx="215.5" cy="33" r="1" fill="#E5DECD"/>
<circle cx="221.5" cy="34" r="1" fill="#E5DECD"/>
<circle cx="221.5" cy="41" r="1" fill="#E5DECD"/>
<circle cx="222.5" cy="42" r="1" fill="#E5DECD"/>
<circle cx="224.5" cy="45" r="1" fill="#E5DECD"/>
<circle cx="224.5" cy="48" r="1" fill="#E5DECD"/>
<circle cx="221.5" cy="56" r="1" fill="#E5DECD"/>
<circle cx="220.5" cy="57" r="1" fill="#E5DECD"/>
<circle cx="222.5" cy="60" r="1" fill="#E5DECD"/>
<circle cx="224.5" cy="54" r="1" fill="#E5DECD"/>
<circle cx="205.5" cy="48" r="1" fill="#E5DECD"/>
<circle cx="207.5" cy="54" r="1" fill="#E5DECD"/>
<circle cx="207.5" cy="60" r="1" fill="#E5DECD"/>
<circle cx="206.5" cy="57" r="1" fill="#E5DECD"/>
<circle cx="203.5" cy="54" r="1" fill="#E5DECD"/>
<circle cx="202.5" cy="55" r="1" fill="#E5DECD"/>
<circle cx="203.5" cy="57" r="1" fill="#E5DECD"/>
<circle cx="204.5" cy="60" r="1" fill="#E5DECD"/>
<circle cx="203.5" cy="61" r="1" fill="#E5DECD"/>
<circle cx="203.5" cy="59" r="1" fill="#E5DECD"/>
<circle cx="201.5" cy="57" r="1" fill="#E5DECD"/>
<circle cx="201.5" cy="50" r="1" fill="#E5DECD"/>
<circle cx="201.5" cy="43" r="1" fill="#E5DECD"/>
<circle cx="204.5" cy="36" r="1" fill="#E5DECD"/>
<circle cx="207.5" cy="32" r="1" fill="#E5DECD"/>
<circle cx="208.5" cy="28" r="1" fill="#E5DECD"/>
<circle cx="211.5" cy="24" r="1" fill="#E5DECD"/>
<circle cx="215.5" cy="35" r="1" fill="#E5DECD"/>
<circle cx="221.5" cy="47" r="1" fill="#E5DECD"/>
<circle cx="223.5" cy="62" r="1" fill="#E5DECD"/>
<circle cx="216.5" cy="41" r="1" fill="#E5DECD"/>
<circle cx="218.5" cy="37" r="1" fill="#E5DECD"/>
<circle cx="217.5" cy="32" r="1" fill="#E5DECD"/>
<circle cx="215.5" cy="27" r="1" fill="#E5DECD"/>
<circle cx="213.5" cy="23" r="1" fill="#E5DECD"/>
<circle cx="210.5" cy="25" r="1" fill="#E5DECD"/>
<circle cx="206.5" cy="31" r="1" fill="#E5DECD"/>
<circle cx="207.5" cy="38" r="1" fill="#E5DECD"/>
<circle cx="203.5" cy="41" r="1" fill="#E5DECD"/>
<circle cx="203.5" cy="50" r="1" fill="#E5DECD"/>
<circle cx="209.5" cy="47" r="1" fill="#E5DECD"/>
<path d="M210 36.875C210.388 38.5236 210.41 40.2621 211.056 41.8472C211.836 43.7648 212.897 45.6054 213.75 47.5" stroke="#E5DECD" stroke-linecap="round"/>
<path d="M216.125 39.375C215.624 42.8286 215.218 46.7473 213.125 49.625" stroke="#E5DECD" stroke-linecap="round"/>
<path d="M207.75 55.375C208.885 59.1314 210.774 62.2554 213.5 65.125" stroke="#E5DECD" stroke-linecap="round"/>
<path d="M215.75 54.625C215.167 57.2925 214.176 59.7712 213.375 62.375" stroke="#E5DECD" stroke-linecap="round"/>
<path d="M220.375 57.625C219.289 61.2285 218.068 64.7839 217.007 68.3958C216.25 70.9747 215.151 73.4937 214.625 76.125" stroke="#E5DECD" stroke-linecap="round"/>
<path d="M212.875 43C213.106 41.2973 213.618 39.6533 213.847 37.9444C214.202 35.296 214.03 32.6161 214.625 30" stroke="#E5DECD" stroke-linecap="round"/>
<path d="M206 43.75C206.019 45.9104 206.424 48.2501 207.174 50.2847C208.306 53.3594 210.385 55.8102 212.625 58.125" stroke="#E5DECD" stroke-linecap="round"/>
<path d="M203.875 58.875C203.907 60.139 204.049 61.2453 204.569 62.4028C205.357 64.1554 206.192 65.9814 207.236 67.5972C208.881 70.1427 210.885 72.705 213.875 73.625" stroke="#E5DECD" stroke-linecap="round"/>
<path d="M213.75 53.125C217.811 50.2669 220.845 46.7855 222 41.875" stroke="#E5DECD" stroke-linecap="round"/>
<path d="M152.5 8.50001C152.5 19.5 152.5 86 152.5 104.5H155.5C155 88.6667 154.5 57.4 154.5 53C154.5 47.5 152.5 -2.49999 152.5 8.50001Z" fill="#E5DECD"/>
<path d="M154 69.5C161 66 161.5 64.5 174 46" stroke="#E5DECD"/>
<path d="M166.5 57.5C171.5 54 175 51 175.5 50" stroke="#E5DECD"/>
<path d="M153.5 54C161 42 167.5 33 164.5 12" stroke="#E5DECD"/>
<path d="M153.5 46C147 35.5 143 26 143 17M153.5 70.5C146 69 139 54 137.5 47C136.3 41.4 135.333 36.6667 135 35" stroke="#E5DECD"/>
<path d="M165 27C167.4 21.8 167.667 18.6667 167.5 17M153.5 59C166 49 168.5 42 170 36.5C171.2 32.1 171.833 26.3333 172 24M153 33.5C150.2 28.7 147.667 15.1667 147 10" stroke="#E5DECD"/>
<path d="M167.5 43.5C168.5 41.5 169.812 40.5975 170.771 39.3194C172.677 36.7775 173.327 33.9748 174.25 31" stroke="#E5DECD" stroke-linecap="round"/>
<path d="M160.625 41.625C160.646 39.8146 160.875 38.0213 160.875 36.2083C160.875 32.9717 160.682 29.7361 160.625 26.5" stroke="#E5DECD" stroke-linecap="round"/>
<path d="M158.125 10.25C157.888 11.596 157.72 12.9624 157.243 14.25C156.795 15.4609 156.317 16.6606 155.875 17.875C154.911 20.5247 153.245 25.6831 153 28.5" stroke="#E5DECD" stroke-linecap="round"/>
<path d="M156.125 4.625C155.825 5.82313 155.442 6.95266 154.972 8.09722C153.872 10.7756 153 11 152.5 16.5" stroke="#E5DECD" stroke-linecap="round"/>
<path d="M147.375 5C147.395 7.81701 148.654 9.53429 150 12C151.27 14.3268 153 15.5 153 22.5" stroke="#E5DECD" stroke-linecap="round"/>
<path d="M137.625 30C138.322 32.4276 139.544 34.902 140.708 37.1319C142.722 40.9884 148 44.5 153 51.5" stroke="#E5DECD" stroke-linecap="round"/>
<path d="M139.75 30.375C139.75 32.1725 139.737 33.9574 139.875 35.75" stroke="#E5DECD" stroke-linecap="round"/>
<path d="M132.375 42.5C133.311 44.785 136.2 48.3286 138 50" stroke="#E5DECD" stroke-linecap="round"/>
<path d="M140.625 46.5C142.074 47.7651 143.475 48.9908 144.792 50.3889C146.013 51.6865 147.477 52.7834 148.486 54.2639C149.536 55.8043 150.22 57.5957 151.007 59.2778C151.97 61.3376 152.781 63.4694 153.5 65.625" stroke="#E5DECD" stroke-linecap="round"/>
<path d="M153.5 77.625C154.484 75.9634 155.477 74.4905 157.035 73.3125C157.933 72.6329 158.948 72.135 159.868 71.4861C161.349 70.4414 162.665 69.2172 164 68" stroke="#E5DECD" stroke-linecap="round"/>
<path d="M154.875 9C155.837 8.38274 156.663 7.58358 157.5 6.8125" stroke="#E5DECD" stroke-linecap="round"/>
<path d="M154.438 23.25C156.451 22.2946 158.369 21.3899 159.875 19.6875" stroke="#E5DECD" stroke-linecap="round"/>
<path d="M157.75 47.4375C160.23 46.5781 161.801 44.1858 163.222 42.1111C164.204 40.6778 164.91 39.1313 165.278 37.4306C165.604 35.9248 165.761 34.3903 166.069 32.8819C166.267 31.9143 166.594 31.0419 166.938 30.125" stroke="#E5DECD" stroke-linecap="round"/>
<path d="M165.25 38.5C166.445 37.2344 167.696 36.0315 168.875 34.75" stroke="#E5DECD" stroke-linecap="round"/>
<path d="M162.75 50.875C163.715 50.2021 164.769 49.773 165.84 49.2917C167.663 48.4727 169.271 47.4995 170.875 46.3125" stroke="#E5DECD" stroke-linecap="round"/>
<path d="M143.062 34.0625C143.263 36.2759 143.798 38.3559 144.562 40.441C144.755 40.9658 144.831 41.5077 145 42.0347C145.089 42.3131 145.188 42.5152 145.188 42.8125" stroke="#E5DECD" stroke-linecap="round"/>
<path d="M139.875 24C141.163 25.0021 142.28 26.2016 143.344 27.4375C143.999 28.1979 145.318 30.001 145.5 31" stroke="#E5DECD" stroke-linecap="round"/>
<path d="M138.062 56.75C138.979 57.2006 139.95 57.5461 140.84 58.0486C141.409 58.3696 141.917 58.7705 142.361 59.25C142.887 59.8182 143.144 60.4532 143.5 61.125" stroke="#E5DECD" stroke-linecap="round"/>
<path d="M145.875 54.1875C145.805 55.2776 145.875 56.3558 145.875 57.4479C145.875 58.8579 145.906 60.1715 146.153 61.559C146.32 62.4999 146.536 63.4368 146.674 64.3819C146.768 65.028 146.819 65.6029 147.375 66" stroke="#E5DECD" stroke-linecap="round"/>
<path d="M163.375 61.375C163.545 60.4864 163.854 59.6397 164.049 58.7569C164.219 57.9839 164.371 57.1949 164.472 56.4097C164.624 55.2305 164.562 54.0593 164.562 52.875" stroke="#E5DECD" stroke-linecap="round"/>
<circle cx="146.5" cy="4" r="1" fill="#E5DECD"/>
<circle cx="152.5" cy="8" r="1" fill="#E5DECD"/>
<circle cx="158.5" cy="6" r="1" fill="#E5DECD"/>
<circle cx="142.5" cy="17" r="1" fill="#E5DECD"/>
<circle cx="139.5" cy="24" r="1" fill="#E5DECD"/>
<circle cx="137.5" cy="22" r="1" fill="#E5DECD"/>
<circle cx="140.5" cy="22" r="1" fill="#E5DECD"/>
<circle cx="140.5" cy="14" r="1" fill="#E5DECD"/>
<circle cx="154.5" cy="13" r="1" fill="#E5DECD"/>
<circle cx="159.5" cy="33" r="1" fill="#E5DECD"/>
<circle cx="161.5" cy="18" r="1" fill="#E5DECD"/>
<circle cx="146.5" cy="18" r="1" fill="#E5DECD"/>
<circle cx="158.5" cy="10" r="1" fill="#E5DECD"/>
<circle cx="152.5" cy="5" r="1" fill="#E5DECD"/>
<circle cx="153.5" cy="1" r="1" fill="#E5DECD"/>
<circle cx="151.5" cy="3" r="1" fill="#E5DECD"/>
<circle cx="150.501" cy="6.00005" r="1" transform="rotate(-10.4371 150.501 6.00005)" fill="#E5DECD"/>
<circle cx="148.5" cy="3" r="1" fill="#E5DECD"/>
<circle cx="146.5" cy="10" r="1" fill="#E5DECD"/>
<circle cx="145.5" cy="13" r="1" fill="#E5DECD"/>
<circle cx="144.5" cy="11" r="1" fill="#E5DECD"/>
<circle cx="141.5" cy="17" r="1" fill="#E5DECD"/>
<circle cx="155.5" cy="4" r="1" fill="#E5DECD"/>
<circle cx="156.5" cy="8" r="1" fill="#E5DECD"/>
<circle cx="158.5" cy="18" r="1" fill="#E5DECD"/>
<circle cx="159.5" cy="21" r="1" fill="#E5DECD"/>
<circle cx="164.5" cy="12" r="1" fill="#E5DECD"/>
<circle cx="165.5" cy="16" r="1" fill="#E5DECD"/>
<circle cx="168.5" cy="14" r="1" fill="#E5DECD"/>
<circle cx="167.5" cy="17" r="1" fill="#E5DECD"/>
<circle cx="168.5" cy="20" r="1" fill="#E5DECD"/>
<circle cx="169.5" cy="17" r="1" fill="#E5DECD"/>
<circle cx="170.5" cy="25" r="1" fill="#E5DECD"/>
<circle cx="167.5" cy="30" r="1" fill="#E5DECD"/>
<circle cx="167.5" cy="28" r="1" fill="#E5DECD"/>
<circle cx="168.5" cy="33" r="1" fill="#E5DECD"/>
<circle cx="174.5" cy="31" r="1" fill="#E5DECD"/>
<circle cx="175.5" cy="34" r="1" fill="#E5DECD"/>
<circle cx="176.5" cy="29" r="1" fill="#E5DECD"/>
<circle cx="175.5" cy="50" r="1" fill="#E5DECD"/>
<circle cx="174.5" cy="52" r="1" fill="#E5DECD"/>
<circle cx="177.5" cy="52" r="1" fill="#E5DECD"/>
<circle cx="175.5" cy="55" r="1" fill="#E5DECD"/>
<circle cx="176.5" cy="52" r="1" fill="#E5DECD"/>
<circle cx="176.5" cy="57" r="1" fill="#E5DECD"/>
<circle cx="165.5" cy="68" r="1" fill="#E5DECD"/>
<circle cx="163.5" cy="68" r="1" fill="#E5DECD"/>
<circle cx="164.5" cy="67" r="1" fill="#E5DECD"/>
<circle cx="166.5" cy="64" r="1" fill="#E5DECD"/>
<circle cx="166.5" cy="70" r="1" fill="#E5DECD"/>
<circle cx="167.5" cy="67" r="1" fill="#E5DECD"/>
<circle cx="170.5" cy="67" r="1" fill="#E5DECD"/>
<circle cx="146.5" cy="67" r="1" fill="#E5DECD"/>
<circle cx="143.5" cy="65" r="1" fill="#E5DECD"/>
<circle cx="144.5" cy="68" r="1" fill="#E5DECD"/>
<circle cx="145.5" cy="71" r="1" fill="#E5DECD"/>
<circle cx="168.5" cy="73" r="1" fill="#E5DECD"/>
<circle cx="168.5" cy="70" r="1" fill="#E5DECD"/>
<circle cx="167.5" cy="71" r="1" fill="#E5DECD"/>
<circle cx="176.5" cy="36" r="1" fill="#E5DECD"/>
<circle cx="176.5" cy="33" r="1" fill="#E5DECD"/>
<circle cx="176.5" cy="36" r="1" fill="#E5DECD"/>
<circle cx="136.5" cy="32" r="1" fill="#E5DECD"/>
<circle cx="134.5" cy="28" r="1" fill="#E5DECD"/>
<circle cx="131.5" cy="49" r="1" fill="#E5DECD"/>
<circle cx="138.5" cy="60" r="1" fill="#E5DECD"/>
<circle cx="136.5" cy="58" r="1" fill="#E5DECD"/>
<circle cx="157.5" cy="39" r="1" fill="#E5DECD"/>
<circle cx="158.5" cy="42" r="1" fill="#E5DECD"/>
<circle cx="159.5" cy="39" r="1" fill="#E5DECD"/>
<circle cx="148.5" cy="42" r="1" fill="#E5DECD"/>
<circle cx="143.5" cy="34" r="1" fill="#E5DECD"/>
<circle cx="145.5" cy="36" r="1" fill="#E5DECD"/>
<circle cx="130.5" cy="47" r="1" fill="#E5DECD"/>
<circle cx="174.5" cy="46" r="1" fill="#E5DECD"/>
<circle cx="173.5" cy="43" r="1" fill="#E5DECD"/>
<circle cx="171.5" cy="46" r="1" fill="#E5DECD"/>
<circle cx="168.5" cy="46" r="1" fill="#E5DECD"/>
<circle cx="164.5" cy="52" r="1" fill="#E5DECD"/>
<circle cx="163.5" cy="54" r="1" fill="#E5DECD"/>
<circle cx="166.5" cy="52" r="1" fill="#E5DECD"/>
<circle cx="165.5" cy="38" r="1" fill="#E5DECD"/>
<circle cx="169.5" cy="35" r="1" fill="#E5DECD"/>
<circle cx="169.5" cy="32" r="1" fill="#E5DECD"/>
<circle cx="159.5" cy="30" r="1" fill="#E5DECD"/>
<circle cx="161.5" cy="31" r="1" fill="#E5DECD"/>
<circle cx="139.5" cy="26" r="1" fill="#E5DECD"/>
<circle cx="135.5" cy="24" r="1" fill="#E5DECD"/>
<circle cx="137.5" cy="24" r="1" fill="#E5DECD"/>
<circle cx="138.5" cy="25" r="1" fill="#E5DECD"/>
<circle cx="145.5" cy="20" r="1" fill="#E5DECD"/>
<circle cx="143.5" cy="12" r="1" fill="#E5DECD"/>
<circle cx="144.5" cy="9" r="1" fill="#E5DECD"/>
<circle cx="147.5" cy="5" r="1" fill="#E5DECD"/>
<circle cx="156.5" cy="5" r="1" fill="#E5DECD"/>
<circle cx="156.5" cy="3" r="1" fill="#E5DECD"/>
<circle cx="156.5" cy="30" r="1" fill="#E5DECD"/>
<circle cx="157.5" cy="32" r="1" fill="#E5DECD"/>
<circle cx="140.5" cy="30" r="1" fill="#E5DECD"/>
<circle cx="136.5" cy="30" r="1" fill="#E5DECD"/>
<circle cx="135.5" cy="36" r="1" fill="#E5DECD"/>
<circle cx="134.5" cy="34" r="1" fill="#E5DECD"/>
<circle cx="134.5" cy="37" r="1" fill="#E5DECD"/>
<circle cx="136.5" cy="38" r="1" fill="#E5DECD"/>
<circle cx="139.5" cy="39" r="1" fill="#E5DECD"/>
<circle cx="134.5" cy="40" r="1" fill="#E5DECD"/>
<circle cx="131.5" cy="38" r="1" fill="#E5DECD"/>
<circle cx="132.5" cy="43" r="1" fill="#E5DECD"/>
<circle cx="132.5" cy="46" r="1" fill="#E5DECD"/>
<circle cx="133.5" cy="44" r="1" fill="#E5DECD"/>
<circle cx="140.5" cy="46" r="1" fill="#E5DECD"/>
<circle cx="140.5" cy="45" r="1" fill="#E5DECD"/>
<circle cx="142.5" cy="47" r="1" fill="#E5DECD"/>
<circle cx="137.5" cy="56" r="1" fill="#E5DECD"/>
<circle cx="137.5" cy="57" r="1" fill="#E5DECD"/>
<circle cx="145.5" cy="57" r="1" fill="#E5DECD"/>
<circle cx="145.5" cy="54" r="1" fill="#E5DECD"/>
<circle cx="146.5" cy="56" r="1" fill="#E5DECD"/>
<circle cx="138.5" cy="29" r="1" fill="#E5DECD"/>
<circle cx="137.5" cy="28" r="1" fill="#E5DECD"/>
<circle cx="172.5" cy="24" r="1" fill="#E5DECD"/>
<circle cx="172.5" cy="28" r="1" fill="#E5DECD"/>
<circle cx="173.5" cy="25" r="1" fill="#E5DECD"/>
<circle cx="173.5" cy="21" r="1" fill="#E5DECD"/>
<circle cx="161.5" cy="15" r="1" fill="#E5DECD"/>
<circle cx="160.5" cy="19" r="1" fill="#E5DECD"/>
<circle cx="149.5" cy="26" r="1" fill="#E5DECD"/>
<circle cx="144.5" cy="29" r="1" fill="#E5DECD"/>
<circle cx="160.5" cy="27" r="1" fill="#E5DECD"/>
<path d="M900 8.50001C900 19.5 900 86 900 104.5H903C902.5 88.6667 902 57.4 902 53C902 47.5 900 -2.49999 900 8.50001Z" fill="#E5DECD"/>
<path d="M901.5 69.5C908.5 66 909 64.5 921.5 46" stroke="#E5DECD"/>
<path d="M914 57.5C919 54 922.5 51 923 50" stroke="#E5DECD"/>
<path d="M901 54C908.5 42 915 33 912 12" stroke="#E5DECD"/>
<path d="M901 46C894.5 35.5 890.5 26 890.5 17M901 70.5C893.5 69 886.5 54 885 47C883.8 41.4 882.833 36.6667 882.5 35" stroke="#E5DECD"/>
<path d="M912.5 27C914.9 21.8 915.167 18.6667 915 17M901 59C913.5 49 916 42 917.5 36.5C918.7 32.1 919.333 26.3333 919.5 24M900.5 33.5C897.7 28.7 895.167 15.1667 894.5 10" stroke="#E5DECD"/>
<path d="M915 43.5C916 41.5 917.312 40.5975 918.271 39.3194C920.177 36.7775 920.827 33.9748 921.75 31" stroke="#E5DECD" stroke-linecap="round"/>
<path d="M908.125 41.625C908.146 39.8146 908.375 38.0213 908.375 36.2083C908.375 32.9717 908.182 29.7361 908.125 26.5" stroke="#E5DECD" stroke-linecap="round"/>
<path d="M905.625 10.25C905.388 11.596 905.22 12.9624 904.743 14.25C904.295 15.4609 903.817 16.6606 903.375 17.875C902.411 20.5247 900.745 25.6831 900.5 28.5" stroke="#E5DECD" stroke-linecap="round"/>
<path d="M903.625 4.625C903.325 5.82313 902.942 6.95266 902.472 8.09722C901.372 10.7756 900.5 11 900 16.5" stroke="#E5DECD" stroke-linecap="round"/>
<path d="M894.875 5C894.895 7.81701 896.154 9.53429 897.5 12C898.77 14.3268 900.5 15.5 900.5 22.5" stroke="#E5DECD" stroke-linecap="round"/>
<path d="M885.125 30C885.822 32.4276 887.044 34.902 888.208 37.1319C890.222 40.9884 895.5 44.5 900.5 51.5" stroke="#E5DECD" stroke-linecap="round"/>
<path d="M887.25 30.375C887.25 32.1725 887.237 33.9574 887.375 35.75" stroke="#E5DECD" stroke-linecap="round"/>
<path d="M879.875 42.5C880.811 44.785 883.7 48.3286 885.5 50" stroke="#E5DECD" stroke-linecap="round"/>
<path d="M888.125 46.5C889.574 47.7651 890.975 48.9908 892.292 50.3889C893.513 51.6865 894.977 52.7834 895.986 54.2639C897.036 55.8043 897.72 57.5957 898.507 59.2778C899.47 61.3376 900.281 63.4694 901 65.625" stroke="#E5DECD" stroke-linecap="round"/>
<path d="M901 77.625C901.984 75.9634 902.977 74.4905 904.535 73.3125C905.433 72.6329 906.448 72.135 907.368 71.4861C908.849 70.4414 910.165 69.2172 911.5 68" stroke="#E5DECD" stroke-linecap="round"/>
<path d="M902.375 9C903.337 8.38274 904.163 7.58358 905 6.8125" stroke="#E5DECD" stroke-linecap="round"/>
<path d="M901.938 23.25C903.951 22.2946 905.869 21.3899 907.375 19.6875" stroke="#E5DECD" stroke-linecap="round"/>
<path d="M905.25 47.4375C907.73 46.5781 909.301 44.1858 910.722 42.1111C911.704 40.6778 912.41 39.1313 912.778 37.4306C913.104 35.9248 913.261 34.3903 913.569 32.8819C913.767 31.9143 914.094 31.0419 914.438 30.125" stroke="#E5DECD" stroke-linecap="round"/>
<path d="M912.75 38.5C913.945 37.2344 915.196 36.0315 916.375 34.75" stroke="#E5DECD" stroke-linecap="round"/>
<path d="M910.25 50.875C911.215 50.2021 912.269 49.773 913.34 49.2917C915.163 48.4727 916.771 47.4995 918.375 46.3125" stroke="#E5DECD" stroke-linecap="round"/>
<path d="M890.562 34.0625C890.763 36.2759 891.298 38.3559 892.062 40.441C892.255 40.9658 892.331 41.5077 892.5 42.0347C892.589 42.3131 892.688 42.5152 892.688 42.8125" stroke="#E5DECD" stroke-linecap="round"/>
<path d="M887.375 24C888.663 25.0021 889.78 26.2016 890.844 27.4375C891.499 28.1979 892.818 30.001 893 31" stroke="#E5DECD" stroke-linecap="round"/>
<path d="M885.562 56.75C886.479 57.2006 887.45 57.5461 888.34 58.0486C888.909 58.3696 889.417 58.7705 889.861 59.25C890.387 59.8182 890.644 60.4532 891 61.125" stroke="#E5DECD" stroke-linecap="round"/>
<path d="M893.375 54.1875C893.305 55.2776 893.375 56.3558 893.375 57.4479C893.375 58.8579 893.406 60.1715 893.653 61.559C893.82 62.4999 894.036 63.4368 894.174 64.3819C894.268 65.028 894.319 65.6029 894.875 66" stroke="#E5DECD" stroke-linecap="round"/>
<path d="M910.875 61.375C911.045 60.4864 911.354 59.6397 911.549 58.7569C911.719 57.9839 911.871 57.1949 911.972 56.4097C912.124 55.2305 912.062 54.0593 912.062 52.875" stroke="#E5DECD" stroke-linecap="round"/>
<circle cx="894" cy="4" r="1" fill="#E5DECD"/>
<circle cx="900" cy="8" r="1" fill="#E5DECD"/>
<circle cx="906" cy="6" r="1" fill="#E5DECD"/>
<circle cx="890" cy="17" r="1" fill="#E5DECD"/>
<circle cx="887" cy="24" r="1" fill="#E5DECD"/>
<circle cx="885" cy="22" r="1" fill="#E5DECD"/>
<circle cx="888" cy="22" r="1" fill="#E5DECD"/>
<circle cx="888" cy="14" r="1" fill="#E5DECD"/>
<circle cx="902" cy="13" r="1" fill="#E5DECD"/>
<circle cx="907" cy="33" r="1" fill="#E5DECD"/>
<circle cx="909" cy="18" r="1" fill="#E5DECD"/>
<circle cx="894" cy="18" r="1" fill="#E5DECD"/>
<circle cx="906" cy="10" r="1" fill="#E5DECD"/>
<circle cx="900" cy="5" r="1" fill="#E5DECD"/>
<circle cx="901" cy="1" r="1" fill="#E5DECD"/>
<circle cx="899" cy="3" r="1" fill="#E5DECD"/>
<circle cx="898.001" cy="6.00005" r="1" transform="rotate(-10.4371 898.001 6.00005)" fill="#E5DECD"/>
<circle cx="896" cy="3" r="1" fill="#E5DECD"/>
<circle cx="894" cy="10" r="1" fill="#E5DECD"/>
<circle cx="893" cy="13" r="1" fill="#E5DECD"/>
<circle cx="892" cy="11" r="1" fill="#E5DECD"/>
<circle cx="889" cy="17" r="1" fill="#E5DECD"/>
<circle cx="903" cy="4" r="1" fill="#E5DECD"/>
<circle cx="904" cy="8" r="1" fill="#E5DECD"/>
<circle cx="906" cy="18" r="1" fill="#E5DECD"/>
<circle cx="907" cy="21" r="1" fill="#E5DECD"/>
<circle cx="912" cy="12" r="1" fill="#E5DECD"/>
<circle cx="913" cy="16" r="1" fill="#E5DECD"/>
<circle cx="916" cy="14" r="1" fill="#E5DECD"/>
<circle cx="915" cy="17" r="1" fill="#E5DECD"/>
<circle cx="916" cy="20" r="1" fill="#E5DECD"/>
<circle cx="917" cy="17" r="1" fill="#E5DECD"/>
<circle cx="918" cy="25" r="1" fill="#E5DECD"/>
<circle cx="915" cy="30" r="1" fill="#E5DECD"/>
<circle cx="915" cy="28" r="1" fill="#E5DECD"/>
<circle cx="916" cy="33" r="1" fill="#E5DECD"/>
<circle cx="922" cy="31" r="1" fill="#E5DECD"/>
<circle cx="923" cy="34" r="1" fill="#E5DECD"/>
<circle cx="924" cy="29" r="1" fill="#E5DECD"/>
<circle cx="923" cy="50" r="1" fill="#E5DECD"/>
<circle cx="922" cy="52" r="1" fill="#E5DECD"/>
<circle cx="925" cy="52" r="1" fill="#E5DECD"/>
<circle cx="923" cy="55" r="1" fill="#E5DECD"/>
<circle cx="924" cy="52" r="1" fill="#E5DECD"/>
<circle cx="924" cy="57" r="1" fill="#E5DECD"/>
<circle cx="913" cy="68" r="1" fill="#E5DECD"/>
<circle cx="911" cy="68" r="1" fill="#E5DECD"/>
<circle cx="912" cy="67" r="1" fill="#E5DECD"/>
<circle cx="914" cy="64" r="1" fill="#E5DECD"/>
<circle cx="914" cy="70" r="1" fill="#E5DECD"/>
<circle cx="915" cy="67" r="1" fill="#E5DECD"/>
<circle cx="918" cy="67" r="1" fill="#E5DECD"/>
<circle cx="894" cy="67" r="1" fill="#E5DECD"/>
<circle cx="891" cy="65" r="1" fill="#E5DECD"/>
<circle cx="892" cy="68" r="1" fill="#E5DECD"/>
<circle cx="893" cy="71" r="1" fill="#E5DECD"/>
<circle cx="916" cy="73" r="1" fill="#E5DECD"/>
<circle cx="916" cy="70" r="1" fill="#E5DECD"/>
<circle cx="915" cy="71" r="1" fill="#E5DECD"/>
<circle cx="924" cy="36" r="1" fill="#E5DECD"/>
<circle cx="924" cy="33" r="1" fill="#E5DECD"/>
<circle cx="924" cy="36" r="1" fill="#E5DECD"/>
<circle cx="884" cy="32" r="1" fill="#E5DECD"/>
<circle cx="882" cy="28" r="1" fill="#E5DECD"/>
<circle cx="879" cy="49" r="1" fill="#E5DECD"/>
<circle cx="886" cy="60" r="1" fill="#E5DECD"/>
<circle cx="884" cy="58" r="1" fill="#E5DECD"/>
<circle cx="905" cy="39" r="1" fill="#E5DECD"/>
<circle cx="906" cy="42" r="1" fill="#E5DECD"/>
<circle cx="907" cy="39" r="1" fill="#E5DECD"/>
<circle cx="896" cy="42" r="1" fill="#E5DECD"/>
<circle cx="891" cy="34" r="1" fill="#E5DECD"/>
<circle cx="893" cy="36" r="1" fill="#E5DECD"/>
<circle cx="878" cy="47" r="1" fill="#E5DECD"/>
<circle cx="922" cy="46" r="1" fill="#E5DECD"/>
<circle cx="921" cy="43" r="1" fill="#E5DECD"/>
<circle cx="919" cy="46" r="1" fill="#E5DECD"/>
<circle cx="916" cy="46" r="1" fill="#E5DECD"/>
<circle cx="912" cy="52" r="1" fill="#E5DECD"/>
<circle cx="911" cy="54" r="1" fill="#E5DECD"/>
<circle cx="914" cy="52" r="1" fill="#E5DECD"/>
<circle cx="913" cy="38" r="1" fill="#E5DECD"/>
<circle cx="917" cy="35" r="1" fill="#E5DECD"/>
<circle cx="917" cy="32" r="1" fill="#E5DECD"/>
<circle cx="907" cy="30" r="1" fill="#E5DECD"/>
<circle cx="909" cy="31" r="1" fill="#E5DECD"/>
<circle cx="887" cy="26" r="1" fill="#E5DECD"/>
<circle cx="883" cy="24" r="1" fill="#E5DECD"/>
<circle cx="885" cy="24" r="1" fill="#E5DECD"/>
<circle cx="886" cy="25" r="1" fill="#E5DECD"/>
<circle cx="893" cy="20" r="1" fill="#E5DECD"/>
<circle cx="891" cy="12" r="1" fill="#E5DECD"/>
<circle cx="892" cy="9" r="1" fill="#E5DECD"/>
<circle cx="895" cy="5" r="1" fill="#E5DECD"/>
<circle cx="904" cy="5" r="1" fill="#E5DECD"/>
<circle cx="904" cy="3" r="1" fill="#E5DECD"/>
<circle cx="904" cy="30" r="1" fill="#E5DECD"/>
<circle cx="905" cy="32" r="1" fill="#E5DECD"/>
<circle cx="888" cy="30" r="1" fill="#E5DECD"/>
<circle cx="884" cy="30" r="1" fill="#E5DECD"/>
<circle cx="883" cy="36" r="1" fill="#E5DECD"/>
<circle cx="882" cy="34" r="1" fill="#E5DECD"/>
<circle cx="882" cy="37" r="1" fill="#E5DECD"/>
<circle cx="884" cy="38" r="1" fill="#E5DECD"/>
<circle cx="887" cy="39" r="1" fill="#E5DECD"/>
<circle cx="882" cy="40" r="1" fill="#E5DECD"/>
<circle cx="879" cy="38" r="1" fill="#E5DECD"/>
<circle cx="880" cy="43" r="1" fill="#E5DECD"/>
<circle cx="880" cy="46" r="1" fill="#E5DECD"/>
<circle cx="881" cy="44" r="1" fill="#E5DECD"/>
<circle cx="888" cy="46" r="1" fill="#E5DECD"/>
<circle cx="888" cy="45" r="1" fill="#E5DECD"/>
<circle cx="890" cy="47" r="1" fill="#E5DECD"/>
<circle cx="885" cy="56" r="1" fill="#E5DECD"/>
<circle cx="885" cy="57" r="1" fill="#E5DECD"/>
<circle cx="893" cy="57" r="1" fill="#E5DECD"/>
<circle cx="893" cy="54" r="1" fill="#E5DECD"/>
<circle cx="894" cy="56" r="1" fill="#E5DECD"/>
<circle cx="886" cy="29" r="1" fill="#E5DECD"/>
<circle cx="885" cy="28" r="1" fill="#E5DECD"/>
<circle cx="920" cy="24" r="1" fill="#E5DECD"/>
<circle cx="920" cy="28" r="1" fill="#E5DECD"/>
<circle cx="921" cy="25" r="1" fill="#E5DECD"/>
<circle cx="921" cy="21" r="1" fill="#E5DECD"/>
<circle cx="909" cy="15" r="1" fill="#E5DECD"/>
<circle cx="908" cy="19" r="1" fill="#E5DECD"/>
<circle cx="897" cy="26" r="1" fill="#E5DECD"/>
<circle cx="892" cy="29" r="1" fill="#E5DECD"/>
<circle cx="908" cy="27" r="1" fill="#E5DECD"/>
<path d="M53.5 101.5C59.5 102.5 72 99 81 99C89.9375 99 102.326 101.958 110.822 104.937L42 105C43.8333 103.5 48.7 100.7 53.5 101.5Z" fill="#E5DECD"/>
<path d="M805 101.5C811 102.5 823.5 99 832.5 99C841.437 99 836.004 101.521 844.5 104.5L793.5 105C795.333 103.5 800.2 100.7 805 101.5Z" fill="#E5DECD"/>
<path d="M757 91C751 92 753 96.5 744 96.5C735.063 96.5 731.996 101.521 723.5 104.5L768.5 105C766.667 103.5 761.8 90.2 757 91Z" fill="#E5DECD"/>
</svg>
