<svg width="20" height="18" viewBox="0 0 20 18" fill="none" xmlns="http://www.w3.org/2000/svg">
<path d="M19 5V4H1V5H19Z" fill="#D77846"/>
<path d="M0.5 1C0.5 0.723858 0.723858 0.5 1 0.5H19C19.2761 0.5 19.5 0.723858 19.5 1V15C19.5 16.3807 18.3807 17.5 17 17.5H3C1.61929 17.5 0.5 16.3807 0.5 15V1Z" stroke="#D77846"/>
<circle cx="4" cy="9" r="1" fill="#D77846"/>
<circle cx="4" cy="13" r="1" fill="#D77846"/>
<circle cx="8" cy="9" r="1" fill="#D77846"/>
<circle cx="8" cy="13" r="1" fill="#D77846"/>
<circle cx="16" cy="9" r="1" fill="#D77846"/>
<circle cx="16" cy="13" r="1" fill="#D77846"/>
<circle cx="12" cy="9" r="1" fill="#D77846"/>
<circle cx="12" cy="13" r="1" fill="#D77846"/>
</svg>
