<svg width="36" height="36" viewBox="0 0 36 36" fill="none" xmlns="http://www.w3.org/2000/svg"><rect width="36" height="36" rx="4" fill="#333"/><mask id="mask0" mask-type="alpha" maskUnits="userSpaceOnUse" x="0" y="0" width="36" height="36"><rect width="36" height="36" rx="4" fill="#333"/></mask><g mask="url(#mask0)"><path d="M16.2141 7C16.3278 7.57425 16.4756 8.54233 16.6574 9.90229 16.8299 11.2429 17.025 12.6882 17.2429 14.2402 17.4721 15.7418 17.7431 17.0416 18.0576 18.1397 18.2092 18.6732 18.3778 19.0864 18.5578 19.3794 18.7094 19.7111 18.8761 19.878 19.058 19.878 19.2114 19.878 19.4255 19.682 19.7022 19.2882 19.9314 18.8944 20.1834 18.3861 20.46 17.7614 21.0417 16.4208 21.4983 14.8727 21.8337 13.1189 21.9473 12.3933 22.0061 11.6716 22.0061 10.9557 21.9871 9.3843 21.8526 8.16402 21.6063 7.29682L27.1406 7.00194C27.9401 14.8222 29.2285 22.0314 31 28.6314L25.5244 29C24.7817 25.7757 24.2228 22.9995 23.8515 20.6734 23.4612 18.3162 23.1504 16.543 22.9231 15.3538H22.5934C22.0117 17.5421 21.3581 19.6141 20.6343 21.5697 19.9106 23.5757 19.4615 25.9212 19.291 28.6023L13.787 29C13.8818 28.0222 13.9291 27.06 13.9291 26.1132 13.9102 23.8065 13.6771 21.333 13.2281 18.6926 13.1334 18.0679 13.0273 17.4878 12.9136 16.9543 12.7904 16.4402 12.6711 15.9979 12.5555 15.6235 12.4418 15.2102 12.3225 14.9037 12.1974 14.7019 12.0837 14.4905 11.9587 14.3838 11.8261 14.3838 11.6631 14.3838 11.4869 14.5506 11.2975 14.8824 9.99015 16.8379 9.15081 18.4365 8.77946 19.6762 8.42516 20.9159 8.25843 22.1672 8.27927 23.4263 8.27927 24.9996 8.66957 26.3907 9.45206 27.6012L9.5089 28.6004 4.08829 28.9981C4.03145 28.4141 4.00303 27.9039 4.00303 27.4713 3.96324 25.7582 4.31565 23.8589 5.06025 21.7714 5.82379 19.6956 7.51004 16.7273 10.1228 12.8667 10.6476 12.081 10.9905 11.4 11.1535 10.8257 11.2861 10.2418 11.3543 9.70247 11.3543 9.20776 11.3543 8.79453 11.3354 8.4007 11.2975 8.02822L11.7408 7.49859 16.2141 7z" fill="#fff"/></g></svg>