<svg id="hares" width="298" height="71" viewBox="0 0 298 71" fill="none" xmlns="http://www.w3.org/2000/svg"><path d="M0 70H297.333" stroke="#beac83"/><path d="M174.334 22.1199V70.0007H176.333C176 62.1037 175.667 46.5092 175.667 44.3146 175.667 41.5715 174.334 16.6336 174.334 22.1199z" fill="#beac83"/><circle cx="174.334" cy="18.0007" r=".666667" fill="#beac83"/><circle cx="173.667" cy="22.0007" r=".666667" fill="#beac83"/><circle cx="174.334" cy="20.0007" r=".666667" fill="#beac83"/><circle cx="176.334" cy="20.0007" r=".666667" fill="#beac83"/><circle cx="174.334" cy="21.3337" r=".666667" fill="#beac83"/><circle cx="175.667" cy="22.0007" r=".666667" fill="#beac83"/><circle cx="172.334" cy="23.3337" r=".666667" fill="#beac83"/><circle cx="173" cy="20.0007" r=".666667" fill="#beac83"/><circle cx="170.334" cy="28.0007" r=".666667" fill="#beac83"/><circle cx="171.667" cy="35.3337" r=".666667" fill="#beac83"/><circle cx="178.334" cy="29.3337" r=".666667" fill="#beac83"/><circle cx="177" cy="34.6667" r=".666667" fill="#beac83"/><circle cx="179.667" cy="36.0007" r=".666667" fill="#beac83"/><circle cx="177" cy="41.3337" r=".666667" fill="#beac83"/><circle cx="181.667" cy="26.0007" r=".666667" fill="#beac83"/><circle cx="179" cy="19.3337" r=".666667" fill="#beac83"/><circle cx="176.334" cy="16.0007" r=".666667" fill="#beac83"/><circle cx="177.667" cy="17.3337" r=".666667" fill="#beac83"/><circle cx="177" cy="18.6667" r=".666667" fill="#beac83"/><circle cx="176.334" cy="22.0007" r=".666667" fill="#beac83"/><circle cx="180.334" cy="22.6667" r=".666667" fill="#beac83"/><circle cx="180.334" cy="27.3337" r=".666667" fill="#beac83"/><circle cx="181" cy="28.0007" r=".666667" fill="#beac83"/><circle cx="182.334" cy="30.0007" r=".666667" fill="#beac83"/><circle cx="182.334" cy="32.0007" r=".666667" fill="#beac83"/><circle cx="180.334" cy="37.3337" r=".666667" fill="#beac83"/><circle cx="179.667" cy="38.0007" r=".666667" fill="#beac83"/><circle cx="181" cy="40.0007" r=".666667" fill="#beac83"/><circle cx="182.334" cy="36.0007" r=".666667" fill="#beac83"/><circle cx="169.667" cy="32.0007" r=".666667" fill="#beac83"/><circle cx="171" cy="36.0007" r=".666667" fill="#beac83"/><circle cx="171" cy="40.0007" r=".666667" fill="#beac83"/><circle cx="170.334" cy="38.0007" r=".666667" fill="#beac83"/><circle cx="168.334" cy="36.0007" r=".666667" fill="#beac83"/><circle cx="167.667" cy="36.6667" r=".666667" fill="#beac83"/><circle cx="168.334" cy="38.0007" r=".666667" fill="#beac83"/><circle cx="169" cy="40.0007" r=".666667" fill="#beac83"/><circle cx="168.334" cy="40.6667" r=".666667" fill="#beac83"/><circle cx="168.334" cy="39.3337" r=".666667" fill="#beac83"/><circle cx="167" cy="38.0007" r=".666667" fill="#beac83"/><circle cx="167" cy="33.3337" r=".666667" fill="#beac83"/><circle cx="167" cy="28.6667" r=".666667" fill="#beac83"/><circle cx="169" cy="24.0007" r=".666667" fill="#beac83"/><circle cx="171" cy="21.3337" r=".666667" fill="#beac83"/><circle cx="171.667" cy="18.6667" r=".666667" fill="#beac83"/><circle cx="173.667" cy="16.0007" r=".666667" fill="#beac83"/><circle cx="176.334" cy="23.3337" r=".666667" fill="#beac83"/><circle cx="180.334" cy="31.3337" r=".666667" fill="#beac83"/><circle cx="181.667" cy="41.3337" r=".666667" fill="#beac83"/><circle cx="177" cy="27.3337" r=".666667" fill="#beac83"/><circle cx="178.334" cy="24.6667" r=".666667" fill="#beac83"/><circle cx="177.667" cy="21.3337" r=".666667" fill="#beac83"/><circle cx="176.334" cy="18.0007" r=".666667" fill="#beac83"/><circle cx="175" cy="15.3337" r=".666667" fill="#beac83"/><circle cx="173" cy="16.6667" r=".666667" fill="#beac83"/><circle cx="170.334" cy="20.6667" r=".666667" fill="#beac83"/><circle cx="171" cy="25.3337" r=".666667" fill="#beac83"/><circle cx="168.334" cy="27.3337" r=".666667" fill="#beac83"/><circle cx="168.334" cy="33.3337" r=".666667" fill="#beac83"/><circle cx="172.334" cy="31.3337" r=".666667" fill="#beac83"/><path d="M134.334 5.66675V69.6667h2C136 59.1112 135.667 38.2668 135.667 35.3334 135.667 31.6668 134.334-1.66658 134.334 5.66675z" fill="#beac83"/><path d="M135.333 46.3337C140 44.0003 140.333 43.0003 148.667 30.667" stroke="#beac83"/><path d="M143.667 38.333C147 35.9997 149.333 33.9997 149.667 33.333" stroke="#beac83"/><path d="M135 36C140 28 144.333 22 142.333 8" stroke="#beac83"/><path d="M135 30.6663C130.667 23.6663 128 17.333 128 11.333m7 35.6667C130 45.9997 125.333 35.9997 124.333 31.333 123.533 27.5997 122.889 24.4441 122.667 23.333" stroke="#beac83"/><path d="M142.667 18.0003C144.267 14.5337 144.444 12.4448 144.333 11.3337M135 39.3337C143.333 32.667 145 28.0003 146 24.3337 146.8 21.4003 147.222 17.5559 147.333 16.0003M134.667 22.3337C132.8 19.1337 131.111 10.1114 130.667 6.66699" stroke="#beac83"/><path d="M144.333 29.0003C145 27.667 145.875 27.0653 146.514 26.2133 147.785 24.5187 148.218 22.6502 148.833 20.667" stroke="#beac83" stroke-linecap="round"/><path d="M139.75 27.7503C139.764 26.5434 139.917 25.3479 139.917 24.1392 139.917 21.9814 139.788 19.8244 139.75 17.667" stroke="#beac83" stroke-linecap="round"/><path d="M138.083 6.83301C137.925 7.73035 137.813 8.64125 137.495 9.49967 137.196 10.3069 136.878 11.1067 136.583 11.9163 135.941 13.6828 134.83 17.1217 134.667 18.9997" stroke="#beac83" stroke-linecap="round"/><path d="M136.75 3.08301C136.55 3.88176 136.295 4.63478 135.982 5.39782 135.248 7.18342 134.667 7.33301 134.333 10.9997" stroke="#beac83" stroke-linecap="round"/><path d="M130.917 3.33301C130.93 5.21101 131.769 6.35587 132.667 7.99967 133.513 9.55088 134.667 10.333 134.667 14.9997" stroke="#beac83" stroke-linecap="round"/><path d="M124.417 20C124.881 21.6184 125.696 23.268 126.472 24.7546 127.814 27.3256 131.333 29.6667 134.667 34.3333" stroke="#beac83" stroke-linecap="round"/><path d="M125.834 20.25C125.834 21.4483 125.825 22.6382 125.917 23.8333" stroke="#beac83" stroke-linecap="round"/><path d="M120.917 28.333C121.541 29.8564 123.467 32.2187 124.667 33.333" stroke="#beac83" stroke-linecap="round"/><path d="M126.417 31C127.382 31.8434 128.317 32.6606 129.194 33.5926 130.009 34.4576 130.984 35.1889 131.657 36.1759 132.357 37.2029 132.813 38.3971 133.338 39.5185 133.98 40.8917 134.521 42.3129 135 43.75" stroke="#beac83" stroke-linecap="round"/><path d="M135 51.7497C135.656 50.6419 136.318 49.66 137.356 48.8747 137.955 48.4216 138.632 48.0897 139.245 47.6571 140.233 46.9606 141.11 46.1444 142 45.333" stroke="#beac83" stroke-linecap="round"/><path d="M135.917 6.00033C136.558 5.58882 137.108 5.05605 137.667 4.54199" stroke="#beac83" stroke-linecap="round"/><path d="M135.625 15.5C136.967 14.8631 138.246 14.2599 139.25 13.125" stroke="#beac83" stroke-linecap="round"/><path d="M137.833 31.6247C139.487 31.0517 140.534 29.4568 141.482 28.0737 142.136 27.1182 142.607 26.0872 142.852 24.9534 143.069 23.9495 143.174 22.9265 143.38 21.921 143.512 21.2759 143.729 20.6943 143.958 20.083" stroke="#beac83" stroke-linecap="round"/><path d="M142.833 25.667C143.63 24.8232 144.464 24.0213 145.25 23.167" stroke="#beac83" stroke-linecap="round"/><path d="M141.167 33.9167C141.81 33.4681 142.513 33.182 143.227 32.8611 144.442 32.3151 145.514 31.6663 146.583 30.875" stroke="#beac83" stroke-linecap="round"/><path d="M128.042 22.708C128.175 24.1836 128.532 25.5703 129.042 26.9603 129.17 27.3102 129.22 27.6715 129.333 28.0228 129.393 28.2084 129.458 28.3431 129.458 28.5413" stroke="#beac83" stroke-linecap="round"/><path d="M125.917 16C126.775 16.6681 127.52 17.4678 128.229 18.2917 128.666 18.7986 129.545 20.0007 129.667 20.6667" stroke="#beac83" stroke-linecap="round"/><path d="M124.708 37.833C125.319 38.1334 125.967 38.3638 126.56 38.6987 126.94 38.9128 127.278 39.18 127.574 39.4997 127.925 39.8784 128.096 40.3018 128.333 40.7497" stroke="#beac83" stroke-linecap="round"/><path d="M129.917 36.125C129.87 36.8518 129.917 37.5705 129.917 38.2986 129.917 39.2386 129.937 40.1143 130.102 41.0394 130.214 41.6666 130.357 42.2912 130.449 42.9213 130.512 43.352 130.546 43.7352 130.917 44" stroke="#beac83" stroke-linecap="round"/><path d="M141.583 40.9167C141.697 40.3243 141.903 39.7598 142.033 39.1713 142.146 38.6559 142.248 38.13 142.315 37.6065 142.416 36.8204 142.375 36.0395 142.375 35.25" stroke="#beac83" stroke-linecap="round"/><circle cx="130.333" cy="2.66667" r=".666667" fill="#beac83"/><circle cx="134.333" cy="5.33366" r=".666667" fill="#beac83"/><circle cx="138.333" cy="3.99967" r=".666667" fill="#beac83"/><circle cx="127.667" cy="11.3337" r=".666667" fill="#beac83"/><circle cx="125.667" cy="15.9997" r=".666667" fill="#beac83"/><circle cx="124.333" cy="14.6667" r=".666667" fill="#beac83"/><circle cx="126.333" cy="14.6667" r=".666667" fill="#beac83"/><circle cx="126.333" cy="9.33366" r=".666667" fill="#beac83"/><circle cx="135.667" cy="8.66667" r=".666667" fill="#beac83"/><circle cx="139" cy="21.9997" r=".666667" fill="#beac83"/><circle cx="140.333" cy="11.9997" r=".666667" fill="#beac83"/><circle cx="130.333" cy="11.9997" r=".666667" fill="#beac83"/><circle cx="138.333" cy="6.66667" r=".666667" fill="#beac83"/><circle cx="134.333" cy="3.33366" r=".666667" fill="#beac83"/><circle cx="135" cy=".666667" r=".666667" fill="#beac83"/><circle cx="133.667" cy="1.99967" r=".666667" fill="#beac83"/><circle cx="133.001" cy="3.99971" r=".666667" transform="rotate(-10.4371 133.001 3.99971)" fill="#beac83"/><circle cx="131.667" cy="1.99967" r=".666667" fill="#beac83"/><circle cx="130.333" cy="6.66667" r=".666667" fill="#beac83"/><circle cx="129.667" cy="8.66667" r=".666667" fill="#beac83"/><circle cx="129" cy="7.33366" r=".666667" fill="#beac83"/><circle cx="127" cy="11.3337" r=".666667" fill="#beac83"/><circle cx="136.333" cy="2.66667" r=".666667" fill="#beac83"/><circle cx="137" cy="5.33366" r=".666667" fill="#beac83"/><circle cx="138.333" cy="11.9997" r=".666667" fill="#beac83"/><circle cx="139" cy="13.9997" r=".666667" fill="#beac83"/><circle cx="142.333" cy="7.99967" r=".666667" fill="#beac83"/><circle cx="143" cy="10.6667" r=".666667" fill="#beac83"/><circle cx="145" cy="9.33366" r=".666667" fill="#beac83"/><circle cx="144.333" cy="11.3337" r=".666667" fill="#beac83"/><circle cx="145" cy="13.3337" r=".666667" fill="#beac83"/><circle cx="145.667" cy="11.3337" r=".666667" fill="#beac83"/><circle cx="146.333" cy="16.6667" r=".666667" fill="#beac83"/><circle cx="144.333" cy="19.9997" r=".666667" fill="#beac83"/><circle cx="144.333" cy="18.6667" r=".666667" fill="#beac83"/><circle cx="145" cy="21.9997" r=".666667" fill="#beac83"/><circle cx="149" cy="20.6667" r=".666667" fill="#beac83"/><circle cx="149.667" cy="22.6667" r=".666667" fill="#beac83"/><circle cx="150.333" cy="19.3337" r=".666667" fill="#beac83"/><circle cx="149.667" cy="33.3337" r=".666667" fill="#beac83"/><circle cx="149" cy="34.6667" r=".666667" fill="#beac83"/><circle cx="151" cy="34.6667" r=".666667" fill="#beac83"/><circle cx="149.667" cy="36.6667" r=".666667" fill="#beac83"/><circle cx="150.333" cy="34.6667" r=".666667" fill="#beac83"/><circle cx="150.333" cy="37.9997" r=".666667" fill="#beac83"/><circle cx="143" cy="45.3337" r=".666667" fill="#beac83"/><circle cx="141.667" cy="45.3337" r=".666667" fill="#beac83"/><circle cx="142.333" cy="44.6667" r=".666667" fill="#beac83"/><circle cx="143.667" cy="42.6667" r=".666667" fill="#beac83"/><circle cx="143.667" cy="46.6667" r=".666667" fill="#beac83"/><circle cx="144.333" cy="44.6667" r=".666667" fill="#beac83"/><circle cx="146.333" cy="44.6667" r=".666667" fill="#beac83"/><circle cx="130.333" cy="44.6667" r=".666667" fill="#beac83"/><circle cx="128.333" cy="43.3337" r=".666667" fill="#beac83"/><circle cx="129" cy="45.3337" r=".666667" fill="#beac83"/><circle cx="129.667" cy="47.3337" r=".666667" fill="#beac83"/><circle cx="145" cy="48.6667" r=".666667" fill="#beac83"/><circle cx="145" cy="46.6667" r=".666667" fill="#beac83"/><circle cx="144.333" cy="47.3337" r=".666667" fill="#beac83"/><circle cx="150.333" cy="23.9997" r=".666667" fill="#beac83"/><circle cx="150.333" cy="21.9997" r=".666667" fill="#beac83"/><circle cx="150.333" cy="23.9997" r=".666667" fill="#beac83"/><circle cx="123.667" cy="21.3337" r=".666667" fill="#beac83"/><circle cx="122.333" cy="18.6667" r=".666667" fill="#beac83"/><circle cx="120.333" cy="32.6667" r=".666667" fill="#beac83"/><circle cx="125" cy="39.9997" r=".666667" fill="#beac83"/><circle cx="123.667" cy="38.6667" r=".666667" fill="#beac83"/><circle cx="137.667" cy="25.9997" r=".666667" fill="#beac83"/><circle cx="138.333" cy="27.9997" r=".666667" fill="#beac83"/><circle cx="139" cy="25.9997" r=".666667" fill="#beac83"/><circle cx="131.667" cy="27.9997" r=".666667" fill="#beac83"/><circle cx="128.333" cy="22.6667" r=".666667" fill="#beac83"/><circle cx="129.667" cy="23.9997" r=".666667" fill="#beac83"/><circle cx="119.667" cy="31.3337" r=".666667" fill="#beac83"/><circle cx="149" cy="30.6667" r=".666667" fill="#beac83"/><circle cx="148.333" cy="28.6667" r=".666667" fill="#beac83"/><circle cx="147" cy="30.6667" r=".666667" fill="#beac83"/><circle cx="145" cy="30.6667" r=".666667" fill="#beac83"/><circle cx="142.333" cy="34.6667" r=".666667" fill="#beac83"/><circle cx="141.667" cy="35.9997" r=".666667" fill="#beac83"/><circle cx="143.667" cy="34.6667" r=".666667" fill="#beac83"/><circle cx="143" cy="25.3337" r=".666667" fill="#beac83"/><circle cx="145.667" cy="23.3337" r=".666667" fill="#beac83"/><circle cx="145.667" cy="21.3337" r=".666667" fill="#beac83"/><circle cx="139" cy="19.9997" r=".666667" fill="#beac83"/><circle cx="140.333" cy="20.6667" r=".666667" fill="#beac83"/><circle cx="125.667" cy="17.3337" r=".666667" fill="#beac83"/><circle cx="123" cy="15.9997" r=".666667" fill="#beac83"/><circle cx="124.333" cy="15.9997" r=".666667" fill="#beac83"/><circle cx="125" cy="16.6667" r=".666667" fill="#beac83"/><circle cx="129.667" cy="13.3337" r=".666667" fill="#beac83"/><circle cx="128.333" cy="7.99967" r=".666667" fill="#beac83"/><circle cx="129" cy="5.99967" r=".666667" fill="#beac83"/><circle cx="131" cy="3.33366" r=".666667" fill="#beac83"/><circle cx="137" cy="3.33366" r=".666667" fill="#beac83"/><circle cx="137" cy="1.99967" r=".666667" fill="#beac83"/><circle cx="137" cy="19.9997" r=".666667" fill="#beac83"/><circle cx="137.667" cy="21.3337" r=".666667" fill="#beac83"/><circle cx="126.333" cy="19.9997" r=".666667" fill="#beac83"/><circle cx="123.667" cy="19.9997" r=".666667" fill="#beac83"/><circle cx="123" cy="23.9997" r=".666667" fill="#beac83"/><circle cx="122.333" cy="22.6667" r=".666667" fill="#beac83"/><circle cx="122.333" cy="24.6667" r=".666667" fill="#beac83"/><circle cx="123.667" cy="25.3337" r=".666667" fill="#beac83"/><circle cx="125.667" cy="25.9997" r=".666667" fill="#beac83"/><circle cx="122.333" cy="26.6667" r=".666667" fill="#beac83"/><circle cx="120.333" cy="25.3337" r=".666667" fill="#beac83"/><circle cx="121" cy="28.6667" r=".666667" fill="#beac83"/><circle cx="121" cy="30.6667" r=".666667" fill="#beac83"/><circle cx="121.667" cy="29.3337" r=".666667" fill="#beac83"/><circle cx="126.333" cy="30.6667" r=".666667" fill="#beac83"/><circle cx="126.333" cy="29.9997" r=".666667" fill="#beac83"/><circle cx="127.667" cy="31.3337" r=".666667" fill="#beac83"/><circle cx="124.333" cy="37.3337" r=".666667" fill="#beac83"/><circle cx="124.333" cy="37.9997" r=".666667" fill="#beac83"/><circle cx="129.667" cy="37.9997" r=".666667" fill="#beac83"/><circle cx="129.667" cy="35.9997" r=".666667" fill="#beac83"/><circle cx="130.333" cy="37.3337" r=".666667" fill="#beac83"/><circle cx="125" cy="19.3337" r=".666667" fill="#beac83"/><circle cx="124.333" cy="18.6667" r=".666667" fill="#beac83"/><circle cx="147.667" cy="15.9997" r=".666667" fill="#beac83"/><circle cx="147.667" cy="18.6667" r=".666667" fill="#beac83"/><circle cx="148.333" cy="16.6667" r=".666667" fill="#beac83"/><circle cx="148.333" cy="13.9997" r=".666667" fill="#beac83"/><circle cx="140.333" cy="9.99967" r=".666667" fill="#beac83"/><circle cx="139.667" cy="12.6667" r=".666667" fill="#beac83"/><circle cx="132.333" cy="17.3337" r=".666667" fill="#beac83"/><circle cx="129" cy="19.3337" r=".666667" fill="#beac83"/><circle cx="139.667" cy="17.9997" r=".666667" fill="#beac83"/><path d="M55.0002 67.6667C59.0002 68.3333 67.3335 66 73.3335 66 79.2918 66 87.5511 67.9723 93.215 69.9583L47.3335 70C48.5557 69 51.8002 67.1333 55.0002 67.6667z" fill="#beac83"/><path d="M242.667 67.6667C246.667 68.3333 255 66 261 66 266.958 66 263.336 67.6807 269 69.6667L235 70C236.222 69 239.467 67.1333 242.667 67.6667z" fill="#beac83"/><path d="M172.667 24.583C172.925 25.6821 172.94 26.8411 173.37 27.8978 173.891 29.1762 174.598 30.4033 175.167 31.6663" stroke="#beac83" stroke-linecap="round"/><path d="M176.75 26.25C176.416 28.5524 176.145 31.1648 174.75 33.0833" stroke="#beac83" stroke-linecap="round"/><path d="M171.167 36.917C171.923 39.4212 173.182 41.5039 175 43.417" stroke="#beac83" stroke-linecap="round"/><path d="M176.5 36.417C176.111 38.1953 175.451 39.8478 174.917 41.5837" stroke="#beac83" stroke-linecap="round"/><path d="M179.583 38.417C178.859 40.8193 178.045 43.1896 177.338 45.5975 176.833 47.3168 176.101 48.9961 175.75 50.7503" stroke="#beac83" stroke-linecap="round"/><path d="M174.583 28.6667C174.738 27.5315 175.079 26.4356 175.232 25.2963 175.468 23.5307 175.354 21.7441 175.75 20" stroke="#beac83" stroke-linecap="round"/><path d="M170 29.167C170.012 30.6073 170.283 32.1671 170.782 33.5235 171.538 35.5733 172.923 37.2071 174.417 38.7503" stroke="#beac83" stroke-linecap="round"/><path d="M168.583 39.25C168.605 40.0927 168.7 40.8302 169.046 41.6019 169.572 42.7703 170.128 43.9876 170.824 45.0648 171.921 46.7618 173.257 48.47 175.25 49.0833" stroke="#beac83" stroke-linecap="round"/><path d="M175.167 35.417C177.874 33.5116 179.896 31.1906 180.667 27.917" stroke="#beac83" stroke-linecap="round"/><path d="M73 61.9992C72.5556 62.4436 71 63.1971 71 66.6638H74.6667C74.465 65.482 74.9804 64.4195 74.6667 61.9992 75.3746 60.9372 75.5792 57.9178 75.3333 56.3337 75.2705 55.9289 74.3333 55.667 74.3333 55.667 74.3333 55.667 74.3333 59.8892 74 61.3337 73.8889 59.2225 72.6667 56.0003 72.6667 56.0003L72 57.3337C72 57.3337 72.6667 60.3337 73 61.9992z" fill="#beac83"/><path d="M77.6667 57.667C77.6667 59.4448 77.7333 64.5337 78 66.667L82.6667 68.3337C82.8904 63.6445 82.0149 60.7245 80 56.3337L84.6667 49.3337C84.2222 49.2225 83.4667 49.4003 82.6667 49.667 81.8667 49.9337 80.4444 53.1115 79.3333 55.0004 79.6667 53.7781 80 51.467 80 50.667 80 49.867 79.3333 48.667 79.3333 48.667c0 0-1 3.7830000000000013-1 6C78.1111 54.7781 77.2 55.067 76.6667 55.3337 76 55.667 76 56.667 76 56.667 76 56.667 77.1111 57.1114 77.6667 57.667z" fill="#beac83"/></svg>