<svg width="446" height="106" viewBox="0 0 446 106" fill="none" xmlns="http://www.w3.org/2000/svg" id="hares"><path d="M0 105H446" stroke="#beac83"/><path d="M261.5 33.1789C261.5 41.4084 261.5 91.1595 261.5 105h3C264 93.1545 263.5 69.7628 263.5 66.471 263.5 62.3562 261.5 24.9494 261.5 33.1789z" fill="#beac83"/><circle cx="261.5" cy="27" r="1" fill="#beac83"/><circle cx="260.5" cy="33" r="1" fill="#beac83"/><circle cx="261.5" cy="30" r="1" fill="#beac83"/><circle cx="264.5" cy="30" r="1" fill="#beac83"/><circle cx="261.5" cy="32" r="1" fill="#beac83"/><circle cx="263.5" cy="33" r="1" fill="#beac83"/><circle cx="258.5" cy="35" r="1" fill="#beac83"/><circle cx="259.5" cy="30" r="1" fill="#beac83"/><circle cx="255.5" cy="42" r="1" fill="#beac83"/><circle cx="257.5" cy="53" r="1" fill="#beac83"/><circle cx="267.5" cy="44" r="1" fill="#beac83"/><circle cx="265.5" cy="52" r="1" fill="#beac83"/><circle cx="269.5" cy="54" r="1" fill="#beac83"/><circle cx="265.5" cy="62" r="1" fill="#beac83"/><circle cx="272.5" cy="39" r="1" fill="#beac83"/><circle cx="268.5" cy="29" r="1" fill="#beac83"/><circle cx="264.5" cy="24" r="1" fill="#beac83"/><circle cx="266.5" cy="26" r="1" fill="#beac83"/><circle cx="265.5" cy="28" r="1" fill="#beac83"/><circle cx="264.5" cy="33" r="1" fill="#beac83"/><circle cx="270.5" cy="34" r="1" fill="#beac83"/><circle cx="270.5" cy="41" r="1" fill="#beac83"/><circle cx="271.5" cy="42" r="1" fill="#beac83"/><circle cx="273.5" cy="45" r="1" fill="#beac83"/><circle cx="273.5" cy="48" r="1" fill="#beac83"/><circle cx="270.5" cy="56" r="1" fill="#beac83"/><circle cx="269.5" cy="57" r="1" fill="#beac83"/><circle cx="271.5" cy="60" r="1" fill="#beac83"/><circle cx="273.5" cy="54" r="1" fill="#beac83"/><circle cx="254.5" cy="48" r="1" fill="#beac83"/><circle cx="256.5" cy="54" r="1" fill="#beac83"/><circle cx="256.5" cy="60" r="1" fill="#beac83"/><circle cx="255.5" cy="57" r="1" fill="#beac83"/><circle cx="252.5" cy="54" r="1" fill="#beac83"/><circle cx="251.5" cy="55" r="1" fill="#beac83"/><circle cx="252.5" cy="57" r="1" fill="#beac83"/><circle cx="253.5" cy="60" r="1" fill="#beac83"/><circle cx="252.5" cy="61" r="1" fill="#beac83"/><circle cx="252.5" cy="59" r="1" fill="#beac83"/><circle cx="250.5" cy="57" r="1" fill="#beac83"/><circle cx="250.5" cy="50" r="1" fill="#beac83"/><circle cx="250.5" cy="43" r="1" fill="#beac83"/><circle cx="253.5" cy="36" r="1" fill="#beac83"/><circle cx="256.5" cy="32" r="1" fill="#beac83"/><circle cx="257.5" cy="28" r="1" fill="#beac83"/><circle cx="260.5" cy="24" r="1" fill="#beac83"/><circle cx="264.5" cy="35" r="1" fill="#beac83"/><circle cx="270.5" cy="47" r="1" fill="#beac83"/><circle cx="272.5" cy="62" r="1" fill="#beac83"/><circle cx="265.5" cy="41" r="1" fill="#beac83"/><circle cx="267.5" cy="37" r="1" fill="#beac83"/><circle cx="266.5" cy="32" r="1" fill="#beac83"/><circle cx="264.5" cy="27" r="1" fill="#beac83"/><circle cx="262.5" cy="23" r="1" fill="#beac83"/><circle cx="259.5" cy="25" r="1" fill="#beac83"/><circle cx="255.5" cy="31" r="1" fill="#beac83"/><circle cx="256.5" cy="38" r="1" fill="#beac83"/><circle cx="252.5" cy="41" r="1" fill="#beac83"/><circle cx="252.5" cy="50" r="1" fill="#beac83"/><circle cx="258.5" cy="47" r="1" fill="#beac83"/><path d="M201.5 8.49964C201.5 19.4996 201.5 85.9996 201.5 104.5h3C204 88.6663 203.5 57.3996 203.5 52.9996c0-5.5-2-55.49996-2-44.49996z" fill="#beac83"/><path d="M203 69.5c7-3.5 7.5-5 20-23.5" stroke="#beac83"/><path d="M215.5 57.5c5-3.5 8.5-6.5 9-7.5" stroke="#beac83"/><path d="M202.5 54c7.5-12 14-21 11-42" stroke="#beac83"/><path d="M202.5 46C196 35.5 192 26 192 17m10.5 53.5C195 69 188 54 186.5 47 185.3 41.4 184.333 36.6667 184 35" stroke="#beac83"/><path d="M214 27C216.4 21.8 216.667 18.6667 216.5 17m-14 42c12.5-10 15-17 16.5-22.5C220.2 32.1 220.833 26.3333 221 24m-19 9.5C199.2 28.7 196.667 15.1667 196 10" stroke="#beac83"/><path d="M216.5 43.5C217.5 41.5 218.812 40.5975 219.771 39.3194 221.677 36.7775 222.327 33.9748 223.25 31" stroke="#beac83" stroke-linecap="round"/><path d="M209.625 41.625C209.646 39.8146 209.875 38.0213 209.875 36.2083 209.875 32.9717 209.682 29.7361 209.625 26.5" stroke="#beac83" stroke-linecap="round"/><path d="M207.125 10.25C206.888 11.596 206.72 12.9624 206.243 14.25 205.795 15.4609 205.317 16.6606 204.875 17.875 203.911 20.5247 202.245 25.6831 202 28.5" stroke="#beac83" stroke-linecap="round"/><path d="M205.125 4.625C204.825 5.82313 204.442 6.95266 203.972 8.09722 202.872 10.7756 202 11 201.5 16.5" stroke="#beac83" stroke-linecap="round"/><path d="M196.375 5C196.395 7.81701 197.654 9.53429 199 12 200.27 14.3268 202 15.5 202 22.5" stroke="#beac83" stroke-linecap="round"/><path d="M186.625 30C187.322 32.4276 188.544 34.902 189.708 37.1319 191.722 40.9884 197 44.5 202 51.5" stroke="#beac83" stroke-linecap="round"/><path d="M188.75 30.375C188.75 32.1725 188.737 33.9574 188.875 35.75" stroke="#beac83" stroke-linecap="round"/><path d="M181.375 42.5C182.311 44.785 185.2 48.3286 187 50" stroke="#beac83" stroke-linecap="round"/><path d="M189.625 46.5C191.074 47.7651 192.475 48.9908 193.792 50.3889 195.013 51.6865 196.477 52.7834 197.486 54.2639 198.536 55.8043 199.22 57.5957 200.007 59.2778 200.97 61.3376 201.781 63.4694 202.5 65.625" stroke="#beac83" stroke-linecap="round"/><path d="M202.5 77.625C203.484 75.9634 204.477 74.4905 206.035 73.3125 206.933 72.6329 207.948 72.135 208.868 71.4861 210.349 70.4414 211.665 69.2172 213 68" stroke="#beac83" stroke-linecap="round"/><path d="M203.875 9C204.837 8.38274 205.663 7.58358 206.5 6.8125" stroke="#beac83" stroke-linecap="round"/><path d="M203.438 23.25C205.451 22.2946 207.369 21.3899 208.875 19.6875" stroke="#beac83" stroke-linecap="round"/><path d="M206.75 47.4375C209.23 46.5781 210.801 44.1858 212.222 42.1111 213.204 40.6778 213.91 39.1313 214.278 37.4306 214.604 35.9248 214.761 34.3903 215.069 32.8819 215.267 31.9143 215.594 31.0419 215.938 30.125" stroke="#beac83" stroke-linecap="round"/><path d="M214.25 38.5C215.445 37.2344 216.696 36.0315 217.875 34.75" stroke="#beac83" stroke-linecap="round"/><path d="M211.75 50.875C212.715 50.2021 213.769 49.773 214.84 49.2917 216.663 48.4727 218.271 47.4995 219.875 46.3125" stroke="#beac83" stroke-linecap="round"/><path d="M192.062 34.0625C192.263 36.2759 192.798 38.3559 193.562 40.441 193.755 40.9658 193.831 41.5077 194 42.0347 194.089 42.3131 194.188 42.5152 194.188 42.8125" stroke="#beac83" stroke-linecap="round"/><path d="M188.875 24C190.163 25.0021 191.28 26.2016 192.344 27.4375 192.999 28.1979 194.318 30.001 194.5 31" stroke="#beac83" stroke-linecap="round"/><path d="M187.062 56.75C187.979 57.2006 188.95 57.5461 189.84 58.0486 190.409 58.3696 190.917 58.7705 191.361 59.25 191.887 59.8182 192.144 60.4532 192.5 61.125" stroke="#beac83" stroke-linecap="round"/><path d="M194.875 54.1875C194.805 55.2776 194.875 56.3558 194.875 57.4479 194.875 58.8579 194.906 60.1715 195.153 61.559 195.32 62.4999 195.536 63.4368 195.674 64.3819 195.768 65.028 195.819 65.6029 196.375 66" stroke="#beac83" stroke-linecap="round"/><path d="M212.375 61.375C212.545 60.4864 212.854 59.6397 213.049 58.7569 213.219 57.9839 213.371 57.1949 213.472 56.4097 213.624 55.2305 213.562 54.0593 213.562 52.875" stroke="#beac83" stroke-linecap="round"/><circle cx="195.5" cy="4" r="1" fill="#beac83"/><circle cx="201.5" cy="8" r="1" fill="#beac83"/><circle cx="207.5" cy="6" r="1" fill="#beac83"/><circle cx="191.5" cy="17" r="1" fill="#beac83"/><circle cx="188.5" cy="24" r="1" fill="#beac83"/><circle cx="186.5" cy="22" r="1" fill="#beac83"/><circle cx="189.5" cy="22" r="1" fill="#beac83"/><circle cx="189.5" cy="14" r="1" fill="#beac83"/><circle cx="203.5" cy="13" r="1" fill="#beac83"/><circle cx="208.5" cy="33" r="1" fill="#beac83"/><circle cx="210.5" cy="18" r="1" fill="#beac83"/><circle cx="195.5" cy="18" r="1" fill="#beac83"/><circle cx="207.5" cy="10" r="1" fill="#beac83"/><circle cx="201.5" cy="5" r="1" fill="#beac83"/><circle cx="202.5" cy="1" r="1" fill="#beac83"/><circle cx="200.5" cy="3" r="1" fill="#beac83"/><circle cx="199.501" cy="5.99956" r="1" transform="rotate(-10.4371 199.501 5.99956)" fill="#beac83"/><circle cx="197.5" cy="3" r="1" fill="#beac83"/><circle cx="195.5" cy="10" r="1" fill="#beac83"/><circle cx="194.5" cy="13" r="1" fill="#beac83"/><circle cx="193.5" cy="11" r="1" fill="#beac83"/><circle cx="190.5" cy="17" r="1" fill="#beac83"/><circle cx="204.5" cy="4" r="1" fill="#beac83"/><circle cx="205.5" cy="8" r="1" fill="#beac83"/><circle cx="207.5" cy="18" r="1" fill="#beac83"/><circle cx="208.5" cy="21" r="1" fill="#beac83"/><circle cx="213.5" cy="12" r="1" fill="#beac83"/><circle cx="214.5" cy="16" r="1" fill="#beac83"/><circle cx="217.5" cy="14" r="1" fill="#beac83"/><circle cx="216.5" cy="17" r="1" fill="#beac83"/><circle cx="217.5" cy="20" r="1" fill="#beac83"/><circle cx="218.5" cy="17" r="1" fill="#beac83"/><circle cx="219.5" cy="25" r="1" fill="#beac83"/><circle cx="216.5" cy="30" r="1" fill="#beac83"/><circle cx="216.5" cy="28" r="1" fill="#beac83"/><circle cx="217.5" cy="33" r="1" fill="#beac83"/><circle cx="223.5" cy="31" r="1" fill="#beac83"/><circle cx="224.5" cy="34" r="1" fill="#beac83"/><circle cx="225.5" cy="29" r="1" fill="#beac83"/><circle cx="224.5" cy="50" r="1" fill="#beac83"/><circle cx="223.5" cy="52" r="1" fill="#beac83"/><circle cx="226.5" cy="52" r="1" fill="#beac83"/><circle cx="224.5" cy="55" r="1" fill="#beac83"/><circle cx="225.5" cy="52" r="1" fill="#beac83"/><circle cx="225.5" cy="57" r="1" fill="#beac83"/><circle cx="214.5" cy="68" r="1" fill="#beac83"/><circle cx="212.5" cy="68" r="1" fill="#beac83"/><circle cx="213.5" cy="67" r="1" fill="#beac83"/><circle cx="215.5" cy="64" r="1" fill="#beac83"/><circle cx="215.5" cy="70" r="1" fill="#beac83"/><circle cx="216.5" cy="67" r="1" fill="#beac83"/><circle cx="219.5" cy="67" r="1" fill="#beac83"/><circle cx="195.5" cy="67" r="1" fill="#beac83"/><circle cx="192.5" cy="65" r="1" fill="#beac83"/><circle cx="193.5" cy="68" r="1" fill="#beac83"/><circle cx="194.5" cy="71" r="1" fill="#beac83"/><circle cx="217.5" cy="73" r="1" fill="#beac83"/><circle cx="217.5" cy="70" r="1" fill="#beac83"/><circle cx="216.5" cy="71" r="1" fill="#beac83"/><circle cx="225.5" cy="36" r="1" fill="#beac83"/><circle cx="225.5" cy="33" r="1" fill="#beac83"/><circle cx="225.5" cy="36" r="1" fill="#beac83"/><circle cx="185.5" cy="32" r="1" fill="#beac83"/><circle cx="183.5" cy="28" r="1" fill="#beac83"/><circle cx="180.5" cy="49" r="1" fill="#beac83"/><circle cx="187.5" cy="60" r="1" fill="#beac83"/><circle cx="185.5" cy="58" r="1" fill="#beac83"/><circle cx="206.5" cy="39" r="1" fill="#beac83"/><circle cx="207.5" cy="42" r="1" fill="#beac83"/><circle cx="208.5" cy="39" r="1" fill="#beac83"/><circle cx="197.5" cy="42" r="1" fill="#beac83"/><circle cx="192.5" cy="34" r="1" fill="#beac83"/><circle cx="194.5" cy="36" r="1" fill="#beac83"/><circle cx="179.5" cy="47" r="1" fill="#beac83"/><circle cx="223.5" cy="46" r="1" fill="#beac83"/><circle cx="222.5" cy="43" r="1" fill="#beac83"/><circle cx="220.5" cy="46" r="1" fill="#beac83"/><circle cx="217.5" cy="46" r="1" fill="#beac83"/><circle cx="213.5" cy="52" r="1" fill="#beac83"/><circle cx="212.5" cy="54" r="1" fill="#beac83"/><circle cx="215.5" cy="52" r="1" fill="#beac83"/><circle cx="214.5" cy="38" r="1" fill="#beac83"/><circle cx="218.5" cy="35" r="1" fill="#beac83"/><circle cx="218.5" cy="32" r="1" fill="#beac83"/><circle cx="208.5" cy="30" r="1" fill="#beac83"/><circle cx="210.5" cy="31" r="1" fill="#beac83"/><circle cx="188.5" cy="26" r="1" fill="#beac83"/><circle cx="184.5" cy="24" r="1" fill="#beac83"/><circle cx="186.5" cy="24" r="1" fill="#beac83"/><circle cx="187.5" cy="25" r="1" fill="#beac83"/><circle cx="194.5" cy="20" r="1" fill="#beac83"/><circle cx="192.5" cy="12" r="1" fill="#beac83"/><circle cx="193.5" cy="9" r="1" fill="#beac83"/><circle cx="196.5" cy="5" r="1" fill="#beac83"/><circle cx="205.5" cy="5" r="1" fill="#beac83"/><circle cx="205.5" cy="3" r="1" fill="#beac83"/><circle cx="205.5" cy="30" r="1" fill="#beac83"/><circle cx="206.5" cy="32" r="1" fill="#beac83"/><circle cx="189.5" cy="30" r="1" fill="#beac83"/><circle cx="185.5" cy="30" r="1" fill="#beac83"/><circle cx="184.5" cy="36" r="1" fill="#beac83"/><circle cx="183.5" cy="34" r="1" fill="#beac83"/><circle cx="183.5" cy="37" r="1" fill="#beac83"/><circle cx="185.5" cy="38" r="1" fill="#beac83"/><circle cx="188.5" cy="39" r="1" fill="#beac83"/><circle cx="183.5" cy="40" r="1" fill="#beac83"/><circle cx="180.5" cy="38" r="1" fill="#beac83"/><circle cx="181.5" cy="43" r="1" fill="#beac83"/><circle cx="181.5" cy="46" r="1" fill="#beac83"/><circle cx="182.5" cy="44" r="1" fill="#beac83"/><circle cx="189.5" cy="46" r="1" fill="#beac83"/><circle cx="189.5" cy="45" r="1" fill="#beac83"/><circle cx="191.5" cy="47" r="1" fill="#beac83"/><circle cx="186.5" cy="56" r="1" fill="#beac83"/><circle cx="186.5" cy="57" r="1" fill="#beac83"/><circle cx="194.5" cy="57" r="1" fill="#beac83"/><circle cx="194.5" cy="54" r="1" fill="#beac83"/><circle cx="195.5" cy="56" r="1" fill="#beac83"/><circle cx="187.5" cy="29" r="1" fill="#beac83"/><circle cx="186.5" cy="28" r="1" fill="#beac83"/><circle cx="221.5" cy="24" r="1" fill="#beac83"/><circle cx="221.5" cy="28" r="1" fill="#beac83"/><circle cx="222.5" cy="25" r="1" fill="#beac83"/><circle cx="222.5" cy="21" r="1" fill="#beac83"/><circle cx="210.5" cy="15" r="1" fill="#beac83"/><circle cx="209.5" cy="19" r="1" fill="#beac83"/><circle cx="198.5" cy="26" r="1" fill="#beac83"/><circle cx="193.5" cy="29" r="1" fill="#beac83"/><circle cx="209.5" cy="27" r="1" fill="#beac83"/><path d="M82.5 101.5c6 1 18.5-2.5 27.5-2.5C118.937 99 131.326 101.958 139.822 104.937L71 105C72.8333 103.5 77.7 100.7 82.5 101.5z" fill="#beac83"/><path d="M364 101.5c6 1 18.5-2.5 27.5-2.5C400.437 99 395.004 101.521 403.5 104.5l-51 .5C354.333 103.5 359.2 100.7 364 101.5z" fill="#beac83"/><path d="M259 36.875C259.388 38.5236 259.41 40.2621 260.056 41.8472 260.836 43.7648 261.897 45.6054 262.75 47.5" stroke="#beac83" stroke-linecap="round"/><path d="M265.125 39.375C264.624 42.8286 264.218 46.7473 262.125 49.625" stroke="#beac83" stroke-linecap="round"/><path d="M256.75 55.375C257.885 59.1314 259.774 62.2554 262.5 65.125" stroke="#beac83" stroke-linecap="round"/><path d="M264.75 54.625C264.167 57.2925 263.176 59.7712 262.375 62.375" stroke="#beac83" stroke-linecap="round"/><path d="M269.375 57.625C268.289 61.2285 267.068 64.7839 266.007 68.3958 265.25 70.9747 264.151 73.4937 263.625 76.125" stroke="#beac83" stroke-linecap="round"/><path d="M261.875 43C262.106 41.2973 262.618 39.6533 262.847 37.9444 263.202 35.296 263.03 32.6161 263.625 30" stroke="#beac83" stroke-linecap="round"/><path d="M255 43.75C255.019 45.9104 255.424 48.2501 256.174 50.2847 257.306 53.3594 259.385 55.8102 261.625 58.125" stroke="#beac83" stroke-linecap="round"/><path d="M252.875 58.875C252.907 60.139 253.049 61.2453 253.569 62.4028 254.357 64.1554 255.192 65.9814 256.236 67.5972 257.881 70.1427 259.885 72.705 262.875 73.625" stroke="#beac83" stroke-linecap="round"/><path d="M262.75 53.125C266.811 50.2669 269.845 46.7855 271 41.875" stroke="#beac83" stroke-linecap="round"/><path d="M109.5 92.9983C108.833 93.665 106.5 94.7952 106.5 99.9952H112C111.697 98.2225 112.471 96.6288 112 92.9983 113.062 91.4054 113.369 86.8762 113 84.5 112.906 83.8928 111.5 83.5 111.5 83.5c0 0 0 6.333299999999994-.5 8.5C110.833 88.8333 109 84 109 84l-1 2c0 0 1 4.5 1.5 6.9983z" fill="#beac83"/><path d="M116.5 86.5C116.5 89.1667 116.6 96.8001 117 1e2l7 2.5C124.336 95.4662 123.022 91.0863 120 84.5L127 74C126.333 73.8333 125.2 74.1 124 74.5 122.8 74.9 120.667 79.6667 119 82.5001 119.5 80.6667 120 77.2 120 76 120 74.8 119 73 119 73 119 73 117.5 78.6745 117.5 82 117.167 82.1667 115.8 82.6001 115 83.0001c-1 .5-1 2-1 2C114 85.0001 115.667 85.6667 116.5 86.5z" fill="#beac83"/></svg>