<?xml version="1.0" encoding="UTF-8"?>
<!DOCTYPE svg PUBLIC "-//W3C//DTD SVG 1.1//EN" "http://www.w3.org/Graphics/SVG/1.1/DTD/svg11.dtd">
<!-- Creator: CorelDRAW X6 -->
<svg xmlns="http://www.w3.org/2000/svg" xml:space="preserve" width="278.204mm" height="171.7mm" version="1.1" style="shape-rendering:geometricPrecision; text-rendering:geometricPrecision; image-rendering:optimizeQuality; fill-rule:evenodd; clip-rule:evenodd"
viewBox="0 0 34766 21457"
 xmlns:xlink="http://www.w3.org/1999/xlink">
 <defs>
  <style type="text/css">
   <![CDATA[
    .str1 {stroke:#66AF54;stroke-width:33.0657}
    .str0 {stroke:white;stroke-width:33.0657}
    .str2 {stroke:#916F5D;stroke-width:66.1315}
    .fil8 {fill:none}
    .fil22 {fill:#333333}
    .fil20 {fill:#66AF54}
    .fil19 {fill:#80C41C}
    .fil14 {fill:#916F5D}
    .fil25 {fill:#A28576}
    .fil23 {fill:#BEAC83}
    .fil21 {fill:#D77846}
    .fil4 {fill:white}
    .fil24 {fill:#FEFEFE;fill-rule:nonzero}
    .fil6 {fill:#BEAC83;fill-opacity:0.039216}
    .fil2 {fill:#80C41C;fill-opacity:0.090196}
    .fil15 {fill:white;fill-opacity:0.152941}
    .fil0 {fill:#80C41C;fill-opacity:0.200000}
    .fil5 {fill:#BEAC83;fill-opacity:0.200000}
    .fil3 {fill:#80C41C;fill-opacity:0.301961}
    .fil16 {fill:white;fill-opacity:0.301961}
    .fil18 {fill:#66AF54;fill-opacity:0.501961}
    .fil17 {fill:#80C41C;fill-opacity:0.501961}
    .fil9 {fill:#A6CEE3;fill-opacity:0.501961}
    .fil7 {fill:#C4C4C4;fill-opacity:0.501961}
    .fil1 {fill:#66AF54;fill-opacity:0.600000}
    .fil12 {fill:url(#id8)}
    .fil11 {fill:url(#id9)}
    .fil10 {fill:url(#id10)}
    .fil13 {fill:url(#id11)}
   ]]>
  </style>
   <mask id="id0">
  <linearGradient id="id1" gradientUnits="userSpaceOnUse" x1="7844.09" y1="15702.3" x2="8315.48" y2="15761.2">
   <stop offset="0" style="stop-opacity:1; stop-color:white"/>
   <stop offset="1" style="stop-opacity:0; stop-color:white"/>
  </linearGradient>
    <rect style="fill:url(#id1)" x="7858" y="15552" width="444" height="360"/>
   </mask>
   <mask id="id2">
  <linearGradient id="id3" gradientUnits="userSpaceOnUse" x1="2265.74" y1="17366.5" x2="-267.575" y2="18247.7">
   <stop offset="0" style="stop-opacity:1; stop-color:white"/>
   <stop offset="1" style="stop-opacity:0; stop-color:white"/>
  </linearGradient>
    <rect style="fill:url(#id3)" x="-178" y="17089" width="2353" height="1436"/>
   </mask>
   <mask id="id4">
  <linearGradient id="id5" gradientUnits="userSpaceOnUse" x1="1256.97" y1="2384.86" x2="639.346" y2="2453.49">
   <stop offset="0" style="stop-opacity:1; stop-color:white"/>
   <stop offset="1" style="stop-opacity:0; stop-color:white"/>
  </linearGradient>
    <rect style="fill:url(#id5)" x="643" y="2305" width="611" height="228"/>
   </mask>
   <mask id="id6">
  <linearGradient id="id7" gradientUnits="userSpaceOnUse" x1="15958.8" y1="566.454" x2="16297" y2="-53.5225">
   <stop offset="0" style="stop-opacity:1; stop-color:white"/>
   <stop offset="1" style="stop-opacity:0; stop-color:white"/>
  </linearGradient>
    <rect style="fill:url(#id7)" x="15880" y="-18" width="495" height="549"/>
   </mask>
  <linearGradient id="id8" gradientUnits="userSpaceOnUse" x1="1250.8" y1="2385.54" x2="645.519" y2="2452.8">
   <stop offset="0" style="stop-color:#A6CEE3"/>
   <stop offset="1" style="stop-color:#A6CEE3"/>
  </linearGradient>
  <linearGradient id="id9" gradientUnits="userSpaceOnUse" xlink:href="#id8" x1="2189.75" y1="17393" x2="-191.584" y2="18221.3">
  </linearGradient>
  <linearGradient id="id10" gradientUnits="userSpaceOnUse" xlink:href="#id8" x1="7858.22" y1="15704.1" x2="8301.35" y2="15759.5">
  </linearGradient>
  <linearGradient id="id11" gradientUnits="userSpaceOnUse" x1="15979.1" y1="529.264" x2="16276.7" y2="-16.3329">
   <stop offset="0" style="stop-color:#A6CEE3"/>
   <stop offset="1" style="stop-color:#A6CEE3"/>
  </linearGradient>
 </defs>
 <g id="Слой_x0020_1">
  <metadata id="CorelCorpID_0Corel-Layer"/>
  <path class="fil0" d="M21691 3867c175,320 393,1775 393,1775 0,0 713,2998 1702,4686 511,871 1965,2168 1557,3157 -394,959 -1076,1805 -5209,2736 -1819,410 -4300,-233 -5355,0 -3958,873 -1120,1775 -5457,3900 -4336,2124 -6693,1547 -6693,-553 0,-4016 -2285,-4802 -1703,-5646 582,-844 786,-1310 786,-2241 0,-931 -2357,-2415 -1164,-4977 150,-321 1067,-2201 931,-2648 -407,-1339 -378,-1394 233,-1918 611,-524 1514,-242 2052,-323 1164,-174 1603,-272 2503,-203 1920,145 4380,-583 5864,-146 363,107 2124,146 2852,-291 727,-437 4627,87 5297,437 669,349 1236,1935 1411,2255z"/>
  <path class="fil1" d="M4986 7869c-645,-5 -1944,-12 -1979,0l0 1251 306 0 0 3303 1673 0 0 -4554z"/>
  <path class="fil2" d="M7009 10357c145,44 116,364 73,393 53,48 151,171 116,276 -31,94 -103,86 -146,66 33,22 75,76 44,167 -35,105 -141,141 -189,146 44,68 122,221 87,291 82,58 102,237 102,320 68,-10 213,6 247,145 44,175 -101,335 -29,291 52,-31 153,58 213,123 -5,-20 1,-54 35,-108 58,-93 199,-49 262,-15 -10,-82 5,-256 145,-291 140,-35 214,189 233,306 15,-34 64,-82 146,0 81,81 43,160 14,189 49,44 134,160 87,276 -46,117 -281,156 -393,161 30,77 70,241 0,276 -69,35 -252,-34 -334,-73 19,15 26,58 -102,117 -110,50 -156,10 -170,-26 5,32 -1,90 -48,157 -59,81 -131,63 -160,43 0,20 -18,64 -88,88 -87,29 -174,-73 -189,-88 -14,-14 -160,219 -364,146 -163,-58 -135,-180 -102,-233 -33,5 -113,-6 -160,-87 -46,-82 -9,-170 15,-204 -53,-10 -166,-61 -189,-189 -23,-128 77,-131 131,-117 -5,-19 -18,-87 -29,-203 -12,-117 82,-175 131,-190 -68,-4 -210,-40 -233,-145 -23,-105 107,-73 174,-44 -19,-14 -55,-67 -43,-160 14,-116 116,-87 58,-145 -47,-47 -29,-97 -15,-117 -9,0 -46,-17 -116,-87 -70,-70 -19,-155 15,-189 -63,19 -198,29 -233,-87 -35,-117 92,-204 160,-233 -15,-25 -44,-93 -44,-175 0,-81 78,-150 117,-175 -49,-14 -146,-58 -146,-116 0,-58 49,-82 73,-87 -5,-63 11,-201 116,-248 105,-46 189,20 218,59 -4,-39 3,-126 73,-160 70,-35 117,34 131,72 54,-53 189,-151 306,-116z"/>
  <path class="fil2" d="M2090 1786c-100,37 -193,256 -422,233 -284,-29 -407,218 -378,364 15,76 -34,187 -89,313 -44,99 -91,206 -115,312 -160,728 391,1314 859,1034 116,-70 184,-272 204,-364 12,220 305,393 480,174 75,-93 24,-237 0,-291 213,0 335,-121 335,-334 221,74 620,-122 451,-393l232 -102c-42,171 62,335 248,378 -29,78 -47,242 116,277 163,35 204,-54 204,-102 0,53 35,169 175,204 139,34 203,-54 218,-102 2,3 4,8 6,12 30,62 83,172 256,148 203,-29 203,-189 203,-262 251,0 240,-302 88,-422 247,0 341,-162 305,-378 14,2 31,6 48,10 87,19 210,47 316,-10 107,-59 77,-189 59,-269 -9,-39 -15,-66 -1,-66 102,0 277,43 320,87 35,35 170,131 233,175 39,68 117,227 117,320 0,93 58,155 87,175 -87,14 -288,55 -393,101 -276,123 -160,612 189,597 0,116 160,291 306,247 87,131 291,88 335,-14l29 364c-44,87 -137,302 -160,465 -24,163 116,223 189,233 -175,44 -349,175 -277,335 -26,-3 -51,-6 -76,-8 -312,-34 -533,-58 -695,211 -87,146 68,340 160,350 -378,131 -468,384 -378,669 70,221 223,276 291,276 -15,44 -18,169 87,321 94,136 241,136 327,137 33,0 58,0 66,8 14,14 -9,116 -35,231 -28,124 -60,262 -52,322 11,93 208,146 305,160l0 131c-77,39 -244,157 -291,320 -39,137 35,191 98,236 11,9 23,18 33,26 -77,44 -276,233 -233,451 22,110 106,106 191,103 14,0 28,-1 42,-1l102 248c-63,33 -198,136 -233,276 -35,140 141,136 233,116 -5,39 -12,134 0,204 12,70 150,97 218,102 54,116 192,340 320,306 129,-35 122,-131 102,-175 29,34 120,96 248,73 160,-29 233,-146 233,-248 203,219 465,204 538,102 38,-53 1,-70 -35,-87 -34,-16 -66,-31 -38,-73 47,-70 -19,-165 -58,-204l189 -43c34,53 125,151 218,116 87,-32 88,-84 76,-111 22,41 83,121 172,155 93,35 184,-15 218,-44 49,53 169,128 262,0 93,-128 -19,-179 -87,-189 29,-5 104,-47 174,-175 70,-128 -68,-199 -145,-218 34,-10 128,-49 233,-131 104,-81 43,-286 0,-378 63,-20 189,-96 189,-248 0,-151 -126,-189 -189,-189 24,-24 96,-99 189,-203 116,-131 0,-277 -189,-437 -152,-128 -257,-53 -291,0 -85,-230 -83,-396 29,-771 29,-20 87,-79 87,-160 0,-82 -78,-180 -116,-219 58,-82 151,-308 58,-553 -93,-244 -175,-121 -204,-29 -19,-63 -90,-180 -218,-145 -160,44 -291,436 -291,757 -163,-140 -340,0 -408,87 0,-78 -14,-250 -72,-320 -59,-70 -219,29 -291,87 29,-29 69,-116 0,-233 -39,-63 -104,-72 -168,-59 61,-37 125,-94 168,-174 81,-151 33,-247 0,-276 43,29 162,58 291,-58 128,-117 101,-194 72,-219 136,5 408,-37 408,-247 0,-209 -272,-242 -408,-233 63,-24 210,-110 291,-262 82,-151 63,-383 44,-480 63,5 207,-23 276,-174 70,-152 -29,-306 -87,-364l175 -117c48,97 171,274 276,204 105,-70 44,-165 0,-204 25,5 82,12 117,0 35,-11 72,-82 87,-116 19,29 81,78 175,44 93,-35 165,-63 189,-73 29,34 110,96 203,73 117,-30 175,-146 175,-204 93,-12 146,-121 160,-175 49,39 172,108 277,73 104,-35 140,-170 145,-233 49,20 181,55 320,44 175,-15 189,-233 117,-379 -59,-116 -160,-135 -204,-130 24,-15 81,-73 116,-190 35,-116 -63,-232 -116,-276l276 -102c20,53 79,160 160,160 82,0 170,-68 204,-102 58,34 192,102 262,102 70,0 204,-39 262,-58 53,53 195,151 335,116 -47,93 0,223 29,277 -44,9 -163,38 -291,73 -160,43 -87,363 0,465 70,82 204,73 262,58 -39,126 -105,390 -58,437 58,58 174,-58 174,-102 0,-35 -39,-121 -58,-160 24,29 90,79 160,44 70,-35 87,-93 87,-117 92,34 300,82 393,0 93,-81 39,-170 0,-203 58,29 201,78 306,43 131,-43 189,-131 204,-262 11,-105 -131,-208 -204,-247 19,-15 58,-64 58,-146l0 -320 349 -58c153,-16 409,-41 589,-57l-94 13 0 204c-10,-19 -47,-38 -116,44 -70,81 -68,140 -59,160 -58,29 -177,107 -189,189 -11,81 102,209 160,262 -9,10 -17,58 29,175 47,116 136,164 175,174l582 -320c24,19 111,58 262,58 151,0 247,-77 276,-116l262 204 -58 145c-68,-10 -209,-12 -233,58 -43,-102 -174,-102 -247,0 0,-82 -26,-238 -131,-203 -105,34 -131,130 -131,174 -73,-39 -242,-93 -335,0 -93,93 -38,223 0,277l-29 131c-34,-63 -125,-163 -218,-59 -93,105 -39,267 0,335 -78,-53 -250,-119 -320,44 -70,163 -29,349 0,422 -68,34 -204,119 -204,189 0,70 107,145 160,174 -87,30 -131,204 -43,306 -39,107 -76,332 87,378 209,-23 252,-165 247,-232l204 -88c73,73 204,73 262,-58 32,-72 -24,-139 -81,-207 -7,-9 -14,-17 -21,-26 24,-24 79,-90 102,-160 23,-70 10,-155 0,-189 19,24 73,49 131,-44 58,-93 24,-174 0,-203 43,4 134,-9 145,-102 12,-93 5,-146 0,-160 34,14 117,20 175,-73 58,-93 -63,-243 -131,-306 5,3 10,5 16,8 52,25 122,58 188,-8 41,34 61,2 80,-30 14,-23 28,-47 51,-42 160,-29 218,101 160,262 -33,90 68,164 116,189 -24,58 -14,233 102,262 -73,160 -15,203 102,247 -44,102 58,218 160,189 0,160 247,291 378,218 44,102 131,117 219,73 -15,97 -9,282 130,248 140,-35 214,-151 233,-204 44,-5 123,-120 88,-248 -59,-213 -350,-232 -451,-87 43,-145 -30,-335 -219,-335 -56,0 -78,-45 -101,-93 -22,-47 -45,-96 -102,-110 101,-58 58,-262 -102,-262 145,-117 -44,-320 -175,-204 -209,0 -126,-204 -58,-305 63,-68 189,-222 189,-291 0,-70 97,-165 146,-204 67,53 229,169 334,204 105,34 189,14 218,0 -4,58 3,186 73,232 70,47 136,97 160,117 -24,19 -61,81 -14,174 46,93 223,165 305,190l131 -117 117 189c-58,25 -175,93 -175,175 0,81 78,170 117,204 -20,24 -47,99 0,203 46,105 116,180 145,204 0,63 26,189 131,189 105,0 228,-48 276,-73 64,20 195,41 219,-29 9,-28 20,-111 33,-209 27,-208 63,-485 112,-445 73,58 233,160 320,160 70,0 126,-68 146,-102 68,48 218,125 276,43 59,-81 -34,-247 -87,-320 0,-254 -102,-553 -247,-509 58,-175 0,-346 -88,-451 73,-189 518,-163 612,-175 93,-11 305,189 451,88 58,87 93,390 174,436 82,47 189,427 233,611l-102 320c-82,-9 -259,0 -305,117 -47,116 -88,242 -102,291 -78,34 -233,116 -233,174l0 204c-49,-14 -140,-14 -116,102 23,116 155,146 218,146 -68,38 -184,151 -102,291 81,139 306,252 407,291 -48,72 -87,224 -29,363 139,334 534,190 626,88 -262,276 -402,515 -306,829l-87 218c-305,88 -233,510 0,510 0,663 786,364 786,218 131,146 713,233 858,-218 510,43 772,-611 553,-975 81,-1775 138,-1426 -902,-3405 -247,-1077 -553,-1310 -815,-1396 -29,-525 -480,-554 -669,-496 -378,-335 -1834,-495 -1979,-495 -146,0 -553,73 -1048,0 -388,-57 -1504,-15 -1819,73 -86,24 -323,139 -357,146 -495,-160 -414,174 -719,174 -151,0 -643,-36 -1281,0 -653,37 -1439,-14 -1601,-14 -931,-219 -1935,-58 -2604,131 -36,-80 -220,32 -320,58 -65,16 -259,0 -350,0 -233,0 -1047,-87 -1222,44 -106,79 -238,63 -393,0 -100,-41 -342,0 -422,0 -204,0 -1062,0 -1280,131 -219,131 -510,29 -815,29 -248,-29 -378,-68 -524,0 -74,34 -160,103 -204,103 -205,0 -698,-39 -917,42zm17154 -89c-16,1 -30,2 -41,2 -140,0 -553,-97 -742,-146 -78,49 -248,146 -306,146 -46,0 -81,-24 -122,-52 -24,-17 -50,-34 -82,-50 -69,-35 -223,-44 -291,-44 -34,49 -125,146 -218,146 -93,0 -281,-39 -364,-58 -116,38 -375,104 -480,58 -105,-47 -160,-117 -175,-146 -416,147 -582,248 -727,408 -29,58 -15,160 233,102 0,-192 314,-52 364,14 24,-39 98,-116 203,-116 105,0 170,106 189,160 10,-34 56,-114 160,-160 105,-47 258,-20 321,0 38,-59 148,-175 276,-175 128,0 267,87 320,131 68,-39 216,-119 262,-131 58,-14 218,131 248,291 23,128 -127,238 -204,277l0 160c0,46 -68,106 -102,131l0 218 364 87 276 -189 0 -116c39,-97 131,-306 189,-364 59,-58 180,24 233,73 24,-10 96,-50 189,-131 93,-82 272,53 350,131l-44 -204c-39,-5 -128,-26 -175,-73 -46,-46 -19,-126 0,-160l-104 -220z"/>
  <path class="fil3" d="M2425 6763c53,-73 195,-216 335,-204l73 349 567 73c63,58 189,212 189,364 0,151 -77,276 -116,320 -78,53 -233,163 -233,175 0,14 160,203 160,436l0 422c87,29 277,111 335,204 58,93 -151,320 -262,422 39,34 145,122 262,203 145,102 -29,393 -146,481 -93,69 -417,29 -567,0l-379 451 0 320c39,44 131,160 190,276 58,117 -25,408 -73,539l262 -146 218 -233c107,68 326,239 349,379 24,139 -116,223 -189,247l73 422 0 306 -233 247c-5,131 -38,425 -131,553 -116,160 -349,-247 -466,-160 -93,70 -184,29 -218,0 73,97 218,306 218,364l0 320c0,58 -145,208 -218,276 78,131 230,419 218,524 -14,131 -145,233 -349,291 -204,58 -131,-291 -131,-422 0,-131 -320,-174 -509,-291 -189,-116 14,-887 0,-1062 -15,-175 145,-335 305,-393 161,-58 102,-247 102,-393l0 -582c0,-221 156,-257 233,-247 -111,-131 -335,-422 -335,-539 0,-145 0,-174 102,-276 102,-102 102,-117 233,-204 131,-87 -131,-204 -233,-204 -102,0 0,-232 -102,-363 -101,-131 102,-233 204,-350 82,-93 209,-261 262,-334 -87,-136 -262,-434 -262,-539l0 -436c0,-93 175,-243 262,-306 -44,-14 -157,-35 -262,0 -131,44 -204,-218 -204,-378 0,-128 224,-267 335,-320 -43,-44 -151,-143 -233,-189 -102,-59 -131,-393 -102,-393 30,0 117,-204 204,-291 70,-70 204,165 262,291z"/>
  <path class="fil2" d="M8784 10226c116,-29 146,131 146,204 24,-83 93,-259 174,-306 82,-47 180,97 218,175 64,145 178,460 131,553 -46,93 -106,135 -131,145 44,20 114,87 44,204 -87,145 -262,116 -189,174 58,47 53,185 44,248l232 -248c20,-43 91,-142 219,-189 128,-46 344,-19 436,0 78,5 248,38 306,131 58,93 -73,204 -146,248 25,14 73,67 73,160 0,93 -78,184 -116,218 38,29 107,113 72,218 -35,105 -121,151 -160,160 54,88 169,271 204,306 44,44 29,175 -44,320 -58,116 -179,233 -232,277 -20,53 -53,192 -30,320 24,128 -48,305 -87,378 92,126 259,396 189,466 -70,69 -242,0 -320,-44 -5,58 -73,169 -305,145 -233,-23 -291,-135 -291,-189l0 379c0,81 -146,-34 -219,-102 -150,68 -477,183 -582,102 -105,-82 -43,-228 0,-291 -87,-10 -259,-56 -247,-160 12,-105 141,-219 204,-262 -34,-34 -94,-134 -59,-262 35,-128 131,-160 175,-160 -58,-59 -154,-210 -73,-350 82,-139 199,-165 248,-160 -39,-38 -128,-131 -175,-189 -47,-58 78,-53 146,-43 24,-73 87,-227 145,-262 58,-35 238,63 320,116l117 -73c-10,-39 -24,-137 0,-218 23,-82 106,-112 145,-116 -14,-20 -44,-76 -44,-146 0,-70 127,-136 190,-160l-59 -175 -349 262c-87,20 -273,47 -320,0 -47,-46 -19,-155 0,-203 -78,0 -233,-12 -233,-59 0,-46 58,-165 88,-218 -73,-14 -219,-70 -219,-175 0,-104 88,-160 131,-174 -58,0 -186,-29 -233,-146 -46,-116 97,-135 175,-131 -48,-19 -151,-84 -175,-189 -23,-105 59,-131 102,-131 -19,-39 -46,-134 0,-203 47,-70 185,-30 248,0 0,-49 23,-152 116,-175z"/>
  <path class="fil2" d="M15987 7679c-29,-140 -64,-433 29,-480l29 -218 -131 -73 58 -102c-72,-9 -221,-61 -232,-189 -12,-128 72,-131 116,-116 -39,-78 -99,-259 -29,-364 70,-105 223,-82 291,-58 19,-107 93,-320 233,-320 139,0 271,87 320,131 -5,-20 -9,-73 14,-131 24,-59 136,-73 190,-73 0,-73 14,-236 72,-306 59,-70 219,-9 291,29 20,-97 79,-314 160,-407 102,-116 364,102 582,116 219,15 30,291 175,335 117,35 87,180 58,247 0,78 15,233 73,233 58,0 238,156 320,233l189 -102c97,-9 318,-20 422,15 105,35 93,199 73,276 44,107 122,341 87,422 -35,82 -276,92 -392,88 -20,72 -82,232 -175,291 -93,58 -214,-54 -262,-117l-233 146c-58,-20 -195,-47 -276,0 -82,46 -170,-49 -204,-102 -44,-24 -140,-50 -175,43 -35,94 -334,117 -480,117 -5,121 -11,387 0,480l-291 58c5,63 -29,189 -204,189 -174,0 -169,-48 -145,-72l-189 131c14,39 11,122 -117,145 -128,23 -160,-106 -160,-174 -19,19 -84,32 -189,-73 -105,-105 24,-209 102,-248z"/>
  <path class="fil2" d="M10618 16716c0,73 -73,58 -59,218 54,-34 189,-113 306,-160 145,-58 204,44 276,87 73,44 44,262 0,393 -35,105 -237,189 -334,218 34,49 93,163 58,233 -35,70 -92,156 -117,189l117 248c0,-24 17,-90 87,-160 88,-88 175,0 233,0 58,0 102,58 233,189 105,105 63,276 29,349 68,-5 218,0 276,58 73,73 -29,262 0,277 30,14 131,87 102,189 -23,82 -77,189 -102,233 -29,24 -110,81 -203,116 -93,35 -156,-63 -175,-116 10,44 -9,163 -160,291 -151,128 -170,24 -160,-44l-73 262c73,24 189,117 73,291 -116,175 -233,102 -277,44 39,131 117,401 117,436 0,44 14,335 0,364 -12,23 -170,136 -247,189 19,59 34,201 -59,306 -93,105 -388,-44 -524,-131 -53,44 -195,131 -334,131 -140,0 -194,-155 -204,-233 -10,-78 -23,-265 0,-393 29,-160 320,-73 378,-189 47,-93 88,-175 102,-204l-203 -145c-25,-58 -59,-218 0,-393 58,-175 179,-121 232,-73l0 -305c0,-117 408,-49 612,0l-262 -131c-83,0 -268,-35 -350,-175 -78,-134 26,-307 94,-384 -39,42 -127,119 -225,151 -104,35 -295,15 -378,0 0,78 -12,253 -58,335 -47,81 -214,82 -291,73l131 174c63,24 195,79 218,102 29,29 29,175 0,291 -29,117 -175,160 -262,160 -87,0 -174,0 -218,87 -44,88 -73,161 -204,219 -105,46 -189,58 -218,58l0 480c-44,78 -163,265 -291,393 -160,160 -917,116 -1004,102 -87,-15 -117,-247 -73,-393 35,-116 150,-204 204,-233 -20,-53 -32,-198 73,-349 104,-151 460,-102 625,-58l29 -219c-53,10 -168,33 -203,44 -44,15 -160,-58 -277,-131 -116,-73 -87,-218 -58,-407 23,-152 262,-189 378,-189l160 -204 -160 0c-39,-53 -116,-195 -116,-335 0,-174 87,-204 189,-276 102,-73 306,58 393,189 70,105 -29,257 -87,320l305 175 0 -175c0,-70 175,-155 262,-189 -24,-44 -84,-131 -131,-131 -58,0 -102,-131 -131,-277 -29,-145 73,-232 131,-334 47,-82 359,5 509,58l73 -160c-48,0 -166,6 -247,29 -102,29 -277,-87 -335,-233 -58,-145 -14,-204 204,-466 174,-209 529,-194 684,-160 -24,-126 -58,-392 0,-451 58,-58 140,-169 174,-218 -24,-102 -49,-326 44,-407 93,-82 184,14 218,72 25,-38 102,-133 219,-203 116,-70 223,126 262,232 92,73 270,236 247,306 -29,87 -247,0 -247,73z"/>
  <path class="fil2" d="M19581 7970c0,59 -44,117 -218,190 -49,14 -166,43 -248,43 -101,0 -349,15 -378,15 -29,0 -87,29 -204,87 -116,58 -305,15 -320,15 -14,0 -131,14 -233,72 -101,59 -247,15 -276,15 -29,0 -233,15 -276,58 -44,44 -131,15 -248,15 -116,0 -43,-102 -43,-160 0,-59 0,-88 43,-160 44,-73 87,-29 117,-44 29,-15 58,-102 101,-146 35,-34 161,-53 219,-58 29,-43 93,-134 116,-145 29,-15 175,-15 204,-29 29,-15 102,-59 160,-73 58,-15 175,44 276,44 102,0 160,-161 204,-219 44,-58 189,-145 291,-145 82,0 112,97 117,145 4,-29 29,-84 87,-72 58,11 73,53 73,72 53,-5 171,-11 218,0 46,12 107,151 131,219 29,67 87,215 87,261z"/>
  <path class="fil1" d="M8202 10837c437,0 713,189 786,480 43,553 -1077,1485 -1659,1950 -582,466 -888,-364 -1048,-815 -160,-451 -233,-1004 0,-1455 233,-451 422,-233 902,-160 481,73 582,0 1019,0z"/>
  <path class="fil4" d="M18970 3547c-34,17 -102,19 -240,23 -101,4 -239,8 -429,21l0 145 1018 -102c15,189 44,480 58,597 6,46 44,116 124,107 149,-17 342,-34 475,-49 56,0 100,-44 85,-131 -14,-87 -145,-1193 -160,-1295 -6,-42 -35,-78 -87,-73 -160,15 -422,58 -495,73 -73,15 -79,38 -73,102 15,145 59,393 73,538 -14,15 -32,15 -102,15 -87,0 -102,-204 -102,-349 0,-117 -19,-330 -29,-422l495 0c43,-2 58,-13 58,-59l0 -232c0,-50 -17,-58 -58,-59l-727 0c-44,0 -59,17 -59,59l0 232c1,50 15,61 59,59l116 0c15,155 44,468 44,538 0,14 0,29 0,45l0 0c2,85 5,192 -44,217z"/>
  <path class="fil4" d="M13848 7694l1077 0 43 175 -1120 0c0,0 -60,72 0,72 149,0 354,17 354,17l199 0c45,-1 60,9 58,56 0,43 -2,306 0,509 1,91 12,131 44,131 30,0 69,1 112,2l0 0c104,2 232,5 324,-2l-29 117 -364 0c-116,0 -87,116 -87,174 0,109 0,331 0,437 0,62 -56,58 -116,58l-582 0c-44,1 -58,-10 -59,-58l0 -437c-72,0 -133,0 -203,0 -59,0 -88,-29 -88,-72 0,-31 0,-147 0,-195 0,-159 0,-351 0,-518 0,-137 270,-464 364,-466l73 0z"/>
  <path class="fil4" d="M10385 3532c-43,27 -96,83 -59,146 23,37 208,358 219,378 -116,72 -288,183 -422,277 -189,131 -393,349 -510,684 -84,244 -72,522 -62,757l0 0c5,102 9,196 4,276 -14,262 -189,436 -305,480 -117,44 -553,233 -801,436 -247,204 -363,612 -378,728 -15,116 -58,262 -116,262l-1892 0 -29 116c102,5 335,12 451,0 145,-14 204,102 218,146 12,35 5,428 2,617l0 0c-1,49 -2,84 -2,96 0,58 -144,174 -218,174l-524 0 0 131 669 0c102,0 274,6 321,30 58,29 79,102 72,218 -14,262 73,422 160,553 127,189 408,436 786,451 120,4 312,-1 520,-7 248,-8 519,-16 717,-8 311,13 515,153 641,238 21,15 41,28 57,39 80,50 187,133 284,209 44,35 87,69 124,96 35,26 66,46 93,63 64,41 109,70 140,141 13,30 29,291 14,597 -11,233 -141,365 -267,492l0 0c-38,39 -77,78 -111,119 -146,174 -131,495 -102,669 19,111 131,280 218,412 50,75 92,138 102,170 24,70 10,340 0,466l131 58c0,-87 3,-288 15,-393 14,-131 -29,-204 -131,-349 -102,-146 -189,-320 -218,-538 -30,-219 101,-466 261,-626 161,-160 190,-277 204,-378 15,-102 44,-379 44,-626 0,-94 100,-137 180,-171l9 -4c27,-11 53,-22 78,-32l0 0c69,-28 133,-55 213,-99l2 -1 5 -3 6 -3 9 -5c125,-70 263,-148 662,-148 306,0 466,159 466,248 0,100 -14,1537 -23,2428l0 4c-4,399 23,1860 23,1860l262 0 0 -493 203 -2 0 655 2707 -102 0 -1164c0,-72 -88,-152 -175,-145l-2386 131c-88,0 -144,85 -146,145l0 204 -203 15 0 -350c0,0 -138,-85 -131,-87l14 -655 669 -12 0 85 204 0 0 320 146 -14 0 -306 145 0 742 -893c39,-46 50,-75 44,-140l0 -58 480 0 29 -117 -509 0 0 -742c0,-65 -57,-117 -116,-116l-1077 0c-44,0 -88,43 -88,87l0 175 -683 14c-5,-165 -12,-541 0,-727 14,-233 58,-524 305,-713 233,-178 581,-176 730,-175l0 0 11 0c6,0 11,0 16,0 105,0 926,19 1324,29l29 -145c-490,-10 -1522,-24 -1732,0 -261,29 -436,174 -523,261 -35,35 -84,96 -135,159 -76,94 -157,194 -200,220 -47,28 -141,20 -250,10 -59,-5 -124,-10 -187,-10 -134,0 -212,13 -270,22l0 0c-49,8 -83,14 -123,7 -68,-12 -92,-85 -120,-173 -8,-24 -16,-49 -25,-75 -14,-37 -50,-109 -94,-198 -95,-190 -226,-453 -255,-602 -33,-163 19,-541 57,-816 13,-93 24,-174 30,-232 17,-165 -28,-383 -70,-585 -31,-153 -61,-297 -61,-404 0,-247 233,-538 408,-655 174,-116 596,-233 756,-247 51,-5 143,-6 251,-8l1 0c234,-5 550,-11 709,-50 176,-44 319,-114 422,-163 33,-16 62,-30 87,-41 81,-35 335,-15 451,0l-146 -146c-58,5 -206,15 -334,15 -119,0 -197,56 -271,108 -26,19 -52,37 -78,52 -102,58 -408,87 -874,87 -360,0 -615,105 -814,186 -58,23 -111,45 -160,62 -175,58 -345,305 -408,422 -10,-5 -38,-21 -73,-44 -17,-12 -76,-35 -152,-64l0 -1 0 0c-116,-45 -272,-106 -386,-168 -189,-102 -189,-334 -189,-480 0,-105 -143,-209 -234,-276 -36,-26 -64,-46 -72,-59 -29,-43 -116,-218 -116,-713 0,-498 169,-722 364,-916 49,-50 494,-364 596,-422l1674 -801c53,68 189,189 334,204 42,4 85,-4 137,-15 105,-20 247,-48 489,0 291,59 587,316 698,437l59 -175c-10,-19 -114,-104 -451,-291 -312,-172 -560,-137 -733,-113 -61,8 -113,15 -155,11 -128,-11 -180,-101 -189,-145l174 -98c47,-22 48,-49 10,-120l-228 -408c-29,-58 -58,-145 -175,-87 -74,37 -654,331 -814,407 -432,207 -990,481 -1106,553zm-946 3027c102,-87 204,-175 320,-189 175,29 212,233 233,378 29,204 87,349 276,437 51,23 174,76 298,129 88,38 176,75 241,104 -44,320 -30,559 58,843 58,190 29,597 14,684 -2,15 -6,35 -12,60 -27,126 -82,374 -46,653 38,288 258,694 347,858 14,26 25,47 32,59 43,87 58,262 -59,320 -19,10 -40,22 -63,35 -169,94 -442,247 -737,-35 -460,-440 -807,-500 -1031,-539 -27,-5 -52,-9 -75,-14 -106,-21 -263,-11 -462,1 -213,13 -475,29 -775,14 -548,-27 -683,-351 -770,-559l0 0 0 0 0 -1 0 0 0 0c-5,-13 -10,-25 -15,-37 -88,-203 -30,-378 29,-378 429,0 851,5 1280,0 63,-1 89,-78 89,-122l0 -868c0,-58 -7,-89 -60,-87l-407 0c-10,-68 -9,-204 14,-436 29,-291 219,-641 320,-772 102,-131 422,-276 553,-320 131,-43 306,-131 408,-218zm3012 5413l0 1484 698 0 0 -1513 -698 29zm-5442 -3536c0,291 0,403 0,611 -117,0 -175,-87 -175,-174l0 -626c0,-153 213,-150 393,-146 25,0 50,0 73,0l727 0c0,30 1,60 1,90 2,60 4,62 0,114l-917 0c-59,0 -102,59 -102,131z"/>
  <path class="fil4" d="M15521 10430c-87,-146 -320,-277 -538,-350 -31,41 -19,89 -8,129 4,17 8,33 8,46 349,58 611,480 611,568 0,11 0,47 -1,102 -2,284 -7,1069 1,1484l-436 0 0 116 902 0 0 815 524 0 0 378 989 0 0 349 960 59 0 -408 1514 0c58,0 116,44 116,102l0 291 262 0 0 -218c0,-73 44,-233 146,-233 18,0 59,0 117,1l1 0 0 0c221,1 670,3 900,-1l73 626 0 596 4685 -145 0 -539 -844 -363 0 -553 -29 -742 -1266 -15 0 -640c0,-58 -51,-113 -116,-117l-873 0 0 -640c0,-58 -44,-87 -87,-87l-932 0c-43,0 -87,43 -87,87l0 582 -524 0c-58,0 -116,58 -116,117l0 698 -2387 0c-2,-39 -1,-98 0,-155 0,-27 0,-54 0,-78 0,-58 -39,-58 -58,-58l-1309 0 0 -931c0,-44 -44,-88 -88,-88l-1906 0 0 -218c0,-174 0,-254 73,-291 132,-66 662,-127 1088,-175 41,-5 81,-10 120,-14 95,-11 187,-27 272,-42 305,-53 529,-92 586,158 99,435 859,932 1484,859 626,-73 1004,-306 1179,-859 133,-421 -30,-809 -141,-1072 -34,-83 -64,-153 -77,-208 -26,-104 -12,-276 5,-466 20,-235 43,-498 -5,-698 -70,-291 -335,-437 -582,-451l0 -190 29 0c29,0 58,-29 58,-64l0 -605 204 0 0 -1339c0,-29 -15,-58 -59,-58l-698 0c-35,1 -58,15 -58,58l0 495 -1121 0c-11,0 -150,78 -218,131l1339 0 0 713 233 0 0 611c0,29 29,58 58,58l116 0 0 204c-143,26 -310,111 -426,170l-18 9c-4,2 -8,4 -12,6l-5 2 -4 2c-61,31 -145,29 -284,27 -127,-1 -301,-4 -546,17 -509,44 -713,378 -756,684 -38,262 124,626 232,815 92,160 49,441 0,655 -33,145 -189,180 -465,203 -231,20 -720,83 -1069,128l0 0c-180,24 -322,42 -372,47 -21,2 -42,5 -62,7l0 0c-120,16 -227,30 -302,-94zm3565 -2343c81,-19 179,-61 278,-103 135,-58 270,-115 363,-115 539,35 493,579 454,1033l0 1c-9,109 -18,214 -18,304 0,236 56,345 119,467 61,119 129,250 158,523 74,711 -422,1120 -1121,1164 -698,44 -1178,-437 -1324,-757 -70,-154 -47,-423 -28,-644 9,-102 16,-193 13,-258 -7,-164 -52,-247 -107,-348 -57,-105 -124,-229 -169,-481 -87,-495 188,-636 437,-713 131,-42 356,-45 561,-49 157,-3 302,-5 384,-24z"/>
  <path class="fil4" d="M4331 13864c-79,2 -145,-26 -145,-131l0 -640c0,-73 -6,-161 131,-161 289,0 684,0 989,0 71,0 73,59 73,102l0 757c0,44 -29,73 -73,73l-650 0 97 494 -160 59c-26,-138 -58,-337 -87,-510 -9,-52 -111,-45 -175,-43z"/>
  <path class="fil4" d="M16176 7112c175,23 645,87 873,131l58 -160 306 -189 437 58 203 291 -42 390 -261 247 -468 -40 -247 -277 0 -204 -990 -160 131 -87z"/>
  <path class="fil4" d="M16234 9120c-334,73 -1018,218 -1237,247l-29 146 1266 -247 0 494c1,70 25,84 88,88l727 0c66,-3 87,-20 88,-88l0 -1251c1,-63 -11,-88 -88,-87l-727 0c-72,1 -85,26 -88,87l0 611z"/>
  <path class="fil4" d="M17020 14140l146 -43 0 494 582 0c47,1 58,15 58,59l0 494c-1,42 -12,56 -58,60l-1164 26c-41,-3 -55,-17 -59,-57l0 -523c5,-41 15,-57 59,-59l436 0 0 -451z"/>
  <path class="fil4" d="M18533 14591l233 0 0 -320 262 -29 0 349 320 0c45,2 59,12 58,59l0 349c-1,47 -15,57 -58,58l-815 0c-45,0 -57,-12 -58,-58l0 -349c1,-44 11,-59 58,-59z"/>
  <path class="fil4" d="M20163 14970l0 -684 1339 0 0 684c-1,46 -16,56 -58,58l-1223 0c-45,0 -56,-15 -58,-58z"/>
  <path class="fil4" d="M11083 13935c-110,-37 -204,-69 -204,-217l0 -2386c0,-55 30,-87 88,-87l1135 0c62,0 87,43 87,101l0 2241c0,88 -71,136 -149,189 -39,26 -79,54 -113,88 -102,102 -116,160 -116,247 0,24 4,50 8,75 7,48 14,92 -8,114l-393 0c-48,-269 -203,-321 -335,-365z"/>
  <path class="fil5" d="M19552 2543l0 58c0,32 -26,58 -58,58l-553 0c-32,0 -58,-26 -58,-58l0 -58c0,-32 26,-58 58,-58l553 0c32,0 58,26 58,58z"/>
  <path class="fil6" d="M19473 4186l-133 -1180c-3,-31 18,-59 49,-64l366 -56c32,-4 62,18 66,51l146 1179c4,32 -18,60 -49,65l-379 56c-33,4 -63,-19 -66,-51z"/>
  <path class="fil6" d="M17213 7116c81,-45 218,-120 229,-120l324 40c16,2 31,11 40,23l132 181c9,11 13,25 11,39l-25 291c-1,14 -8,28 -18,37l-169 157c-12,11 -28,17 -44,15l-343 -25c-15,-1 -30,-9 -40,-21l-160 -190c-9,-11 -13,-24 -13,-38l0 -222c0,-7 1,-15 4,-21l46 -116c5,-13 14,-23 26,-30z"/>
  <path class="fil6" d="M19873 5570l-525 0c-32,0 -58,26 -58,58l0 1106c0,32 26,58 58,58l117 0c32,0 58,26 58,58l0 553c0,32 26,58 58,58l87 0c33,0 59,-26 59,-58l0 -553c0,-32 26,-58 58,-58l101 0c32,0 59,-27 58,-59l-13 -1106c0,-32 -26,-57 -58,-57z"/>
  <path class="fil6" d="M15710 11419l0 990 437 0 0 844 524 0 0 378 989 0 0 349 786 0 0 -349 3085 0 0 -175c0,-58 29,-54 87,-58 1339,-87 3594,-204 3929,-218l-233 -568 -1193 0 0 -684c0,-54 -29,-72 -87,-72l-902 0 0 -641c0,-58 0,-87 -59,-87l-800 0c-44,0 -73,12 -73,58l0 611 -553 0c-72,0 -87,29 -87,88l0 727 -2561 0 0 -233c0,-37 -17,-58 -58,-58l-1310 0 0 -902c0,-87 -14,-116 -87,-116l-1688 0c-116,0 -146,43 -146,116z"/>
  <path class="fil5" d="M16322 9702l0 -1135c0,-32 26,-58 58,-58l611 0c32,0 58,26 58,58l0 1135c0,32 -26,58 -58,58l-611 0c-32,0 -58,-26 -58,-58z"/>
  <path class="fil5" d="M14372 9295l0 -1196c0,-31 -25,-57 -56,-58l-573 -26c-17,0 -33,6 -44,17l-183 183c-11,11 -17,26 -17,42l0 543c0,32 26,58 58,58l175 0c32,0 58,26 58,58l0 379c0,32 26,58 58,58l466 0c32,0 58,-26 58,-58z"/>
  <path class="fil5" d="M10487 3673l177 320c15,27 48,38 76,25l1814 -880c31,-15 42,-53 24,-82l-201 -336c-16,-26 -49,-36 -76,-22l-1789 895c-30,14 -41,51 -25,80z"/>
  <path class="fil5" d="M4273 13718l0 -640c0,-32 26,-58 58,-58l903 0c32,0 58,26 58,58l0 640c0,32 -26,58 -58,58l-903 0c-32,0 -58,-26 -58,-58z"/>
  <path class="fil5" d="M7096 9266l0 -815c0,-32 26,-59 58,-59l1310 0c32,0 58,27 58,59l0 815c0,32 -26,58 -58,58l-1310 0c-32,0 -58,-26 -58,-58z"/>
  <path class="fil5" d="M20250 14882l0 -466c0,-32 26,-58 58,-58l1048 -13c32,-1 59,25 59,58l0 479c0,33 -26,59 -59,59l-1047 0c-32,0 -59,-26 -59,-59z"/>
  <path class="fil5" d="M18533 14941l0 -233c0,-32 27,-58 59,-58l698 0c32,0 58,26 58,58l0 233c0,32 -26,58 -58,58l-698 0c-32,0 -59,-26 -59,-58z"/>
  <path class="fil5" d="M17748 15088l0 -380c0,-32 -26,-58 -59,-58l-1047 0c-32,0 -58,26 -58,58l0 406c0,32 27,59 59,58l1048 -26c31,-1 57,-27 57,-58z"/>
  <path class="fil5" d="M12102 11390l0 146c5,664 11,2008 0,2066 -12,56 -223,226 -338,311 -8,6 -16,10 -25,11 -48,8 -116,21 -176,36 -50,13 -205,4 -253,-16 -94,-39 -214,-84 -256,-109 -73,-44 -87,-131 -87,-175l0 -2270c0,-38 14,-58 58,-58l1019 0c29,0 58,29 58,58z"/>
  <path class="fil5" d="M13237 13485l0 -1775c0,-32 26,-58 58,-58l989 0c33,0 59,26 59,58l0 939c0,14 -5,27 -14,38l-696 836c-12,13 -28,21 -45,21l-293 0c-32,0 -58,-26 -58,-59z"/>
  <path class="fil5" d="M12888 14446l0 1048 2531 -88 0 -1077c-1,-43 -32,-93 -116,-87l-2328 131c-51,1 -84,33 -87,73z"/>
  <path class="fil4" d="M4433 17865c-756,190 -1630,932 -1964,1383l43 524c350,-369 1127,-1159 1441,-1368 272,-182 524,-230 739,-272 96,-19 185,-36 265,-63 262,-87 1324,-291 1557,-335l34 -6c249,-47 758,-142 883,-197 131,-59 233,160 262,247 19,59 -79,339 -172,606 -46,131 -91,258 -119,354 -70,233 -621,1785 -888,2532l320 15c228,-660 719,-2093 859,-2547 110,-359 332,-947 495,-1378l0 0c93,-248 167,-444 189,-513 18,-60 56,-158 99,-272 94,-245 215,-563 235,-732 10,-83 23,-177 37,-277l0 0c28,-199 60,-428 80,-669 29,-364 131,-466 276,-524 146,-58 1252,29 1877,102 626,73 1324,-44 1659,-160 200,-70 395,-103 650,-146 172,-30 370,-63 616,-116 470,-101 966,-72 1289,-54 97,6 179,10 239,10 91,0 354,33 708,78l0 0c669,84 1660,209 2421,228 959,24 2047,8 2481,2 93,-1 156,-2 181,-2 117,0 3464,-87 5123,-131l0 -378c-1126,48 -3638,160 -4686,218 -1310,73 -3463,0 -3696,-15 -233,-14 -2256,-189 -2474,-247 -188,-50 -203,-404 -213,-641 -2,-37 -3,-71 -5,-101 -15,-218 -160,-1091 -204,-1353l0 0c-43,-262 -87,-1237 -43,-2227 43,-989 232,-1426 509,-1790 276,-363 1120,-756 1906,-1106 786,-349 1019,-902 1077,-1164 58,-262 14,-975 -102,-1586 -116,-611 -829,-1513 -1775,-1644 -946,-131 -1761,422 -2125,713 -364,291 -640,975 -538,1470 102,494 0,727 -189,1047 -189,320 -262,888 87,1135 349,248 888,670 1004,1135 99,395 -12,1093 -56,1376 -9,51 -14,89 -17,109 -14,131 -87,1629 -58,1833 6,43 17,114 31,202l0 0c53,334 144,915 144,1122 0,175 -136,317 -265,452 -65,68 -128,135 -172,203 -131,204 -669,829 -771,873 -46,20 -137,31 -256,45 -142,17 -324,38 -515,86 -150,38 -276,78 -403,118l0 0c-169,54 -340,109 -572,159 -312,66 -863,14 -1228,-21 -112,-11 -206,-20 -271,-23 -55,-3 -125,-7 -207,-12l0 0c-330,-19 -854,-49 -1379,-61 -655,-14 -1048,-44 -1353,-87 -112,-16 -204,-34 -296,-52 -158,-30 -314,-61 -563,-79 -393,-29 -524,-277 -567,-422 -44,-146 -204,-713 -204,-946 0,-56 -1,-178 -2,-335l0 0c-3,-495 -9,-1329 2,-1484 2,-29 5,-77 9,-138l0 0c26,-369 84,-1230 122,-1492 44,-305 116,-1295 73,-1658 -44,-364 -655,-626 -801,-670 -145,-43 -829,-73 -1615,-43 -686,25 -873,261 -997,418l0 0c-17,22 -34,43 -51,62 -654,553 -2565,126 -2590,116 -24,160 58,387 175,306 1950,393 2468,-106 2565,-222 83,-97 161,-189 214,-229 10,-8 19,-15 28,-23 100,-81 205,-168 1296,-181 1083,-13 1339,285 1443,406l0 0c10,12 19,22 27,30 87,88 87,321 87,452 0,130 -58,858 -87,1033 -29,174 -145,1178 -116,1309 16,72 1,666 -13,1231l0 0c-12,460 -23,901 -16,1025 8,153 56,355 102,549l0 0c38,157 74,309 87,426 29,262 -131,538 -291,654 -160,117 -830,306 -1266,350 -437,43 -801,-73 -1004,-306 -204,-233 -291,-1018 -306,-1280 -14,-262 -58,-1048 -131,-1470 -35,-279 -466,-1994 -2532,-2343l73 291c1673,277 2241,1775 2270,2547 105,558 24,737 -29,756 -110,66 -597,-110 -895,-218 -96,-34 -172,-62 -211,-73l-116 393c6,2 17,6 32,11 178,58 912,297 1248,499 124,89 178,379 223,620 13,71 26,138 39,194 58,248 452,532 611,553 218,29 277,102 247,291 -72,262 -256,443 -407,524 -151,82 -1324,592 -1571,699l116 291c339,-160 1496,-708 1775,-917 212,-159 284,-381 341,-555 37,-113 67,-205 125,-245 54,-38 170,-48 322,-61 259,-22 625,-53 973,-245 229,-127 727,-291 1106,-262 179,14 452,70 730,127l0 0c308,63 621,127 812,135 364,15 495,160 437,393 -15,59 -33,178 -55,331l0 0c-66,449 -176,1188 -382,1546 -276,480 -989,699 -1688,844 -286,60 -548,102 -810,145l0 0c-376,61 -752,122 -1198,233zm11350 -10709c-89,39 -162,85 -230,127 -131,82 -237,149 -381,120 -111,-28 -193,-159 -286,-310l0 0c-101,-163 -216,-348 -398,-447 -349,-189 -596,-451 -611,-684 -12,-199 156,-494 260,-675 17,-31 33,-58 46,-81 87,-160 87,-422 43,-713 -43,-291 -43,-757 160,-1106 204,-349 684,-655 1237,-902 478,-214 933,-102 1227,-30 46,11 89,22 126,30 217,45 584,447 832,717l0 0c69,75 128,140 172,185 204,204 277,698 306,1542 29,844 -320,1062 -582,1193 -106,54 -400,215 -729,396l0 0c-481,264 -1036,569 -1192,638zm-1163 6001c-44,58 -87,116 -132,168 -47,55 -100,108 -148,157 -132,134 -230,232 -70,222 60,-4 140,0 227,6 229,13 502,29 544,-108 47,-152 -10,-568 -44,-757 -130,-21 -252,142 -377,312z"/>
  <polygon class="fil7" points="21687,14425 21687,14938 26046,14830 26019,14303 "/>
  <polygon class="fil8 str0" points="21687,14425 21687,14938 26046,14830 26019,14303 "/>
  <path class="fil8 str0" d="M21971 14425l0 499m310 -513l0 513m324 -526l0 526m310 -526l0 499m311 -513l0 513m310 -526l0 526m311 -526l27 526m283 -540l13 527m297 -540l14 526m297 -526l13 513m284 -527l27 527m297 -527l27 513m283 -526l14 526"/>
  <path class="fil8 str0" d="M21949 13395l33 616m350 -632l33 615m349 -632l34 616m333 -633l33 616m316 -632l33 615m317 -649l33 633m333 -633l33 600m333 -616l33 616m317 -650l33 633m333 -649l33 616m383 -616l33 616"/>
  <polygon class="fil7" points="19959,13063 19959,12612 20250,12612 20542,12612 20833,12612 20833,13063 20542,13063 20250,13063 "/>
  <path class="fil8 str0" d="M20542 12612l291 0 0 451 -291 0m0 -451l0 451m0 -451l-292 0m292 451l-292 0m0 -451l-291 0 0 451 291 0m0 -451l0 451"/>
  <polygon class="fil7" points="12320,15392 12320,14941 12597,14941 12597,15392 "/>
  <polygon class="fil8 str0" points="12320,15392 12320,14941 12597,14941 12597,15392 "/>
  <path class="fil8 str0" d="M7460 14708c-58,262 14,233 -102,364 -116,130 -218,291 -189,349 29,58 131,0 291,0 160,0 451,-117 582,-58 131,58 815,203 1019,203 203,0 814,-43 1076,0 262,44 1354,29 1572,44 218,14 1208,-44 1499,-44 291,0 1586,-102 1891,-87 306,15 1601,-73 1950,-116 349,-44 2110,-175 2358,-190 247,-14 2066,-43 2371,-101 306,-59 1281,-88 1426,-44 117,35 311,111 393,145"/>
  <path class="fil8 str0" d="M7314 14329c-320,248 -320,422 -451,626 -131,204 -349,277 -524,306 -174,29 -494,-73 -814,174 -321,248 -350,568 -597,713 -247,146 -1237,175 -1630,189 -393,15 -917,88 -1091,161 -140,58 -1096,208 -1557,276m1819 1994c204,-437 131,-582 436,-743 306,-160 641,-72 1135,-247 495,-175 1266,-378 1485,-553 218,-175 494,-175 713,-335 218,-160 422,-247 494,-494 73,-248 160,-437 335,-437 175,0 873,131 1106,87 233,-43 553,-130 640,-87 87,44 291,87 524,87 233,0 684,0 888,0 203,0 553,102 844,102 291,0 742,146 1062,73 320,-73 1731,-145 2226,-73 495,73 2416,-14 2750,-102 335,-87 1732,-58 2227,-203 495,-146 2008,-306 2430,-291 337,11 839,5 1048,0"/>
  <path class="fil8 str0" d="M2629 16396c11,139 43,436 160,509m-29 -524c0,35 0,393 116,480m320 -524c-35,82 -43,364 0,452m131 -452c-72,146 -19,345 -14,422m131 -422c-59,149 -58,235 0,393m145 -393c-35,59 -73,321 29,393m102 -393c-35,24 -58,277 15,364m102 -378c-24,23 -59,247 -15,335m146 -350c-35,59 -59,219 0,350m101 -350c-74,142 -63,213 0,335m117 -355c-85,125 -58,211 0,326m131 -335c-113,107 -73,248 -15,291m146 -305c-84,102 -94,184 -44,276m117 -291c-29,104 -31,197 0,262m-1470 -160c-44,87 -44,378 14,451m-174 -436c-29,116 -15,407 73,465m1644 -596c-23,58 -10,194 0,247m87 -247c-23,58 0,160 15,203m72 -232c-11,69 5,164 15,203m73 -233c-12,70 -5,136 0,160m72 -189c-11,70 15,146 30,175m29 -218c11,58 34,131 43,160m15 -233c0,35 53,111 73,145m-15 -218c0,58 53,112 73,131m0 -233l44 204m14 -320c5,68 20,212 44,247m0 -320c11,70 53,204 72,262m0 -320c0,12 30,170 44,247m0 -320c12,82 34,248 44,320m29 -393c12,59 24,257 29,350m58 -408c0,105 0,286 0,364m58 -407c35,139 54,300 59,363m-15 -378c47,93 97,252 116,320m-58 -349c24,23 107,223 146,320m-58 -335c58,93 111,243 131,306m-44 -320c12,11 102,199 145,291m-58 -306c44,58 107,199 146,291m-58 -305c34,46 96,213 116,276m0 -262c0,24 39,209 58,291m0 -291c23,93 53,209 58,248m29 -248l102 219m-14 -248c11,35 82,160 116,218m-44 -232l146 232m-58 -276l131 175m-58 -219l174 175m-116 -204l160 117m-102 -175l160 87m-102 -145l175 58m-131 -116l189 58m-131 -160l160 43m-4598 1543c-23,116 97,368 160,480m-277 -451c-11,105 112,364 175,480m-305 -451c0,81 126,354 189,480m-315 -451c9,117 198,466 213,466m291 1368c-58,-94 -112,-447 -131,-612m204 466c-35,-93 -112,-398 -146,-538m233 422c-23,-82 -97,-354 -131,-481m262 422c-23,-58 -136,-344 -189,-480m334 422c-58,-116 -179,-359 -232,-465m334 436c-23,-35 -174,-325 -247,-466m378 452c-35,-59 -218,-354 -305,-495m451 480c-35,-58 -219,-383 -306,-538m393 509c-12,-23 -150,-330 -218,-480m364 465l-233 -494m349 465c-68,-102 -204,-337 -204,-465m349 436c-43,-14 -232,-262 -203,-436m334 393c-29,-30 -203,-161 -189,-422m306 392c-78,-82 -224,-282 -189,-422m320 379c-68,-68 -204,-242 -204,-393m349 349c-87,-73 -218,-276 -233,-349m379 291c-87,-44 -233,-277 -262,-335m407 291c-14,-29 -262,-233 -305,-349m451 306c-97,-78 -300,-259 -335,-364m495 291c-131,-78 -393,-248 -393,-306m553 262c-44,-29 -407,-247 -422,-305m567 218c-43,0 -436,-218 -465,-291m611 218c-141,-53 -431,-186 -466,-291m626 204c-58,-29 -364,-131 -451,-233m626 160c-59,-29 -437,-131 -481,-233m626 175c-131,-34 -410,-125 -480,-218m626 145c-160,-39 -486,-134 -510,-204m684 102c-155,-9 -477,-55 -524,-160m684 58c-29,0 -422,15 -553,-116m670 29c-131,-14 -495,0 -539,-73m612 -29c-146,5 -460,0 -553,-58m611 -58c-146,10 -454,23 -524,0m567 -146c-116,29 -372,79 -465,44m524 -175c-117,39 -367,114 -437,102m495 -189c-70,-23 -233,0 -306,15m349 -59l-160 -87m248 29c-12,0 -92,-68 -131,-102m218 102c-12,-58 -63,-121 -87,-145m218 145c0,-29 -73,-189 -87,-189m218 218c-12,-81 -63,-179 -87,-218m189 218c0,-81 -20,-170 -29,-203m116 232c15,-87 0,-160 0,-203m102 218c0,-82 0,-180 0,-218m131 218c0,-82 -10,-170 -15,-204m131 233c0,-58 0,-179 0,-233m146 233c0,-81 0,-150 0,-175m131 146c0,-58 -10,-131 -15,-160m131 160c0,-35 0,-131 0,-175m-1120 -494c-47,46 -136,116 -175,145m204 -58c-23,35 -97,107 -131,131m189 -131c12,46 -14,131 -29,160m87 -175c10,54 29,166 29,189m44 -189c0,44 34,117 44,175m58 -189c35,46 58,140 58,189m44 -204c14,44 43,146 43,204m44 -218c58,58 73,174 73,203m29 -232c44,101 58,189 58,232m58 -247c24,70 30,184 30,233m101 -233c0,47 -19,184 -29,247m146 -189c0,58 -29,141 -44,175m160 -146c-11,59 -43,122 -58,146m146 -131c-15,58 -30,131 -44,145m524 -58c-21,35 -38,97 -44,124m138 -95c-23,24 -41,73 -47,95m138 -95c-20,24 -33,73 -36,95m134 -95c-20,35 -27,78 -29,95m149 -95c-5,12 -14,68 -18,95m124 -95c-15,35 -18,78 -18,95m120 -95c-18,24 -24,73 -26,95m157 -124c-18,23 -34,92 -40,124m153 -95c-18,12 -30,68 -33,95m160 -95c-18,12 -24,68 -26,95m146 -124c-15,23 -21,92 -22,124m127 -95c-23,35 -21,78 -18,95m149 -95c-26,47 -27,97 -25,117m124 -102c-18,23 -22,77 -22,102m149 -102c-23,35 -27,82 -25,102m149 -88c-18,12 -29,63 -33,88m153 -88c-21,24 -35,80 -40,106m163 -106c-11,11 -36,93 -32,120m176 -120c-22,19 -45,97 -40,130m175 -130c-24,19 -46,111 -42,120m164 -120c-19,29 -42,99 -28,130m162 -130c-27,37 -38,86 -29,120m155 -120c-26,33 -40,91 -37,120m179 -120c-24,35 -48,111 -46,120m171 -103c-26,19 -40,77 -44,103m151 -103c-35,39 -37,102 -34,129m154 -129c-21,32 -40,78 -27,129m164 -129c-47,36 -49,114 -42,129m161 -140c-12,11 -56,59 -36,144m158 -150c-14,23 -32,90 -12,150m136 -150c-16,13 -15,92 -12,130m125 -130c-33,41 -31,103 -25,130m145 -142c-33,39 -46,105 -49,132m180 -132c-43,42 -62,106 -65,132m200 -145c-38,42 -71,98 -64,134m197 -134c-38,33 -60,98 -66,125m204 -140c-32,32 -64,107 -77,140m210 -140c-32,32 -62,100 -73,130m189 -130c-28,32 -50,91 -58,117m167 -117c-14,15 -45,63 -35,117m152 -126c-22,33 -26,106 -25,139m162 -151c-33,36 -33,110 -28,151m169 -158c-25,28 -47,111 -32,158m165 -163c-24,33 -34,120 -23,156m165 -164c-23,26 -22,116 -19,158m161 -164c-27,38 -35,125 -35,164m179 -171c-23,30 -39,119 -45,159m191 -173c-34,37 -56,125 -62,165m211 -169c-40,31 -77,125 -91,169m230 -169c-29,35 -55,114 -64,149m207 -158c-34,48 -49,119 -52,149m220 -149c-23,27 -43,105 -50,140m203 -140c-27,27 -54,110 -64,149m207 -149c-23,39 -43,106 -50,135m188 -144c-32,38 -48,106 -51,136m205 -144c-21,20 -50,96 -62,131m213 -139c-19,27 -53,101 -68,135m205 -144c-20,32 -45,112 -55,148m206 -155c-28,32 -59,114 -70,151m207 -164c-20,30 -45,107 -55,143m202 -156c-24,26 -48,107 -57,145m203 -158c-33,44 -49,119 -53,150m207 -161c-29,29 -51,109 -58,145m212 -165c-25,25 -55,105 -67,142m197 -152c-24,24 -46,101 -54,137m188 -156c-31,39 -54,110 -62,141m196 -151c-24,32 -40,100 -45,130m185 -143c-39,51 -53,117 -55,143m199 -154c-30,42 -48,120 -53,154m198 -162c-18,26 -41,105 -50,141m195 -153c-13,25 -29,105 -36,142m175 -154c-35,34 -49,112 -52,147m197 -159c-20,29 -36,111 -42,148m185 -161c-19,30 -34,113 -39,150m181 -158c-21,26 -39,102 -45,137m192 -149c-17,26 -33,84 -38,110m184 -122c-18,36 -32,96 -37,122m178 -137c-21,31 -36,92 -41,118m175 -126c-25,33 -36,92 -39,118m176 -130c-27,47 -42,101 -46,122m195 -129c-25,38 -44,102 -50,129m190 -129c-16,15 -39,92 -49,129m183 -136c-28,39 -44,95 -49,119m182 -119c-29,27 -44,91 -48,119m184 -125c-16,22 -32,92 -39,125m177 -132c-18,27 -34,94 -40,124m150 -124c-8,10 -26,87 -34,124m157 -124c-17,38 -28,91 -31,114m155 -121c-14,16 -32,87 -40,121m170 -121c-8,20 -26,86 -33,116m162 -125c-20,33 -32,94 -36,120m158 -125c-27,39 -35,100 -36,125m165 -125c-16,27 -30,92 -35,121m171 -131c-18,25 -37,86 -44,114m171 -120c-25,38 -42,93 -48,115m167 -121c-18,28 -38,88 -46,115m168 -124c-16,25 -34,93 -42,124m164 -131c-8,13 -33,83 -45,116m182 -128c-21,28 -46,97 -56,128m183 -144c-17,18 -39,92 -48,127m163 -142c-20,34 -39,97 -46,125m177 -139c-6,11 -28,97 -39,139m177 -145c-29,41 -45,113 -49,145m182 -156c-26,53 -51,130 -51,139m183 -139c-24,34 -48,103 -57,134m190 -138c-30,34 -56,102 -65,132m185 -137c-32,39 -57,104 -65,131m196 -131c-24,20 -49,92 -54,117m187 -112c-24,35 -40,74 -45,103m188 -99c-29,36 -49,96 -55,122m181 -76c-33,43 -56,98 -64,120m187 -88c-34,40 -68,108 -77,131m-14540 603c-19,47 -18,96 -15,115m106 -106c-20,53 -19,112 -16,135m103 -100c-10,27 -10,95 -9,125m91 -80c-7,13 -3,72 0,100m107 -100c-8,57 -3,100 0,115m90 -115c-8,37 -3,100 0,128m96 -115c-6,47 -2,96 0,115m111 -115c-7,34 -9,90 -9,115m124 -102c-15,59 -7,93 0,102m98 -102c-9,36 -11,83 -11,102m142 -115c-18,39 -17,93 -14,115m143 -109c-10,29 -12,84 -12,109m124 -109c-17,32 -18,82 -17,103m132 -109c-17,34 -21,90 -22,115m148 -115c-8,28 -9,88 -9,115m135 -95c-17,42 -19,87 -18,104m134 -88c-18,31 -23,82 -24,104m132 -91c-19,34 -32,90 -36,114m139 -87c-24,51 -29,91 -29,104m139 -97c-16,54 -25,97 -27,112m139 -105c-22,40 -25,98 -24,122m145 -122c-26,50 -25,102 -21,122m151 -122c-23,44 -25,107 -23,133m147 -120c-24,44 -26,102 -23,125m135 -98c-20,40 -24,99 -23,123m149 -113c-22,44 -30,106 -32,132m157 -112c-17,45 -24,105 -25,129m155 -121c-22,40 -24,107 -23,135m126 -135c-17,44 -16,112 -14,140m138 -148c-7,42 -3,110 0,138m126 -152c-15,37 -6,108 0,138m110 -144c-6,52 5,130 5,125m119 -141c-8,52 -3,103 0,123m133 -144c-13,38 -11,105 -8,134m134 -154c-17,41 -16,113 -14,144m137 -156c-18,69 -14,152 -13,147m131 -147c-20,47 -20,114 -18,141m139 -141c-10,46 -11,109 -10,136m130 -143c-12,48 -11,108 -9,132m132 -139c-8,33 -22,106 -22,130m155 -130c-23,54 -26,115 -24,139m154 -139c-24,54 -30,109 -30,130m142 -130c-16,78 -20,119 -20,130m138 -123c-21,56 -24,106 -23,123m137 -123c-15,52 -20,104 -20,123m142 -130c-19,45 -28,106 -30,130m149 -123c-17,54 -26,110 -29,132m142 -123c-16,51 -20,103 -20,123m122 -123c-12,49 -16,110 -17,134m118 -121c-7,51 -9,112 -8,136m121 -125c-7,45 -3,108 0,134m110 -139c-11,76 1,128 9,145m94 -140c0,38 20,109 29,140m97 -145c-7,76 8,128 16,145m113 -145c-7,57 1,120 6,145m119 -140c-1,61 0,123 0,147m117 -152c1,36 0,121 0,158m123 -153c-2,40 -5,119 -7,153m126 -153c-5,55 -6,121 -6,147m137 -147c0,61 -10,115 -15,134m127 -139c0,33 -8,107 -12,139m149 -145c4,46 -10,110 -17,136m155 -136c-6,42 -22,108 -29,136m147 -141c12,34 -12,119 -25,135m168 -147c3,40 -19,107 -31,136m152 -143c2,60 -23,125 -30,134m156 -143c7,49 -11,112 -24,132m150 -155c0,51 -11,118 -33,146m147 -153c-6,55 -22,120 -29,145m121 -150c-2,59 9,112 15,131m107 -154c1,59 23,117 34,138m75 -158c0,51 24,111 37,134m78 -163c3,51 27,118 39,146m86 -167c6,63 24,129 32,154m98 -168c-2,38 15,125 24,163m101 -175c-11,55 6,133 16,166m97 -172c-7,32 7,120 15,160m108 -160c-7,32 2,139 13,160m96 -170c-6,42 11,148 20,159m111 -166c-6,49 4,142 18,160m115 -167c-14,42 0,155 17,167m113 -167c-10,52 7,127 17,158m121 -169c-8,29 -17,102 14,159m106 -167c-5,19 -28,101 17,163m99 -175c-3,55 6,126 24,158m89 -174c-13,54 23,154 32,164m92 -164c0,59 20,127 30,154m88 -167c-6,48 24,122 39,153m81 -171c-8,38 24,115 41,149m77 -177c-3,36 20,99 48,138m77 -174c0,64 24,122 47,154m74 -182c-7,45 11,107 34,151m82 -178c-7,53 16,127 29,157m90 -176c-12,59 5,129 15,156m104 -178c-13,54 2,129 11,160m106 -160c-6,59 2,122 7,145m109 -160c-10,57 1,122 9,147m87 -157c-7,53 10,115 19,140m84 -154c-5,52 15,115 25,140m89 -155c-2,7 -12,91 19,138m100 -155c-5,57 7,124 13,150m110 -156c-13,42 -5,120 11,140m95 -153c-14,60 0,126 14,140m97 -158c1,69 10,126 26,149m82 -165c-3,56 22,125 34,152m91 -152c-4,47 3,112 23,138m96 -147c-17,52 2,117 15,139m103 -145c-3,49 -16,102 5,141m101 -141c-8,54 3,112 9,133m91 -142c-12,52 6,122 16,136m104 -136c-22,67 0,130 0,136m107 -136c-9,50 -4,111 0,136m110 -136c-10,41 -4,108 0,136m118 -136c-9,29 -15,101 0,142m113 -142c-19,40 -15,122 -6,142m122 -142c-11,41 -33,101 -8,142m122 -142c-20,51 -12,116 -6,142m118 -142c-16,43 -10,113 -6,142m124 -142c-22,67 -16,123 -10,142m142 -148c-14,46 -15,118 -14,148"/>
  <path class="fil9" d="M19392 8218c291,-58 538,73 582,305 60,321 146,1266 160,1441 15,175 15,873 -742,1019 -757,145 -975,-524 -1062,-844 -88,-320 -219,-655 -262,-1033 -44,-379 -15,-612 174,-699 190,-87 859,-131 1150,-189z"/>
  <path class="fil9" d="M12014 3882c350,-59 510,87 946,305 233,122 480,800 335,1106 -146,306 -437,277 -859,335 -422,58 -247,43 -553,291 -305,247 -494,174 -931,247 -436,73 -596,-44 -931,-364 -335,-320 0,-494 189,-742 189,-247 466,-495 742,-684 277,-189 713,-436 1062,-494z"/>
  <path class="fil9" d="M16074 3023c73,-160 349,-310 641,-204 247,90 436,597 582,1063 145,465 29,669 -219,727 -247,58 -596,-626 -916,-989 -321,-364 -160,-437 -88,-597z"/>
  <path class="fil9" d="M12466 7394c-42,40 -87,83 -146,125 -67,49 -113,97 -152,139 -79,84 -134,143 -299,123 -89,-10 -189,-69 -289,-129 -180,-106 -361,-213 -482,-45 -101,139 -74,250 -31,424 38,153 88,355 74,667 75,238 134,570 187,871 52,289 98,550 148,671 102,248 247,306 509,190 77,-35 143,-50 196,-62 127,-30 180,-43 139,-258 -14,-74 -38,-171 -64,-279 -84,-340 -192,-779 -81,-856 145,-102 305,-73 407,189 3,7 6,15 9,23 102,263 261,673 529,588 7,-2 13,-4 19,-6 265,-84 417,-131 360,-402 -18,-84 -58,-197 -101,-321 -99,-282 -217,-622 -147,-814 38,-103 103,-184 161,-257 98,-123 178,-223 87,-368 -146,-233 -422,-413 -641,-379 -206,-10 -288,68 -392,166zm359 107c-51,13 -98,46 -185,106 -189,131 -393,465 -131,480 262,14 422,-102 509,-175 88,-72 262,-368 88,-393 -150,-23 -219,-34 -281,-18z"/>
  <path class="fil9" d="M3924 16629c-582,116 -2314,480 -2881,494l378 1077c815,-233 1409,-663 1572,-757 203,-116 291,15 509,-14 218,-29 626,-44 815,-117 189,-72 625,-189 946,-334 320,-146 742,-262 975,-480 232,-219 611,-612 771,-684 128,-59 625,4 858,43l0 -291c-252,25 -777,58 -858,0 -102,-72 218,-393 334,-553 117,-160 364,-931 422,-1033 59,-102 219,-611 291,-742 73,-131 204,-160 350,-247 145,-88 393,-466 509,-611 116,-146 859,-917 1164,-1237 306,-320 378,-713 437,-932 58,-218 -131,-829 -131,-1076 0,-248 247,-553 305,-699 58,-145 0,-364 -14,-509 -15,-146 -102,-626 -73,-786 29,-160 349,-436 422,-524 58,-70 500,-456 713,-640l-262 58c-48,54 -160,172 -218,218 -73,59 -553,495 -655,582 -102,88 -160,277 -175,408 -14,131 146,728 146,989 0,262 -349,524 -378,713 -30,190 72,568 130,874 47,244 -48,538 -101,654 -190,-160 -288,-282 -335,-363 -116,-204 44,-597 -29,-1034 -31,-187 -213,-625 -349,-873 -160,-291 -233,-451 -117,-960 133,-582 -262,-669 -451,-829 -189,-161 -262,-379 -291,-539 -29,-160 -29,-1397 0,-1659 29,-262 87,-1309 116,-1397 30,-87 277,-553 350,-582 72,-29 1921,-43 2226,-43 306,0 1790,-73 2095,-102 306,-29 2911,-219 2998,-226 87,-7 3078,-211 3274,109 41,67 349,830 393,1033 44,204 393,1616 422,1703 29,87 364,1368 422,1572 58,203 218,1818 364,1789 145,-29 -15,-611 -73,-1222 -58,-611 -509,-2299 -538,-2401 -30,-102 -664,-2292 -728,-2430 -87,-189 -218,-276 -393,-320 -172,-43 -466,-29 -1120,-29 -655,0 -2198,-69 -2270,-84 -59,-12 -204,-711 -24,-1124l-267 -80c-233,531 -21,1139 -44,1186 -29,58 -160,29 -538,102 -379,73 -1994,262 -2372,276 -379,15 -3012,15 -3260,29 -247,15 -2473,117 -2735,146 -210,23 -4434,126 -5821,189l-175 160c335,-19 2567,-61 2707,-73 175,-14 3463,-203 4220,-203 757,0 931,-15 960,72 29,88 -218,495 -262,728 -43,233 -58,960 -72,1120 -15,160 -248,219 -452,321 -203,101 -349,254 -611,363 219,-91 1019,-465 1019,-422 0,44 -58,742 -44,1063 12,256 141,698 204,887 -87,20 -300,64 -451,88 -189,29 -597,168 -960,203 421,-29 1309,-160 1440,-145 131,14 393,218 524,334 131,117 44,495 0,699 -44,204 0,364 102,567 144,288 369,767 407,1004 58,364 -43,815 0,990 35,140 325,466 466,611 -49,92 -192,317 -378,480 -233,204 -495,524 -772,844 -276,320 -494,611 -829,859 -335,247 -437,611 -640,960 -204,349 -451,1019 -626,1310 -175,291 -393,320 -655,378 -262,58 -451,102 -742,262 -291,160 -306,276 -509,480 -204,204 -495,262 -1077,379z"/>
  <path class="fil10" style="mask:url(#id0)" d="M8246 15566c-47,-11 -248,-14 -379,0l0 291c171,50 240,55 379,44 14,-92 46,-323 0,-335z"/>
  <path class="fil11" style="mask:url(#id2)" d="M737 17138c73,-15 361,3 699,-44 232,286 713,859 291,1004 -130,45 -1019,422 -1485,146 -372,-222 -392,-1034 495,-1106z"/>
  <path class="fil9" d="M5219 3532c116,-14 1528,131 1833,219 321,72 306,480 291,611 -14,131 -87,684 -261,771 -175,87 -961,-189 -1266,-306 -306,-116 -1235,-440 -1194,-844 44,-422 481,-436 597,-451z"/>
  <path class="fil9" d="M3764 3809c-102,-509 -800,-320 -1252,-306 -553,0 -436,597 -436,888 0,291 218,422 538,349 320,-73 888,-58 1033,-160 146,-102 219,-262 117,-771z"/>
  <path class="fil12" style="mask:url(#id4)" d="M650 2339c165,-10 428,-29 509,-29l87 146c-286,11 -420,24 -538,72l-58 -189z"/>
  <path class="fil13" style="mask:url(#id6)" d="M16371 186c-82,101 -144,141 -226,327l-260 -96c67,-166 73,-233 149,-417l337 186z"/>
  <polygon class="fil14" points="11374,3692 11141,3241 12364,2674 12567,3096 "/>
  <polygon class="fil15" points="12466,2878 11258,3474 11374,3692 12567,3096 "/>
  <polygon class="fil14" points="19973,4133 19467,4177 19387,3025 19854,2995 "/>
  <polygon class="fil15" points="19614,3008 19727,4157 19973,4133 19854,2995 "/>
  <polygon class="fil14" points="19845,6687 19338,6694 19342,5539 19810,5543 "/>
  <polygon class="fil15" points="19569,5539 19598,6693 19845,6687 19810,5543 "/>
  <polygon class="fil14" points="14332,9212 13825,9192 13891,8039 14359,8069 "/>
  <polygon class="fil15" points="14119,8051 14085,9205 14332,9212 14359,8069 "/>
  <polygon class="fil14" points="7314,9236 7314,8669 8551,8669 8551,9251 "/>
  <polygon class="fil15" points="8551,8945 7314,8945 7314,9236 8551,9251 "/>
  <polygon class="fil14" points="4149,13573 4099,13005 5152,12874 5234,13413 "/>
  <polygon class="fil15" points="5190,13122 4130,13271 4160,13560 5234,13413 "/>
  <polygon class="fil14" points="16952,9696 16367,9702 16351,8548 16922,8543 "/>
  <polygon class="fil15" points="16627,8543 16658,9695 16952,9696 16922,8543 "/>
  <polygon class="fil14" points="12073,13718 10978,13718 10978,11370 12073,11370 "/>
  <polygon class="fil15" points="11491,11368 11491,13718 12087,13718 12063,11368 "/>
  <polygon class="fil14" points="11054,3518 10719,3692 10879,3969 11214,3794 "/>
  <polygon class="fil15" points="11214,3794 11054,3518 10887,3605 11047,3882 "/>
  <polygon class="fil14" points="13405,8356 13388,8733 13707,8734 13725,8357 "/>
  <polygon class="fil15" points="13725,8357 13405,8356 13396,8545 13716,8546 "/>
  <polygon class="fil14" points="19247,2344 18869,2360 18897,2678 19274,2663 "/>
  <polygon class="fil15" points="19274,2663 19247,2344 19058,2352 19085,2670 "/>
  <polygon class="fil14" points="12960,15392 12931,14446 15303,14315 15361,15246 "/>
  <polygon class="fil15" points="12946,14926 15332,14766 15347,15275 12975,15406 "/>
  <polygon class="fil14" points="16640,15145 17540,15085 17513,14679 16613,14738 "/>
  <polygon class="fil15" points="17522,14883 16626,14936 16638,15135 17533,15082 "/>
  <polygon class="fil14" points="18611,14928 19261,14885 19242,14591 18592,14634 "/>
  <polygon class="fil15" points="19261,14893 18611,14939 18600,14784 19250,14738 "/>
  <polygon class="fil14" points="22162,11668 23130,11604 23100,11139 22131,11203 "/>
  <polygon class="fil15" points="23132,11601 22164,11667 22144,11436 23113,11365 "/>
  <polygon class="fil14" points="20600,14853 21269,14853 21269,14388 20600,14388 "/>
  <polygon class="fil15" points="21269,14620 20600,14620 20600,14853 21269,14853 "/>
  <polygon class="fil14" points="20920,12748 20941,13616 21406,13597 21385,12729 "/>
  <polygon class="fil15" points="21153,12738 21174,13607 21406,13597 21385,12729 "/>
  <polygon class="fil14" points="24114,11862 23248,11924 23289,12388 24156,12326 "/>
  <polygon class="fil15" points="24156,12326 23291,12388 23270,12151 24132,12087 "/>
  <polygon class="fil14" points="18476,12338 18509,13619 19055,13595 19021,12314 "/>
  <polygon class="fil16" points="18748,12326 18782,13607 19055,13595 19021,12314 "/>
  <polygon class="fil14" points="16200,11425 16234,13039 17539,12990 17504,11375 "/>
  <polygon class="fil15" points="16852,11400 16886,13014 17539,12990 17504,11375 "/>
  <polygon class="fil14" points="21690,11995 21743,13457 22734,13404 22682,11943 "/>
  <polygon class="fil15" points="22186,11969 22239,13430 22734,13404 22682,11943 "/>
  <polygon class="fil14" points="17762,7185 17486,7126 17267,7257 17224,7519 17355,7709 17617,7752 17820,7636 17864,7388 "/>
  <polygon class="fil16" points="17544,7432 17762,7185 17854,7368 "/>
  <polygon class="fil16" points="17544,7432 17864,7388 17825,7612 "/>
  <path class="fil16" d="M17544 7432c24,97 73,309 73,320l203 -116 -276 -204z"/>
  <polygon class="fil16" points="17544,7432 17486,7126 17735,7179 "/>
  <polygon class="fil14" points="13440,11827 13440,11448 14226,11448 14226,11827 "/>
  <path class="fil17" d="M3575 5948c79,-186 160,-666 190,-882l275 882 -211 0 0 -127 70 -85 0 -35 -70 63 -29 -374 -28 0 0 219 -42 -49 0 49 42 64 0 275 -197 0z"/>
  <path class="fil17" d="M21211 9187c79,-186 160,-665 190,-882l276 882 -212 0 0 -127 70 -85 0 -35 -70 64 -28 -374 -29 0 0 218 -42 -49 0 49 42 64 0 275 -197 0z"/>
  <path class="fil17" d="M22113 9536c79,-186 160,-665 191,-882l275 882 -212 0 0 -127 71 -84 0 -36 -71 64 -28 -374 -28 0 0 219 -43 -50 0 50 43 63 0 275 -198 0z"/>
  <path class="fil17" d="M10501 15444c79,-186 160,-665 191,-882l275 882 -212 0 0 -127 71 -85 0 -35 -71 64 -28 -374 -28 0 0 218 -43 -49 0 49 43 64 0 275 -198 0z"/>
  <path class="fil17" d="M11665 15124c79,-186 160,-666 191,-882l275 882 -212 0 0 -127 71 -85 0 -35 -71 64 -28 -374 -28 0 0 218 -43 -49 0 49 43 64 0 275 -198 0z"/>
  <path class="fil17" d="M15856 15124c79,-186 160,-666 191,-882l275 882 -212 0 0 -127 71 -85 0 -35 -71 64 -28 -374 -28 0 0 218 -43 -49 0 49 43 64 0 275 -198 0z"/>
  <path class="fil17" d="M21298 10351c79,-186 160,-665 191,-882l275 882 -212 0 0 -127 71 -85 0 -35 -71 64 -28 -374 -28 0 0 219 -43 -50 0 50 43 63 0 275 -198 0z"/>
  <path class="fil17" d="M23044 10817c79,-186 160,-666 191,-882l275 882 -212 0 0 -127 71 -85 0 -35 -71 63 -28 -374 -28 0 0 219 -42 -49 0 49 42 64 0 275 -198 0z"/>
  <path class="fil17" d="M20687 12156c79,-187 160,-666 191,-882l275 882 -212 0 0 -127 71 -85 0 -35 -71 63 -28 -374 -28 0 0 219 -43 -49 0 49 43 63 0 276 -198 0z"/>
  <path class="fil17" d="M4390 6443c84,-198 169,-708 202,-937l292 937 -225 0 0 -135 75 -90 0 -38 -75 68 -30 -398 -30 0 0 233 -45 -53 0 53 45 67 0 293 -209 0z"/>
  <path class="fil17" d="M5064 5657c83,-197 169,-703 201,-931l291 931 -224 0 0 -134 75 -90 0 -37 -75 67 -30 -395 -30 0 0 231 -44 -52 0 52 44 67 0 291 -208 0z"/>
  <path class="fil17" d="M1567 4929c83,-196 168,-703 201,-931l290 931 -223 0 0 -134 74 -89 0 -38 -74 68 -30 -395 -30 0 0 231 -44 -53 0 53 44 67 0 290 -208 0z"/>
  <path class="fil17" d="M1246 7199c84,-196 169,-703 202,-931l290 931 -223 0 0 -134 74 -89 0 -38 -74 68 -30 -395 -30 0 0 231 -45 -53 0 53 45 67 0 290 -209 0z"/>
  <path class="fil17" d="M3953 7607c83,-197 169,-703 201,-932l291 932 -224 0 0 -134 75 -90 0 -37 -75 67 -30 -395 -29 0 0 231 -45 -52 0 52 45 67 0 291 -209 0z"/>
  <path class="fil17" d="M5175 8509c84,-197 169,-703 201,-931l291 931 -223 0 0 -134 74 -90 0 -37 -74 67 -30 -395 -30 0 0 231 -45 -52 0 52 45 67 0 291 -209 0z"/>
  <path class="fil17" d="M3866 13515c0,-145 -78,-262 -175,-262 -96,0 -175,117 -175,262 0,144 79,261 175,261 97,0 175,-117 175,-261z"/>
  <polygon class="fil18" points="3662,13980 3720,13980 3720,13544 3662,13544 "/>
  <path class="fil17" d="M22579 10226c0,-145 -78,-262 -175,-262 -96,0 -175,117 -175,262 0,145 79,262 175,262 97,0 175,-117 175,-262z"/>
  <polygon class="fil18" points="22375,10692 22433,10692 22433,10255 22375,10255 "/>
  <path class="fil17" d="M21822 10895c0,-144 -78,-262 -175,-262 -96,0 -174,118 -174,262 0,145 78,262 174,262 97,0 175,-117 175,-262z"/>
  <polygon class="fil18" points="21618,11361 21677,11361 21677,10924 21618,10924 "/>
  <path class="fil17" d="M22026 7432c0,-145 -78,-262 -175,-262 -96,0 -174,117 -174,262 0,145 78,262 174,262 97,0 175,-117 175,-262z"/>
  <polygon class="fil18" points="21822,7898 21880,7898 21880,7461 21822,7461 "/>
  <path class="fil17" d="M15390 3852c0,-144 -78,-261 -174,-261 -97,0 -175,117 -175,261 0,145 78,262 175,262 96,0 174,-117 174,-262z"/>
  <polygon class="fil18" points="15187,4318 15245,4318 15245,3882 15187,3882 "/>
  <path class="fil17" d="M16031 4638c0,-144 -79,-262 -175,-262 -96,0 -175,118 -175,262 0,145 79,262 175,262 96,0 175,-117 175,-262z"/>
  <polygon class="fil18" points="15827,5104 15885,5104 15885,4667 15827,4667 "/>
  <path class="fil17" d="M10006 3532c0,-144 -78,-262 -174,-262 -97,0 -175,118 -175,262 0,145 78,262 175,262 96,0 174,-117 174,-262z"/>
  <polygon class="fil18" points="9803,3998 9861,3998 9861,3561 9803,3561 "/>
  <path class="fil17" d="M9395 4522c0,-145 -78,-262 -174,-262 -97,0 -175,117 -175,262 0,144 78,262 175,262 96,0 174,-118 174,-262z"/>
  <polygon class="fil18" points="9191,4987 9250,4987 9250,4551 9191,4551 "/>
  <path class="fil17" d="M6165 2834c0,-145 -78,-262 -175,-262 -96,0 -174,117 -174,262 0,145 78,262 174,262 97,0 175,-117 175,-262z"/>
  <polygon class="fil18" points="5961,3300 6019,3300 6019,2863 5961,2863 "/>
  <path class="fil17" d="M4128 3649c0,-145 -79,-262 -175,-262 -96,0 -175,117 -175,262 0,144 79,262 175,262 96,0 175,-118 175,-262z"/>
  <polygon class="fil18" points="3924,4114 3982,4114 3982,3678 3924,3678 "/>
  <path class="fil17" d="M3604 2805c0,-145 -78,-262 -175,-262 -96,0 -174,117 -174,262 0,144 78,262 174,262 97,0 175,-118 175,-262z"/>
  <polygon class="fil18" points="3400,3270 3458,3270 3458,2834 3400,2834 "/>
  <path class="fil17" d="M15128 5191c0,-144 -78,-262 -174,-262 -97,0 -175,118 -175,262 0,145 78,262 175,262 96,0 174,-117 174,-262z"/>
  <polygon class="fil18" points="14925,5657 14983,5657 14983,5220 14925,5220 "/>
  <path class="fil17" d="M15652 6472c0,-145 -78,-262 -174,-262 -97,0 -175,117 -175,262 0,144 78,262 175,262 96,0 174,-118 174,-262z"/>
  <polygon class="fil18" points="15449,6937 15507,6937 15507,6501 15449,6501 "/>
  <path class="fil17" d="M2847 5278c0,-144 -78,-261 -174,-261 -97,0 -175,117 -175,261 0,145 78,262 175,262 96,0 174,-117 174,-262z"/>
  <polygon class="fil18" points="2643,5744 2702,5744 2702,5308 2643,5308 "/>
  <path class="fil17" d="M1217 6093c0,-144 -78,-262 -174,-262 -97,0 -175,118 -175,262 0,145 78,262 175,262 96,0 174,-117 174,-262z"/>
  <polygon class="fil18" points="1014,6559 1072,6559 1072,6122 1014,6122 "/>
  <path class="fil17" d="M5466 12176c0,-145 -78,-262 -174,-262 -97,0 -175,117 -175,262 0,144 78,262 175,262 96,0 174,-118 174,-262z"/>
  <polygon class="fil18" points="5263,12641 5321,12641 5321,12205 5263,12205 "/>
  <path class="fil17" d="M9453 16803c0,-145 -78,-262 -174,-262 -97,0 -175,117 -175,262 0,145 78,262 175,262 96,0 174,-117 174,-262z"/>
  <polygon class="fil18" points="9250,17269 9308,17269 9308,16832 9250,16832 "/>
  <path class="fil17" d="M11229 17676c0,-144 -79,-262 -175,-262 -96,0 -175,118 -175,262 0,145 79,262 175,262 96,0 175,-117 175,-262z"/>
  <polygon class="fil18" points="11025,18142 11083,18142 11083,17705 11025,17705 "/>
  <path class="fil17" d="M11956 16687c0,-145 -78,-262 -174,-262 -97,0 -175,117 -175,262 0,144 78,262 175,262 96,0 174,-118 174,-262z"/>
  <polygon class="fil18" points="11753,17152 11811,17152 11811,16716 11753,16716 "/>
  <path class="fil17" d="M10181 14766c0,-145 -78,-262 -175,-262 -96,0 -174,117 -174,262 0,145 78,262 174,262 97,0 175,-117 175,-262z"/>
  <polygon class="fil18" points="9977,15232 10035,15232 10035,14795 9977,14795 "/>
  <path class="fil17" d="M5786 13311c0,-145 -78,-262 -174,-262 -97,0 -175,117 -175,262 0,144 78,262 175,262 96,0 174,-118 174,-262z"/>
  <polygon class="fil18" points="5583,13776 5641,13776 5641,13340 5583,13340 "/>
  <path class="fil19" d="M4215 19466c0,-201 -196,-364 -437,-364 -241,0 -436,163 -436,364 0,201 195,364 436,364 241,0 437,-163 437,-364z"/>
  <path class="fil20" d="M3866 19990l-51 -800 -37 0 0 552 -58 -334 -87 -233c6,160 68,288 87,466 26,242 8,327 0,349l146 0z"/>
  <path class="fil8 str1" d="M3487 19248c12,233 151,325 248,334m58 -189c35,-93 116,-87 218,-203"/>
  <path class="fil8 str1" d="M3502 19568c189,204 262,131 291,160 33,-14 -20,-100 29,-131 67,-42 192,-121 218,-175"/>
  <path class="fil19" d="M4884 18564c0,-201 -195,-364 -436,-364 -241,0 -437,163 -437,364 0,201 196,364 437,364 241,0 436,-163 436,-364z"/>
  <path class="fil20" d="M4535 19088l-50 -801 -37 0 0 553 -58 -334 -88 -233c6,160 69,288 88,465 25,243 7,328 0,350l145 0z"/>
  <path class="fil8 str1" d="M4157 18346c11,232 150,325 247,334m58 -189c35,-93 117,-87 219,-204"/>
  <path class="fil8 str1" d="M4171 18666c189,203 262,131 291,160 33,-15 -20,-100 29,-131 67,-42 192,-121 219,-175"/>
  <path class="fil19" d="M3487 20077c0,-169 -143,-305 -320,-305 -177,0 -320,136 -320,305 0,169 143,306 320,306 177,0 320,-137 320,-306z"/>
  <path class="fil20" d="M3109 20659l146 0 -30 -407 15 -364 -37 0 -36 378 -58 -218 -58 0c0,0 39,85 58,262 26,243 7,327 0,349z"/>
  <path class="fil19" d="M5816 20717c0,-168 -144,-305 -321,-305 -176,0 -320,137 -320,305 0,169 144,306 320,306 177,0 321,-137 321,-306z"/>
  <path class="fil20" d="M5437 21299l146 0 -29 -407 14 -364 -37 0 -36 379 -58 -219 -58 0c0,0 40,85 58,262 26,243 8,328 0,349z"/>
  <path class="fil19" d="M4797 20543c0,-169 -143,-306 -320,-306 -177,0 -320,137 -320,306 0,169 143,305 320,305 177,0 320,-136 320,-305z"/>
  <path class="fil20" d="M4419 21125l145 0 -29 -408c-84,22 -116,59 -116,59 0,0 7,327 0,349z"/>
  <path class="fil19" d="M5874 18011c0,-169 -144,-306 -320,-306 -177,0 -320,137 -320,306 0,169 143,305 320,305 176,0 320,-136 320,-305z"/>
  <path class="fil20" d="M5495 18593l146 0 -29 -407c-84,21 -117,58 -117,58 0,0 8,327 0,349z"/>
  <path class="fil19" d="M7271 18826c0,-169 -144,-306 -320,-306 -177,0 -321,137 -321,306 0,169 144,305 321,305 176,0 320,-136 320,-305z"/>
  <path class="fil20" d="M6892 19408l146 0 -29 -408c-85,21 -117,59 -117,59 0,0 8,327 0,349z"/>
  <path class="fil19" d="M7154 17836c0,-201 -195,-364 -436,-364 -241,0 -437,163 -437,364 0,201 196,364 437,364 241,0 436,-163 436,-364z"/>
  <path class="fil20" d="M6805 18360l-50 -800 -37 0 0 553 -58 -335 -88 -233c6,160 69,289 88,466 25,242 7,327 0,349l145 0z"/>
  <path class="fil8 str1" d="M6427 17618c11,233 150,325 247,335m58 -189c35,-94 117,-88 219,-204"/>
  <path class="fil8 str1" d="M6441 17938c189,204 262,131 291,160 33,-14 -20,-100 29,-131 67,-42 192,-121 219,-174"/>
  <path class="fil19" d="M5583 19582c0,-200 -196,-363 -437,-363 -241,0 -436,163 -436,363 0,201 195,364 436,364 241,0 437,-163 437,-364z"/>
  <path class="fil20" d="M5234 20106l-51 -800 -37 0 0 553 -58 -335 -87 -233c6,160 68,289 87,466 26,243 7,328 0,349l146 0z"/>
  <path class="fil8 str1" d="M4855 19364c12,233 151,325 248,335m58 -189c35,-93 116,-88 218,-204"/>
  <path class="fil8 str1" d="M4870 19684c189,204 262,131 291,160 33,-14 -20,-100 29,-131 66,-41 191,-121 218,-174"/>
  <path class="fil19" d="M6689 20106c0,-201 -196,-363 -437,-363 -241,0 -436,162 -436,363 0,201 195,364 436,364 241,0 437,-163 437,-364z"/>
  <path class="fil20" d="M6339 20630l-50 -800 -37 0 0 553 -58 -335 -87 -233c6,160 68,289 87,466 25,242 7,327 0,349l145 0z"/>
  <path class="fil8 str1" d="M5961 19888c12,233 150,325 247,335m59 -189c35,-94 116,-88 218,-204"/>
  <path class="fil8 str1" d="M5976 20208c189,204 262,131 291,160 33,-14 -20,-100 29,-131 66,-42 191,-121 218,-174"/>
  <path class="fil8 str2" d="M10006 10924c15,-58 29,-203 190,-247"/>
  <path class="fil8 str2" d="M10166 10692l160 116m-247 -73l175 117m-219 -44l175 116m-204 -29l175 117"/>
  <path class="fil8 str2" d="M10181 11041c0,-15 44,-204 175,-233"/>
  <path class="fil8 str2" d="M7320 14266c0,-60 -19,-205 126,-284"/>
  <path class="fil8 str2" d="M7416 13995l304 84m-347 -11l291 72m-335 0l305 88m-320 0l312 83"/>
  <path class="fil8 str2" d="M7633 14339c-3,-14 -5,-208 116,-267"/>
  <path class="fil8 str2" d="M10407 7314c-13,-59 -64,-196 60,-306"/>
  <path class="fil8 str2" d="M10447 7034l195 34m-254 44l208 27m-215 58l208 27m-195 64l208 27"/>
  <path class="fil8 str2" d="M10615 7341c-7,-13 -51,-202 53,-286"/>
  <path class="fil8 str2" d="M9145 6461c-55,24 -197,61 -215,226"/>
  <path class="fil8 str2" d="M8940 6656l140 140m-111 -233l143 154m-78 -209l143 154m-61 -196l143 154"/>
  <path class="fil8 str2" d="M9287 6615c-14,2 -194,75 -202,209"/>
  <path class="fil21" d="M7067 11710c0,-193 156,-349 349,-349 193,0 349,156 349,349 0,193 -156,349 -349,349 -193,0 -349,-156 -349,-349z"/>
  <path class="fil21" d="M5699 18899c0,-193 157,-350 349,-350 193,0 350,157 350,350 0,192 -157,349 -350,349 -192,0 -349,-157 -349,-349z"/>
  <path class="fil21" d="M3807 9964c0,-193 157,-349 350,-349 193,0 349,156 349,349 0,193 -156,349 -349,349 -193,0 -350,-156 -350,-349z"/>
  <path class="fil21" d="M13499 11245c0,-193 156,-350 349,-350 193,0 349,157 349,350 0,192 -156,349 -349,349 -193,0 -349,-157 -349,-349z"/>
  <path class="fil22" d="M11141 12932c0,-192 157,-349 350,-349 192,0 349,157 349,349 0,193 -157,350 -349,350 -193,0 -350,-157 -350,-350z"/>
  <polygon class="fil4" points="11425,13063 11457,13063 11570,12838 11570,12809 11408,12809 11408,12837 11539,12837 11539,12839 "/>
  <path class="fil22" d="M19494 3532c0,-193 156,-349 349,-349 193,0 349,156 349,349 0,193 -156,350 -349,350 -193,0 -349,-157 -349,-350z"/>
  <path class="fil4" d="M19768 3409l-30 0 -64 42 0 32 62 -41 2 0 0 221 30 0 0 -254zm156 258c56,0 89,-48 89,-131 0,-82 -33,-130 -89,-130 -55,0 -88,48 -88,130 0,83 32,131 88,131zm0 -28c-37,0 -58,-37 -58,-103 0,-66 22,-103 58,-103 37,0 59,37 59,103 0,66 -22,103 -59,103z"/>
  <path class="fil22" d="M11461 3183c0,-193 157,-349 350,-349 193,0 349,156 349,349 0,193 -156,349 -349,349 -193,0 -350,-156 -350,-349z"/>
  <path class="fil4" d="M11809 3057c-52,-1 -85,38 -85,84 0,50 36,85 80,85 26,0 49,-13 62,-34l2 0c0,63 -24,98 -63,98 -27,0 -43,-17 -49,-40l-30 0c6,40 36,68 79,68 57,0 92,-51 92,-141 0,-94 -46,-120 -88,-120zm0 27c32,0 55,27 55,57 0,30 -25,57 -56,57 -31,0 -54,-25 -54,-57 0,-31 24,-57 55,-57z"/>
  <path class="fil23" d="M17602 7083c0,-193 157,-349 349,-349 193,0 350,156 350,349 0,193 -157,349 -350,349 -192,0 -349,-156 -349,-349z"/>
  <path class="fil4" d="M17951 7217c48,0 84,-35 84,-84 0,-49 -35,-85 -81,-85 -17,0 -34,6 -44,14l-2 0 9 -75 106 0 0 -27 -132 0 -15 125 29 3c10,-7 28,-13 44,-13 32,1 56,25 56,58 0,33 -23,57 -54,57 -26,0 -47,-17 -49,-40l-30 0c2,39 35,67 79,67z"/>
  <path class="fil23" d="M16438 12263c0,-193 156,-349 349,-349 193,0 350,156 350,349 0,193 -157,349 -350,349 -193,0 -349,-156 -349,-349z"/>
  <path class="fil4" d="M16788 12398c49,0 86,-31 86,-73 0,-32 -19,-56 -51,-61l0 -2c26,-8 42,-29 42,-57 0,-36 -29,-68 -76,-68 -44,0 -80,27 -82,67l30 0c1,-26 25,-41 52,-41 28,0 46,17 46,43 0,27 -21,44 -51,44l-21 0 0 28 21 0c38,0 60,19 60,47 0,27 -24,45 -56,45 -30,0 -53,-15 -55,-39l-31 0c2,40 37,67 86,67z"/>
  <path class="fil23" d="M16816 15319c0,-193 157,-349 350,-349 192,0 349,156 349,349 0,193 -157,349 -349,349 -193,0 -350,-156 -350,-349z"/>
  <path class="fil4" d="M17074 15398l119 0 0 52 30 0 0 -52 34 0 0 -28 -34 0 0 -174 -37 0 -112 176 0 26zm119 -28l-86 0 0 -1 84 -134 2 0 0 135z"/>
  <path class="fil21" d="M3895 13049c0,-193 156,-349 349,-349 193,0 349,156 349,349 0,193 -156,349 -349,349 -193,0 -349,-156 -349,-349z"/>
  <path class="fil23" d="M18126 14737c0,-193 156,-349 349,-349 193,0 349,156 349,349 0,193 -156,349 -349,349 -193,0 -349,-156 -349,-349z"/>
  <polygon class="fil4" points="18510,14614 18479,14614 18415,14656 18415,14687 18477,14646 18479,14646 18479,14868 18510,14868 "/>
  <path class="fil23" d="M20105 13311c0,-193 156,-349 349,-349 193,0 349,156 349,349 0,193 -156,349 -349,349 -193,0 -349,-156 -349,-349z"/>
  <path class="fil4" d="M20375 13442l160 0 0 -27 -118 0 0 -2 57 -62c44,-46 57,-68 57,-96 0,-39 -32,-71 -77,-71 -44,0 -78,31 -78,75l29 0c0,-29 19,-48 48,-48 28,0 49,17 49,44 0,23 -14,41 -43,73l-84 91 0 23z"/>
  <path class="fil23" d="M13877 14853c0,-193 156,-349 349,-349 193,0 349,156 349,349 0,193 -156,349 -349,349 -193,0 -349,-156 -349,-349z"/>
  <path class="fil4" d="M14228 14988c51,0 85,-38 85,-86 0,-49 -37,-84 -80,-84 -26,0 -49,13 -63,34l-2 0c1,-62 25,-98 64,-98 27,0 43,17 48,40l31 0c-6,-40 -36,-67 -79,-67 -57,0 -92,50 -92,140 0,94 46,120 88,121zm0 -28c-32,0 -55,-27 -55,-57 0,-31 24,-58 56,-58 31,0 54,26 54,57 0,33 -24,58 -55,58z"/>
  <path class="fil22" d="M13790 8596c0,-193 156,-349 349,-349 193,0 349,156 349,349 0,193 -156,349 -349,349 -193,0 -349,-156 -349,-349z"/>
  <path class="fil4" d="M14139 8731c51,0 86,-30 86,-71 0,-32 -21,-60 -49,-65l0 -1c24,-6 40,-30 40,-57 0,-39 -33,-67 -77,-67 -45,0 -77,28 -77,67 0,27 15,51 40,57l0 1c-28,5 -50,33 -49,65 -1,41 35,71 86,71zm0 -28c-35,0 -56,-18 -56,-45 0,-28 23,-49 56,-49 32,0 56,21 56,49 0,27 -22,45 -56,45zm0 -120c-28,0 -47,-18 -47,-44 0,-26 18,-43 47,-43 28,0 47,17 47,43 0,26 -20,44 -47,44z"/>
  <path class="fil22" d="M16525 9149c0,-193 157,-349 350,-349 192,0 349,156 349,349 0,193 -157,349 -349,349 -193,0 -350,-156 -350,-349z"/>
  <path class="fil4" d="M16803 9026l-30 0 -64 42 0 32 62 -42 2 0 0 222 30 0 0 -254zm73 254l161 0 0 -27 -118 0 0 -2 57 -61c43,-47 56,-69 56,-97 0,-39 -32,-70 -76,-70 -45,0 -79,30 -79,75l30 0c0,-29 18,-49 48,-49 27,0 48,17 48,44 0,24 -13,41 -43,73l-84 92 0 22z"/>
  <path class="fil22" d="M19494 6122c0,-192 156,-349 349,-349 193,0 349,157 349,349 0,193 -156,350 -349,350 -193,0 -349,-157 -349,-350z"/>
  <path class="fil4" d="M19796 5999l-30 0 -64 43 0 31 62 -41 2 0 0 221 30 0 0 -254zm163 0l-31 0 -64 43 0 31 62 -41 2 0 0 221 31 0 0 -254z"/>
  <path class="fil21" d="M6805 6472c0,-193 156,-350 349,-350 193,0 350,157 350,350 0,193 -157,349 -350,349 -193,0 -349,-156 -349,-349z"/>
  <path class="fil24" d="M7399 11815l0 31 -177 0c-1,-8 1,-15 3,-23 5,-12 12,-24 22,-35 10,-12 25,-25 43,-41 29,-23 49,-42 59,-56 10,-14 16,-27 16,-40 0,-13 -5,-24 -14,-33 -10,-9 -22,-13 -37,-13 -16,0 -29,5 -38,14 -10,10 -14,23 -15,39l-33 -3c2,-25 11,-44 26,-58 15,-13 35,-19 61,-19 25,0 46,7 61,21 15,14 22,32 22,53 0,11 -2,21 -6,32 -5,10 -12,21 -22,32 -10,12 -27,27 -51,47 -20,17 -32,28 -38,34 -5,6 -10,12 -14,18l132 0zm35 -101c0,-31 3,-57 10,-76 6,-19 16,-34 29,-45 13,-10 29,-15 48,-15 14,0 27,3 38,8 11,6 20,14 27,25 7,11 12,24 16,40 4,16 6,37 6,63 0,32 -3,57 -10,76 -6,20 -16,34 -28,45 -13,10 -29,16 -49,16 -26,0 -46,-10 -61,-28 -17,-22 -26,-59 -26,-109zm34 0c0,44 5,74 15,88 10,15 23,22 38,22 15,0 28,-8 38,-22 10,-15 15,-44 15,-88 0,-44 -5,-73 -15,-87 -10,-15 -23,-22 -38,-22 -15,0 -27,6 -36,19 -12,16 -17,46 -17,90z"/>
  <path class="fil24" d="M7138 6572l0 32 -177 0c0,-8 1,-16 4,-23 5,-12 12,-24 22,-36 10,-11 24,-25 43,-40 29,-24 48,-43 59,-57 10,-14 15,-27 15,-39 0,-13 -5,-24 -14,-33 -9,-9 -21,-14 -36,-14 -16,0 -29,5 -38,15 -10,9 -15,22 -15,39l-33 -3c2,-26 11,-45 26,-58 15,-13 35,-20 60,-20 26,0 46,7 61,22 15,14 23,31 23,53 0,10 -2,21 -7,31 -4,10 -11,21 -22,33 -10,11 -27,27 -50,47 -20,16 -33,28 -38,34 -6,5 -10,11 -14,17l131 0zm159 32l-33 0 0 -210c-8,8 -18,16 -31,23 -13,8 -24,13 -35,17l0 -32c19,-8 35,-19 48,-31 14,-12 24,-24 30,-36l21 0 0 269z"/>
  <path class="fil24" d="M4228 13150l0 31 -177 0c0,-8 1,-16 4,-23 4,-12 12,-24 22,-35 10,-12 24,-26 43,-41 28,-24 48,-43 58,-56 11,-14 16,-28 16,-40 0,-13 -5,-24 -14,-33 -9,-9 -22,-13 -37,-13 -16,0 -28,4 -38,14 -9,9 -14,22 -14,39l-34 -3c3,-25 11,-45 26,-58 15,-13 36,-20 61,-20 26,0 46,8 61,22 15,14 23,32 23,53 0,10 -3,21 -7,31 -4,11 -12,22 -22,33 -10,11 -27,27 -50,47 -20,17 -33,28 -39,34 -5,6 -10,12 -13,18l131 0zm208 0l0 31 -177 0c-1,-8 1,-16 3,-23 5,-12 12,-24 22,-35 10,-12 25,-26 43,-41 29,-24 49,-43 59,-56 10,-14 16,-28 16,-40 0,-13 -5,-24 -14,-33 -10,-9 -22,-13 -37,-13 -16,0 -29,4 -38,14 -10,9 -14,22 -14,39l-34 -3c2,-25 11,-45 26,-58 15,-13 35,-20 61,-20 25,0 46,8 61,22 15,14 22,32 22,53 0,10 -2,21 -6,31 -5,11 -12,22 -22,33 -10,11 -27,27 -51,47 -20,17 -32,28 -38,34 -5,6 -10,12 -14,18l132 0z"/>
  <path class="fil24" d="M4142 10067l0 31 -177 0c-1,-8 1,-15 3,-23 5,-12 12,-23 22,-35 10,-12 25,-25 43,-40 29,-24 49,-43 59,-57 10,-14 16,-27 16,-40 0,-13 -5,-24 -14,-33 -10,-8 -22,-13 -37,-13 -16,0 -29,5 -38,14 -10,10 -14,23 -15,39l-33 -3c2,-25 11,-44 26,-57 15,-14 35,-20 61,-20 25,0 46,7 61,21 15,14 22,32 22,53 0,11 -2,21 -6,32 -5,10 -12,21 -22,32 -10,12 -27,27 -51,47 -20,17 -32,28 -38,34 -5,6 -10,12 -14,18l132 0zm35 -40l33 -4c4,18 10,32 19,40 9,8 20,12 33,12 16,0 29,-5 40,-16 10,-10 15,-24 15,-39 0,-15 -4,-28 -14,-38 -10,-9 -23,-14 -38,-14 -6,0 -14,1 -23,3l3 -28c3,0 4,0 6,0 14,0 26,-4 38,-11 11,-7 16,-19 16,-34 0,-12 -4,-22 -12,-30 -8,-7 -18,-11 -31,-11 -13,0 -24,4 -32,12 -9,8 -14,20 -17,36l-33 -6c4,-22 14,-39 28,-51 14,-12 32,-18 53,-18 14,0 28,3 40,9 12,6 22,15 28,26 7,11 10,22 10,34 0,12 -3,22 -9,32 -6,9 -16,17 -28,22 16,4 28,11 37,23 9,11 13,26 13,43 0,23 -8,43 -25,59 -17,17 -39,25 -65,25 -23,0 -43,-7 -58,-21 -16,-14 -25,-32 -27,-55z"/>
  <path class="fil24" d="M6032 19001l0 32 -177 0c0,-8 1,-16 4,-23 5,-12 12,-24 22,-36 10,-11 24,-25 43,-40 29,-24 49,-43 59,-57 10,-14 15,-27 15,-39 0,-13 -4,-24 -14,-33 -9,-9 -21,-13 -36,-13 -16,0 -29,4 -38,14 -10,9 -15,22 -15,39l-33 -3c2,-26 11,-45 26,-58 15,-13 35,-20 60,-20 26,0 46,7 61,22 15,14 23,32 23,53 0,10 -2,21 -7,31 -4,11 -11,21 -22,33 -10,11 -27,27 -50,47 -20,16 -33,28 -38,34 -6,6 -10,11 -14,17l131 0zm141 32l0 -64 -116 0 0 -30 122 -174 27 0 0 174 36 0 0 30 -36 0 0 64 -33 0zm0 -94l0 -121 -84 121 84 0z"/>
  <path class="fil24" d="M13832 11347l0 32 -177 0c0,-8 1,-16 4,-23 4,-12 11,-24 21,-36 10,-11 25,-25 43,-40 29,-24 49,-43 59,-57 11,-14 16,-27 16,-39 0,-13 -5,-24 -14,-33 -10,-9 -22,-13 -37,-13 -16,0 -28,4 -38,14 -9,9 -14,22 -14,39l-34 -3c2,-26 11,-45 26,-58 15,-13 36,-20 61,-20 26,0 46,7 61,22 15,14 22,32 22,53 0,10 -2,21 -6,31 -5,11 -12,21 -22,33 -10,11 -27,27 -51,47 -19,16 -32,28 -38,34 -5,6 -10,11 -14,17l132 0zm35 -38l35 -3c2,17 8,29 17,38 10,8 21,12 34,12 16,0 29,-6 40,-18 11,-11 17,-27 17,-47 0,-19 -6,-33 -16,-44 -10,-11 -24,-16 -41,-16 -11,0 -20,2 -29,7 -8,5 -15,11 -20,19l-31 -5 26 -137 133 0 0 31 -107 0 -14 72c16,-11 33,-17 50,-17 24,0 43,8 59,25 16,16 24,37 24,62 0,24 -7,45 -21,63 -17,21 -40,32 -70,32 -24,0 -44,-7 -59,-20 -16,-14 -25,-32 -27,-54z"/>
  <polygon class="fil25" points="34604,12940 33876,12969 33901,13600 34629,13571 "/>
  <polygon class="fil14" points="34604,12940 34240,12954 34265,13585 34629,13571 "/>
  <polygon class="fil25" points="32148,12994 31420,13006 31431,13638 32159,13625 "/>
  <polygon class="fil14" points="32148,12994 31784,13000 31795,13631 32159,13625 "/>
  <polygon class="fil25" points="33380,12973 32652,12997 32673,13628 33400,13604 "/>
  <polygon class="fil14" points="33380,12973 33016,12985 33037,13616 33400,13604 "/>
  <polygon class="fil25" points="30785,13019 30058,13033 30069,13664 30797,13651 "/>
  <polygon class="fil14" points="30785,13019 30422,13026 30433,13657 30797,13651 "/>
  <polygon class="fil25" points="29491,13043 28763,13063 28781,13695 29508,13674 "/>
  <polygon class="fil14" points="29491,13043 29127,13053 29145,13684 29508,13674 "/>
  <polygon class="fil25" points="28282,13070 27554,13095 27576,13726 28304,13701 "/>
  <polygon class="fil14" points="28282,13070 27918,13082 27940,13713 28304,13701 "/>
  <polygon class="fil25" points="27057,13106 26330,13147 26365,13777 27092,13737 "/>
  <polygon class="fil14" points="27057,13106 26693,13127 26729,13757 27092,13737 "/>
  <polygon class="fil7" points="30387,14701 30387,14188 26028,14296 26055,14822 "/>
  <polygon class="fil8 str0" points="30387,14701 30387,14188 26028,14296 26055,14822 "/>
  <path class="fil8 str0" d="M30104 14701l0 -500m-311 513l0 -513m-324 527l0 -527m-310 527l0 -500m-310 513l0 -513m-311 527l0 -527m-310 527l-27 -527m-284 540l-13 -526m-297 540l-13 -527m-297 527l-14 -513m-283 526l-27 -526m-297 526l-27 -513m-284 527l-13 -527"/>
  <polygon class="fil7" points="30389,14690 30389,14177 34748,14285 34721,14811 "/>
  <polygon class="fil8 str0" points="30389,14690 30389,14177 34748,14285 34721,14811 "/>
  <path class="fil8 str0" d="M30673 14690l0 -500m310 513l0 -513m324 527l0 -527m310 527l0 -500m311 513l0 -513m310 527l0 -527m310 527l27 -527m284 540l13 -526m297 540l14 -527m297 527l13 -513m284 526l27 -526m296 526l27 -513m284 527l13 -527"/>
  <polygon class="fil7" points="21751,13512 21751,14017 26042,13910 26016,13392 "/>
  <polygon class="fil8 str0" points="21751,13512 21751,14017 26042,13910 26016,13392 "/>
  <path class="fil8 str0" d="M22030 13512l0 491m306 -505l0 505m319 -518l0 518m305 -518l0 492m306 -505l0 505m305 -518l0 518m306 -518l26 518m279 -532l14 518m292 -531l13 518m293 -518l13 505m279 -518l26 518m293 -518l26 505m279 -519l14 519"/>
  <path class="fil22" d="M26290 12537c-3,-192 151,-351 344,-354 193,-4 351,150 355,343 3,193 -151,352 -344,355 -193,3 -352,-151 -355,-344z"/>
  <path class="fil24" d="M26571 12658l-32 0 -4 -206c-7,7 -17,15 -30,23 -12,7 -24,13 -34,17l0 -31c18,-9 33,-20 47,-32 13,-12 23,-24 28,-36l21 0 4 265zm82 -72l33 -5c4,19 10,32 19,40 9,8 20,12 33,11 15,0 28,-5 38,-16 11,-11 16,-24 15,-40 0,-14 -5,-27 -15,-36 -10,-10 -22,-14 -37,-14 -6,0 -14,1 -23,4l3 -28c3,0 4,0 6,0 13,0 26,-4 37,-12 11,-7 16,-18 16,-33 0,-12 -5,-21 -13,-29 -8,-8 -18,-11 -31,-11 -13,0 -23,4 -31,12 -9,8 -14,20 -16,36l-32 -5c3,-22 12,-39 26,-51 13,-12 31,-18 52,-19 14,0 27,3 40,9 12,6 21,14 28,25 6,10 10,21 10,33 0,12 -3,22 -9,31 -6,10 -15,17 -27,23 16,3 28,11 37,22 9,11 13,25 14,42 0,23 -8,43 -25,59 -16,16 -37,25 -63,25 -23,1 -42,-6 -58,-20 -15,-13 -24,-31 -27,-53z"/>
  <path class="fil22" d="M27563 12507c-3,-193 151,-352 344,-355 192,-3 351,151 354,344 4,192 -150,351 -343,354 -193,4 -352,-150 -355,-343z"/>
  <path class="fil24" d="M27844 12627l-32 0 -4 -206c-7,8 -17,15 -30,23 -12,8 -24,14 -34,17l0 -31c18,-9 33,-19 47,-32 13,-12 22,-24 28,-35l21 -1 4 265zm187 -3l-1 -63 -115 2 0 -30 117 -173 27 0 3 171 35 -1 1 30 -36 1 1 62 -32 1zm-2 -93l-2 -118 -80 120 82 -2z"/>
  <path class="fil22" d="M28756 12458c-3,-193 151,-352 344,-355 192,-3 351,151 354,343 4,193 -150,352 -343,355 -193,3 -352,-150 -355,-343z"/>
  <path class="fil24" d="M29037 12578l-32 0 -4 -206c-7,8 -17,15 -30,23 -12,8 -24,13 -34,17l0 -31c18,-9 33,-19 47,-32 13,-12 22,-24 28,-35l21 -1 4 265zm82 -71l34 -3c3,17 9,29 18,37 9,8 20,12 33,12 16,0 29,-6 40,-18 10,-12 15,-28 15,-47 0,-19 -6,-33 -16,-44 -10,-10 -24,-15 -41,-15 -10,0 -20,3 -28,8 -8,5 -15,11 -19,19l-31 -4 23 -136 131 -2 1 31 -105 1 -13 72c15,-12 32,-18 49,-18 23,0 43,7 59,23 16,16 24,36 24,61 1,24 -6,45 -20,62 -16,22 -39,33 -68,34 -24,0 -44,-7 -59,-20 -15,-13 -24,-31 -27,-53z"/>
  <path class="fil22" d="M30039 12447c-3,-193 151,-352 344,-355 193,-3 352,151 355,344 3,192 -151,351 -344,354 -193,4 -352,-150 -355,-343z"/>
  <path class="fil24" d="M30320 12567l-32 1 -3 -207c-8,8 -18,16 -31,23 -12,8 -24,14 -34,17l0 -31c18,-9 34,-19 47,-32 13,-12 23,-24 28,-35l21 -1 4 265zm248 -203l-32 3c-3,-13 -7,-22 -12,-28 -9,-9 -20,-13 -33,-13 -10,0 -20,3 -27,9 -10,8 -18,19 -24,33 -6,14 -8,35 -8,61 7,-12 17,-21 28,-27 11,-6 23,-9 35,-9 22,0 40,7 56,23 15,16 23,36 24,61 0,17 -3,32 -10,46 -7,15 -17,26 -29,34 -12,7 -27,11 -42,12 -27,0 -50,-10 -67,-29 -17,-20 -26,-52 -27,-98 -1,-51 8,-88 26,-111 17,-21 39,-31 66,-31 21,-1 38,5 52,16 13,12 21,27 24,48zm-130 116c0,11 3,22 7,32 5,10 12,17 21,23 8,5 17,7 27,7 13,0 25,-6 35,-17 9,-11 14,-26 14,-45 -1,-18 -6,-33 -16,-43 -9,-10 -22,-15 -37,-15 -14,0 -27,6 -37,16 -10,11 -14,25 -14,42z"/>
  <path class="fil22" d="M31362 12406c-3,-193 150,-352 343,-355 193,-3 352,150 355,343 3,193 -151,352 -343,355 -193,3 -352,-151 -355,-343z"/>
  <path class="fil24" d="M31643 12526l-33 0 -3 -206c-8,8 -18,15 -30,23 -13,7 -24,13 -34,17l-1 -31c18,-9 34,-20 47,-32 14,-12 23,-24 29,-36l20 0 5 265zm81 -231l0 -31 170 -3 0 25c-16,19 -32,43 -48,72 -16,30 -29,61 -37,93 -6,22 -10,46 -11,72l-33 1c0,-21 3,-46 11,-76 7,-29 18,-58 32,-85 14,-28 29,-51 45,-70l-129 2z"/>
  <path class="fil22" d="M32566 12362c-3,-193 150,-352 343,-355 193,-3 352,151 355,343 3,193 -151,352 -343,355 -193,3 -352,-150 -355,-343z"/>
  <path class="fil24" d="M32847 12482l-33 0 -3 -206c-8,8 -18,15 -30,23 -13,8 -24,13 -34,17l-1 -31c18,-9 34,-19 47,-32 14,-12 23,-24 29,-35l20 -1 5 265zm130 -145c-13,-5 -23,-12 -30,-21 -6,-9 -10,-20 -10,-32 0,-19 6,-36 20,-49 13,-13 32,-20 54,-20 23,-1 42,6 56,19 14,13 22,29 22,48 0,12 -3,23 -9,32 -6,9 -16,17 -29,22 16,5 29,13 37,25 9,11 13,25 14,41 0,23 -8,42 -23,58 -16,15 -37,23 -63,24 -26,0 -47,-7 -63,-23 -16,-15 -24,-34 -25,-57 0,-17 4,-31 13,-43 8,-12 20,-20 36,-24zm-7 -55c0,13 4,23 13,30 8,8 18,12 31,12 13,0 23,-4 31,-12 7,-8 11,-18 11,-30 0,-11 -5,-21 -13,-29 -8,-8 -18,-12 -31,-12 -12,0 -22,4 -30,12 -8,8 -12,18 -12,29zm-9 122c1,9 3,18 7,27 5,8 11,15 20,19 9,5 18,7 28,7 16,0 28,-5 38,-16 10,-10 15,-22 15,-38 -1,-15 -6,-28 -16,-38 -11,-10 -24,-15 -40,-15 -15,1 -28,6 -37,16 -10,10 -15,23 -15,38z"/>
  <path class="fil22" d="M33819 12371c-3,-193 151,-351 344,-355 193,-3 352,151 355,344 3,193 -151,352 -344,355 -193,3 -351,-151 -355,-344z"/>
  <path class="fil24" d="M34100 12491l-32 1 -3 -206c-8,7 -18,15 -31,23 -12,7 -24,13 -34,17l0 -31c18,-9 34,-20 47,-32 13,-12 23,-24 28,-36l21 0 4 264zm87 -62l31 -3c3,14 8,25 16,31 7,7 17,10 29,10 10,0 18,-3 26,-8 7,-4 13,-10 18,-18 4,-8 8,-18 11,-31 3,-13 5,-26 4,-40 0,-1 0,-3 0,-6 -6,10 -15,19 -26,25 -11,7 -23,10 -36,10 -22,1 -40,-7 -56,-22 -15,-16 -23,-37 -23,-63 -1,-26 7,-48 22,-64 16,-17 35,-25 59,-26 17,0 33,4 47,13 14,9 25,22 33,39 8,17 12,42 12,74 1,34 -2,61 -9,81 -7,20 -18,35 -32,46 -14,10 -31,16 -51,16 -20,1 -37,-5 -50,-16 -14,-11 -22,-27 -25,-48zm131 -118c-1,-19 -6,-34 -16,-44 -10,-11 -22,-16 -36,-16 -14,0 -27,6 -37,18 -10,12 -15,27 -15,46 0,17 5,30 16,40 10,11 22,16 37,16 15,-1 27,-6 37,-17 9,-10 14,-25 14,-43z"/>
 </g>
</svg>
