<svg id="1" width="60" height="40" viewBox="0 0 60 40" fill="none" xmlns="http://www.w3.org/2000/svg"><rect opacity=".3" x=".5" y=".5" width="59" height="39" rx="3.5" stroke="#beac83"/><g opacity=".8"><path fill-rule="evenodd" clip-rule="evenodd" d="M40.1885 18.873V25.9999H44.1553V21.7766H48.651C50.5432 21.7626 52.1505 20.5562 52.7566 18.873H40.1885z" fill="#beac83"/><path fill-rule="evenodd" clip-rule="evenodd" d="M39.6611 13C39.8922 15.9131 42.6533 18.2132 46.0255 18.2132 46.0365 18.2132 52.9229 18.2132 52.9229 18.2132 52.9738 17.946 53.0004 17.6703 53.0004 17.3883 53.0004 14.9752 51.0499 13.0179 48.6369 13.0001L39.6611 13z" fill="#beac83"/><path fill-rule="evenodd" clip-rule="evenodd" d="M33.7892 18.1439 33.7923 18.1372 33.7928 18.1373C33.8334 18.0645 33.9113 18.0152 34.0008 18.0152 34.13 18.0152 34.2352 18.118 34.2387 18.2462H34.2388V25.934H38.2056V13H34.2388C33.7358 13.0167 33.1674 13.3852 32.9561 13.8374L29.7993 20.5946C29.7915 20.6222 29.7793 20.648 29.7636 20.6711L29.7625 20.6734 29.7621 20.6733C29.7143 20.7419 29.6348 20.7868 29.5447 20.7868 29.3987 20.7868 29.2803 20.6686 29.2803 20.5228V13H25.3135V25.934H29.2803V25.9325C29.7778 25.9066 30.3328 25.5423 30.541 25.0966L33.7811 18.1613C33.7836 18.1554 33.7863 18.1496 33.7892 18.1439z" fill="#beac83"/><path fill-rule="evenodd" clip-rule="evenodd" d="M18.9767 18.365 16.6583 25.934H13.8046L11.4848 18.3604C11.4624 18.2391 11.3559 18.1472 11.228 18.1472 11.0837 18.1472 10.9668 18.2639 10.9668 18.4079 10.9668 18.409 10.9668 18.4101 10.9668 18.4112V25.934H7V13H10.4049 11.4189C12.1488 13 12.9137 13.5654 13.127 14.2617L15.0575 20.5645C15.1536 20.878 15.3094 20.8777 15.4054 20.5645L17.3359 14.2617C17.5494 13.5649 18.314 13 19.044 13h1.0137H23.4623V25.934H19.4955V18.4112C19.4955 18.4101 19.4955 18.409 19.4955 18.4079 19.4955 18.2639 19.3786 18.1472 19.2343 18.1472 19.1047 18.1472 18.9972 18.2414 18.9767 18.365z" fill="#beac83"/></g></svg>