<svg id="icon" width="230" height="106" viewBox="0 0 230 106" fill="none" xmlns="http://www.w3.org/2000/svg">
<path d="M0 105H230" stroke="#BEAC83"/>
<path d="M142.5 1C142.5 1.55228 142.052 2 141.5 2C140.948 2 140.5 1.55228 140.5 1C140.5 0.447715 140.948 0 141.5 0C142.052 0 142.5 0.447715 142.5 1Z" fill="#BEAC83"/>
<path fill-rule="evenodd" clip-rule="evenodd" d="M135.5 4C135.5 3.44772 135.052 3 134.5 3C133.948 3 133.5 3.44772 133.5 4C133.5 4.55228 133.948 5 134.5 5C134.5 5.33386 134.664 5.6295 134.915 5.81114C135.11 7.9106 135.99 9.46025 136.967 11.18C137.163 11.5245 137.363 11.8758 137.561 12.2397C137.799 12.6745 138.056 13.0777 138.305 13.4673C138.399 13.614 138.491 13.7588 138.581 13.9025C138.914 14.4373 139.233 14.9935 139.513 15.6854C140.072 17.066 140.5 19.0403 140.5 22.5001L140.5 22.5073L140.5 28.4919C140.5 28.4978 140.5 28.5036 140.5 28.5095L140.5 31.3114C139.479 28.8314 138.509 25.3407 137.687 21.7753C136.628 17.1759 135.832 12.5323 135.499 9.96119C135.479 9.42689 135.039 9 134.5 9C133.948 9 133.5 9.44771 133.5 10C133.5 10.5523 133.948 11 134.5 11C134.544 11 134.588 10.9971 134.631 10.9915C135.019 13.6923 135.76 17.8648 136.713 21.9999C136.945 23.0064 137.19 24.0145 137.447 25.0014C136.919 25.029 136.5 25.4655 136.5 26C136.5 26.5523 136.948 27 137.5 27C137.666 27 137.822 26.9596 137.96 26.888C138.738 29.6145 139.599 32.0436 140.5 33.6336L140.5 43.3817C134.867 33.8432 131.5 25.1892 131.5 17.0001C131.5 17.0002 131.5 17.0001 131.5 17.0001C131.5 16.4478 131.052 16 130.5 16C130.318 16 130.147 16.0487 130 16.1338C129.853 16.0487 129.682 16 129.5 16C128.948 16 128.5 16.4477 128.5 17C128.5 17.5523 128.948 18 129.5 18C129.682 18 129.853 17.9513 130 17.8662C130.147 17.9513 130.318 18 130.5 18C130.505 18 130.511 18 130.516 17.9999C130.617 21.1625 131.194 24.3812 132.18 27.6754C132.012 27.4572 131.855 27.2647 131.723 27.1114C130.736 25.965 129.688 24.83 128.489 23.8501C128.417 23.3689 128.001 23 127.5 23C126.948 23 126.5 23.4477 126.5 24C126.5 23.4477 126.052 23 125.5 23C126.052 23 126.5 22.5523 126.5 22C126.5 21.4477 126.052 21 125.5 21C124.948 21 124.5 21.4477 124.5 22C124.5 22.5523 124.948 23 125.5 23C124.948 23 124.5 23.4477 124.5 24C124.5 23.4477 124.052 23 123.5 23C122.948 23 122.5 23.4477 122.5 24C122.5 24.5523 122.948 25 123.5 25C124.052 25 124.5 24.5523 124.5 24C124.5 24.5523 124.948 25 125.5 25C125.5 25.5523 125.948 26 126.5 26C126.5 26.5523 126.948 27 127.5 27C128.052 27 128.5 26.5523 128.5 26C128.5 25.4477 128.052 25 127.5 25C127.717 25 127.918 24.9307 128.082 24.813C129.121 25.6937 130.055 26.7069 130.965 27.7639C131.138 27.9647 131.362 28.2449 131.599 28.5654C131.536 28.6968 131.5 28.8442 131.5 29C131.5 29.5523 131.948 30 132.5 30C132.515 30 132.529 29.9997 132.543 29.9991C132.789 30.434 132.959 30.8184 133.008 31.0896C133.052 31.3284 133.258 31.4965 133.492 31.5001C135.203 35.9485 137.59 40.5424 140.5 45.3266L140.5 49.9799C138.268 47.047 136.025 44.7553 134.091 42.7868L134.045 42.7403C133.9 42.5921 133.756 42.4459 133.614 42.3017C133.584 42.1915 133.549 42.0926 133.519 42.0059C133.503 41.9613 133.488 41.9198 133.476 41.8818C133.407 41.6661 133.354 41.4473 133.297 41.2066L133.276 41.1203C133.212 40.8529 133.139 40.5612 133.032 40.269C132.392 38.5239 131.919 36.7916 131.671 34.9855C132.142 34.9044 132.5 34.4941 132.5 34C132.5 33.4477 132.052 33 131.5 33C130.948 33 130.5 33.4477 130.5 34C130.5 34.1532 130.534 34.2983 130.596 34.4281C130.822 36.5748 131.354 38.5974 132.093 40.6132C132.115 40.6714 132.134 40.7301 132.153 40.7896C130.851 39.4078 129.814 38.1692 129.152 36.9007C128.883 36.386 128.612 35.8604 128.347 35.3271C128.252 33.8811 128.25 32.4369 128.25 30.9685C128.33 30.9891 128.414 31 128.5 31C129.052 31 129.5 30.5523 129.5 30C129.5 29.4477 129.052 29 128.5 29C127.967 29 127.532 29.4163 127.502 29.9413C127.352 30.0276 127.25 30.1895 127.25 30.3751L127.25 30.8026C127.25 31.5361 127.249 32.2722 127.26 33.0103C126.816 31.986 126.423 30.9511 126.125 29.9271C126.24 29.9741 126.367 30 126.5 30C127.052 30 127.5 29.5523 127.5 29C127.5 28.4477 127.052 28 126.5 28C126.5 27.4477 126.052 27 125.5 27C124.948 27 124.5 27.4477 124.5 28C124.5 28.5523 124.948 29 125.5 29C125.5 29.1822 125.549 29.353 125.634 29.5001C125.585 29.4992 125.536 29.5055 125.487 29.5196C125.455 29.5288 125.425 29.5409 125.396 29.5556C125.232 29.2263 124.893 29 124.5 29C123.948 29 123.5 29.4477 123.5 30C123.5 30.5523 123.948 31 124.5 31C123.948 31 123.5 31.4477 123.5 32C123.5 32.5523 123.948 33 124.5 33C125.052 33 125.5 32.5523 125.5 32C125.5 31.4477 125.052 31 124.5 31C124.82 31 125.105 30.8496 125.288 30.6157C125.816 32.3022 126.572 33.9946 127.363 35.5938C127.367 35.6587 127.372 35.7236 127.377 35.7885C127.391 35.9767 127.508 36.1325 127.669 36.2055C127.868 36.5986 128.068 36.9851 128.265 37.3635C129.201 39.1568 130.806 40.8635 132.687 42.7846L132.688 42.7983L132.688 42.8126C132.688 43.0888 132.911 43.3126 133.188 43.3126L133.194 43.3126L133.205 43.3123L133.378 43.4877C135.546 45.6941 138.054 48.2604 140.5 51.6608L140.5 61.4522C140.173 60.6488 139.828 59.8525 139.46 59.0661C139.279 58.6793 139.101 58.2799 138.92 57.8745C138.336 56.5647 137.725 55.1926 136.899 53.9823C136.365 53.1989 135.717 52.5261 135.066 51.8979C134.857 51.6966 134.65 51.5018 134.445 51.3095C134 50.8905 133.567 50.4833 133.156 50.0462C132.442 49.2879 131.704 48.5803 130.951 47.893C131.277 47.7282 131.5 47.3902 131.5 47C131.5 46.4477 131.052 46 130.5 46C130.069 46 129.702 46.2725 129.561 46.6545C129.498 46.5994 129.435 46.5442 129.372 46.4891C129.454 46.3445 129.5 46.1777 129.5 46C129.5 45.8179 129.451 45.6471 129.366 45.5C129.451 45.3529 129.5 45.1821 129.5 45C129.5 44.4477 129.052 44 128.5 44C127.948 44 127.5 44.4477 127.5 45C127.5 45.1821 127.549 45.3529 127.634 45.5C127.549 45.6471 127.5 45.8179 127.5 46C127.5 46.5305 127.913 46.9645 128.435 46.9979C129.836 48.2215 131.172 49.3982 132.428 50.7318C132.861 51.1913 133.33 51.6331 133.786 52.0626C133.985 52.2497 134.182 52.435 134.372 52.6179C135.009 53.2327 135.598 53.8486 136.073 54.5457C136.843 55.6746 137.404 56.9313 137.98 58.2224L137.98 58.2237C138.167 58.6431 138.356 59.0663 138.554 59.4897C139.281 61.0429 139.921 62.6397 140.5 64.2601L140.5 69.6875C139.123 69.1572 137.743 68.1629 136.4 66.8255C136.206 66.6322 136.013 66.4323 135.821 66.2261C135.931 66.0094 135.87 65.7389 135.666 65.5932C135.32 65.3459 135.273 65.0235 135.172 64.3366L135.169 64.3099C135.082 63.7164 134.962 63.108 134.845 62.5149C134.774 62.1594 134.705 61.8094 134.645 61.4715C134.408 60.1414 134.376 58.8752 134.375 57.4842C134.455 57.3408 134.5 57.1757 134.5 57C135.052 57 135.5 56.5523 135.5 56C135.5 55.4477 135.052 55 134.5 55C134.447 55 134.396 55.0041 134.345 55.0119C134.347 54.8461 134.351 54.6801 134.358 54.5132C134.448 54.3632 134.5 54.1876 134.5 54C134.5 53.4477 134.052 53 133.5 53C132.948 53 132.5 53.4477 132.5 54C132.5 54.4999 132.867 54.9141 133.346 54.9882C133.342 55.3304 133.346 55.6724 133.352 56.0109C132.87 56.0824 132.5 56.498 132.5 57C132.5 57.5107 132.883 57.9319 133.377 57.9925C133.387 59.2125 133.438 60.3982 133.661 61.6468C133.728 62.0267 133.801 62.3926 133.872 62.753C133.97 63.2465 134.066 63.7298 134.144 64.2252C133.397 63.2462 132.679 62.1874 131.998 61.0823C131.993 61.0172 131.974 60.9521 131.942 60.8908C131.876 60.7671 131.812 60.6388 131.746 60.5076C131.487 59.9946 131.207 59.4376 130.756 58.9404C128.377 54.5946 126.644 49.9511 125.989 46.8954C125.347 43.8971 124.771 41.1475 124.324 38.9845C124.381 38.9947 124.44 39 124.5 39C125.052 39 125.5 38.5523 125.5 38C125.5 37.4477 125.052 37 124.5 37C124.297 37 124.107 37.0607 123.949 37.165C123.932 37.0809 123.915 36.9983 123.899 36.9173C124.253 36.7633 124.5 36.4105 124.5 36C124.5 35.4511 124.058 35.0054 123.51 35C123.503 34.9663 123.497 34.9336 123.49 34.9021L122.51 35.0982C122.537 35.2323 122.568 35.3862 122.602 35.5588C122.537 35.6918 122.5 35.8416 122.5 36C121.948 36 121.5 36.4477 121.5 37C121.5 37.5523 121.948 38 122.5 38C122.709 38 122.904 37.9357 123.064 37.8258C123.179 38.3857 123.307 39.004 123.445 39.6719C123.309 39.2808 122.937 39 122.5 39C121.948 39 121.5 39.4477 121.5 40C121.5 40.5523 121.948 41 122.5 41C123.052 41 123.5 40.5523 123.5 40C123.5 39.9743 123.499 39.9489 123.497 39.9237C123.92 41.9618 124.439 44.4349 125.011 47.1049C125.118 47.6015 125.251 48.1368 125.41 48.7035C124.724 47.9773 123.969 47.0949 123.26 46.1749C122.884 45.688 122.526 45.1955 122.2 44.7145C122.385 44.533 122.5 44.2799 122.5 44C122.5 43.4477 122.052 43 121.5 43C121.5 42.4477 121.052 42 120.5 42C120.475 42 120.451 42.0009 120.426 42.0027C120.347 41.9944 120.265 42.0051 120.186 42.0374C120.154 42.0504 120.124 42.0663 120.097 42.0846C119.745 42.2396 119.5 42.5911 119.5 43C119.5 43.5523 119.948 44 120.5 44C120.5 44.4273 120.768 44.792 121.145 44.9352C121.547 45.5505 122 46.1785 122.468 46.7855C123.544 48.1819 124.735 49.5075 125.66 50.3665C125.746 50.4466 125.853 50.4904 125.962 50.4987C126.677 52.645 127.672 55.0776 128.875 57.4976C128.473 57.2834 128.063 57.0977 127.662 56.9221C127.567 56.8802 127.472 56.8391 127.379 56.7983C127.054 56.657 126.738 56.5196 126.429 56.3718C126.475 56.2569 126.5 56.1314 126.5 56C126.5 55.4477 126.052 55 125.5 55C124.948 55 124.5 55.4477 124.5 56C124.5 56.1821 124.549 56.3529 124.634 56.5C124.549 56.6471 124.5 56.8179 124.5 57C123.948 57 123.5 57.4477 123.5 58C123.5 58.5523 123.948 59 124.5 59C125.052 59 125.5 58.5523 125.5 58C125.888 58 126.225 57.7789 126.39 57.4558C126.591 57.546 126.791 57.6331 126.987 57.7187L126.989 57.7194C127.08 57.7592 127.171 57.7986 127.26 57.8379C127.727 58.0424 128.173 58.246 128.595 58.4842C129.095 58.7666 129.544 59.1156 129.939 59.5309C130.224 60.0492 130.519 60.5629 130.821 61.069C131.884 62.8494 133.055 64.5454 134.303 66.0195C133.845 66.1111 133.5 66.5153 133.5 67C133.5 67.5523 133.948 68 134.5 68C134.95 68 135.331 67.7025 135.456 67.2934C135.535 67.3747 135.615 67.4549 135.694 67.5342C137.196 69.0293 138.814 70.1882 140.5 70.7497L140.5 104.5H143.5C143.266 97.0783 143.032 86.2651 142.849 76.4177C143.549 75.388 144.318 74.4817 145.336 73.7114C145.763 73.389 146.221 73.1066 146.702 72.8159L146.84 72.7329C147.273 72.4716 147.724 72.1995 148.156 71.8948C149.412 71.009 150.55 69.9978 151.66 68.9873C152.131 68.9115 152.492 68.5068 152.5 68.0163C152.5 68.014 152.5 68.0118 152.5 68.0095C152.505 68.5574 152.951 69 153.5 69C154.052 69 154.5 68.5523 154.5 68C154.5 67.4477 154.052 67 153.5 67C153.5 66.4477 153.052 66 152.5 66C151.948 66 151.5 66.4477 151.5 67C150.948 67 150.5 67.4477 150.5 68C150.5 68.2005 150.559 68.3872 150.661 68.5437C149.664 69.4449 148.667 70.3111 147.58 71.0777C147.179 71.3604 146.759 71.6138 146.321 71.878L146.185 71.9599C145.704 72.2503 145.206 72.5566 144.733 72.9138C143.987 73.478 143.367 74.1053 142.819 74.7791C142.787 73.0364 142.757 71.3324 142.729 69.6923C145.957 68.0457 147.833 66.7308 150.324 63.6922C151.541 62.2086 152.91 60.3067 154.671 57.7445L154.787 57.9097C157.296 56.1534 159.433 54.5195 161.009 53.1955C161.253 52.9905 161.484 52.7925 161.702 52.6023C161.884 52.8439 162.174 53 162.5 53C163.052 53 163.5 52.5523 163.5 52C163.5 52.5523 163.948 53 164.5 53C164.682 53 164.853 52.9513 165 52.8662C165.147 52.9513 165.318 53 165.5 53C166.052 53 166.5 52.5523 166.5 52C166.5 51.4477 166.052 51 165.5 51C165.318 51 165.147 51.0487 165 51.1338C164.853 51.0487 164.682 51 164.5 51C163.948 51 163.5 51.4477 163.5 52C163.5 51.696 163.364 51.4237 163.15 51.2403C163.231 51.1558 163.308 51.0733 163.38 50.9929C163.419 50.9976 163.459 51 163.5 51C164.052 51 164.5 50.5523 164.5 50C164.5 49.4477 164.052 49 163.5 49C162.948 49 162.5 49.4477 162.5 50C162.5 50.1377 162.528 50.2689 162.578 50.3883C162.479 50.4966 162.364 50.6165 162.233 50.7481C161.77 51.2109 161.141 51.7789 160.366 52.4298C159.197 53.4117 157.707 54.5731 155.975 55.8335C156.894 54.4784 157.912 52.965 159.054 51.2683C159.959 49.9229 160.941 48.4623 162.013 46.8738C162.157 46.9542 162.323 47 162.5 47C163.052 47 163.5 46.5523 163.5 46C163.5 45.4477 163.052 45 162.5 45C162.008 45 161.598 45.3559 161.515 45.8245C160.307 47.613 159.212 49.2406 158.214 50.7249L158.209 50.7316L158.207 50.7346C155.821 54.2823 153.985 57.0113 152.467 59.1631C152.492 59.0642 152.515 58.9646 152.537 58.8646C152.709 58.0838 152.865 57.279 152.968 56.4736C153.091 55.5202 153.08 54.5631 153.069 53.6422C153.066 53.3837 153.063 53.127 153.063 52.8751C153.063 52.8593 153.062 52.8437 153.06 52.8283C153.326 52.6485 153.5 52.3446 153.5 52C153.5 52.5523 153.948 53 154.5 53C155.052 53 155.5 52.5523 155.5 52C155.5 51.4477 155.052 51 154.5 51C153.948 51 153.5 51.4477 153.5 52C153.5 51.4477 153.052 51 152.5 51C151.948 51 151.5 51.4477 151.5 52C151.5 52.3954 151.73 52.7373 152.063 52.8995C152.063 52.9916 152.063 53.083 152.064 53.1739C151.903 53.0642 151.709 53 151.5 53C150.948 53 150.5 53.4477 150.5 54C150.5 54.5523 150.948 55 151.5 55C151.713 55 151.91 54.9334 152.073 54.8199C152.066 55.3317 152.042 55.8367 151.976 56.3461C151.878 57.1111 151.729 57.8842 151.56 58.6495C151.476 59.0337 151.368 59.4115 151.256 59.8061L151.222 59.9275C151.099 60.3604 150.974 60.8131 150.884 61.2811C150.879 61.3079 150.876 61.3346 150.875 61.3611C150.408 61.9847 149.97 62.5468 149.551 63.0581C147.281 65.8269 145.58 67.0808 142.71 68.577C142.647 64.8312 142.596 61.4624 142.56 58.7866C145.867 56.0867 148.451 53.6021 150.49 51.3023C150.654 51.4021 150.868 51.4022 151.036 51.2853C151.828 50.7334 152.68 50.3549 153.603 49.9451L153.604 49.9445C153.75 49.88 153.897 49.8147 154.045 49.7479C155.832 48.945 157.415 47.9974 158.981 46.8551C159.132 46.947 159.31 47 159.5 47C160.052 47 160.5 46.5523 160.5 46C160.5 45.4477 160.052 45 159.5 45C158.959 45 158.518 45.4303 158.501 45.9677C156.947 47.1103 155.392 48.0463 153.635 48.8357C153.494 48.8992 153.352 48.9624 153.208 49.0259L153.207 49.0265C152.778 49.2166 152.342 49.4101 151.91 49.6243C152.831 48.4814 153.618 47.3858 154.295 46.3334C154.821 45.5174 155.28 44.7284 155.685 43.9646C155.795 43.9209 155.89 43.838 155.947 43.7237C156.42 42.7786 156.966 42.0905 157.522 41.4739C157.685 41.294 157.853 41.1147 158.023 40.9339C158.42 40.5124 158.823 40.083 159.171 39.6196C160.863 37.3634 161.601 34.8984 162.35 32.3939C162.39 32.2626 162.429 32.1311 162.468 31.9995C162.479 31.9998 162.489 32 162.5 32C163.052 32 163.5 31.5523 163.5 31C163.5 30.4477 163.052 30 162.5 30C161.948 30 161.5 30.4477 161.5 31C161.5 31.1532 161.534 31.2983 161.596 31.4281C161.524 31.6643 161.454 31.8984 161.384 32.1306C160.631 34.6395 159.948 36.9169 158.371 39.0196C158.069 39.4222 157.741 39.7742 157.38 40.1573C157.837 38.9105 158.181 37.7387 158.483 36.6317C159.15 34.1829 159.643 31.3222 159.98 28.8541C160.131 28.9467 160.309 29 160.5 29C161.052 29 161.5 28.5523 161.5 28C161.5 27.4477 161.052 27 160.5 27C160.398 27 160.3 27.0152 160.208 27.0433C160.297 26.2785 160.367 25.5853 160.42 24.9969C160.447 24.9989 160.473 25 160.5 25C160.5 25.5523 160.948 26 161.5 26C162.052 26 162.5 25.5523 162.5 25C162.5 24.4477 162.052 24 161.5 24C161.5 23.4477 161.052 23 160.5 23C159.954 23 159.51 23.4379 159.5 23.9818C159.485 24.1869 159.467 24.4182 159.445 24.6724C159.309 24.281 158.938 24 158.5 24C157.948 24 157.5 24.4477 157.5 25C157.5 25.5523 157.948 26 158.5 26C158.872 26 159.196 25.797 159.369 25.4957C159.202 27.1875 158.914 29.5206 158.495 31.895C158.442 31.3921 158.017 31 157.5 31C156.948 31 156.5 31.4477 156.5 32C155.948 32 155.5 32.4477 155.5 33C155.5 33.5523 155.948 34 156.5 34C157.052 34 157.5 33.5523 157.5 33C157.892 33 158.231 32.775 158.395 32.4472C158.288 33.0231 158.174 33.5987 158.051 34.1655C157.893 34.0609 157.704 34 157.5 34C157.246 34 157.013 34.0951 156.837 34.2516C156.715 34.2609 156.596 34.3146 156.507 34.4116C155.845 35.1308 155.182 35.8035 154.512 36.4832L154.51 36.4856C154.312 36.6859 154.114 36.8871 153.915 37.09C153.898 37.0822 153.881 37.0748 153.863 37.0679C153.983 36.454 154.08 35.8397 154.174 35.2344L154.193 35.1139C154.306 34.3919 154.416 33.6836 154.559 32.9822C154.704 32.2776 154.919 31.6233 155.167 30.9433C155.271 30.98 155.383 31 155.5 31C156.052 31 156.5 30.5523 156.5 30C156.5 29.4477 156.052 29 155.5 29C156.052 29 156.5 28.5523 156.5 28C156.5 27.4477 156.052 27 155.5 27C154.948 27 154.5 27.4477 154.5 28C154.5 28.5523 154.948 29 155.5 29C154.992 29 154.573 29.3782 154.509 29.8682C154.493 29.8936 154.48 29.9208 154.469 29.9496L154.468 29.9525C154.127 30.8637 153.786 31.7709 153.58 32.7819C153.431 33.5071 153.318 34.2371 153.206 34.9536L153.186 35.0803C153.069 35.8292 152.953 36.5638 152.797 37.2888C152.614 37.4701 152.5 37.7218 152.5 38C152.5 38.098 152.514 38.1926 152.54 38.2821C152.156 39.5437 151.57 40.7186 150.81 41.8286L150.67 42.0329C149.998 43.0156 149.31 44.0201 148.514 44.8931C147.98 45.4787 147.406 45.9929 146.772 46.3914C148.593 43.2492 150.201 40.0635 151.411 36.5374C152.389 33.6862 153.106 30.6168 153.473 27.1691C154.707 24.4885 155.386 22.3379 155.731 20.6389C155.914 20.8595 156.191 21 156.5 21C157.052 21 157.5 20.5523 157.5 20C157.5 19.4477 157.052 19 156.5 19C156.303 19 156.12 19.0568 155.965 19.1549C156.018 18.6681 156.04 18.2314 156.04 17.8417C156.317 17.6638 156.5 17.3533 156.5 17C156.5 17.5523 156.948 18 157.5 18C158.052 18 158.5 17.5523 158.5 17C158.5 16.4477 158.052 16 157.5 16C156.948 16 156.5 16.4477 156.5 17C156.5 16.4477 156.052 16 155.5 16C154.948 16 154.5 16.4477 154.5 17C154.5 17.3864 154.719 17.7217 155.04 17.8882C155.034 19.2074 154.747 21.1953 153.703 24.0197C153.793 21.8394 153.751 19.51 153.558 16.9984C154.083 16.9684 154.5 16.5329 154.5 16C154.5 15.4477 154.052 15 153.5 15C153.458 15 153.417 15.0025 153.377 15.0075C153.301 14.2832 153.214 13.5441 153.114 12.7897C153.349 12.6067 153.5 12.321 153.5 12C153.5 11.4477 153.052 11 152.5 11C151.948 11 151.5 11.4477 151.5 12C151.5 12.4189 151.758 12.7777 152.123 12.9265C153.447 22.9132 152.563 30.0972 150.465 36.2128C150.089 37.3069 149.675 38.3674 149.227 39.4046L149.257 38.9509C149.317 38.051 149.375 37.1338 149.375 36.2085C149.375 34.805 149.339 33.391 149.293 31.9785C149.359 31.9926 149.429 32 149.5 32C150.052 32 150.5 31.5523 150.5 31C150.5 30.4477 150.052 30 149.5 30C149.405 30 149.313 30.0132 149.226 30.038C149.2 29.275 149.174 28.514 149.154 27.7569C149.366 27.5735 149.5 27.3024 149.5 27C149.5 26.5913 149.255 26.2399 148.904 26.0848C148.822 26.0297 148.723 25.9983 148.616 26.0002C148.602 26.0004 148.588 26.0013 148.574 26.0027C148.55 26.0009 148.525 26 148.5 26C147.948 26 147.5 26.4477 147.5 27C147.5 27.4322 147.774 27.8003 148.158 27.94C148.17 28.3897 148.185 28.838 148.199 29.2854C148.019 29.1088 147.772 29 147.5 29C146.948 29 146.5 29.4477 146.5 30C146.5 30.5523 146.948 31 147.5 31C147.797 31 148.064 30.8704 148.247 30.6647C148.268 31.2463 148.288 31.8271 148.306 32.4079C148.124 32.1605 147.831 32 147.5 32C146.948 32 146.5 32.4477 146.5 33C146.5 33.5523 146.948 34 147.5 34C147.851 34 148.16 33.8191 148.338 33.5454C148.361 34.4308 148.375 35.3175 148.375 36.2085C148.375 36.933 148.338 37.6563 148.291 38.3885C148.108 38.1522 147.822 38 147.5 38C146.948 38 146.5 38.4477 146.5 39C146.5 38.4477 146.052 38 145.5 38C144.948 38 144.5 38.4477 144.5 39C144.5 39.5523 144.948 40 145.5 40C146.052 40 146.5 39.5523 146.5 39C146.5 39.5523 146.948 40 147.5 40C147.775 40 148.024 39.889 148.205 39.7093C148.165 40.3404 148.132 40.9784 148.125 41.6194C148.125 41.6642 148.13 41.7076 148.141 41.7489C146.513 45.0489 144.564 48.1809 142.478 51.5008C142.387 47.303 142.019 37.1291 141.625 27.5594C141.806 26.4496 142.13 25.1125 142.512 23.7447C142.559 23.7375 142.607 23.7234 142.652 23.7018L142.724 23.6678C144.066 23.031 145.413 22.3919 146.629 21.4923C146.801 21.7955 147.127 22 147.5 22C148.052 22 148.5 21.5523 148.5 21C148.5 20.669 148.339 20.3755 148.091 20.1935C148.145 20.1362 148.197 20.078 148.25 20.0189C148.262 20.0052 148.273 19.991 148.283 19.9765C148.353 19.9919 148.426 20 148.5 20C149.052 20 149.5 19.5523 149.5 19C150.052 19 150.5 18.5523 150.5 18C150.5 17.4477 150.052 17 149.5 17C148.948 17 148.5 17.4477 148.5 18C147.948 18 147.5 18.4477 147.5 19C147.5 19.1078 147.517 19.2116 147.549 19.3089C147.532 19.3234 147.516 19.3392 147.501 19.3563C146.228 20.7946 144.642 21.639 142.877 22.487C143.383 20.7999 143.93 19.1877 144.345 18.046C144.591 17.3698 144.842 16.7136 145.095 16.053C145.3 15.5173 145.507 14.9782 145.712 14.4238C146.12 13.3231 146.312 12.1614 146.496 11.0567L146.496 11.0556C146.499 11.0371 146.502 11.0184 146.505 11C147.055 10.9972 147.5 10.5506 147.5 10C147.5 9.44771 147.052 9 146.5 9C145.948 9 145.5 9.44771 145.5 10C145.5 10.1476 145.532 10.2876 145.589 10.4137C145.56 10.5854 145.532 10.7558 145.503 10.925L145.503 10.9276C145.32 12.027 145.146 13.0739 144.774 14.0765C144.58 14.6014 144.375 15.1375 144.168 15.6767C143.91 16.353 143.649 17.0343 143.405 17.7042C142.92 19.038 142.259 21.001 141.688 22.9866C141.612 23.2482 141.539 23.5108 141.467 23.7729L141.424 22.7662C141.472 22.6892 141.5 22.5979 141.5 22.5001C141.5 20.7999 141.399 19.429 141.225 18.2929C141.182 17.3419 141.14 16.4271 141.098 15.5582C141.217 14.5068 141.352 13.6902 141.5 13.0252C141.514 13.5659 141.956 14 142.5 14C143.052 14 143.5 13.5523 143.5 13C143.5 12.4477 143.052 12 142.5 12C142.123 12 141.794 12.209 141.624 12.5175C141.735 12.0961 141.854 11.7409 141.978 11.4214C142.177 10.9081 142.394 10.4776 142.639 9.9922L142.641 9.98843C142.72 9.8319 142.801 9.67034 142.885 9.50008C142.974 9.49839 143.064 9.47273 143.145 9.42091C143.427 9.24031 143.697 9.0449 143.958 8.84052C144.114 8.94143 144.3 9 144.5 9C145.052 9 145.5 8.55229 145.5 8C145.5 7.84978 145.467 7.7073 145.408 7.57946C145.459 7.53178 145.51 7.48422 145.562 7.43685L145.565 7.43406C145.657 7.34877 145.748 7.2641 145.839 7.18039C145.932 7.09456 145.985 6.98153 145.997 6.86471C146.145 6.95073 146.317 7 146.5 7C147.052 7 147.5 6.55228 147.5 6C147.5 5.44772 147.052 5 146.5 5C145.948 5 145.5 5.44772 145.5 6C145.5 6.11012 145.518 6.21609 145.551 6.31518C145.413 6.30127 145.271 6.34397 145.161 6.44485C145.068 6.53112 144.975 6.61711 144.882 6.70262C144.774 6.80308 144.666 6.90288 144.559 7.00169C144.539 7.00057 144.52 7 144.5 7C144.246 7 144.014 7.09459 143.838 7.25046C143.993 6.82777 144.136 6.40331 144.269 5.97308C144.343 5.99068 144.42 6 144.5 6C145.052 6 145.5 5.55228 145.5 5C145.5 4.44772 145.052 4 144.5 4C145.052 4 145.5 3.55228 145.5 3C145.5 2.44772 145.052 2 144.5 2C143.948 2 143.5 2.44772 143.5 3C142.948 3 142.5 3.44772 142.5 4C142.5 4.55228 142.948 5 143.5 5C143.5 5.01157 143.5 5.0231 143.501 5.03457C143.231 6.01277 142.902 6.95332 142.51 7.90743C142.243 8.55724 141.99 9.05813 141.746 9.54138L141.742 9.54912C141.5 10.0282 141.263 10.4978 141.045 11.0599C140.993 11.1941 140.942 11.3331 140.893 11.4784C140.841 10.5043 140.792 9.65855 140.748 8.96908C141.18 8.85888 141.5 8.46679 141.5 8C141.5 7.4752 141.096 7.04483 140.582 7.00328C140.562 6.90071 140.546 6.89655 140.533 7.00055C140.522 7.00018 140.511 7 140.5 7C139.948 7 139.5 7.44772 139.5 8C139.5 8.55229 139.948 9 140.5 9C140.5 9 140.5 9 140.5 9L140.5 12.9171C140.387 13.4381 140.284 14.0365 140.19 14.7424C139.947 14.2292 139.687 13.7869 139.429 13.3734C139.327 13.2104 139.228 13.0546 139.13 12.9018C138.889 12.5229 138.659 12.1631 138.439 11.7605C138.226 11.3696 138.017 11.0014 137.818 10.6483C136.88 8.99166 136.132 7.66848 135.929 5.90349C136.267 5.74287 136.5 5.39868 136.5 5C136.5 4.44772 136.052 4 135.5 4ZM153.362 38.9906C152.949 40.1996 152.364 41.329 151.635 42.3938L151.487 42.6093C150.823 43.5803 150.098 44.6402 149.253 45.5672C148.34 46.5673 147.26 47.4434 145.914 47.9101C145.898 47.9154 145.883 47.92 145.867 47.9238C144.957 49.4383 144.004 50.9538 143.029 52.504C142.854 52.783 142.678 53.063 142.501 53.3444C142.504 54.1904 142.519 55.6256 142.543 57.5049C147.954 53.0074 151.291 49.1516 153.455 45.7919C155.791 42.1651 156.774 39.0949 157.518 36.3686C157.552 36.2445 157.585 36.1193 157.618 35.9931C157.579 35.9977 157.54 36 157.5 36C157.19 36 156.913 35.859 156.73 35.6377C156.229 36.1658 155.71 36.692 155.196 37.2143C154.962 37.4523 154.728 37.6895 154.497 37.9257C154.499 37.9502 154.5 37.975 154.5 38C154.5 38.5523 154.052 39 153.5 39C153.453 39 153.407 38.9968 153.362 38.9906Z" fill="#BEAC83"/>
<path d="M128.5 23C129.052 23 129.5 22.5523 129.5 22C129.5 21.4477 129.052 21 128.5 21C127.948 21 127.5 21.4477 127.5 22C127.5 22.5523 127.948 23 128.5 23Z" fill="#BEAC83"/>
<path d="M128.5 15C129.052 15 129.5 14.5523 129.5 14C129.5 13.4477 129.052 13 128.5 13C127.948 13 127.5 13.4477 127.5 14C127.5 14.5523 127.948 15 128.5 15Z" fill="#BEAC83"/>
<path d="M134.5 19C135.052 19 135.5 18.5523 135.5 18C135.5 17.4477 135.052 17 134.5 17C133.948 17 133.5 17.4477 133.5 18C133.5 18.5523 133.948 19 134.5 19Z" fill="#BEAC83"/>
<path d="M140.5 6C141.052 6 141.5 5.55228 141.5 5C141.5 4.44772 141.052 4 140.5 4C139.948 4 139.5 4.44772 139.5 5C139.5 5.55228 139.948 6 140.5 6Z" fill="#BEAC83"/>
<path d="M140.5 3C140.5 3.55228 140.052 4 139.5 4C138.948 4 138.5 3.55228 138.5 3C138.5 2.44772 138.948 2 139.5 2C140.052 2 140.5 2.44772 140.5 3Z" fill="#BEAC83"/>
<path d="M139.484 5.81889C139.584 6.36204 139.225 6.88346 138.682 6.98351C138.139 7.08356 137.617 6.72435 137.517 6.18121C137.417 5.63806 137.776 5.11665 138.319 5.0166C138.863 4.91655 139.384 5.27575 139.484 5.81889Z" fill="#BEAC83"/>
<path d="M137.5 3C137.5 3.55228 137.052 4 136.5 4C135.948 4 135.5 3.55228 135.5 3C135.5 2.44772 135.948 2 136.5 2C137.052 2 137.5 2.44772 137.5 3Z" fill="#BEAC83"/>
<path d="M134.5 13C134.5 13.5523 134.052 14 133.5 14C132.948 14 132.5 13.5523 132.5 13C132.5 12.4477 132.948 12 133.5 12C134.052 12 134.5 12.4477 134.5 13Z" fill="#BEAC83"/>
<path d="M133.5 11C133.5 11.5523 133.052 12 132.5 12C132.5 12.5523 132.052 13 131.5 13C130.948 13 130.5 12.5523 130.5 12C130.5 11.4477 130.948 11 131.5 11C131.5 10.4477 131.948 10 132.5 10C133.052 10 133.5 10.4477 133.5 11Z" fill="#BEAC83"/>
<path d="M133.5 9C133.5 9.55229 133.052 10 132.5 10C131.948 10 131.5 9.55229 131.5 9C131.5 8.44771 131.948 8 132.5 8C133.052 8 133.5 8.44771 133.5 9Z" fill="#BEAC83"/>
<path d="M146.5 19C147.052 19 147.5 18.5523 147.5 18C147.5 17.4477 147.052 17 146.5 17C145.948 17 145.5 17.4477 145.5 18C145.5 18.5523 145.948 19 146.5 19Z" fill="#BEAC83"/>
<path d="M156.5 15C157.052 15 157.5 14.5523 157.5 14C157.5 13.4477 157.052 13 156.5 13C155.948 13 155.5 13.4477 155.5 14C155.5 14.5523 155.948 15 156.5 15Z" fill="#BEAC83"/>
<path d="M163.5 35C164.052 35 164.5 34.5523 164.5 34C165.052 34 165.5 33.5523 165.5 33C165.5 32.4477 165.052 32 164.5 32C163.948 32 163.5 32.4477 163.5 33C162.948 33 162.5 33.4477 162.5 34C162.5 34.5523 162.948 35 163.5 35Z" fill="#BEAC83"/>
<path d="M164.5 30C165.052 30 165.5 29.5523 165.5 29C165.5 28.4477 165.052 28 164.5 28C163.948 28 163.5 28.4477 163.5 29C163.5 29.5523 163.948 30 164.5 30Z" fill="#BEAC83"/>
<path d="M164.5 55C164.5 55.5523 164.052 56 163.5 56C162.948 56 162.5 55.5523 162.5 55C162.5 54.4477 162.948 54 163.5 54C164.052 54 164.5 54.4477 164.5 55Z" fill="#BEAC83"/>
<path d="M164.5 58C165.052 58 165.5 57.5523 165.5 57C165.5 56.4477 165.052 56 164.5 56C163.948 56 163.5 56.4477 163.5 57C163.5 57.5523 163.948 58 164.5 58Z" fill="#BEAC83"/>
<path d="M154.5 65C155.052 65 155.5 64.5523 155.5 64C155.5 63.4477 155.052 63 154.5 63C153.948 63 153.5 63.4477 153.5 64C153.5 64.5523 153.948 65 154.5 65Z" fill="#BEAC83"/>
<path d="M153.5 70C153.5 70.5523 153.948 71 154.5 71C154.5 71.5523 154.948 72 155.5 72C156.052 72 156.5 71.5523 156.5 71C157.052 71 157.5 70.5523 157.5 70C157.5 69.4477 157.052 69 156.5 69C155.948 69 155.5 69.4477 155.5 70C155.5 69.4477 155.052 69 154.5 69C153.948 69 153.5 69.4477 153.5 70Z" fill="#BEAC83"/>
<path d="M155.5 68C156.052 68 156.5 67.5523 156.5 67C156.5 66.4477 156.052 66 155.5 66C154.948 66 154.5 66.4477 154.5 67C154.5 67.5523 154.948 68 155.5 68Z" fill="#BEAC83"/>
<path d="M158.5 68C159.052 68 159.5 67.5523 159.5 67C159.5 66.4477 159.052 66 158.5 66C157.948 66 157.5 66.4477 157.5 67C157.5 67.5523 157.948 68 158.5 68Z" fill="#BEAC83"/>
<path d="M131.5 66C132.052 66 132.5 65.5523 132.5 65C132.5 64.4477 132.052 64 131.5 64C130.948 64 130.5 64.4477 130.5 65C130.5 65.5523 130.948 66 131.5 66Z" fill="#BEAC83"/>
<path d="M132.5 69C133.052 69 133.5 68.5523 133.5 68C133.5 67.4477 133.052 67 132.5 67C131.948 67 131.5 67.4477 131.5 68C131.5 68.5523 131.948 69 132.5 69Z" fill="#BEAC83"/>
<path d="M133.5 72C134.052 72 134.5 71.5523 134.5 71C134.5 70.4477 134.052 70 133.5 70C132.948 70 132.5 70.4477 132.5 71C132.5 71.5523 132.948 72 133.5 72Z" fill="#BEAC83"/>
<path d="M156.5 74C157.052 74 157.5 73.5523 157.5 73C157.5 72.4477 157.052 72 156.5 72C155.948 72 155.5 72.4477 155.5 73C155.5 73.5523 155.948 74 156.5 74Z" fill="#BEAC83"/>
<path d="M164.5 37C165.052 37 165.5 36.5523 165.5 36C165.5 35.4477 165.052 35 164.5 35C163.948 35 163.5 35.4477 163.5 36C163.5 36.5523 163.948 37 164.5 37Z" fill="#BEAC83"/>
<path d="M122.5 29C123.052 29 123.5 28.5523 123.5 28C123.5 27.4477 123.052 27 122.5 27C121.948 27 121.5 27.4477 121.5 28C121.5 28.5523 121.948 29 122.5 29Z" fill="#BEAC83"/>
<path d="M119.5 50C120.052 50 120.5 49.5523 120.5 49C120.5 48.4477 120.052 48 119.5 48C118.948 48 118.5 48.4477 118.5 49C118.5 49.5523 118.948 50 119.5 50Z" fill="#BEAC83"/>
<path d="M126.5 61C127.052 61 127.5 60.5523 127.5 60C127.5 59.4477 127.052 59 126.5 59C125.948 59 125.5 59.4477 125.5 60C125.5 60.5523 125.948 61 126.5 61Z" fill="#BEAC83"/>
<path d="M147.5 42C147.5 42.5523 147.052 43 146.5 43C145.948 43 145.5 42.5523 145.5 42C145.5 41.4477 145.948 41 146.5 41C147.052 41 147.5 41.4477 147.5 42Z" fill="#BEAC83"/>
<path d="M136.5 43C137.052 43 137.5 42.5523 137.5 42C137.5 41.4477 137.052 41 136.5 41C135.948 41 135.5 41.4477 135.5 42C135.5 42.5523 135.948 43 136.5 43Z" fill="#BEAC83"/>
<path d="M133.5 37C134.052 37 134.5 36.5523 134.5 36C134.5 35.4477 134.052 35 133.5 35C132.948 35 132.5 35.4477 132.5 36C132.5 36.5523 132.948 37 133.5 37Z" fill="#BEAC83"/>
<path d="M118.5 48C119.052 48 119.5 47.5523 119.5 47C119.5 46.4477 119.052 46 118.5 46C117.948 46 117.5 46.4477 117.5 47C117.5 47.5523 117.948 48 118.5 48Z" fill="#BEAC83"/>
<path d="M161.5 44C162.052 44 162.5 43.5523 162.5 43C162.5 42.4477 162.052 42 161.5 42C160.948 42 160.5 42.4477 160.5 43C160.5 43.5523 160.948 44 161.5 44Z" fill="#BEAC83"/>
<path d="M156.5 47C157.052 47 157.5 46.5523 157.5 46C157.5 45.4477 157.052 45 156.5 45C155.948 45 155.5 45.4477 155.5 46C155.5 46.5523 155.948 47 156.5 47Z" fill="#BEAC83"/>
<path d="M133.5 21C134.052 21 134.5 20.5523 134.5 20C134.5 19.4477 134.052 19 133.5 19C132.948 19 132.5 19.4477 132.5 20C132.5 20.5523 132.948 21 133.5 21Z" fill="#BEAC83"/>
<path d="M145.5 30C145.5 30.5523 145.052 31 144.5 31C143.948 31 143.5 30.5523 143.5 30C143.5 29.4477 143.948 29 144.5 29C145.052 29 145.5 29.4477 145.5 30Z" fill="#BEAC83"/>
<path d="M146.5 32C146.5 32.5523 146.052 33 145.5 33C144.948 33 144.5 32.5523 144.5 32C144.5 31.4477 144.948 31 145.5 31C146.052 31 146.5 31.4477 146.5 32Z" fill="#BEAC83"/>
<path d="M122.5 35C123.052 35 123.5 34.5523 123.5 34C123.5 33.4477 123.052 33 122.5 33C121.948 33 121.5 33.4477 121.5 34C121.5 34.5523 121.948 35 122.5 35Z" fill="#BEAC83"/>
<path d="M128.5 39C128.5 39.5523 128.052 40 127.5 40C126.948 40 126.5 39.5523 126.5 39C126.5 38.4477 126.948 38 127.5 38C128.052 38 128.5 38.4477 128.5 39Z" fill="#BEAC83"/>
<path d="M120.5 38C120.5 38.5523 120.052 39 119.5 39C118.948 39 118.5 38.5523 118.5 38C118.5 37.4477 118.948 37 119.5 37C120.052 37 120.5 37.4477 120.5 38Z" fill="#BEAC83"/>
<path d="M121.5 46C121.5 46.5523 121.052 47 120.5 47C119.948 47 119.5 46.5523 119.5 46C119.5 45.4477 119.948 45 120.5 45C121.052 45 121.5 45.4477 121.5 46Z" fill="#BEAC83"/>
<path d="M161.5 22C162.052 22 162.5 21.5523 162.5 21C162.5 20.4477 162.052 20 161.5 20C160.948 20 160.5 20.4477 160.5 21C160.5 21.5523 160.948 22 161.5 22Z" fill="#BEAC83"/>
<path d="M149.5 16C150.052 16 150.5 15.5523 150.5 15C150.5 14.4477 150.052 14 149.5 14C148.948 14 148.5 14.4477 148.5 15C148.5 15.5523 148.948 16 149.5 16Z" fill="#BEAC83"/>
<path d="M83.9406 99.4719C83.59 96.0273 83.5 89.0294 83.5 86.5C82.6667 85.6667 81 85.0001 81 85.0001C81 85.0001 81 83.5001 82 83.0001C82.4862 82.757 83.1816 82.5016 83.7273 82.3012C84.0795 82.1718 84.3692 82.0654 84.5 82C84.5 78.6745 86 73 86 73C86 73 87 74.8 87 76C87 77.2 86.5 80.6667 86 82.5001C86.4798 81.6845 86.9982 80.7086 87.5219 79.7229C88.8176 77.2842 90.1454 74.7849 91 74.5C92.2 74.1 93.3333 73.8333 94 74L87 84.5C89.7471 90.4863 91.0822 94.65 91.0506 100.64C96.6724 101.771 102.299 103.351 106.822 104.937L38 105C39.8333 103.5 44.7 100.7 49.5 101.5C52.7527 102.042 57.9157 101.262 63.3957 100.433C66.7751 99.9226 70.2751 99.3936 73.522 99.1452C73.7273 95.2918 75.3194 93.9838 76.1599 93.2933C76.296 93.1815 76.4124 93.0859 76.5 92.9983C76 90.5 75 86 75 86L76 84C76 84 77.8333 88.8333 78 92C78.5 89.8333 78.5 83.5 78.5 83.5C78.5 83.5 79.9058 83.8928 80 84.5C80.3688 86.8762 80.062 91.4054 79 92.9983C79.2674 95.0613 79.1332 96.4666 79.023 97.6208C78.9742 98.1322 78.93 98.5944 78.9276 99.0426C80.5256 99.1107 82.2086 99.2587 83.9406 99.4719Z" fill="#BEAC83"/>
</svg>
