<svg id="1" width="60" height="40" viewBox="0 0 60 40" fill="none" xmlns="http://www.w3.org/2000/svg"><rect opacity=".3" x=".5" y=".5" width="59" height="39" rx="3.5" stroke="#beac83"/><g opacity=".8"><path d="M24.8461 13.2469 18.6929 26.7892H14.6785L11.6497 15.9806C11.4648 15.3143 11.306 15.0714 10.7468 14.7904 9.83293 14.3328 8.32725 13.9032 7 13.6383L7.08921 13.2449H13.5514C14.3739 13.2449 15.1158 13.7507 15.303 14.6258L16.9022 22.4618 20.8557 13.2449H24.8461V13.2469zM40.5752 22.3675C40.5926 18.7947 35.2183 18.596 35.2553 17.0003 35.2661 16.5146 35.7688 15.9987 36.8654 15.8662 37.4093 15.8 38.9085 15.7498 40.61 16.4724L41.2779 13.6001C40.3641 13.2931 39.1892 13 37.7248 13 33.9715 13 31.3301 14.8406 31.3083 17.476 31.2822 19.427 33.1948 20.5128 34.633 21.1611 36.1125 21.8255 36.6086 22.251 36.6021 22.8432 36.5912 23.7524 35.4228 24.1538 34.3284 24.1679 32.4202 24.196 31.3105 23.6922 30.4271 23.3128L29.7395 26.2814C30.6251 26.6568 32.2635 26.9839 33.9628 27 37.9533 27.002 40.5621 25.1835 40.5752 22.3675zM50.4882 26.7892H54L50.9343 13.2469H47.6923C46.9634 13.2469 46.3476 13.6383 46.0756 14.2404L40.3772 26.7892H44.3633L45.1553 24.766H50.0269L50.4882 26.7892zM46.2497 21.9921 48.2493 16.908 49.4003 21.9921H46.2497zM30.2726 13.2469 27.1329 26.7892H23.3339L26.4758 13.2469H30.2726z" fill="#beac83"/></g></svg>